<svg width="792" height="865" version="1.1" xmlns="http://www.w3.org/2000/svg" desc="Created with imagetracer.js version 1.2.5"><path d="M 81.5 38 L 86 38.5 L 81 41.5 Q 79.1 47.8 84 46 Q 85.1 43.3 82.5 44 L 82.5 43 L 86 43 L 86 48 Q 80.6 49.5 79 46.5 L 78 42.5 L 79 39 L 81.5 38 Z "></path><path d="M 92 38 Q 96.1 36.7 95 40 Q 90.9 41.3 92 38 Z "></path><path d="M 97.5 38 L 100.5 39 L 107 38 Q 108.3 41.3 103.5 40 L 104 41.5 L 103 48 L 101 48 L 101 43 L 98 43 L 98 48 L 96 48 L 95.5 42 L 95 48 Q 89.8 49.8 92 42.5 L 89 44.5 Q 90.3 49.3 87 48 L 87 41 L 95.5 41 L 96 39.5 L 97.5 38 Z M 99 40 L 99 41 L 101 41 L 99 40 Z "></path><path d="M 114 38 Q 117.3 36.9 116 41 L 120 41 L 120 48 L 118 48 L 118 43 L 116 43 L 116 48 L 114 48 L 114 38 Z "></path><path d="M 131 38 L 134 39.5 L 135.5 43 L 138 38 L 141 39.5 L 141 48 L 138 48 L 137.5 44 L 135.5 46 L 133 44.5 Q 134.3 49.3 131 48 L 131 38 Z "></path><path d="M 155 38 Q 159.1 36.7 158 40 Q 153.9 41.3 155 38 Z "></path><path d="M 170.5 38 Q 176.3 36.3 175 40 Q 169.8 38.3 171 42 L 175 43 Q 176 46.8 173.5 48 L 168 47.5 L 173 45.5 L 169 42.5 L 168 40.5 L 170.5 38 Z "></path><path d="M 109 39 L 111 39 Q 109.9 41.7 112.5 41 L 111 43.5 L 113 47.5 L 109 48 L 108 41.5 L 109 39 Z "></path><path d="M 177.5 39 L 178 41 Q 181 40 180 43 Q 177 41.8 178 45.5 L 179.5 48 L 176 46.5 L 175 41.5 L 177.5 39 Z "></path><path d="M 105 41 L 107 41.5 L 107 48 L 105 47.5 L 105 41 Z "></path><path d="M 121 41 L 126 41 L 126 43 L 124 43.5 L 126 44 Q 128.1 50.4 121 48 Q 119.8 45 123.5 46 L 123.5 45 L 121 43.5 L 121 41 Z "></path><path d="M 142 41 L 144 41 L 144 46 L 146 46 L 146 41 L 148 41 L 148 48 L 142 48 L 142 41 Z "></path><path d="M 149 41 L 154 41 L 154 43 L 152 43.5 L 154 44 Q 156.1 50.4 149 48 Q 147.8 45 151.5 46 L 151.5 45 L 149 43.5 L 149 41 Z "></path><path d="M 155 41 L 158 41 L 158 48 L 155 48 L 155 41 Z "></path><path d="M 160.5 41 Q 165.3 39.7 164 43 Q 159.5 41.5 161 46 Q 165.1 44.7 164 48 Q 160.2 49 159 46.5 Q 158 42 160.5 41 Z "></path><path d="M 182.5 41 Q 186.3 40.3 187 42.5 L 187.5 44 L 188 41 L 193.5 42 L 199 41 Q 201.2 46.6 195.5 45 L 195.5 46 Q 200.3 44.7 199 48 Q 194.4 49.3 193 46.5 L 192.5 42 Q 189 43.3 190 48 Q 187 49.3 188 45.5 L 187 45.5 L 185.5 48 Q 181.8 48.8 181 46.5 Q 180 42 182.5 41 Z M 183 43 Q 182 47 185 46 Q 186 42 183 43 Z "></path><path d="M 80.5 58 Q 86.3 56.3 85 60 L 81 60.5 L 85 63.5 Q 85.8 67.3 83.5 68 L 79 67.5 L 83 66 L 81.5 63 Q 77.3 64.3 79 59.5 L 80.5 58 Z "></path><path d="M 87 58 L 93 58 L 93 60.5 L 90 68 L 87 67.5 L 90 60 Q 85.9 61.3 87 58 Z "></path><path d="M 99.5 58 Q 104 57 105 59.5 L 104 62.5 L 106 63.5 L 107.5 61 Q 114.3 59 112 65 L 108 65.5 L 112 66 Q 113.3 69.7 107.5 68 Q 105.5 64 103.5 68 L 98 68 L 98 59.5 L 99.5 58 Z M 101 60 Q 100 63 103 62 Q 104 59 101 60 Z M 101 64 L 101 67 L 103 66 Q 104 63 101 64 Z "></path><path d="M 127 58 Q 130.3 56.9 129 61 L 133 61 L 133 68 L 131 68 L 131 63 L 129 63 L 129 68 L 127 68 L 127 58 Z "></path><path d="M 138 58 Q 142.6 56.8 144 59.5 L 143 64.5 L 145 67.5 L 142 68 L 140.5 64 L 140 68 L 138 67.5 L 138 58 Z M 140 60 L 140 63 L 142 62 Q 143 59 140 60 Z "></path><path d="M 150 58 L 152 58.5 L 152 68 Q 147.4 69.3 146 66.5 Q 145 62 147.5 61 Q 151.7 62.1 150 58 Z M 148 63 Q 147 67 150 66 Q 151 62 148 63 Z "></path><path d="M 114 61 L 119 61 L 119 68 Q 114.4 69.3 113 66.5 L 114.5 64 L 117 63.5 L 114 63 L 114 61 Z "></path><path d="M 121 61 L 126 61.5 L 123 63 Q 121.5 66.7 124.5 66 L 125.5 68 Q 120.1 69.9 121 66.5 L 120 63.5 L 121 61 Z "></path><path d="M 154 66 Q 157 65 156 68 Q 153 69 154 66 Z "></path><path d="M 81.5 78 L 83 78.5 L 83 85.5 Q 85.8 84.9 85 88 L 79 87.5 Q 82.2 86 81 81 L 79 80.5 L 81.5 78 Z "></path><path d="M 87 78 Q 91.6 76.8 93 79.5 L 91 86 Q 94 85 93 88 L 87.5 88 L 87 86.5 L 91 80 Q 85.8 81.7 87 78 Z "></path><path d="M 96.5 78 Q 100.3 77.3 101 79.5 L 100 82.5 L 101 86.5 Q 100.3 88.8 96.5 88 L 95 84.5 L 96 82.5 L 95 79.5 L 96.5 78 Z M 97 80 Q 96 83 99 82 Q 100 79 97 80 Z M 97 84 Q 96 87 99 86 Q 100 83 97 84 Z "></path><path d="M 106 78 Q 109.7 76.7 108 82.5 Q 112 84.5 108 86.5 Q 108.7 89.1 106 88 Q 107.3 85 103.5 86 Q 100.8 84.8 103 83.5 L 106 78 Z "></path><path d="M 112.5 78 Q 118.3 76.3 117 80 L 113 80.5 L 117 83.5 Q 117.8 87.3 115.5 88 L 111 87.5 L 115 86 L 113.5 83 Q 109.3 84.3 111 79.5 L 112.5 78 Z "></path><path d="M 122 78 L 124 78.5 L 124 86 L 128.5 86 L 133 83.5 L 129 81.5 L 135 81 L 135 88 L 122 88 L 122 78 Z "></path><path d="M 136 78 Q 139.7 76.7 138 82.5 L 139 82.5 Q 138.2 79.9 141.5 81 L 141 82.5 L 140 84.5 L 142 88 L 138.5 86 L 138 88 L 136 87.5 L 136 78 Z "></path><path d="M 156.5 78 L 161 78.5 L 156 81.5 Q 154.1 87.8 159 86 Q 160.1 83.3 157.5 84 L 157.5 83 L 161.5 84 L 163.5 81 Q 167.3 80.3 168 82.5 Q 169.3 86.7 164.5 85 L 164.5 86 L 168 87.5 L 163.5 88 L 161.5 85 L 161 88 Q 155.6 89.5 154 86.5 L 153 82.5 L 154 79 L 156.5 78 Z "></path><path d="M 200 78 Q 202.7 76.9 202 79.5 L 205 81.5 Q 203.5 77.1 206.5 78 L 208.5 78 Q 211.8 76.9 211 79.5 Q 212.5 82.5 214 79.5 Q 213.2 76.9 216.5 78 L 216 79.5 Q 213.2 82.5 214 88 Q 209.1 89.8 211 83.5 L 208.5 79 L 208 88 Q 204.3 89.5 205 86.5 L 202.5 83 L 202 88 L 200 87.5 L 200 78 Z "></path><path d="M 144.5 81 Q 148.3 80.3 149 82.5 Q 150.3 86.7 145.5 85 L 145.5 86 L 149 87.5 L 144.5 88 Q 142 87 143 82.5 L 144.5 81 Z "></path><path d="M 170.5 81 Q 175.9 79.1 175 82.5 L 176 85.5 L 175 88 Q 170.4 89.3 169 86.5 Q 168 82 170.5 81 Z M 171 83 Q 170 88 174 86 Q 176 82 171 83 Z "></path><path d="M 177 81 L 181 81 L 181 82.5 L 182 82.5 L 182.5 81 L 188 81 L 188 89.5 L 186.5 91 Q 180.7 92.7 182 89 L 186 88.5 L 182 88 L 181 83 L 179 83 L 179 88 L 177 88 L 177 81 Z M 184 83 Q 183 87 186 86 Q 187 82 184 83 Z "></path><path d="M 190.5 81 Q 197.3 79 195 85 L 191 85.5 L 195 86 Q 196.3 89.7 190.5 88 Q 188 87 189 82.5 L 190.5 81 Z "></path><path d="M 79 98 L 81 98.5 L 81 106 L 84 106 L 84 98.5 L 86 98 L 86 106.5 L 84.5 108 Q 80 109 79 106.5 L 79 98 Z "></path><path d="M 89.5 98 Q 95.3 96.3 94 100 Q 88.8 98.3 90 102 L 94 103 L 94.5 107 L 98.5 98 Q 101.1 97.2 100 100.5 L 103 107.5 L 100 108 Q 101.1 104.7 97 106 Q 98.3 109 94.5 108 L 92.5 108 L 87 107.5 L 92 105.5 L 88 102.5 L 87 100.5 L 89.5 98 Z "></path><path d="M 78 138 L 85.5 138 L 86 140 L 83 140 L 83 147.5 L 81 148 L 81 140.5 L 78 140 L 78 138 Z "></path><path d="M 94 138 L 96 138.5 L 96 145.5 Q 97.2 148.3 98.5 146 Q 101.1 145.3 100 148 L 94 148 L 94 138 Z "></path><path d="M 118.5 138 L 121 138.5 L 121 145.5 L 122 148 L 117 148 L 117 146 L 119 146 L 119 141 L 116 140.5 L 118.5 138 Z "></path><path d="M 125 138 Q 128.8 137 130 139.5 Q 130.6 144.1 128 145.5 L 130 146 Q 131.4 150 124.5 148 L 125 146.5 L 128 142.5 L 128 140 Q 123.9 141.3 125 138 Z "></path><path d="M 134.5 138 L 137 138.5 L 137 145.5 L 138 148 L 133 148 L 133 146 L 135 146 L 135 141 L 132 140.5 L 134.5 138 Z "></path><path d="M 141 138 Q 144.8 137 146 139.5 Q 146.6 144.1 144 145.5 L 146 146 Q 147.4 150 140.5 148 L 141 146.5 L 144 142.5 L 144 140 Q 139.9 141.3 141 138 Z "></path><path d="M 150.5 138 L 152 138.5 L 152 145.5 Q 154.7 144.9 154 148 L 148 147.5 Q 151.3 146.1 150 141 L 148 140.5 L 150.5 138 Z "></path><path d="M 156 138 Q 160.6 136.8 162 139.5 L 160 146 Q 163 145 162 148 L 156.5 148 L 156 146.5 L 160 140 Q 154.8 141.7 156 138 Z "></path><path d="M 164 138 L 170 138.5 L 168 141.5 Q 170.8 142.3 170 146.5 Q 169 149 164.5 148 L 165.5 146 Q 169.3 147 168 144 L 165 142.5 L 166 140 Q 163 141 164 138 Z "></path><path d="M 174.5 138 L 176 138.5 L 176 145.5 Q 178.8 144.9 178 148 L 172 147.5 Q 175.3 146.1 174 141 L 172 140.5 L 174.5 138 Z "></path><path d="M 180 138 Q 184.6 136.8 186 139.5 L 184 146 Q 187 145 186 148 L 180.5 148 L 180 146.5 L 184 140 Q 178.8 141.7 180 138 Z "></path><path d="M 188 138 L 193 138 L 193 139.5 L 192 141.5 L 194 145.5 L 193 148 L 188 148 L 188 146 Q 193.2 147.7 192 144 Q 187.9 145.7 189 141.5 L 189.5 140 Q 186.9 140.7 188 138 Z "></path><path d="M 199.5 138 L 201 138 L 201 143.5 L 202.5 144 L 201 146.5 Q 201.7 149.1 199 148 Q 200.2 144.3 195 146 L 195 143.5 L 199.5 138 Z "></path><path d="M 111 140 L 113 140 L 115 144 Q 112.3 142.9 113 145.5 L 111 146.5 Q 112.3 142.8 108.5 144 L 109.5 142 Q 112.1 142.7 111 140 Z "></path><path d="M 87 141 Q 91.6 139.8 93 142.5 Q 94.3 146.7 89.5 145 L 89.5 146 Q 93.3 145 92 148 L 87 148 L 87 146.5 L 86 143.5 L 87 141 Z "></path><path d="M 102 141 Q 105 140 104 143 Q 101 144 102 141 Z "></path><path d="M 102 146 Q 105 145 104 148 Q 101 149 102 146 Z "></path><path d="M 364 192 L 368 192.5 L 368 212 L 364 211.5 L 364 192 Z "></path><path d="M 415 192 Q 418.8 191 420 193.5 L 418.5 196 L 415 194.5 L 415 192 Z "></path><path d="M 378.5 197 L 383 198 L 384 200.5 L 384 212 L 380 212 L 380 202.5 L 376 201 Q 373.9 204.4 375 212 L 371 211.5 L 371 198 L 375.5 199 L 378.5 197 Z "></path><path d="M 405.5 197 Q 410.3 197.3 412 200.5 L 413 207.5 L 409.5 212 L 405.5 213 L 400 209.5 L 399 204.5 L 400 200.5 L 402.5 198 L 405.5 197 Z M 404 201 Q 402 207 406 209 L 409 208 L 408 203 L 408 201 L 404 201 Z "></path><path d="M 427.5 197 L 433 198 L 431.5 201 Q 426.1 199.1 427 202.5 L 426 206.5 L 427 209 Q 431.6 207.8 433 210.5 Q 433.8 213.1 430.5 212 L 427.5 213 L 423 209.5 L 422 202.5 L 425.5 198 L 427.5 197 Z "></path><path d="M 440.5 197 L 446 199.5 L 447 204.5 L 445.5 206 L 438 206 L 439.5 209 L 444.5 208 L 446 210.5 L 439.5 213 L 435 209.5 L 434 202.5 L 437.5 198 L 440.5 197 Z M 440 201 Q 437 203 440 204 L 443 203 Q 444 199 440 201 Z "></path><path d="M 385 198 L 390 198 L 390 200.5 L 392.5 205 L 395.5 198 Q 399.9 196.5 399 199.5 L 394 212 L 390 210.5 L 385 198 Z "></path><path d="M 415 198 L 419 198.5 L 419 212 L 415 211.5 L 415 198 Z "></path><path d="M 78 258 L 85.5 258 L 86 260 L 83 260 L 83 267.5 L 81 268 L 81 260.5 L 78 260 L 78 258 Z "></path><path d="M 591 258 L 593 258.5 L 593 268 L 591 267.5 L 591 258 Z "></path><path d="M 617 258 Q 620 257 619 260 Q 616 261 617 258 Z "></path><path d="M 662.5 258 Q 666.9 256.5 666 259.5 L 666 261.5 L 667 266.5 Q 666.3 268.8 662.5 268 L 661 264.5 L 662 262.5 L 661 259.5 L 662.5 258 Z M 664 259 L 662 261 L 665 262 Q 666 258 664 259 Z M 664 264 L 662 266 Q 661 268 665 267 Q 666 263 664 264 Z "></path><path d="M 639 259 L 641.5 260 L 643 259.5 L 644 261.5 L 642 267 Q 639.3 268.1 640 265.5 L 639 265.5 Q 639.7 268.1 637 267 L 638 262.5 L 637.5 261 Q 640.1 261.7 639 259 Z "></path><path d="M 87 261 Q 91.6 259.8 93 262.5 Q 94 267 91.5 268 Q 86.1 269.9 87 266.5 L 86 263.5 L 87 261 Z M 89 263 Q 88 267 91 266 Q 92 262 89 263 Z "></path><path d="M 595 261 L 603.5 261 L 604 262.5 L 606 263.5 Q 604.8 259.8 608.5 261 L 610.5 261 Q 614.3 260.3 615 262.5 L 616 264.5 L 613.5 268 Q 609.8 268.8 609 266.5 L 608.5 262 L 606 268 Q 603.3 269.1 604 266.5 L 601.5 262 L 601 268 L 599 268 L 599 263 L 597 263 L 597 268 L 595 268 L 595 261 Z M 611 263 Q 610 267 613 266 Q 614 262 611 263 Z "></path><path d="M 617 261 L 619 261.5 L 619 268 L 617 267.5 L 617 261 Z "></path><path d="M 621.5 261 Q 626.3 259.7 625 263 Q 620.5 261.5 622 266 Q 626.1 264.7 625 268 Q 621.2 269 620 266.5 Q 619 262 621.5 261 Z "></path><path d="M 627.5 261 Q 634.3 259 632 265 L 628 265.5 L 632 266 Q 633.4 269.7 627.5 268 Q 625 267 626 262.5 L 627.5 261 Z "></path><path d="M 80.5 278 L 85 278.5 L 80 280.5 L 85 284.5 L 83.5 288 L 79 287.5 L 83 287 Q 84.5 283.3 81.5 284 Q 78.5 283.5 79 279.5 L 80.5 278 Z "></path><path d="M 106.5 278 L 107 280.5 L 106 280.5 L 106.5 278 Z "></path><path d="M 120.5 278 L 125 278.5 L 120 280.5 Q 118.8 285.8 121.5 287 Q 125.7 288.1 124 284 L 122 283.5 L 126 283 Q 127 286.8 124.5 288 Q 120 289 119 286.5 L 118 281.5 L 120.5 278 Z "></path><path d="M 159 278 L 164 278.5 L 160 279 L 162.5 283 Q 164.8 282.3 164 284.5 L 164 286.5 Q 164.6 289.3 158.5 288 L 158.5 287 Q 164.8 288.9 163 284 L 159 283 L 158 280.5 L 159 278 Z "></path><path d="M 591 278 L 593 278.5 L 593 288 L 591 287.5 L 591 278 Z "></path><path d="M 625 278 L 632 279 L 633 284.5 L 630.5 288 L 625 288 L 625 278 Z M 627 280 L 627 286 Q 632 288 630 282 L 627 280 Z "></path><path d="M 662.5 278 Q 666.3 277.3 667 279.5 Q 668.7 286.3 665.5 288 Q 661.8 288.8 661 286.5 L 660 282.5 L 662.5 278 Z M 664 279 Q 661 280 662 286 L 665 287 L 666 285 L 665 281 Q 666 278 664 279 Z "></path><path d="M 668.5 278 L 674 278 L 674 280.5 L 671 288 L 669 287.5 L 673 279.5 L 668.5 279 L 668.5 278 Z "></path><path d="M 680.5 278 L 680 279.5 L 675.5 290 L 675 288.5 L 680.5 278 Z "></path><path d="M 682.5 278 Q 686.3 277.3 687 279.5 L 684 286.5 L 687 287.5 L 681.5 288 L 684 284.5 L 685 279 Q 681.7 279.8 682.5 278 Z "></path><path d="M 691.5 278 L 693 278 L 693 286.5 L 694.5 287 L 696 287.5 L 700.5 278 Q 705.8 276.8 707 279.5 L 704 286.5 L 707 287.5 L 701.5 288 L 704 284.5 L 705 279 Q 701.2 278 700 280.5 L 695.5 290 L 695 288 L 689 287.5 L 691 287 L 690.5 280 L 689 280.5 L 691.5 278 Z "></path><path d="M 710.5 278 Q 714.3 277.3 715 279.5 Q 716.8 286.3 713.5 288 Q 709.8 288.8 709 286.5 L 708 282.5 L 710.5 278 Z M 712 279 Q 709 280 710 286 L 713 287 L 714 285 L 713 281 Q 714 278 712 279 Z "></path><path d="M 719.5 278 L 720 287 L 722 287.5 L 717.5 288 L 717.5 287 Q 720.5 287.5 719 280.5 L 717 280.5 Q 716.3 278.3 718.5 279 L 719.5 278 Z "></path><path d="M 725 278 Q 728.8 277 730 279.5 L 729 283.5 L 730 286.5 Q 729.3 288.8 725.5 288 L 724 284.5 L 725 281.5 L 725 279.5 L 725 278 Z M 726 279 Q 725 283 728 282 Q 729 278 726 279 Z M 726 284 L 726 287 L 729 286 L 726 284 Z "></path><path d="M 87.5 279 L 88 281 L 90 281.5 L 88 282 L 88 287 L 89.5 287 L 89.5 288 L 87 288 L 87 282.5 L 87 280.5 L 87.5 279 Z "></path><path d="M 139.5 279 L 140 281 L 142 281.5 L 140 282 L 140 287 L 141.5 287 L 143 284 Q 148.2 285.7 147 282 L 143 281.5 L 148 281 L 148 288 L 143.5 288 L 141.5 288 L 138 286.5 L 137 281.5 L 139.5 279 Z M 144 285 L 144 287 L 147 286 L 144 285 Z "></path><path d="M 166.5 279 Q 170.8 280.8 168 282.5 Q 166.1 287.9 169.5 287 L 169.5 288 Q 163.4 289.8 166 282.5 L 166 280.5 L 166.5 279 Z "></path><path d="M 641 279 L 643 279 Q 641.9 281.7 644.5 281 L 643 283.5 L 645 287.5 L 641 288 L 640.5 283 L 640 288 L 634 288 L 634 284 L 637 283.5 L 634 283 Q 632.6 279.3 638.5 281 Q 639.8 283.2 641 280.5 L 641 279 Z "></path><path d="M 91.5 281 L 96 281 L 96 288 L 91 288 L 91 285.5 L 95 284 Q 96.3 280.7 91.5 282 L 91.5 281 Z M 94 285 L 92 287 L 95 287 Q 96 284 94 285 Z "></path><path d="M 98 281 L 104 281 L 104 287.5 L 103 287.5 Q 104 283 101.5 282 L 100 282.5 L 100 288 L 98 288 L 98 281 Z "></path><path d="M 109 281 L 113 281.5 L 110 282.5 L 113 284 Q 115.2 289.6 109.5 288 L 109.5 287 Q 113.3 288 112 285 L 109 283.5 L 109 281 Z "></path><path d="M 127.5 281 L 128 287 L 131 287 L 131 281 L 133 281 L 133 288 L 127 288 L 127.5 281 Z "></path><path d="M 135.5 281 L 136 287.5 L 135 287.5 L 135.5 281 Z "></path><path d="M 150 281 L 154 281.5 L 151 283.5 L 150.5 288 L 150 281 Z "></path><path d="M 171 281 L 176 281 L 176 282.5 L 177 285.5 L 176 288 L 171 288 L 171 286.5 L 170 283.5 L 171 281 Z M 172 282 L 172 287 L 175 287 L 175 282 L 172 282 Z "></path><path d="M 178 281 L 182 281.5 L 180 282 L 180 288 L 178 288 L 178 281 Z "></path><path d="M 184.5 281 Q 188.9 279.5 188 282.5 Q 190.3 283.8 187.5 285 L 184 285.5 L 188 287.5 L 184.5 288 Q 182 287 183 282.5 L 184.5 281 Z M 185 282 L 185 283 L 187 283 L 185 282 Z "></path><path d="M 595 281 L 600.5 282 L 605 281 Q 606.1 283.7 603.5 283 L 603.5 284 L 606 285.5 L 604.5 288 L 599.5 287 L 595 288 Q 593.9 285.3 596.5 286 L 596.5 285 L 595 285 L 595 281 Z M 600 282 L 598 284 L 601 287 L 603 286 L 602 285 L 600 282 Z "></path><path d="M 607 281 L 609 281 L 609 286 L 611 286 L 611 281 L 613 281 L 613 288 L 607 288 L 607 281 Z "></path><path d="M 615.5 281 Q 622.3 279 620 285 L 616 285.5 L 620 286 Q 621.4 289.7 615.5 288 Q 613 287 614 282.5 L 615.5 281 Z "></path><path d="M 646 281 Q 650.6 279.8 652 282.5 Q 653.3 286.7 648.5 285 L 648.5 286 Q 652.3 285 651 288 L 646 288 L 646 286.5 L 645 283.5 L 646 281 Z "></path><path d="M 81.5 298 L 83 298 L 83 306.5 L 84.5 307 L 84.5 308 L 79 307.5 L 81 307 L 80.5 300 L 79 300.5 L 81.5 298 Z "></path><path d="M 87 298 Q 91.7 297 93 300.5 Q 93.1 306.1 89.5 308 L 88 307.5 L 90.5 304 Q 86.1 305.5 87 302.5 L 86 300.5 L 87 298 Z M 88 299 Q 86 305 91 303 Q 93 297 88 299 Z "></path><path d="M 98 298 L 104 298.5 L 100 299 Q 98.3 303.1 102.5 302 L 102.5 303 Q 97.9 301.8 100 307 L 104 307.5 L 98 308 L 98 298 Z "></path><path d="M 119.5 298 L 120 301 Q 123.8 300 125 302.5 Q 127 309.4 123 308 L 123 302.5 L 121.5 302 Q 118.9 303.4 119.5 308 L 119.5 298 Z "></path><path d="M 160 298 L 165 298.5 L 161 299 L 163.5 303 Q 165.8 302.3 165 304.5 L 165 306.5 Q 165.6 309.3 159.5 308 L 159.5 307 Q 165.8 308.9 164 304 L 160 303 L 159 300.5 L 160 298 Z "></path><path d="M 167.5 299 Q 171.7 300.8 169 302.5 Q 167.1 307.9 170.5 307 L 170.5 308 Q 164.4 309.8 167 302.5 L 167 300.5 L 167.5 299 Z "></path><path d="M 105.5 301 L 108.5 303 L 111 301.5 L 109 304.5 L 111 307.5 L 108.5 306 L 106.5 308 L 105 307.5 L 107 303.5 L 105.5 301 Z "></path><path d="M 113 301 L 117 301.5 L 114 302 L 114 307 L 116.5 307 L 116.5 308 Q 112.8 308.8 112 306.5 L 113 301 Z "></path><path d="M 127.5 301 Q 131.3 300.3 132 302.5 L 132 308 L 126 308 L 127.5 304 Q 131.3 305 130 302 Q 126.7 302.8 127.5 301 Z M 128 305 Q 127 308 130 307 Q 131 304 128 305 Z "></path><path d="M 134 301 L 139 301 L 139 302.5 L 140 308 L 138 308 L 138 302 L 135 302 L 134.5 308 L 134 301 Z "></path><path d="M 142.5 301 L 147 301 L 147 309.5 Q 146.3 311.8 142.5 311 L 142.5 310 Q 146.3 311 145 308 L 141 306.5 Q 140 302 142.5 301 Z M 144 302 L 142 306 L 145 307 L 145 302 L 144 302 Z "></path><path d="M 150.5 301 Q 154.9 299.5 154 302.5 Q 156.3 303.8 153.5 305 L 150 305.5 L 154 307.5 L 150.5 308 Q 148 307 149 302.5 L 150.5 301 Z M 151 302 L 151 303 L 153 303 L 151 302 Z "></path><path d="M 81.5 318 L 83 318 L 83 326.5 L 84.5 327 L 84.5 328 L 79 327.5 L 81 327 L 80.5 320 L 79 320.5 L 81.5 318 Z "></path><path d="M 87.5 318 Q 91.3 317.3 92 319.5 Q 92.6 325.1 89 326.5 L 92 327.5 L 87 328 L 91 320.5 L 87.5 319 L 87.5 318 Z "></path><path d="M 95 318 Q 98.8 317 100 319.5 L 99 323.5 L 100 326.5 Q 99.3 328.8 95.5 328 L 94 324.5 L 95 321.5 L 95 319.5 L 95 318 Z M 96 319 Q 95 323 98 322 Q 99 318 96 319 Z M 96 324 L 96 327 L 99 326 L 96 324 Z "></path><path d="M 103.5 318 Q 107.3 317.3 108 319.5 Q 109.7 326.3 106.5 328 Q 102.8 328.8 102 326.5 L 101 322.5 L 103.5 318 Z M 105 319 Q 102 320 103 326 L 106 327 L 107 325 L 106 321 Q 107 318 105 319 Z "></path><path d="M 112.5 318 L 113 327 L 115 327.5 L 110.5 328 L 110.5 327 Q 113.5 327.5 112 320.5 L 110 320.5 Q 109.3 318.3 111.5 319 L 112.5 318 Z "></path><path d="M 123.5 318 L 127 318.5 L 122 321.5 L 123 327 Q 128.6 328.9 127 324 L 124 323.5 L 128 323 Q 130.8 330.5 122.5 328 Q 119.5 326.5 121 320.5 L 123.5 318 Z "></path><path d="M 130.5 318 L 131 327 L 133 327.5 L 130 328 L 130.5 318 Z "></path><path d="M 158 318 L 164 318.5 L 160 319 L 160 322 Q 164.1 320.7 163 324 L 160 324 Q 161.7 329.2 158 328 L 158 318 Z "></path><path d="M 172 318 L 174 318.5 L 174 326.5 L 174.5 328 L 172 326.5 L 172 318 Z "></path><path d="M 176 318 L 178 318.5 L 178 326.5 L 178.5 328 L 176 326.5 L 176 318 Z "></path><path d="M 190.5 318 L 195.5 324 L 196.5 318 L 197 327.5 L 195 326.5 L 191.5 322 L 190.5 328 L 190.5 318 Z "></path><path d="M 199.5 318 L 202.5 322 L 204 318 L 206 318.5 Q 202.5 321.5 202.5 328 L 199.5 318 Z "></path><path d="M 134 321 Q 141.1 318.6 139 325 Q 133.8 323.3 135 327 L 139 327.5 L 134 328 L 133 323.5 L 134 321 Z M 136 322 L 136 323 L 138 323 L 136 322 Z "></path><path d="M 141 321 L 146 321 L 146 322.5 L 147 328 L 145 328 L 145 322 L 142 322 L 141.5 328 L 141 321 Z "></path><path d="M 148 321 L 152 321.5 L 149 322.5 L 153 325.5 L 151.5 328 L 148 327.5 L 151 327 Q 152.1 324.3 149.5 325 L 148 321 Z "></path><path d="M 165.5 321 L 170 321 L 170 328 L 165 328 L 165 325.5 L 169 324 Q 170.3 320.7 165.5 322 L 165.5 321 Z M 168 325 L 166 327 L 169 327 Q 170 324 168 325 Z "></path><path d="M 180 321 L 184 321.5 L 181 322.5 L 185 325.5 L 183.5 328 L 180 327.5 L 183 327 Q 184.1 324.3 181.5 325 L 180 321 Z "></path><path d="M 79.5 338 L 81 339.5 L 81 347 L 85 345.5 L 85.5 338 L 86 346.5 Q 85 349 80.5 348 L 79 346.5 L 79.5 338 Z "></path><path d="M 89.5 338 L 94 338.5 L 90 339 Q 88.5 342.7 91.5 342 Q 94.5 342.5 94 346.5 Q 93 349 88.5 348 L 88.5 347 Q 92.3 347.8 93 345.5 L 88 341.5 L 89.5 338 Z "></path><path d="M 98.5 338 L 103 347.5 L 101 348 L 99.5 345 Q 96.2 343.9 97 346.5 L 95 347.5 L 98.5 338 Z M 99 342 Q 97 345 100 344 L 99 342 Z "></path><path d="M 78.5 358 L 86 358.5 L 83 359 L 83 367.5 L 81 368 L 81 359.5 L 78.5 359 L 78.5 358 Z "></path><path d="M 94.5 358 L 95 365.5 L 96.5 367 L 99 367.5 L 94 368 L 94.5 358 Z "></path><path d="M 118 358 L 120 358 L 120 364 L 123 364 L 126.5 358 Q 129.3 357.4 128 363.5 L 128 365.5 Q 129 369.3 126 368 L 126 365 L 120 365 Q 121.3 369.1 118 368 Q 119.8 363.5 114.5 365 L 111 364 L 110.5 367 L 110 364 L 107 363.5 L 110 363 L 110.5 360 L 111 363 L 114.5 364 L 118 358 Z M 118 362 L 116 364 L 118 364 L 118 362 Z M 126 362 L 124 364 L 126 364 L 126 362 Z "></path><path d="M 131.5 358 Q 135.3 357.3 136 359.5 L 133 366.5 L 136 367.5 L 130.5 368 L 133 364.5 L 134 359 Q 130.7 359.8 131.5 358 Z "></path><path d="M 138.5 358 L 143 358.5 L 141 361.5 Q 143.8 362.3 143 366.5 Q 142.3 368.8 138.5 368 L 138.5 367 Q 143.3 368.7 142 364.5 L 139 362.5 L 141 359.5 Q 137.7 359.6 138.5 358 Z "></path><path d="M 149.5 358 L 150 364 L 152 364.5 L 150 365 L 149.5 368 L 149 365 L 145 365 L 145 363.5 L 149.5 358 Z M 149 361 L 147 363 Q 146 365 149 364 L 149 361 Z "></path><path d="M 153.5 358 Q 160.3 355.8 158 362.5 L 155 366.5 L 159 367.5 L 153.5 368 L 155 365.5 L 157 359 Q 152.6 360 153.5 358 Z "></path><path d="M 161.5 358 L 166 358.5 L 164 361.5 Q 166.7 362.3 166 366.5 Q 165.3 368.8 161.5 368 L 161.5 367 Q 166.3 368.7 165 364.5 L 162 362.5 L 164 359.5 Q 160.7 359.6 161.5 358 Z "></path><path d="M 172.5 358 L 173 364 L 175 364.5 L 173 365 L 172.5 368 L 172 365 L 168 365 L 168 363.5 L 172.5 358 Z M 172 361 L 170 363 Q 169 365 172 364 L 172 361 Z "></path><path d="M 176.5 358 Q 181.9 356.1 181 359.5 Q 176.5 362 182 364.5 L 181 368 L 176 367.5 L 180 367 L 178.5 363 L 177 362.5 L 179 359 Q 175.7 359.8 176.5 358 Z "></path><path d="M 187.5 358 Q 190.3 357.4 189 363.5 L 189 365.5 Q 190 369.3 187 368 Q 188.8 363.5 183.5 365 L 184 363.5 L 187.5 358 Z M 187 362 L 185 364 L 187 364 L 187 362 Z "></path><path d="M 192 358 L 196 358.5 L 193 359 L 193 362 Q 196.8 360.5 196 363.5 L 197 365.5 L 196 368 L 191 367.5 L 195 367 Q 196.9 361.4 192 363 L 192 358 Z "></path><path d="M 199.5 358 Q 203.3 357.3 204 359.5 Q 204.6 365.1 201 366.5 L 204 367.5 L 199 368 L 203 360.5 L 199.5 359 L 199.5 358 Z "></path><path d="M 88.5 361 Q 92.9 359.5 92 362.5 Q 94.3 363.8 91.5 365 L 88 365.5 L 92 367.5 L 88.5 368 Q 86 367 87 362.5 L 88.5 361 Z M 89 362 L 89 363 L 91 363 L 89 362 Z "></path><path d="M 79 378 Q 84.5 376.8 86 380.5 Q 87.5 386.5 84.5 388 L 79 388 L 79 378 Z M 81 379 L 81 387 L 84 387 L 85 382 L 81 379 Z "></path><path d="M 102 378 L 104 378.5 L 102 379.5 L 102 378 Z "></path><path d="M 110.5 378 L 111 388 Q 106.4 389.3 105 386.5 L 106 381 Q 111.3 382.9 110.5 378 Z M 107 382 L 107 387 L 110 387 L 110 382 L 107 382 Z "></path><path d="M 119.5 378 L 123 378.5 L 118 381.5 L 119 387 Q 124.6 388.9 123 384 L 120 383.5 L 124 383 Q 126.8 390.5 118.5 388 Q 115.5 386.5 117 380.5 L 119.5 378 Z "></path><path d="M 142.5 378 L 143 388 Q 138.4 389.3 137 386.5 L 138 381 Q 143.3 382.9 142.5 378 Z M 139 382 L 139 387 L 142 387 L 142 382 L 139 382 Z "></path><path d="M 88.5 381 L 93 381 L 93 388 L 88 388 L 88 385.5 L 92 384 Q 93.3 380.7 88.5 382 L 88.5 381 Z M 91 385 L 89 387 L 92 387 Q 93 384 91 385 Z "></path><path d="M 94.5 381 L 97 382.5 L 97.5 385 L 99 381 Q 101.7 379.9 101 382.5 L 97.5 388 L 94.5 381 Z "></path><path d="M 102 381 L 104 381.5 L 104 388 L 102 387.5 L 102 381 Z "></path><path d="M 126 381 L 131 381 L 131 382.5 L 132 385.5 L 131 388 L 126 388 L 126 386.5 L 125 383.5 L 126 381 Z M 127 382 L 127 387 L 130 387 L 130 382 L 127 382 Z "></path><path d="M 133 381 L 137 381.5 L 134 383.5 L 133.5 388 L 133 381 Z "></path><path d="M 146.5 381 Q 150.3 380.3 151 382.5 Q 152 387 149.5 388 Q 145.8 388.8 145 386.5 Q 144 382 146.5 381 Z M 148 382 L 146 386 L 149 387 L 150 384 L 148 382 Z "></path><path d="M 153 381 L 158 381 L 158 382.5 L 159 388 L 157 388 L 157 382 L 154 382 L 153.5 388 L 153 381 Z "></path><path d="M 74 453 L 735.5 453 L 736 453.5 L 736 561 L 662 561 L 662 501.5 L 661.5 501 L 74.5 501 L 74 500.5 L 74 453 Z M 75 454 L 75 479 L 95 479 L 95 454 L 75 454 Z M 96 454 L 96 479 L 97 479 L 364 479 L 364 455 L 364 454 L 96 454 Z M 366 454 L 366 479 L 398 479 L 398 454 L 366 454 Z M 400 454 L 400 479 L 443 479 L 443 454 L 400 454 Z M 444 454 L 444 479 L 515 479 L 515 454 L 444 454 Z M 516 454 L 516 479 L 517 479 L 662 479 L 662 455 L 662 454 L 516 454 Z M 663 454 L 663 479 L 735 479 L 735 454 L 663 454 Z M 75 481 L 75 499 L 95 499 L 95 481 L 75 481 Z M 96 481 L 96 499 L 97 499 L 364 499 L 364 482 L 364 481 L 96 481 Z M 366 481 L 366 499 L 398 499 L 398 481 L 366 481 Z M 400 481 L 400 499 L 443 499 L 443 481 L 400 481 Z M 444 481 L 444 499 L 445 499 L 515 499 L 515 482 L 515 481 L 444 481 Z M 516 481 L 516 499 L 517 499 L 662 499 L 662 482 L 662 481 L 516 481 Z M 663 481 L 663 499 L 664 499 L 735 499 L 735 482 L 735 481 L 663 481 Z M 663 501 L 663 519 L 664 519 L 735 519 L 735 502 L 735 501 L 663 501 Z M 663 521 L 663 539 L 664 539 L 735 539 L 735 522 L 735 521 L 663 521 Z M 663 541 L 663 559 L 664 559 L 735 559 L 735 542 L 735 541 L 663 541 Z "></path><path d="M 177 461 L 179 461.5 L 179 471 L 177 470.5 L 177 461 Z "></path><path d="M 211.5 461 L 212 463.5 L 207.5 473 L 207 470.5 L 211.5 461 Z "></path><path d="M 217 461 Q 222.5 459.8 224 463.5 Q 225.3 469.8 221.5 471 L 217 471 L 217 461 Z M 218 462 L 218 470 L 221 470 L 223 467 L 222 464 L 218 462 Z "></path><path d="M 250 461 L 252 461.5 L 250 462.5 L 250 461 Z "></path><path d="M 266 461 L 268 461.5 L 266 462.5 L 266 461 Z "></path><path d="M 374.5 461 Q 379.3 460.3 380 463.5 Q 381.5 469.5 378.5 471 L 376 471.5 L 381 472 Q 382.1 474.7 379.5 474 L 374 472.5 L 375 471.5 L 372 468.5 Q 370.8 462.3 374.5 461 Z M 376 462 Q 373 463 374 469 L 378 470 L 379 465 L 376 462 Z "></path><path d="M 407.5 461 L 408 468.5 L 409.5 470 L 412 470 L 412 461.5 L 414 461 Q 415 467.9 413 471 Q 408.4 472.3 407 469.5 L 407.5 461 Z "></path><path d="M 423.5 461 Q 425.8 460.3 425 462.5 L 423.5 461 Z "></path><path d="M 451.5 461 L 453 462.5 L 453 470 L 457 468.5 L 457.5 461 L 458 469.5 Q 457 472 452.5 471 L 451 469.5 L 451.5 461 Z "></path><path d="M 480 461 Q 484.6 459.8 486 462.5 Q 486.8 466.3 484.5 467 L 482 467 Q 483.7 472.2 480 471 L 480 461 Z M 482 462 L 482 466 L 484 466 L 485 464 L 482 462 Z "></path><path d="M 563.5 461 L 570 461.5 L 567 462 L 566.5 471 L 566 462 Q 562.7 462.7 563.5 461 Z "></path><path d="M 590.5 461 Q 594.3 460.3 595 462.5 L 594 467.5 L 596 470.5 L 594 471 L 591.5 467 L 591 471 L 589 470.5 L 589 462.5 L 590.5 461 Z M 591 462 L 591 466 L 593 465 Q 595 466 594 464 L 591 462 Z "></path><path d="M 683.5 461 L 691 461.5 L 688 462 L 688 470.5 L 686 471 L 686 462.5 L 683.5 462 L 683.5 461 Z "></path><path d="M 711 461 L 713 461.5 L 713 469.5 L 713.5 471 L 711 469.5 L 711 461 Z "></path><path d="M 84.5 462 L 85.5 464 L 86.5 462 L 88 464.5 L 86 470 L 84 469.5 L 84.5 468 Q 82.3 467.3 83 469.5 L 82 469.5 L 81 467.5 L 84.5 462 Z "></path><path d="M 182.5 462 L 183 464 L 185 464.5 L 183 465 L 183 470 L 184.5 470 L 184.5 471 L 181 469.5 L 180 464.5 L 182.5 462 Z "></path><path d="M 262.5 462 L 263 464 L 265 464.5 L 263 465 L 263 470 L 264.5 470 L 264.5 471 L 261 469.5 L 260 464.5 L 262.5 462 Z "></path><path d="M 382.5 462 L 388 465.5 L 389.5 468 L 391.5 464 L 392 465.5 L 389 474 L 387 473.5 L 388 469.5 L 385.5 465 L 384 465 L 384 470 L 386 470.5 L 382 471 L 381 464.5 L 382.5 462 Z "></path><path d="M 427.5 462 Q 431.8 463.7 429 465.5 Q 427.1 470.9 430.5 470 L 430.5 471 Q 424.4 472.8 427 465.5 L 427 463.5 L 427.5 462 Z "></path><path d="M 472.5 462 L 473 464 L 475 464.5 L 473 465 L 473 470 L 474.5 470 L 474.5 471 L 472 471 L 472 465.5 L 472 463.5 L 472.5 462 Z "></path><path d="M 605.5 462 L 606 464 L 608 464.5 L 606 465 L 606 470 L 607.5 470 L 607.5 471 L 604 469.5 L 603 464.5 L 605.5 462 Z "></path><path d="M 700.5 462 L 701 464 L 703 464.5 L 701 465 L 701 470 L 702.5 470 L 702.5 471 L 700 471 L 700 465.5 L 700 463.5 L 700.5 462 Z "></path><path d="M 187.5 464 Q 191.9 462.5 191 465.5 Q 193.3 466.8 190.5 468 L 187 468.5 L 191 470.5 L 187.5 471 Q 185 470 186 465.5 L 187.5 464 Z M 188 465 L 188 466 L 190 466 L 188 465 Z "></path><path d="M 193 464 L 201.5 464 L 202 465.5 L 203 471 L 201 471 L 201 465.5 L 199.5 465 Q 196.9 466.4 197.5 471 L 197 465 L 194 466.5 L 193.5 471 L 193 464 Z "></path><path d="M 227.5 464 Q 231.9 462.5 231 465.5 Q 233.3 466.8 230.5 468 L 227 468.5 L 231 470.5 L 227.5 471 Q 225 470 226 465.5 L 227.5 464 Z M 228 465 L 228 466 L 230 466 L 228 465 Z "></path><path d="M 233 464 L 237 464.5 L 234 465.5 L 237 467 Q 239.2 472.6 233.5 471 L 233.5 470 Q 237.3 471 236 468 L 233 466.5 L 233 464 Z "></path><path d="M 240.5 464 L 244 464.5 L 240 465 Q 239 468.8 241.5 470 L 244 470.5 L 239 471 Q 237.5 465.6 240.5 464 Z "></path><path d="M 245 464 L 249 464.5 L 247 465 L 247 471 L 245 471 L 245 464 Z "></path><path d="M 250 464 L 252 464.5 L 252 471 L 250 470.5 L 250 464 Z "></path><path d="M 254 464 L 259 464 L 259 465.5 L 260 468.5 L 259 471 Q 253.8 468.9 255 473.5 L 254 473.5 L 254 464 Z M 255 465 L 255 470 L 258 470 L 258 465 L 255 465 Z "></path><path d="M 266 464 L 268 464.5 L 268 471 L 266 470.5 L 266 464 Z "></path><path d="M 270 464 L 275 464 L 275 465.5 L 276 468.5 L 275 471 L 270 471 L 270 469.5 L 269 466.5 L 270 464 Z M 271 465 L 271 470 L 274 470 L 274 465 L 271 465 Z "></path><path d="M 277 464 L 283 464 L 283 470.5 L 282 470.5 Q 283 466 280.5 465 L 279 465.5 L 279 471 L 277 471 L 277 464 Z "></path><path d="M 416 464 L 421 464 L 421 465.5 L 422 471 L 420 471 L 420 465 L 417 465 L 416.5 471 L 416 464 Z "></path><path d="M 423 464 L 425 464.5 L 425 471 L 423 470.5 L 423 464 Z "></path><path d="M 432 464 L 436 464.5 L 433 465.5 L 436 467 Q 438.2 472.6 432.5 471 L 432.5 470 Q 436.3 471 435 468 L 432 466.5 L 432 464 Z "></path><path d="M 460 464 L 466 464 L 466 470.5 L 465 470.5 Q 466 466 463.5 465 L 462 465.5 L 462 471 L 460 471 L 460 464 Z "></path><path d="M 468.5 464 L 469 470.5 L 468 470.5 L 468.5 464 Z "></path><path d="M 488 464 L 492 464.5 L 489 466.5 L 488.5 471 L 488 464 Z "></path><path d="M 493.5 464 L 494 470.5 L 493 470.5 L 493.5 464 Z "></path><path d="M 497.5 464 L 501 464.5 L 497 466.5 L 498.5 470 L 501 470.5 L 497.5 471 Q 495 470 496 465.5 L 497.5 464 Z "></path><path d="M 503 464 Q 510.1 461.6 508 468 Q 502.8 466.3 504 470 L 508 470.5 L 503 471 L 502 466.5 L 503 464 Z M 505 465 L 505 466 L 507 466 L 505 465 Z "></path><path d="M 571.5 464 L 576 464 L 576 471 L 571 471 L 571 468.5 L 575 467 Q 576.3 463.7 571.5 465 L 571.5 464 Z M 574 468 L 572 470 L 575 470 Q 576 467 574 468 Z "></path><path d="M 578.5 464 Q 580.8 463.3 580 465.5 L 582.5 464 L 584 464.5 L 582 467.5 L 584 470.5 L 582 471 Q 583 468 580 469 Q 581.1 471.7 578.5 471 L 579 469.5 L 580 467.5 L 578.5 464 Z "></path><path d="M 597.5 464 L 602 464 L 602 471 L 597 471 L 597 468.5 L 601 467 Q 602.3 463.7 597.5 465 L 597.5 464 Z M 600 468 L 598 470 L 601 470 Q 602 467 600 468 Z "></path><path d="M 610.5 464 Q 614.3 463.3 615 465.5 Q 616.4 470.1 610.5 468 L 611.5 470 L 614 470.5 L 610.5 471 Q 608 470 609 465.5 L 610.5 464 Z "></path><path d="M 693.5 464 Q 697.3 463.3 698 465.5 Q 699 470 696.5 471 Q 692.8 471.8 692 469.5 Q 691 465 693.5 464 Z M 693 465 L 693 469 L 696 470 L 696 465 L 693 465 Z "></path><path d="M 704.5 464 L 709 464 L 709 471 L 704 471 L 704 468.5 L 708 467 Q 709.3 463.7 704.5 465 L 704.5 464 Z M 707 468 L 705 470 L 708 470 Q 709 467 707 468 Z "></path><path d="M 466.5 483 L 469 484.5 L 468 488.5 L 470 492.5 L 466.5 495 L 464 493.5 L 466 493 L 464 485.5 L 466.5 483 Z M 468 490 L 467 493 L 468 493 L 468 490 Z "></path><path d="M 675.5 483 L 678 484.5 L 677 488.5 L 679 492.5 L 675.5 495 L 673 493.5 L 675 493 L 673 485.5 L 675.5 483 Z M 677 490 L 676 493 L 677 493 L 677 490 Z "></path><path d="M 84.5 484 L 86 484 L 86 492.5 L 87.5 493 L 87.5 494 L 82 493.5 L 84 493 L 83.5 486 L 82 486.5 L 84.5 484 Z "></path><path d="M 100 484 Q 104.6 482.8 106 485.5 L 105 488.5 L 107 491.5 Q 105.5 495.3 100 494 L 100 484 Z M 102 485 L 102 488 L 105 487 L 102 485 Z M 102 490 Q 101 495 105 493 Q 107 489 102 490 Z "></path><path d="M 132.5 484 L 137 484.5 L 132 486.5 Q 130.8 491.8 133.5 493 Q 137.7 494.1 136 490 L 134 489.5 L 138 489 Q 139 492.8 136.5 494 Q 132 495 131 492.5 L 130 487.5 L 132.5 484 Z "></path><path d="M 383.5 484 L 385 484 L 385 492.5 L 386.5 493 L 386.5 494 L 381 493.5 L 383 493 L 382.5 486 L 381 486.5 L 383.5 484 Z "></path><path d="M 390.5 484 Q 394.5 483.5 395 486.5 Q 395.6 491.9 394 494 L 389 494 L 389 492.5 Q 386.8 491.3 388 486.5 L 390.5 484 Z M 390 485 L 390 493 L 393 493 L 393 485 L 390 485 Z "></path><path d="M 473.5 484 L 477 485.5 L 476 488.5 L 477 494 L 472 494 L 472 492.5 L 472 490.5 L 473 488.5 L 472 485.5 L 473.5 484 Z M 473 485 L 473 487 Q 475 490 476 487 Q 477 484 473 485 Z M 473 490 Q 472 495 476 493 Q 478 489 473 490 Z "></path><path d="M 480.5 484 Q 484.3 483.3 485 485.5 L 485.5 488 L 488.5 484 Q 492.5 483.5 493 486.5 Q 493.6 491.9 492 494 L 487 494 L 487 492.5 L 485.5 490 L 483.5 494 Q 479.8 494.8 479 492.5 Q 477.3 485.8 480.5 484 Z M 481 485 L 480 488 L 481 492 Q 480 494 483 493 Q 485 492 484 487 L 481 485 Z M 488 485 L 488 493 L 491 493 L 491 485 L 488 485 Z "></path><path d="M 498.5 484 Q 502.3 483.3 503 485.5 Q 504.7 492.2 501.5 494 Q 497.8 494.8 497 492.5 Q 495.3 485.8 498.5 484 Z M 499 485 L 498 488 L 499 492 Q 498 494 501 493 Q 503 492 502 487 L 499 485 Z "></path><path d="M 506.5 484 Q 510.3 483.3 511 485.5 Q 512.8 492.2 509.5 494 Q 505.8 494.8 505 492.5 L 504 488.5 L 506.5 484 Z M 508 485 Q 505 486 506 492 L 509 493 L 510 491 L 509 487 Q 510 484 508 485 Z "></path><path d="M 636.5 484 L 637 493 L 639 493.5 L 634.5 494 L 634.5 493 Q 637.5 493.5 636 486.5 L 634 486.5 Q 633.3 484.3 635.5 485 L 636.5 484 Z "></path><path d="M 641.5 484 L 647 484.5 L 642.5 494 L 642 491.5 L 645 485.5 Q 640.6 485.9 641.5 484 Z "></path><path d="M 649 484 Q 654.6 481.8 653 487.5 L 654 487.5 L 656.5 484 L 657 485.5 L 655 489 L 658 490.5 L 656.5 494 Q 653.2 495.1 654 492.5 L 652 491.5 L 650.5 494 L 649 493.5 L 652 489 L 649 489 L 649 484 Z M 650 485 Q 649 489 652 488 Q 653 484 650 485 Z M 655 490 Q 654 494 657 493 Q 658 489 655 490 Z "></path><path d="M 682.5 484 L 686 485.5 L 685 488.5 L 686 494 L 681 494 L 681 492.5 L 681 490.5 L 682 488.5 L 681 485.5 L 682.5 484 Z M 682 485 L 682 487 Q 684 490 685 487 Q 686 484 682 485 Z M 682 490 Q 681 495 685 493 Q 687 489 682 490 Z "></path><path d="M 692.5 484 Q 696.3 483.3 697 485.5 Q 698.8 492.2 695.5 494 Q 691.8 494.8 691 492.5 Q 689.3 485.8 692.5 484 Z M 693 485 L 692 488 L 693 492 Q 692 494 695 493 Q 697 492 696 487 L 693 485 Z "></path><path d="M 700.5 484 Q 704.3 483.3 705 485.5 Q 706.8 492.2 703.5 494 Q 699.8 494.8 699 492.5 L 698 488.5 L 700.5 484 Z M 702 485 Q 699 486 700 492 L 703 493 L 704 491 L 703 487 Q 704 484 702 485 Z "></path><path d="M 708.5 484 Q 712.5 483.5 713 486.5 Q 713.6 491.9 712 494 L 707 494 L 707 492.5 Q 704.7 491.3 706 486.5 L 708.5 484 Z M 708 485 L 708 493 L 711 493 L 711 485 L 708 485 Z "></path><path d="M 718.5 484 Q 722.3 483.3 723 485.5 L 723.5 488 L 726.5 484 Q 730.5 483.5 731 486.5 Q 731.6 491.9 730 494 L 725 494 L 725 492.5 L 723.5 490 L 721.5 494 Q 717.8 494.8 717 492.5 Q 715.3 485.8 718.5 484 Z M 719 485 L 718 488 L 719 492 Q 718 494 721 493 Q 723 492 722 487 L 719 485 Z M 726 485 L 726 493 L 729 493 L 729 485 L 726 485 Z "></path><path d="M 151.5 485 L 152 487 L 154 487.5 L 152 488 L 152 493 L 153.5 493 L 153.5 494 L 151 494 L 151 488.5 L 151 486.5 L 151.5 485 Z "></path><path d="M 108.5 487 L 113 487 L 113 494 L 108 494 L 108 491.5 L 112 490 Q 113.3 486.7 108.5 488 L 108.5 487 Z M 111 491 L 109 493 L 112 493 Q 113 490 111 491 Z "></path><path d="M 115 487 L 119 487.5 L 116 488.5 L 120 491.5 L 118.5 494 L 115 493.5 L 118 493 Q 119.1 490.3 116.5 491 L 115 487 Z "></path><path d="M 121 487 L 125 487.5 L 122 488.5 L 125 490 Q 127.2 495.6 121.5 494 L 121.5 493 Q 125.3 494 124 491 L 121 489.5 L 121 487 Z "></path><path d="M 139 487 L 141 487 L 141 492.5 L 142.5 493 Q 145.1 491.6 144.5 487 L 145 494 Q 140.4 495.3 139 492.5 L 139 487 Z "></path><path d="M 147.5 487 L 148 493.5 L 147 493.5 L 147.5 487 Z "></path><path d="M 155.5 487 L 160 487 L 160 494 L 155 494 L 155 491.5 L 159 490 Q 160.3 486.7 155.5 488 L 155.5 487 Z M 158 491 L 156 493 L 159 493 Q 160 490 158 491 Z "></path><path d="M 162 487 L 166 487.5 L 164 488 L 164 494 L 162 494 L 162 487 Z "></path><path d="M 418 487 Q 422.6 485.8 424 488.5 Q 425 493 422.5 494 Q 417.7 492.3 419 496.5 L 418 496.5 L 418 487 Z M 421 488 Q 418 489 419 493 Q 423 494 422 492 L 422 490 Q 423 487 421 488 Z "></path><path d="M 426.5 487 L 430 487.5 L 426 489.5 L 427.5 493 L 430 493.5 L 426.5 494 Q 424 493 425 488.5 L 426.5 487 Z "></path><path d="M 432.5 487 L 436 487.5 L 433 488.5 Q 436.8 489.8 436 494 L 431 493.5 L 435 492.5 L 431 490 L 432.5 487 Z "></path><path d="M 688 493 Q 690.7 491.9 690 494.5 L 688 495.5 L 688 493 Z "></path><path d="M 675.5 503 L 678 504.5 L 677 508.5 L 679 512.5 L 675.5 515 L 673 513.5 L 675 513 L 673 505.5 L 675.5 503 Z M 677 510 L 676 513 L 677 513 L 677 510 Z "></path><path d="M 607.5 504 L 612 504.5 L 607 506.5 L 612 510.5 L 610.5 514 L 606 513.5 L 610 513 Q 611.5 509.2 608.5 510 Q 605.5 509.5 606 505.5 L 607.5 504 Z "></path><path d="M 621.5 504 L 622 507 Q 625.8 506 627 508.5 Q 628 513 625.5 514 L 621 514 L 621.5 504 Z M 624 508 Q 621 509 622 513 Q 626 514 625 512 L 625 510 Q 626 507 624 508 Z "></path><path d="M 652 504 L 654 504.5 L 654 512.5 L 654.5 514 L 652 512.5 L 652 504 Z "></path><path d="M 682.5 504 L 686 505.5 L 685 508.5 L 686 514 L 681 514 L 681 512.5 L 681 510.5 L 682 508.5 L 681 505.5 L 682.5 504 Z M 682 505 L 682 507 Q 684 510 685 507 Q 686 503 682 505 Z M 682 510 Q 681 515 685 513 Q 687 509 682 510 Z "></path><path d="M 692.5 504 Q 696.3 503.3 697 505.5 Q 698.8 512.3 695.5 514 Q 691.8 514.8 691 512.5 Q 689.3 505.8 692.5 504 Z M 693 505 L 692 508 L 693 512 Q 692 514 695 513 Q 697 512 696 507 L 693 505 Z "></path><path d="M 700.5 504 Q 704.3 503.3 705 505.5 Q 706.8 512.3 703.5 514 Q 699.8 514.8 699 512.5 L 698 508.5 L 700.5 504 Z M 702 505 Q 699 506 700 512 L 703 513 L 704 511 L 703 507 Q 704 504 702 505 Z "></path><path d="M 708.5 504 Q 712.5 503.5 713 506.5 Q 713.6 511.9 712 514 L 707 514 L 707 512.5 Q 704.7 511.3 706 506.5 L 708.5 504 Z M 708 505 L 708 513 L 711 513 L 711 505 L 708 505 Z "></path><path d="M 718.5 504 Q 722.3 503.3 723 505.5 L 723.5 508 L 726.5 504 Q 730.5 503.5 731 506.5 Q 731.6 511.9 730 514 L 725 514 L 725 512.5 L 723.5 510 L 721.5 514 Q 717.8 514.8 717 512.5 Q 715.3 505.8 718.5 504 Z M 719 505 L 718 508 L 719 512 Q 718 514 721 513 Q 723 512 722 507 L 719 505 Z M 726 505 L 726 513 L 729 513 L 729 505 L 726 505 Z "></path><path d="M 629.5 505 L 630 507 L 632 507.5 L 630 508 L 630 513 L 631.5 513 L 631.5 514 L 629 514 L 629 508.5 L 629 506.5 L 629.5 505 Z "></path><path d="M 641.5 505 L 642 507 L 644 507.5 L 642 508 L 642 513 L 643.5 513 L 643.5 514 L 641 514 L 641 508.5 L 641 506.5 L 641.5 505 Z "></path><path d="M 613 507 L 615 507 L 615 512.5 L 616.5 513 Q 619.1 511.6 618.5 507 L 619 514 Q 614.4 515.3 613 512.5 L 613 507 Z "></path><path d="M 634.5 507 Q 638.3 506.3 639 508.5 Q 640 513 637.5 514 Q 633.8 514.8 633 512.5 Q 632 508 634.5 507 Z M 636 508 L 634 512 L 637 513 L 638 510 L 636 508 Z "></path><path d="M 646.5 507 Q 650.3 506.3 651 508.5 L 651 514 L 645 514 L 646.5 510 Q 650.3 511 649 508 Q 645.7 508.8 646.5 507 Z M 647 511 Q 646 514 649 513 Q 650 510 647 511 Z "></path><path d="M 657 507 L 659 507.5 L 657 508.5 L 657 507 Z "></path><path d="M 688 513 Q 690.7 511.9 690 514.5 L 688 515.5 L 688 513 Z "></path><path d="M 675.5 523 L 678 524.5 L 677 528.5 L 679 532.5 L 675.5 535 L 673 533.5 L 675 533 L 673 525.5 L 675.5 523 Z M 677 530 L 676 533 L 677 533 L 677 530 Z "></path><path d="M 596.5 524 L 604 524.5 L 601 525 L 601 533.5 L 599 534 L 599 525.5 L 596.5 525 L 596.5 524 Z "></path><path d="M 624.5 524 L 625 526.5 Q 622.5 528 624 533.5 L 625 536.5 L 624 536.5 L 622 529.5 L 624.5 524 Z "></path><path d="M 629.5 524 L 630 533 L 632 533.5 L 627.5 534 L 627.5 533 Q 630.5 533.5 629 526.5 L 627 526.5 Q 626.3 524.3 628.5 525 L 629.5 524 Z "></path><path d="M 634.5 524 Q 640.6 522.8 640 525.5 L 635.5 534 L 635 532.5 L 638 525 Q 633.6 526 634.5 524 Z "></path><path d="M 642 524 Q 647.6 521.8 646 527.5 L 647 527.5 L 649.5 524 L 650 525.5 L 648 529 L 651 530.5 L 649.5 534 Q 646.2 535.1 647 532.5 L 645 531.5 L 643.5 534 L 642 533.5 L 645 529 L 642 529 L 642 524 Z M 643 525 Q 642 529 645 528 Q 646 524 643 525 Z M 648 530 Q 647 534 650 533 Q 651 529 648 530 Z "></path><path d="M 652.5 524 Q 656 526 655 532.5 L 652.5 537 L 652 535.5 L 653 534.5 L 653 526.5 L 652.5 524 Z "></path><path d="M 683.5 524 L 684 533 L 686 533.5 L 681.5 534 L 681.5 533 Q 684.5 533.5 683 526.5 L 681 526.5 Q 680.3 524.3 682.5 525 L 683.5 524 Z "></path><path d="M 691.5 524 L 697 524.5 L 695 527.5 Q 697.8 528.2 697 532.5 Q 696.3 534.8 692.5 534 L 692.5 533 L 696 531.5 Q 696.8 529.3 694.5 530 L 693 527.5 L 694 525 Q 690.7 525.8 691.5 524 Z "></path><path d="M 702.5 524 L 704 524.5 L 701 526.5 Q 700.2 529.1 703.5 528 Q 705.8 528.8 705 532.5 Q 704.3 534.8 700.5 534 Q 697.8 532.8 699 527.5 L 700 525 L 702.5 524 Z M 702 529 L 700 532 L 703 533 Q 705 532 703 531 Q 704 528 702 529 Z "></path><path d="M 708.5 524 Q 712.5 523.5 713 526.5 Q 713.6 531.9 712 534 L 707 534 L 707 532.5 Q 704.7 531.2 706 526.5 L 708.5 524 Z M 708 525 L 708 533 L 711 533 L 711 525 L 708 525 Z "></path><path d="M 718.5 524 Q 722.3 523.3 723 525.5 L 723.5 528 L 726.5 524 Q 730.5 523.5 731 526.5 Q 731.6 531.9 730 534 L 725 534 L 725 532.5 L 723.5 530 L 721.5 534 Q 717.8 534.8 717 532.5 Q 715.3 525.8 718.5 524 Z M 719 525 L 718 528 L 719 532 Q 718 534 721 533 Q 723 532 722 527 L 719 525 Z M 726 525 L 726 533 L 729 533 L 729 525 L 726 525 Z "></path><path d="M 605.5 527 Q 609.3 526.3 610 528.5 L 610 534 L 604 534 L 605.5 530 Q 609.3 531 608 528 Q 604.7 528.7 605.5 527 Z M 606 531 Q 605 534 608 533 Q 609 530 606 531 Z "></path><path d="M 611.5 527 L 614.5 529 L 617 527.5 L 615 530.5 L 617 533.5 L 614.5 532 L 612.5 534 L 611 533.5 L 613 529.5 L 611.5 527 Z "></path><path d="M 657 527 L 659 527.5 L 657 528.5 L 657 527 Z "></path><path d="M 688 533 Q 690.7 531.9 690 534.5 L 688 535.5 L 688 533 Z "></path><path d="M 675.5 543 L 678 544.5 L 677 548.5 L 679 552.5 L 675.5 555 L 673 553.5 L 675 553 L 673 545.5 L 675.5 543 Z M 677 550 L 676 553 L 677 553 L 677 550 Z "></path><path d="M 625.5 544 L 632 544.5 L 629 545 L 628.5 554 L 628 545 Q 624.7 545.8 625.5 544 Z "></path><path d="M 652 544 L 654 544.5 L 654 552.5 L 654.5 554 L 652 552.5 L 652 544 Z "></path><path d="M 681 544 Q 685.7 543 687 546.5 Q 687.1 552.1 683.5 554 L 682 553.5 L 684.5 550 Q 680.1 551.5 681 548.5 L 680 546.5 L 681 544 Z M 682 545 Q 680 551 685 549 Q 687 543 682 545 Z "></path><path d="M 691.5 544 L 697 544.5 L 695 547.5 Q 697.8 548.3 697 552.5 Q 696.3 554.8 692.5 554 L 692.5 553 L 696 551.5 Q 696.8 549.3 694.5 550 L 693 547.5 L 694 545 Q 690.7 545.8 691.5 544 Z "></path><path d="M 702.5 544 L 704 544.5 L 701 546.5 Q 700.2 549.1 703.5 548 Q 705.8 548.8 705 552.5 Q 704.3 554.8 700.5 554 Q 697.8 552.8 699 547.5 L 700 545 L 702.5 544 Z M 702 549 L 700 552 L 703 553 Q 705 552 703 551 Q 704 548 702 549 Z "></path><path d="M 708.5 544 Q 712.5 543.5 713 546.5 Q 713.6 551.9 712 554 L 707 554 L 707 552.5 Q 704.7 551.3 706 546.5 L 708.5 544 Z M 708 545 L 708 553 L 711 553 L 711 545 L 708 545 Z "></path><path d="M 718.5 544 Q 722.3 543.3 723 545.5 L 723.5 548 L 726.5 544 Q 730.5 543.5 731 546.5 Q 731.6 551.9 730 554 L 725 554 L 725 552.5 L 723.5 550 L 721.5 554 Q 717.8 554.8 717 552.5 Q 715.3 545.8 718.5 544 Z M 719 545 L 718 548 L 719 552 Q 718 554 721 553 Q 723 552 722 547 L 719 545 Z M 726 545 L 726 553 L 729 553 L 729 545 L 726 545 Z "></path><path d="M 641.5 545 L 642 547 L 644 547.5 L 642 548 L 642 553 L 643.5 553 L 643.5 554 L 641 554 L 641 548.5 L 641 546.5 L 641.5 545 Z "></path><path d="M 634.5 547 Q 638.3 546.3 639 548.5 Q 640 553 637.5 554 Q 633.8 554.8 633 552.5 Q 632 548 634.5 547 Z M 636 548 L 634 552 L 637 553 L 638 550 L 636 548 Z "></path><path d="M 646.5 547 Q 650.3 546.3 651 548.5 L 651 554 L 645 554 L 646.5 550 Q 650.3 551 649 548 Q 645.7 548.8 646.5 547 Z M 647 551 Q 646 554 649 553 Q 650 550 647 551 Z "></path><path d="M 657 547 L 659 547.5 L 657 548.5 L 657 547 Z "></path><path d="M 688 553 Q 690.7 551.9 690 554.5 L 688 555.5 L 688 553 Z "></path><path d="M 79 704 Q 84.5 702.8 86 706.5 L 85 709.5 L 86 712.5 Q 84.4 715.5 79 714 L 79 704 Z M 81 706 Q 80 709 83 708 Q 84 705 81 706 Z M 81 710 L 81 712 L 84 712 L 81 710 Z "></path><path d="M 102 704 Q 105.7 702.6 104 708.5 L 105 708.5 Q 104.2 705.9 107.5 707 L 106 709.5 L 108 713.5 L 105 714 L 104.5 712 L 104 714 L 102 713.5 L 102 704 Z "></path><path d="M 112 704 Q 118.3 702.5 120 706.5 Q 121.3 712.8 117.5 714 L 112 714 L 112 704 Z M 114 706 L 114 712 L 117 712 L 118 710 L 117 708 Q 118 705 114 706 Z "></path><path d="M 140 704 Q 143 703 142 706 Q 139 707 140 704 Z "></path><path d="M 144 704 L 146 704 L 146 712.5 L 147.5 713 L 150 711.5 L 148 711 Q 145.8 705 152.5 707 L 151 709.5 L 153 711.5 L 151.5 714 L 144 714 L 144 704 Z "></path><path d="M 129 705 Q 131.7 703.9 131 706.5 L 132 708.5 L 131 712 Q 134 713 133 710 L 135.5 710 L 135.5 709 Q 131.8 710 133 707 Q 137.6 705.8 139 708.5 L 139 714 L 129 714 L 128 707.5 L 129 705 Z "></path><path d="M 87 707 Q 91.6 705.8 93 708.5 L 93 714 L 87 714 Q 84.9 708.8 89.5 710 L 89.5 709 Q 85.8 710 87 707 Z "></path><path d="M 94 707 L 100 707 L 100 714 L 98 714 L 98 709 L 96 709 L 96 714 L 94 714 L 94 707 Z "></path><path d="M 122.5 707 Q 126.3 706.3 127 708.5 Q 128.3 712.7 123.5 711 L 123.5 712 L 127 713.5 L 122.5 714 Q 120 713 121 708.5 L 122.5 707 Z "></path><path d="M 140 707 L 142 707.5 L 142 714 L 140 713.5 L 140 707 Z "></path><path d="M 81 724 Q 84 722.8 83 726.5 L 86 734 Q 82.7 735.1 84 731 L 80 731 Q 81.3 735.1 78 734 L 81 724 Z M 81 728 Q 80 731 83 730 Q 84 727 81 728 Z "></path><path d="M 131.5 724 L 136.5 730 L 137.5 724 L 138 733.5 L 136 732.5 L 132.5 728 L 131.5 734 L 131.5 724 Z "></path><path d="M 174.5 724 L 179 724.5 L 174 726.5 Q 172.8 731.8 175.5 733 Q 179.7 734.1 178 730 L 176 729.5 L 180 729 Q 181 732.8 178.5 734 Q 174 735 173 732.5 L 172 727.5 L 174.5 724 Z "></path><path d="M 186 724 L 188 724.5 L 186 725.5 L 186 724 Z "></path><path d="M 191.5 724 L 194 724.5 L 191 726.5 L 195 727 Q 193.3 722.9 197.5 724 L 197.5 725 Q 194.9 724.3 196 727 L 198 727.5 L 196 728 L 195.5 734 L 195 728 Q 188.6 725.7 191 733.5 L 190 733.5 Q 191.3 728.8 189 727.5 L 191.5 724 Z "></path><path d="M 207 724 Q 210.3 722.9 209 727 L 213 727 L 213 733.5 L 212 733.5 Q 214.3 726.2 209 728 L 209 734 L 207 734 L 207 724 Z "></path><path d="M 224 724 Q 226.7 722.9 226 725.5 L 228 729 Q 230.7 730.1 230 727.5 L 232.5 724 L 233 733.5 L 232 733.5 L 231.5 728 L 228.5 732 L 226.5 728 L 226 734 L 224 733.5 L 224 724 Z "></path><path d="M 249 724 L 251 724.5 L 249 725.5 L 249 724 Z "></path><path d="M 263 724 L 268 724.5 L 264 725 L 266.5 729 Q 268.8 728.3 268 730.5 L 268 732.5 Q 268.6 735.3 262.5 734 L 262.5 733 Q 268.8 734.9 267 730 L 263 729 L 262 726.5 L 263 724 Z "></path><path d="M 123.5 725 L 124 727 L 126 727.5 L 124 728 L 124 733 L 125.5 733 L 125.5 734 L 123 734 L 123 728.5 L 123 726.5 L 123.5 725 Z "></path><path d="M 203.5 725 L 204 727 L 206 727.5 L 204 728 L 204 733 L 205.5 733 L 205.5 734 L 202 732.5 L 201 727.5 L 203.5 725 Z "></path><path d="M 271.5 725 L 272 727 L 274 727.5 L 272 728 L 272 733 L 273.5 733 L 273.5 734 L 270 732.5 L 269 727.5 L 271.5 725 Z "></path><path d="M 88.5 727 L 92 727.5 L 88 729.5 L 89.5 733 L 92 733.5 L 88.5 734 Q 86 733 87 728.5 L 88.5 727 Z "></path><path d="M 94 727 L 98 727.5 L 95 728 L 95 733 L 97.5 733 L 97.5 734 Q 93.8 734.8 93 732.5 L 94 727 Z "></path><path d="M 101.5 727 Q 105.3 726.3 106 728.5 Q 107 733 104.5 734 Q 100.8 734.8 100 732.5 Q 99 728 101.5 727 Z M 101 728 L 101 732 L 104 733 L 104 728 L 101 728 Z "></path><path d="M 107 727 L 109 727 L 109 732.5 L 110.5 733 Q 113.1 731.6 112.5 727 L 113 734 Q 108.4 735.3 107 732.5 L 107 727 Z "></path><path d="M 115 727 Q 119.6 725.8 121 728.5 Q 123 735.4 119 734 L 119 728.5 L 117.5 728 Q 114.9 729.4 115.5 734 L 115 727 Z "></path><path d="M 141.5 727 Q 145.3 726.3 146 728.5 L 146 734 L 140 734 L 141.5 730 Q 145.3 731 144 728 Q 140.7 728.8 141.5 727 Z M 142 731 Q 141 734 144 733 Q 145 730 142 731 Z "></path><path d="M 147 727 L 155.5 727 L 157 728.5 Q 159 735.4 155 734 L 155 728 L 153 728 L 153 734 L 151 734 L 151 728 L 149 728 L 149 734 L 147 734 L 147 727 Z "></path><path d="M 159 727 Q 166.1 724.6 164 731 Q 158.8 729.3 160 733 L 164 733.5 L 159 734 L 158 729.5 L 159 727 Z M 161 728 L 161 729 L 163 729 L 161 728 Z "></path><path d="M 181 727 L 185 727.5 L 183 728 L 183 734 L 181 734 L 181 727 Z "></path><path d="M 186 727 L 188 727.5 L 188 734 L 186 733.5 L 186 727 Z "></path><path d="M 199.5 727 L 200 733.5 L 199 733.5 L 199.5 727 Z "></path><path d="M 215 727 L 219 727.5 L 216 728.5 L 219 730 Q 221.2 735.6 215.5 734 L 215.5 733 Q 219.3 734 218 731 L 215 729.5 L 215 727 Z "></path><path d="M 235 727 L 237 727 L 237 732.5 L 238.5 733 Q 241.1 731.6 240.5 727 L 241 734 L 236 734 L 236 732.5 L 235 727 Z "></path><path d="M 243 727 L 247 727.5 L 244 728.5 L 247 730 Q 249.2 735.6 243.5 734 L 243.5 733 Q 247.3 734 246 731 L 243 729.5 L 243 727 Z "></path><path d="M 249 727 L 251 727.5 L 251 734 L 249 733.5 L 249 727 Z "></path><path d="M 253 727 L 257 727.5 L 254 728 L 254 733 L 256.5 733 L 256.5 734 Q 252.8 734.8 252 732.5 L 253 727 Z "></path><path d="M 276.5 727 Q 280.3 726.3 281 728.5 Q 282 733 279.5 734 Q 275.8 734.8 275 732.5 Q 274 728 276.5 727 Z M 276 728 L 276 732 L 279 733 L 279 728 L 276 728 Z "></path><path d="M 282 727 L 286 727.5 L 284 728 L 284 734 L 282 734 L 282 727 Z "></path><path d="M 288.5 727 Q 292.3 726.3 293 728.5 Q 294.4 733.1 288.5 731 L 289.5 733 L 292 733.5 L 288.5 734 Q 286 733 287 728.5 L 288.5 727 Z "></path><path d="M 81 744 Q 84 742.8 83 746.5 L 86 754 Q 82.7 755.1 84 751 L 80 751 Q 81.3 755.1 78 754 L 81 744 Z M 81 748 Q 80 751 83 750 Q 84 747 81 748 Z "></path><path d="M 148.5 744 L 149 753 L 151 753.5 L 146.5 754 L 146.5 753 Q 149.5 753.5 148 746.5 L 146 746.5 Q 145.3 744.3 147.5 745 L 148.5 744 Z "></path><path d="M 153.5 744 Q 160.3 741.8 158 748.5 L 155 752.5 L 159 753.5 L 153.5 754 L 155 751.5 L 157 745 Q 152.6 746 153.5 744 Z "></path><path d="M 161.5 744 L 166 744.5 L 164 747.5 Q 166.7 748.3 166 752.5 Q 165.3 754.8 161.5 754 L 161.5 753 Q 166.3 754.7 165 750.5 L 162 748.5 L 164 745.5 Q 160.7 745.6 161.5 744 Z "></path><path d="M 172.5 744 L 173 750 L 175 750.5 L 173 751 L 172.5 754 L 172 751 L 168 751 L 168 749.5 L 172.5 744 Z M 172 747 L 170 749 Q 169 751 172 750 L 172 747 Z "></path><path d="M 177 744 L 181 744.5 L 178 745 Q 176.5 748.8 179.5 748 Q 181.8 748.8 181 752.5 Q 180.3 754.8 176.5 754 L 176.5 753 Q 181.3 754.7 180 750.5 L 177 749 L 177 744 Z "></path><path d="M 186.5 744 L 188 744.5 L 185.5 748 Q 189.9 746.5 189 749.5 L 190 751.5 L 189 754 L 184 754 L 184 752.5 L 183 749.5 L 186.5 744 Z M 185 749 Q 183 755 188 753 Q 190 747 185 749 Z "></path><path d="M 191.5 744 Q 197.6 742.8 197 745.5 L 192.5 754 L 192 752.5 L 195 745 Q 190.6 746 191.5 744 Z "></path><path d="M 200.5 744 Q 204.9 742.5 204 745.5 L 204 747.5 L 205 752.5 Q 204.3 754.8 200.5 754 L 199 750.5 L 200 748.5 L 199 745.5 L 200.5 744 Z M 202 745 L 200 747 L 203 748 Q 204 744 202 745 Z M 202 750 L 200 752 Q 199 754 203 753 Q 204 749 202 750 Z "></path><path d="M 207 744 Q 211.7 743 213 746.5 Q 213.1 752.1 209.5 754 L 208 753.5 L 210.5 750 Q 206.1 751.5 207 748.5 L 206 746.5 L 207 744 Z M 208 745 Q 206 751 211 749 Q 213 743 208 745 Z "></path><path d="M 123.5 745 L 124 747 L 126 747.5 L 124 748 L 124 753 L 125.5 753 L 125.5 754 L 123 754 L 123 748.5 L 123 746.5 L 123.5 745 Z "></path><path d="M 133.5 745 L 134.5 747 L 135.5 745 L 137 747.5 L 135 753 L 133 752.5 L 133.5 751 Q 131.3 750.3 132 752.5 L 131 752.5 L 130 750.5 L 133.5 745 Z "></path><path d="M 88.5 747 L 92 747.5 L 88 749.5 L 89.5 753 L 92 753.5 L 88.5 754 Q 86 753 87 748.5 L 88.5 747 Z "></path><path d="M 94 747 L 98 747.5 L 95 748 L 95 753 L 97.5 753 L 97.5 754 Q 93.8 754.8 93 752.5 L 94 747 Z "></path><path d="M 101.5 747 Q 105.3 746.3 106 748.5 Q 107 753 104.5 754 Q 100.8 754.8 100 752.5 Q 99 748 101.5 747 Z M 101 748 L 101 752 L 104 753 L 104 748 L 101 748 Z "></path><path d="M 107 747 L 109 747 L 109 752.5 L 110.5 753 Q 113.1 751.6 112.5 747 L 113 754 Q 108.4 755.3 107 752.5 L 107 747 Z "></path><path d="M 115 747 Q 119.6 745.8 121 748.5 Q 123 755.4 119 754 L 119 748.5 L 117.5 748 Q 114.9 749.4 115.5 754 L 115 747 Z "></path><path d="M 139 747 L 141 747.5 L 139 748.5 L 139 747 Z "></path><path d="M 79 764 Q 83.6 762.8 85 765.5 L 84 768.5 L 86 771.5 Q 84.5 775.3 79 774 L 79 764 Z M 81 765 L 81 768 L 84 767 L 81 765 Z M 81 770 Q 80 775 84 773 Q 86 769 81 770 Z "></path><path d="M 102.5 764 L 103 769 L 105 769 Q 103.9 766.3 106.5 767 L 105 769.5 L 107 773.5 L 103 771.5 L 102.5 774 L 102.5 764 Z "></path><path d="M 112 764 Q 114.7 762.9 114 765.5 L 117.5 770 L 118 764 L 120 764.5 L 120 774 Q 117.3 775.1 118 772.5 L 114.5 768 L 114 774 L 112 773.5 L 112 764 Z "></path><path d="M 170.5 764 L 171 774 Q 166.4 775.3 165 772.5 Q 164 768 166.5 767 Q 169.8 768.1 169 765.5 L 170.5 764 Z M 168 768 L 166 772 L 169 773 L 169 768 L 168 768 Z "></path><path d="M 179.5 764 L 184 773.5 L 182 774 L 180.5 771 Q 177.2 769.9 178 772.5 L 176 773.5 L 179.5 764 Z M 180 768 Q 178 771 181 770 L 180 768 Z "></path><path d="M 189 764 L 191 764.5 L 191 774 L 185 774 L 185 768.5 L 189 767 L 189 764 Z M 188 768 L 186 770 Q 185 775 189 773 L 189 768 L 188 768 Z "></path><path d="M 197.5 764 L 198 774 Q 193.4 775.3 192 772.5 Q 191 768 193.5 767 Q 196.8 768.1 196 765.5 L 197.5 764 Z M 195 768 L 193 772 L 196 773 L 196 768 L 195 768 Z "></path><path d="M 229.5 764 Q 232.1 763.2 231 766.5 L 232.5 770 L 235.5 764 L 237.5 770 L 239 764 Q 241.7 762.9 241 765.5 L 237.5 774 L 235.5 768 L 232.5 774 L 229.5 764 Z "></path><path d="M 249.5 764 L 250 771.5 L 252 773.5 L 249 774 L 249.5 764 Z "></path><path d="M 253 764 L 255 764.5 L 255 772.5 L 255.5 774 L 253 772.5 L 253 764 Z "></path><path d="M 267 764 L 273 764.5 L 269 765 L 269 768 Q 273.1 766.7 272 770 L 269 770 Q 270.7 775.2 267 774 L 267 764 Z "></path><path d="M 305 764 Q 309.6 762.8 311 765.5 L 310 768.5 L 311 772.5 Q 309.6 775.3 305 774 L 305 764 Z M 306 765 Q 305 770 309 768 Q 311 764 306 765 Z M 306 770 L 306 773 L 310 772 L 306 770 Z "></path><path d="M 327 764 Q 330.7 762.6 329 768.5 L 332 767.5 L 330 770.5 L 332.5 774 L 330 772.5 L 329.5 771 L 329 774 L 327 773.5 L 327 764 Z "></path><path d="M 87.5 767 L 92 767 L 92 774 L 87 774 L 87 771.5 L 91 770 Q 92.3 766.7 87.5 768 L 87.5 767 Z M 90 771 L 88 773 L 91 773 Q 92 770 90 771 Z "></path><path d="M 94 767 L 100 767 L 100 773.5 L 99 773.5 Q 100 769 97.5 768 L 96 768.5 L 96 774 L 94 774 L 94 767 Z "></path><path d="M 122.5 767 Q 126.3 766.3 127 768.5 L 127 774 L 121 774 L 122.5 770 Q 126.3 771 125 768 Q 121.7 768.8 122.5 767 Z M 123 771 Q 122 774 125 773 Q 126 770 123 771 Z "></path><path d="M 129 767 L 138 767 L 138 773.5 L 137 773.5 Q 139.3 766.2 134 768 L 133.5 774 Q 134.1 769.4 131.5 768 Q 128.8 767.4 130 773.5 L 129 773.5 L 129 767 Z "></path><path d="M 141.5 767 Q 145.9 765.5 145 768.5 Q 147.3 769.8 144.5 771 L 141 771.5 L 145 773.5 L 141.5 774 Q 139 773 140 768.5 L 141.5 767 Z M 142 768 L 142 769 L 144 769 L 142 768 Z "></path><path d="M 151.5 767 L 156 767 L 156 774 Q 151.4 775.3 150 772.5 L 151 770 Q 156.2 771.7 155 768 Q 150.6 769 151.5 767 Z M 152 771 L 152 773 L 155 772 L 152 771 Z "></path><path d="M 158 767 L 163 767 L 163 768.5 L 164 774 L 162 774 L 162 768 L 159 768 L 158.5 774 L 158 767 Z "></path><path d="M 200 767 L 204 767.5 L 201 769.5 L 200.5 774 L 200 767 Z "></path><path d="M 205 767 Q 212.1 764.6 210 771 Q 204.8 769.3 206 773 L 210 773.5 L 205 774 L 204 769.5 L 205 767 Z M 207 768 L 207 769 L 209 769 L 207 768 Z "></path><path d="M 212.5 767 L 216 767.5 L 213 768.5 Q 216.7 769.7 216 774 L 211 773.5 L 215 772.5 L 211 770 L 212.5 767 Z "></path><path d="M 218.5 767 L 222 767.5 L 219 768.5 Q 222.7 769.7 222 774 L 217 773.5 L 221 772.5 L 217 770 L 218.5 767 Z "></path><path d="M 224 767 L 226 767.5 L 224 768.5 L 224 767 Z "></path><path d="M 243.5 767 Q 247.9 765.5 247 768.5 Q 249.2 769.8 246.5 771 L 243 771.5 L 247 773.5 L 243.5 774 Q 241 773 242 768.5 L 243.5 767 Z M 244 768 L 244 769 L 246 769 L 244 768 Z "></path><path d="M 257 767 L 261 767.5 L 258 768.5 L 262 771.5 L 260.5 774 L 257 773.5 L 260 773 Q 261.1 770.3 258.5 771 L 257 767 Z "></path><path d="M 274.5 767 L 279 767 L 279 774 Q 274.4 775.3 273 772.5 L 274 770 Q 279.2 771.7 278 768 Q 273.6 769 274.5 767 Z M 275 771 L 275 773 L 278 772 L 275 771 Z "></path><path d="M 281 767 L 285 767.5 L 282 769.5 L 281.5 774 L 281 767 Z "></path><path d="M 286 767 L 291 767 L 291 775.5 Q 290.3 777.8 286.5 777 L 286.5 776 L 290 774.5 L 285 772.5 L 286 767 Z M 287 768 L 287 773 L 290 772 Q 292 766 287 768 Z "></path><path d="M 294.5 767 Q 298.3 766.3 299 768.5 Q 300 773 297.5 774 Q 293.8 774.8 293 772.5 Q 292 768 294.5 767 Z M 296 768 L 294 772 L 297 773 L 298 770 L 296 768 Z "></path><path d="M 313.5 767 Q 317.3 766.3 318 768.5 L 318 774 L 312 774 L 313.5 770 Q 317.3 771 316 768 Q 312.7 768.8 313.5 767 Z M 314 771 Q 313 774 316 773 Q 317 770 314 771 Z "></path><path d="M 320 767 L 325 767 L 325 768.5 L 326 774 L 324 774 L 324 768 L 321 768 L 320.5 774 L 320 767 Z "></path><path d="M 82 784 Q 86 782.6 84 789.5 L 84 791.5 Q 85 795.3 82 794 Q 83.8 789.5 78.5 791 L 80 788.5 L 82 784 Z M 82 788 L 80 790 L 82 790 L 82 788 Z "></path><path d="M 89.5 784 L 91 784.5 L 88.5 788 Q 92.9 786.5 92 789.5 L 93 791.5 L 92 794 L 87 794 L 87 792.5 L 86 789.5 L 89.5 784 Z M 88 789 Q 86 795 91 793 Q 93 787 88 789 Z "></path><path d="M 94.5 784 L 100 784.5 L 98 787.5 Q 100.7 788.3 100 792.5 Q 99.3 794.8 95.5 794 L 95.5 793 L 99 791.5 Q 99.8 789.3 97.5 790 L 96 787.5 L 97 785 Q 93.7 785.8 94.5 784 Z "></path><path d="M 106 784 Q 110.6 782.8 112 785.5 L 111 788.5 L 112 792.5 Q 110.6 795.3 106 794 L 106 784 Z M 107 785 Q 106 790 110 788 Q 112 784 107 785 Z M 107 790 L 107 793 L 111 792 L 107 790 Z "></path><path d="M 137 784 L 139 784.5 L 139 794 L 133 794 L 133 788.5 L 137 787 L 137 784 Z M 136 788 L 134 790 Q 133 795 137 793 L 137 788 L 136 788 Z "></path><path d="M 171 784 Q 173.7 782.9 173 785.5 L 176.5 790 L 177 784 L 179 784.5 L 179 794 Q 176.3 795.1 177 792.5 L 173.5 788 L 173 794 L 171 793.5 L 171 784 Z "></path><path d="M 201.5 784 L 204.5 788 L 207.5 784 L 208 785.5 L 204.5 794 L 201.5 784 Z "></path><path d="M 222.5 784 L 223 789 L 225 789 Q 223.9 786.3 226.5 787 L 225 789.5 L 227 793.5 L 223 791.5 L 222.5 794 L 222.5 784 Z "></path><path d="M 235 784 Q 237.7 782.9 237 785.5 L 240.5 790 L 241 784 L 243 784.5 L 243 794 Q 240.3 795.1 241 792.5 L 237.5 788 L 237 794 L 235 793.5 L 235 784 Z "></path><path d="M 244.5 784 L 247.5 788 L 250.5 784 L 251 785.5 L 247.5 794 L 244.5 784 Z "></path><path d="M 258.5 784 L 260 784 L 260 792.5 L 261.5 793 L 261.5 794 L 257 793.5 L 259 793 L 258.5 786 L 256.5 787 L 258.5 784 Z "></path><path d="M 265.5 784 Q 269.3 783.3 270 785.5 Q 271.8 792.2 268.5 794 Q 264.8 794.8 264 792.5 L 263 788.5 L 265.5 784 Z M 267 785 Q 264 786 265 792 L 268 793 L 269 791 L 268 787 Q 269 784 267 785 Z "></path><path d="M 273.5 784 Q 277.5 783.5 278 786.5 Q 278.6 791.9 277 794 L 272 794 L 272 792.5 Q 269.8 791.2 271 786.5 L 273.5 784 Z M 273 785 L 273 793 L 276 793 L 276 785 L 273 785 Z "></path><path d="M 281.5 784 L 283 784 L 283 792.5 L 284.5 793 L 284.5 794 L 280 793.5 L 282 793 L 281.5 786 L 279.5 787 L 281.5 784 Z "></path><path d="M 287.5 784 Q 292.9 782.1 292 785.5 Q 287.5 788 293 790.5 L 292 794 L 287 793.5 L 291 793 L 289.5 789 L 288 788.5 L 290 785 Q 286.7 785.8 287.5 784 Z "></path><path d="M 301 784 L 303 784.5 L 303 793 L 307 793 L 307.5 784 L 308 792.5 Q 306.6 795.3 302 794 Q 300 790.9 301 784 Z "></path><path d="M 311.5 784 L 316 784.5 L 312 785 Q 310.5 788.7 313.5 788 Q 316.5 788.5 316 792.5 Q 315 795 310.5 794 L 310.5 793 Q 314.3 793.8 315 791.5 L 310 787.5 L 311.5 784 Z "></path><path d="M 320 784 Q 323 782.8 322 786.5 L 325 794 Q 321.7 795.1 323 791 L 319 791 Q 320.3 795.1 317 794 L 320 784 Z M 320 788 Q 319 791 322 790 Q 323 787 320 788 Z "></path><path d="M 114 787 L 118 787.5 L 115 789.5 L 114.5 794 L 114 787 Z "></path><path d="M 119 787 L 124 787 L 124 788.5 L 125.5 792 L 126 790 Q 131.2 791.7 130 788 L 126 787.5 L 131 787 L 131 794 L 126.5 794 L 124 792.5 L 124 794 L 119 794 L 118 789.5 L 119 787 Z M 120 788 L 120 793 L 123 793 L 123 788 L 120 788 Z M 127 791 L 127 793 L 130 792 L 127 791 Z "></path><path d="M 140.5 787 L 142.5 791 L 144 787 Q 147 785.8 146 789.5 L 148 790.5 Q 146.7 785.7 150 787 L 148 794 Q 145 795.3 146 791.5 L 144 790.5 L 142.5 794 Q 138.9 791.5 140.5 787 Z "></path><path d="M 151.5 787 L 156 787 L 156 794 Q 151.4 795.3 150 792.5 L 151 790 Q 156.2 791.7 155 788 Q 150.6 789 151.5 787 Z M 152 791 L 152 793 L 155 792 L 152 791 Z "></path><path d="M 157.5 787 Q 159.8 786.3 159 788.5 L 160.5 791 L 162.5 787 L 163 789.5 L 159.5 797 L 158 796.5 L 160 793.5 L 157.5 787 Z "></path><path d="M 181 787 Q 188.1 784.6 186 791 Q 180.8 789.3 182 793 L 186 793.5 L 181 794 L 180 789.5 L 181 787 Z M 183 788 L 183 789 L 185 789 L 183 788 Z "></path><path d="M 187.5 787 L 189.5 791 L 191 787 Q 194 785.8 193 789.5 L 195 790.5 Q 193.7 785.7 197 787 L 195 794 Q 192 795.3 193 791.5 L 191 790.5 L 189.5 794 Q 185.9 791.5 187.5 787 Z "></path><path d="M 210 787 L 215 787 L 215 788.5 L 216 791.5 L 215 794 L 210 794 L 210 792.5 L 209 789.5 L 210 787 Z M 211 788 L 211 793 L 214 793 L 214 788 L 211 788 Z "></path><path d="M 217 787 L 221 787.5 L 218 789.5 L 217.5 794 L 217 787 Z "></path><path d="M 164.5 793 Q 166.8 792.3 166 794.5 L 164 795.5 L 164.5 793 Z "></path><path d="M 228.5 793 Q 231.5 792.2 230 796 L 228 795.5 L 228.5 793 Z "></path><path d="M 294.5 793 Q 296.8 792.3 296 794.5 L 294 795.5 L 294.5 793 Z "></path><path d="M 79 804 Q 83.6 802.8 85 805.5 L 84 808.5 L 86 811.5 Q 84.5 815.3 79 814 L 79 804 Z M 81 805 L 81 808 L 84 807 L 81 805 Z M 81 810 Q 80 815 84 813 Q 86 809 81 810 Z "></path><path d="M 102.5 804 L 103 809 L 105 809 Q 103.9 806.3 106.5 807 L 105 809.5 L 107 813.5 L 103 811.5 L 102.5 814 L 102.5 804 Z "></path><path d="M 109.5 804 L 110 806.5 L 109 806.5 L 109.5 804 Z "></path><path d="M 195.5 804 L 196 807 Q 199.8 806 201 808.5 Q 202 813 199.5 814 L 195 814 L 195.5 804 Z M 198 808 Q 195 809 196 813 Q 200 814 199 812 L 199 810 Q 200 807 198 808 Z "></path><path d="M 223.5 804 L 225 804 L 225 812.5 L 226.5 813 L 226.5 814 L 222 813.5 L 224 813 L 223.5 806 L 221.5 807 L 223.5 804 Z "></path><path d="M 229.5 804 Q 233.3 803.3 234 805.5 Q 234.6 811.1 231 812.5 L 234 813.5 L 229 814 L 233 806.5 L 229.5 805 L 229.5 804 Z "></path><path d="M 236.5 804 L 242 804.5 L 240 807.5 Q 242.8 808.3 242 812.5 Q 241.3 814.8 237.5 814 L 237.5 813 L 241 811.5 Q 241.8 809.3 239.5 810 L 238 807.5 L 239 805 Q 235.7 805.8 236.5 804 Z "></path><path d="M 247 804 Q 251 802.6 249 809.5 L 249 811.5 Q 250 815.3 247 814 Q 248.8 809.5 243.5 811 L 245 808.5 L 247 804 Z M 247 808 L 245 810 L 247 810 L 247 808 Z "></path><path d="M 252 804 L 257 804.5 L 254 805 Q 252.5 808.8 255.5 808 Q 257.8 808.8 257 812.5 Q 256.3 814.8 252.5 814 L 252.5 813 L 256 811.5 L 254.5 809 L 252 809 L 252 804 Z "></path><path d="M 262.5 804 L 264 804.5 L 261.5 808 L 265 809.5 Q 265.8 813.3 263.5 814 Q 259.8 814.8 259 812.5 Q 258.1 805.6 262.5 804 Z M 262 809 Q 259 810 261 812 Q 260 814 263 813 L 264 811 L 262 809 Z "></path><path d="M 267.5 804 L 273 804.5 L 268.5 814 L 268 811.5 L 271 805.5 Q 266.6 805.9 267.5 804 Z "></path><path d="M 276.5 804 L 280 805.5 L 279 808.5 L 280 814 L 275 814 L 275 812.5 L 275 810.5 L 276 808.5 L 275 805.5 L 276.5 804 Z M 276 805 L 276 807 Q 278 810 279 807 Q 280 804 276 805 Z M 276 810 Q 275 815 279 813 Q 281 809 276 810 Z "></path><path d="M 283.5 804 Q 287.3 803.3 288 805.5 Q 289 812 285.5 814 L 283 813.5 L 286 811.5 Q 286.8 808.9 283.5 810 Q 281.3 809.3 282 805.5 L 283.5 804 Z M 285 805 L 283 807 L 285 809 Q 288 810 287 807 L 285 805 Z "></path><path d="M 141.5 805 Q 145.8 806.8 143 808.5 Q 141.1 813.9 144.5 813 L 144.5 814 Q 138.4 815.8 141 808.5 L 141 806.5 L 141.5 805 Z "></path><path d="M 87.5 807 L 92 807 L 92 814 L 87 814 L 87 811.5 L 91 810 Q 92.3 806.7 87.5 808 L 87.5 807 Z M 90 811 L 88 813 L 91 813 Q 92 810 90 811 Z "></path><path d="M 94 807 L 100 807 L 100 813.5 L 99 813.5 Q 100 809 97.5 808 L 96 808.5 L 96 814 L 94 814 L 94 807 Z "></path><path d="M 112.5 807 L 116 807.5 L 113 808.5 Q 116.7 809.7 116 814 L 111 813.5 L 115 812.5 L 111 810 L 112.5 807 Z "></path><path d="M 121 807 L 125 807.5 L 123 808 L 123 814 L 121 814 L 121 807 Z "></path><path d="M 127.5 807 Q 131.3 806.3 132 808.5 Q 133 813 130.5 814 Q 126.8 814.8 126 812.5 Q 125 808 127.5 807 Z M 127 808 L 127 812 L 130 813 L 130 808 L 127 808 Z "></path><path d="M 133 807 L 135 807 L 135 812.5 L 136.5 813 Q 139.1 811.6 138.5 807 L 139 814 L 134 814 L 134 812.5 L 133 807 Z "></path><path d="M 146.5 807 L 147 813.5 L 146 813.5 L 146.5 807 Z "></path><path d="M 150 807 L 155 807 L 155 808.5 L 156 814 L 154 814 L 154 808 L 151 808 L 150.5 814 L 150 807 Z "></path><path d="M 158.5 807 L 163 807 L 163 815.5 Q 162.3 817.8 158.5 817 L 158.5 816 Q 162.3 817 161 814 L 157 812.5 Q 156 808 158.5 807 Z M 160 808 L 158 812 L 161 813 L 161 808 L 160 808 Z "></path><path d="M 168 807 L 174 807 L 174 813.5 L 173 813.5 Q 174 809 171.5 808 L 170 808.5 L 170 814 L 168 814 L 168 807 Z "></path><path d="M 176.5 807 L 177 813 L 180 813 L 180 807 L 182 807 L 182 814 L 176 814 L 176.5 807 Z "></path><path d="M 184 807 L 193 807 L 193 813.5 L 192 813.5 Q 194.3 806.2 189 808 L 188.5 814 Q 189.1 809.4 186.5 808 Q 183.8 807.4 185 813.5 L 184 813.5 L 184 807 Z "></path><path d="M 203 807 Q 210.1 804.6 208 811 Q 202.8 809.3 204 813 L 208 813.5 L 203 814 L 202 809.5 L 203 807 Z M 205 808 L 205 809 L 207 809 L 205 808 Z "></path><path d="M 210 807 L 213 807.5 L 211 808 L 210.5 814 L 210 807 Z "></path><path d="M 79 824 Q 83.6 822.8 85 825.5 L 84 828.5 L 86 831.5 Q 84.5 835.3 79 834 L 79 824 Z M 81 825 L 81 828 L 84 827 L 81 825 Z M 81 830 Q 80 835 84 833 Q 86 829 81 830 Z "></path><path d="M 102.5 824 L 103 829 L 105 829 Q 103.9 826.3 106.5 827 L 105 829.5 L 107 833.5 L 103 831.5 L 102.5 834 L 102.5 824 Z "></path><path d="M 113.5 824 L 118 824.5 L 114 825 Q 112.5 828.7 115.5 828 Q 118.5 828.5 118 832.5 Q 117 835 112.5 834 L 112.5 833 Q 116.3 833.8 117 831.5 L 112 827.5 L 113.5 824 Z "></path><path d="M 119.5 824 Q 122 825.2 121 829 Q 124 830.3 123 826.5 L 124.5 824 L 126 829 Q 129.3 830.3 128 825.5 L 130 824.5 L 128 834 Q 125 835.3 126 831.5 L 124.5 828 L 123 834 Q 120 835.3 121 831.5 L 119.5 824 Z "></path><path d="M 132.5 824 L 133 833.5 L 132 833.5 L 132.5 824 Z "></path><path d="M 135 824 L 141 824.5 L 137 825 L 137 828 Q 141.1 826.7 140 830 L 137 830 Q 138.7 835.2 135 834 L 135 824 Z "></path><path d="M 142.5 824 L 149 824.5 L 146 825 L 145.5 834 L 145 825 Q 141.7 825.8 142.5 824 Z "></path><path d="M 160.5 824 L 164.5 833 L 168.5 824 L 172.5 833 L 176.5 824 L 180.5 833 L 184.5 824 L 189 833.5 L 187 834 L 185.5 831 Q 182.2 829.9 183 832.5 L 179 834 L 177.5 831 Q 174.2 829.9 175 832.5 L 171.5 834 L 170 831 L 166 832.5 Q 166.8 835.1 163.5 834 L 162 831 L 158 832.5 Q 158.8 834.8 156.5 834 L 157 832.5 L 160.5 824 Z M 161 827 L 159 830 L 161 830 L 161 827 Z M 169 827 L 167 830 L 169 830 L 169 827 Z M 177 828 Q 175 831 178 830 L 177 828 Z M 185 828 Q 183 831 186 830 L 185 828 Z "></path><path d="M 190.5 824 L 192 825.5 L 192 833 L 196 831.5 L 196.5 824 L 197 832.5 Q 196 835 191.5 834 L 190 832.5 L 190.5 824 Z "></path><path d="M 200.5 824 L 205 824.5 L 200 826.5 L 205 830.5 L 203.5 834 L 199 833.5 L 203 833 Q 204.5 829.2 201.5 830 Q 198.5 829.5 199 825.5 L 200.5 824 Z "></path><path d="M 208.5 824 L 210 824 L 210 832.5 L 211.5 833 L 211.5 834 L 207 833.5 L 209 833 L 208.5 826 L 206.5 827 L 208.5 824 Z "></path><path d="M 214.5 824 Q 221.3 821.8 219 828.5 L 216 832.5 L 220 833.5 L 214.5 834 L 216 831.5 L 218 825 Q 213.6 826 214.5 824 Z "></path><path d="M 87.5 827 L 92 827 L 92 834 L 87 834 L 87 831.5 L 91 830 Q 92.3 826.7 87.5 828 L 87.5 827 Z M 90 831 L 88 833 L 91 833 Q 92 830 90 831 Z "></path><path d="M 94 827 L 100 827 L 100 833.5 L 99 833.5 Q 100 829 97.5 828 L 96 828.5 L 96 834 L 94 834 L 94 827 Z "></path></svg>