<?xml version="1.0" standalone="no"?>
<!DOCTYPE svg PUBLIC "-//W3C//DTD SVG 20010904//EN"
 "http://www.w3.org/TR/2001/REC-SVG-20010904/DTD/svg10.dtd">
<svg version="1.0" xmlns="http://www.w3.org/2000/svg"
 width="792.000000pt" height="865.000000pt" viewBox="0 0 792.000000 865.000000"
 preserveAspectRatio="xMidYMid meet">
<metadata>
Created by potrace 1.16, written by Peter Selinger 2001-2019
</metadata>
<g transform="translate(0.000000,865.000000) scale(0.100000,-0.100000)"
fill="#000000" stroke="none">
<path d="M801 8256 c-7 -8 -11 -30 -9 -48 3 -29 7 -33 36 -36 29 -3 32 -1 32
22 0 21 -5 26 -22 25 -13 0 -17 -3 -10 -6 17 -7 15 -23 -3 -23 -10 0 -15 10
-15 30 0 23 4 30 20 30 11 0 20 5 20 10 0 15 -36 12 -49 -4z"/>
<path d="M930 8259 c0 -5 5 -7 10 -4 6 3 10 8 10 11 0 2 -4 4 -10 4 -5 0 -10
-5 -10 -11z"/>
<path d="M965 8253 c-12 -21 -8 -83 6 -83 5 0 9 11 9 25 0 16 6 25 15 25 9 0
15 -9 15 -25 0 -14 5 -25 10 -25 9 0 14 29 13 68 -1 6 8 12 18 12 11 0 19 5
19 10 0 16 -50 12 -56 -5 -4 -8 -14 -15 -23 -14 -10 0 -11 2 -3 6 16 6 16 23
-1 23 -7 0 -17 -8 -22 -17z"/>
<path d="M1140 8220 c0 -27 5 -50 10 -50 6 0 10 11 10 25 0 14 5 25 10 25 6 0
10 -11 10 -25 0 -14 5 -25 10 -25 6 0 10 14 10 31 0 22 -5 32 -20 36 -11 3
-20 12 -20 19 0 8 -4 14 -10 14 -5 0 -10 -22 -10 -50z"/>
<path d="M1310 8220 c0 -27 5 -50 10 -50 6 0 10 12 10 27 0 25 1 26 14 8 13
-18 13 -18 24 1 10 17 11 17 12 -8 0 -16 5 -28 10 -28 6 0 10 23 10 50 0 56
-10 64 -29 23 l-13 -27 -16 27 c-24 39 -32 34 -32 -23z"/>
<path d="M1560 8259 c0 -5 5 -7 10 -4 6 3 10 8 10 11 0 2 -4 4 -10 4 -5 0 -10
-5 -10 -11z"/>
<path d="M1697 8263 c-13 -13 -7 -35 16 -54 l22 -18 -22 -1 c-13 0 -23 -4 -23
-10 0 -5 11 -10 25 -10 35 0 44 28 17 51 -26 20 -28 29 -7 29 8 0 15 5 15 10
0 11 -33 14 -43 3z"/>
<path d="M1092 8247 c-5 -7 -7 -27 -5 -44 4 -26 10 -33 27 -32 11 0 15 3 9 6
-15 6 -17 35 -4 49 6 5 4 14 -4 21 -10 10 -15 10 -23 0z"/>
<path d="M1763 8249 c-16 -16 0 -73 21 -77 15 -3 16 -1 5 16 -9 15 -10 24 -2
34 14 17 -9 42 -24 27z"/>
<path d="M870 8205 c0 -19 5 -35 10 -35 6 0 10 10 10 21 0 12 8 28 18 35 15
12 14 13 -10 14 -25 0 -28 -3 -28 -35z"/>
<path d="M933 8205 c0 -22 2 -30 4 -17 2 12 2 30 0 40 -3 9 -5 -1 -4 -23z"/>
<path d="M1050 8205 c0 -19 5 -35 10 -35 6 0 10 16 10 35 0 19 -4 35 -10 35
-5 0 -10 -16 -10 -35z"/>
<path d="M1214 8228 c-4 -6 0 -16 9 -23 18 -13 24 -31 8 -20 -5 3 -12 1 -16
-5 -4 -6 5 -10 19 -10 31 0 37 33 9 45 -17 7 -16 8 2 15 19 8 19 9 -2 9 -12 1
-25 -4 -29 -11z"/>
<path d="M1422 8208 c2 -28 8 -34 31 -36 25 -3 27 -1 27 32 0 20 -4 36 -10 36
-5 0 -10 -11 -10 -25 0 -14 -4 -25 -10 -25 -5 0 -10 11 -10 25 0 14 -5 25 -11
25 -6 0 -9 -14 -7 -32z"/>
<path d="M1494 8228 c-4 -6 0 -16 9 -23 18 -13 24 -31 8 -20 -5 3 -12 1 -16
-5 -4 -6 5 -10 19 -10 31 0 37 33 9 45 -17 7 -16 8 2 15 19 8 19 9 -2 9 -12 1
-25 -4 -29 -11z"/>
<path d="M1563 8205 c0 -22 2 -30 4 -17 2 12 2 30 0 40 -3 9 -5 -1 -4 -23z"/>
<path d="M1594 8226 c-11 -28 1 -51 26 -54 22 -2 23 -1 8 8 -10 6 -18 17 -18
25 0 8 8 19 18 24 15 9 14 10 -6 11 -12 0 -25 -6 -28 -14z"/>
<path d="M1814 8226 c-11 -29 0 -51 26 -51 21 0 25 5 25 30 0 24 -5 31 -23 33
-13 2 -24 -3 -28 -12z m36 -23 c0 -20 -3 -24 -11 -16 -7 7 -9 19 -6 27 10 24
17 19 17 -11z"/>
<path d="M1880 8204 c0 -19 5 -34 10 -34 6 0 10 11 10 24 0 35 28 42 32 8 2
-22 9 -27 33 -29 l30 -3 -25 12 c-25 11 -25 11 -2 15 13 3 22 12 22 23 0 16
-8 19 -55 19 l-55 0 0 -35z m90 16 c0 -5 -5 -10 -11 -10 -5 0 -7 5 -4 10 3 6
8 10 11 10 2 0 4 -4 4 -10z"/>
<path d="M800 8046 c0 -13 7 -26 15 -30 22 -8 18 -25 -7 -36 -22 -8 -22 -9 4
-9 39 -1 49 36 17 60 -20 15 -21 19 -6 19 9 0 17 5 17 10 0 6 -9 10 -20 10
-14 0 -20 -7 -20 -24z"/>
<path d="M870 8060 c0 -5 9 -10 20 -10 20 0 20 -1 5 -31 -9 -17 -14 -36 -12
-42 4 -12 29 30 41 71 7 19 4 22 -23 22 -17 0 -31 -4 -31 -10z"/>
<path d="M987 8064 c-4 -4 -7 -27 -7 -51 0 -44 0 -44 33 -41 31 3 32 5 32 48
0 41 -2 45 -25 48 -14 2 -29 0 -33 -4z m43 -24 c0 -5 -7 -10 -15 -10 -8 0 -15
5 -15 10 0 6 7 10 15 10 8 0 15 -4 15 -10z m-2 -41 c-2 -6 -8 -10 -13 -10 -5
0 -11 4 -13 10 -2 6 4 11 13 11 9 0 15 -5 13 -11z"/>
<path d="M1270 8020 c0 -27 5 -50 10 -50 6 0 10 11 10 25 0 14 5 25 10 25 6 0
10 -11 10 -25 0 -14 5 -25 10 -25 6 0 10 14 10 31 0 22 -5 32 -20 36 -11 3
-20 12 -20 19 0 8 -4 14 -10 14 -5 0 -10 -22 -10 -50z"/>
<path d="M1380 8021 c0 -28 5 -51 10 -51 6 0 10 10 10 22 l0 22 16 -22 c16
-23 41 -32 27 -10 -4 7 -7 29 -8 48 0 31 -3 35 -27 38 -27 3 -28 2 -28 -47z
m40 20 c0 -6 -4 -13 -10 -16 -5 -3 -10 1 -10 9 0 9 5 16 10 16 6 0 10 -4 10
-9z"/>
<path d="M1500 8056 c0 -7 -9 -16 -21 -19 -16 -4 -20 -12 -17 -34 2 -22 9 -29
31 -31 26 -3 27 -2 27 47 0 28 -4 51 -10 51 -5 0 -10 -6 -10 -14z m-4 -63
c-11 -11 -19 6 -11 24 8 17 8 17 12 0 3 -10 2 -21 -1 -24z"/>
<path d="M1064 8026 c-12 -30 1 -51 31 -53 l30 -3 -25 12 c-25 11 -25 11 -2
15 33 6 30 43 -3 43 -14 0 -28 -6 -31 -14z m36 -6 c0 -5 -5 -10 -11 -10 -5 0
-7 5 -4 10 3 6 8 10 11 10 2 0 4 -4 4 -10z"/>
<path d="M1140 8030 c0 -5 7 -7 15 -4 8 4 15 2 15 -4 0 -5 -9 -12 -21 -15 -29
-8 -19 -31 14 -35 25 -3 27 0 27 32 0 32 -3 36 -25 36 -14 0 -25 -4 -25 -10z
m30 -40 c0 -5 -2 -10 -4 -10 -3 0 -8 5 -11 10 -3 6 -1 10 4 10 6 0 11 -4 11
-10z"/>
<path d="M1212 8024 c-16 -28 -3 -54 27 -53 15 0 20 3 11 6 -34 13 -38 40 -7
53 l22 9 -22 0 c-12 1 -26 -6 -31 -15z"/>
<path d="M1540 7980 c0 -5 5 -10 10 -10 6 0 10 5 10 10 0 6 -4 10 -10 10 -5 0
-10 -4 -10 -10z"/>
<path d="M800 7855 c-9 -10 -9 -15 -1 -15 15 0 14 -43 -1 -58 -9 -9 -4 -12 22
-12 26 0 31 3 22 12 -7 7 -12 29 -12 50 0 40 -10 48 -30 23z"/>
<path d="M875 7860 c-3 -5 3 -10 14 -10 26 0 26 -10 1 -43 -27 -34 -26 -37 13
-36 27 0 29 2 15 11 -14 10 -14 14 -2 33 8 12 12 30 8 39 -7 18 -39 22 -49 6z"/>
<path d="M957 7863 c-2 -4 -4 -26 -3 -48 1 -36 4 -40 26 -40 23 0 25 4 25 45
0 38 -3 45 -22 48 -11 2 -23 0 -26 -5z m33 -23 c0 -5 -4 -10 -10 -10 -5 0 -10
5 -10 10 0 6 5 10 10 10 6 0 10 -4 10 -10z m0 -45 c0 -8 -4 -15 -10 -15 -5 0
-10 7 -10 15 0 8 5 15 10 15 6 0 10 -7 10 -15z"/>
<path d="M1042 7835 c-22 -34 -22 -35 -2 -35 11 0 20 -7 20 -15 0 -21 13 -19
28 5 7 12 8 20 2 20 -5 0 -10 14 -10 30 0 39 -10 38 -38 -5z"/>
<path d="M1120 7846 c0 -13 7 -26 15 -30 22 -8 18 -25 -7 -36 -22 -8 -22 -9 4
-9 39 -1 49 36 17 60 -20 15 -21 19 -6 19 9 0 17 5 17 10 0 6 -9 10 -20 10
-14 0 -20 -7 -20 -24z"/>
<path d="M1220 7820 c0 -49 1 -50 30 -50 17 0 30 5 30 10 0 6 -9 10 -20 10
-17 0 -20 7 -20 40 0 22 -4 40 -10 40 -5 0 -10 -22 -10 -50z"/>
<path d="M1360 7820 c0 -27 5 -50 10 -50 6 0 10 5 10 12 0 9 3 9 12 0 19 -19
30 -14 18 9 -9 15 -8 24 1 35 14 17 -2 19 -19 2 -9 -9 -12 -6 -12 15 0 15 -4
27 -10 27 -5 0 -10 -22 -10 -50z"/>
<path d="M1551 7856 c-7 -8 -11 -30 -9 -48 3 -29 7 -33 36 -36 29 -3 32 -1 32
22 0 21 -5 26 -22 25 -13 0 -17 -3 -10 -6 17 -7 15 -23 -3 -23 -10 0 -15 10
-15 30 0 23 4 30 20 30 11 0 20 5 20 10 0 15 -36 12 -49 -4z"/>
<path d="M2000 7823 c0 -29 5 -53 10 -53 6 0 10 12 10 26 l0 25 25 -28 24 -28
-1 55 c0 30 -3 43 -5 28 -2 -16 -6 -28 -9 -28 -3 0 -16 12 -29 28 l-24 27 -1
-52z"/>
<path d="M2090 7856 c0 -8 5 -18 10 -21 6 -3 10 -19 10 -36 0 -38 12 -37 26 4
6 17 14 40 19 50 4 10 3 17 -3 17 -6 0 -14 -10 -18 -22 l-7 -23 -10 23 c-11
25 -27 30 -27 8z"/>
<path d="M1300 7830 c0 -6 4 -9 9 -5 5 3 12 1 15 -4 3 -5 -3 -11 -14 -14 -33
-9 -25 -37 11 -37 28 0 30 2 27 33 -2 24 -8 33 -25 35 -13 2 -23 -2 -23 -8z
m30 -34 c0 -3 -4 -8 -10 -11 -5 -3 -10 -1 -10 4 0 6 5 11 10 11 6 0 10 -2 10
-4z"/>
<path d="M1434 7826 c-10 -26 1 -51 24 -54 12 -2 22 2 22 8 0 6 -4 9 -9 5 -5
-3 -12 -1 -16 5 -3 6 3 10 15 10 15 0 20 5 18 18 -4 22 -46 29 -54 8z"/>
<path d="M1624 7826 c-10 -26 1 -51 24 -54 12 -2 22 2 22 8 0 6 -4 9 -9 5 -5
-3 -12 -1 -16 5 -3 6 3 10 15 10 15 0 20 5 18 18 -4 22 -46 29 -54 8z"/>
<path d="M1695 7821 c-9 -28 5 -51 30 -51 25 0 39 23 30 51 -4 12 -16 19 -30
19 -14 0 -26 -7 -30 -19z m41 -27 c-5 -13 -10 -14 -18 -6 -6 6 -8 18 -4 28 5
13 10 14 18 6 6 -6 8 -18 4 -28z"/>
<path d="M1770 7805 c0 -19 5 -35 10 -35 6 0 10 10 10 23 0 13 5 28 12 35 9 9
7 12 -10 12 -18 0 -22 -6 -22 -35z"/>
<path d="M1820 7821 c-14 -26 -3 -51 24 -52 20 0 19 -1 -4 -11 l-25 -11 24 -5
c29 -5 41 12 41 61 0 33 -3 37 -25 37 -14 0 -29 -8 -35 -19z m36 -27 c-5 -13
-10 -14 -18 -6 -6 6 -8 18 -4 28 5 13 10 14 18 6 6 -6 8 -18 4 -28z"/>
<path d="M1894 7826 c-12 -30 1 -51 31 -53 l30 -3 -25 12 c-25 11 -25 11 -2
15 33 6 30 43 -3 43 -14 0 -28 -6 -31 -14z m36 -6 c0 -5 -5 -10 -11 -10 -5 0
-7 5 -4 10 3 6 8 10 11 10 2 0 4 -4 4 -10z"/>
<path d="M792 7623 c3 -46 4 -48 33 -48 29 0 30 2 33 48 2 28 -1 47 -7 47 -6
0 -11 -18 -11 -40 0 -29 -4 -40 -15 -40 -11 0 -15 11 -15 40 0 22 -5 40 -11
40 -6 0 -9 -19 -7 -47z"/>
<path d="M887 7663 c-13 -13 -7 -35 16 -54 l22 -18 -22 -1 c-13 0 -23 -4 -23
-10 0 -5 11 -10 25 -10 35 0 44 28 17 51 -26 20 -28 29 -7 29 8 0 15 5 15 10
0 11 -33 14 -43 3z"/>
<path d="M974 7654 c-4 -10 -13 -34 -20 -51 -13 -34 -7 -42 14 -21 10 10 17
10 32 0 30 -18 31 -15 13 31 -21 55 -31 65 -39 41z"/>
<path d="M780 7260 c0 -5 7 -10 15 -10 11 0 15 -11 15 -40 0 -22 5 -40 10 -40
6 0 10 18 10 40 0 29 4 40 15 40 8 0 15 5 15 10 0 6 -18 10 -40 10 -22 0 -40
-4 -40 -10z"/>
<path d="M940 7220 c0 -49 1 -50 30 -50 17 0 30 5 30 11 0 6 -9 8 -20 4 -18
-6 -20 -2 -20 39 0 25 -4 46 -10 46 -5 0 -10 -22 -10 -50z"/>
<path d="M1175 7256 c-18 -14 -18 -15 -2 -16 11 0 17 -8 17 -25 0 -14 -4 -25
-10 -25 -5 0 -10 -4 -10 -10 0 -5 11 -10 25 -10 14 0 25 5 25 10 0 6 -4 10 -9
10 -6 0 -11 18 -13 41 -3 38 -4 39 -23 25z"/>
<path d="M1250 7260 c0 -5 7 -10 15 -10 21 0 19 -17 -6 -51 l-20 -29 30 0 c30
0 43 14 20 22 -9 3 -8 10 1 25 7 11 10 28 7 37 -7 17 -47 23 -47 6z"/>
<path d="M1335 7256 c-18 -14 -18 -15 -2 -16 11 0 17 -8 17 -25 0 -14 -4 -25
-10 -25 -5 0 -10 -4 -10 -10 0 -5 11 -10 25 -10 14 0 25 5 25 10 0 6 -4 10 -9
10 -6 0 -11 18 -13 41 -3 38 -4 39 -23 25z"/>
<path d="M1410 7260 c0 -5 7 -10 15 -10 21 0 19 -17 -6 -51 l-20 -29 30 0 c30
0 43 14 20 22 -9 3 -8 10 1 25 7 11 10 28 7 37 -7 17 -47 23 -47 6z"/>
<path d="M1490 7255 c-9 -10 -9 -15 -1 -15 15 0 14 -43 -1 -58 -9 -9 -4 -12
22 -12 26 0 31 3 22 12 -7 7 -12 29 -12 50 0 40 -10 48 -30 23z"/>
<path d="M1565 7260 c-3 -5 3 -10 14 -10 26 0 26 -10 1 -43 -27 -34 -26 -37
13 -36 27 0 29 2 15 11 -14 10 -14 14 -2 33 8 12 12 30 8 39 -7 18 -39 22 -49
6z"/>
<path d="M1640 7260 c0 -5 7 -10 16 -10 13 0 14 -3 5 -14 -9 -10 -8 -15 4 -20
22 -8 18 -25 -7 -36 -22 -8 -22 -9 5 -9 30 -1 44 19 32 47 -5 9 -7 25 -6 35 2
12 -5 17 -23 17 -14 0 -26 -4 -26 -10z"/>
<path d="M1730 7255 c-9 -10 -9 -15 -1 -15 15 0 14 -43 -1 -58 -9 -9 -4 -12
22 -12 26 0 31 3 22 12 -7 7 -12 29 -12 50 0 40 -10 48 -30 23z"/>
<path d="M1805 7260 c-3 -5 3 -10 14 -10 26 0 26 -10 1 -43 -27 -34 -26 -37
13 -36 27 0 29 2 15 11 -14 10 -14 14 -2 33 8 12 12 30 8 39 -7 18 -39 22 -49
6z"/>
<path d="M1880 7260 c0 -5 5 -10 11 -10 6 0 8 -7 5 -15 -3 -9 1 -18 9 -21 22
-9 18 -23 -7 -34 -23 -9 -23 -9 -2 -9 12 -1 27 6 34 14 10 13 10 19 -4 34 -11
13 -14 21 -7 26 19 11 12 25 -14 25 -14 0 -25 -4 -25 -10z"/>
<path d="M1972 7240 c-27 -36 -27 -40 -2 -40 11 0 20 -7 20 -15 0 -21 18 -19
22 3 5 25 -3 82 -11 82 -4 0 -17 -13 -29 -30z m18 -20 c0 -5 -5 -10 -11 -10
-5 0 -7 5 -4 10 3 6 8 10 11 10 2 0 4 -4 4 -10z"/>
<path d="M1102 7234 c-11 -12 -10 -17 2 -30 14 -13 18 -14 31 -1 12 13 12 17
-3 30 -15 13 -19 13 -30 1z"/>
<path d="M871 7222 c-12 -23 4 -52 29 -52 11 0 20 4 20 10 0 5 -6 7 -14 4 -8
-3 -17 -1 -21 5 -4 7 4 11 20 11 21 0 26 4 21 16 -3 9 -6 18 -6 20 0 13 -41 1
-49 -14z m34 -2 c3 -5 1 -10 -4 -10 -6 0 -11 5 -11 10 0 6 2 10 4 10 3 0 8 -4
11 -10z"/>
<path d="M1020 7230 c0 -5 5 -10 10 -10 6 0 10 5 10 10 0 6 -4 10 -10 10 -5 0
-10 -4 -10 -10z"/>
<path d="M1020 7180 c0 -5 5 -10 10 -10 6 0 10 5 10 10 0 6 -4 10 -10 10 -5 0
-10 -4 -10 -10z"/>
<path d="M3640 6630 c0 -93 1 -100 20 -100 19 0 20 7 20 100 0 93 -1 100 -20
100 -19 0 -20 -7 -20 -100z"/>
<path d="M4155 6720 c-4 -7 -3 -16 3 -22 14 -14 45 -2 40 15 -6 16 -34 21 -43
7z"/>
<path d="M3720 6599 c0 -54 3 -69 14 -69 11 0 16 15 18 53 3 45 6 52 26 55 21
3 22 0 22 -52 0 -49 2 -56 20 -56 18 0 20 7 20 59 0 70 -10 81 -73 79 l-47 -1
0 -68z"/>
<path d="M3859 6648 c29 -73 52 -118 60 -118 12 0 23 19 50 89 20 50 20 51 2
51 -14 0 -23 -12 -33 -42 l-14 -42 -17 42 c-12 30 -23 42 -37 42 -16 0 -18 -4
-11 -22z"/>
<path d="M4016 6654 c-9 -9 -16 -32 -16 -54 0 -48 21 -70 65 -70 24 0 39 7 49
22 36 51 8 118 -49 118 -18 0 -41 -7 -49 -16z m69 -54 c0 -28 -4 -36 -22 -38
-24 -4 -38 25 -28 59 5 14 14 19 28 17 18 -2 22 -10 22 -38z"/>
<path d="M4160 6600 c0 -56 3 -70 15 -70 12 0 15 14 15 70 0 56 -3 70 -15 70
-12 0 -15 -14 -15 -70z"/>
<path d="M4236 6648 c-20 -29 -20 -67 0 -96 12 -18 24 -22 50 -20 40 3 46 22
9 26 -47 6 -47 82 0 82 16 0 25 6 25 15 0 25 -66 19 -84 -7z"/>
<path d="M4356 6648 c-20 -29 -20 -67 0 -96 13 -19 24 -22 57 -20 53 4 61 26
11 30 -54 4 -57 28 -5 28 49 0 61 18 37 55 -22 33 -78 35 -100 3z m74 -23 c0
-9 -9 -15 -25 -15 -24 0 -32 10 -18 23 12 13 43 7 43 -8z"/>
<path d="M780 6060 c0 -5 7 -10 15 -10 11 0 15 -11 15 -40 0 -22 5 -40 10 -40
6 0 10 18 10 40 0 29 4 40 15 40 8 0 15 5 15 10 0 6 -18 10 -40 10 -22 0 -40
-4 -40 -10z"/>
<path d="M5910 6020 c0 -27 5 -50 10 -50 6 0 10 23 10 50 0 28 -4 50 -10 50
-5 0 -10 -22 -10 -50z"/>
<path d="M6170 6060 c0 -5 5 -10 10 -10 6 0 10 5 10 10 0 6 -4 10 -10 10 -5 0
-10 -4 -10 -10z"/>
<path d="M6617 6063 c-3 -5 -4 -26 -3 -48 1 -33 5 -41 22 -43 23 -3 39 22 27
41 -4 7 -6 22 -4 35 2 16 -3 22 -18 22 -11 0 -22 -3 -24 -7z m33 -18 c0 -8 -4
-15 -9 -15 -13 0 -22 16 -14 24 11 11 23 6 23 -9z m3 -50 c1 -5 -6 -11 -15
-13 -11 -2 -18 3 -18 13 0 17 30 18 33 0z"/>
<path d="M6385 6046 c-14 -15 -18 -66 -5 -66 5 0 10 6 10 13 0 8 3 7 10 -3 10
-15 20 -10 24 12 1 7 5 18 8 23 4 6 3 17 -1 24 -7 10 -10 10 -16 1 -5 -8 -10
-8 -14 -2 -4 6 -10 6 -16 -2z"/>
<path d="M871 6022 c-13 -25 8 -56 35 -50 29 5 27 62 -3 66 -13 2 -26 -4 -32
-16z m35 -29 c-7 -17 -8 -17 -17 0 -12 21 -2 44 13 29 6 -6 8 -19 4 -29z"/>
<path d="M5950 6005 c0 -19 5 -35 10 -35 6 0 10 11 10 24 0 14 5 28 10 31 6 4
10 -7 10 -24 0 -17 5 -31 10 -31 6 0 10 16 10 35 0 32 -2 35 -30 35 -28 0 -30
-3 -30 -35z"/>
<path d="M6020 6036 c0 -13 23 -66 29 -66 8 0 31 45 31 60 0 18 -20 10 -20 -7
-1 -17 -1 -17 -14 0 -12 15 -26 23 -26 13z"/>
<path d="M6094 6026 c-11 -29 0 -51 26 -51 21 0 25 5 25 30 0 24 -5 31 -23 33
-13 2 -24 -3 -28 -12z m36 -23 c0 -20 -3 -24 -11 -16 -7 7 -9 19 -6 27 10 24
17 19 17 -11z"/>
<path d="M6170 6005 c0 -19 5 -35 10 -35 6 0 10 16 10 35 0 19 -4 35 -10 35
-5 0 -10 -16 -10 -35z"/>
<path d="M6204 6026 c-11 -28 1 -51 26 -54 22 -2 23 -1 8 8 -10 6 -18 17 -18
25 0 8 8 19 18 24 15 9 14 10 -6 11 -12 0 -25 -6 -28 -14z"/>
<path d="M6264 6026 c-12 -30 1 -51 31 -53 l30 -3 -25 12 c-25 11 -25 11 -2
15 33 6 30 43 -3 43 -14 0 -28 -6 -31 -14z m36 -6 c0 -5 -5 -10 -11 -10 -5 0
-7 5 -4 10 3 6 8 10 11 10 2 0 4 -4 4 -10z"/>
<path d="M793 5854 c-4 -10 4 -24 23 -39 22 -18 25 -25 14 -28 -8 -3 -22 -8
-30 -10 -8 -3 -2 -6 13 -6 40 -1 47 27 14 51 -33 24 -34 35 -4 41 l22 4 -23 2
c-12 0 -25 -6 -29 -15z"/>
<path d="M1195 5846 c-22 -33 -5 -76 30 -76 20 0 25 5 25 25 0 17 -5 25 -17
24 -11 0 -13 -3 -5 -6 19 -7 15 -35 -5 -31 -13 2 -18 13 -18 38 0 28 5 35 25
41 23 7 24 7 3 8 -13 1 -29 -9 -38 -23z"/>
<path d="M1597 5863 c-14 -13 -6 -42 13 -48 27 -9 25 -33 -2 -38 -20 -3 -20
-4 2 -3 33 1 41 41 11 51 -28 9 -27 33 2 38 20 4 20 4 1 6 -11 0 -24 -2 -27
-6z"/>
<path d="M5910 5820 c0 -27 5 -50 10 -50 6 0 10 23 10 50 0 28 -4 50 -10 50
-5 0 -10 -22 -10 -50z"/>
<path d="M6250 5820 c0 -45 2 -50 23 -50 28 0 41 10 50 34 11 27 -18 66 -48
66 -23 0 -25 -3 -25 -50z m48 -3 c2 -19 -1 -27 -12 -27 -11 0 -16 10 -16 31 0
38 24 35 28 -4z"/>
<path d="M6614 5856 c-3 -8 -4 -29 -2 -48 2 -25 8 -34 25 -36 26 -4 39 31 29
73 -7 28 -43 35 -52 11z m41 -37 c0 -24 -5 -35 -17 -37 -14 -3 -18 4 -18 31 0
18 3 37 7 41 15 14 28 -2 28 -35z"/>
<path d="M6707 5863 l22 -4 -19 -45 c-11 -24 -16 -44 -12 -44 7 0 42 78 42 93
0 4 -12 6 -27 6 -23 -1 -24 -2 -6 -6z"/>
<path d="M6774 5814 c-14 -31 -22 -59 -19 -62 3 -3 5 -3 5 0 0 3 11 31 25 62
14 31 22 56 19 56 -3 0 -16 -25 -30 -56z"/>
<path d="M6833 5863 c23 -6 22 -34 -4 -67 l-20 -26 33 1 c18 1 25 3 16 6 -22
5 -21 4 -4 38 18 34 11 55 -18 54 -16 -1 -17 -2 -3 -6z"/>
<path d="M6899 5853 c-12 -14 -12 -16 0 -9 11 7 13 0 9 -33 -3 -32 0 -41 12
-41 12 0 14 10 12 50 -4 53 -11 60 -33 33z"/>
<path d="M6990 5843 c-27 -60 -40 -93 -35 -93 7 0 56 112 52 117 -2 2 -10 -9
-17 -24z"/>
<path d="M7033 5863 c23 -6 22 -34 -4 -67 l-20 -26 33 1 c18 1 25 3 16 6 -22
5 -21 4 -4 38 18 34 11 55 -18 54 -16 -1 -17 -2 -3 -6z"/>
<path d="M7094 5856 c-3 -8 -4 -29 -2 -48 2 -25 8 -34 25 -36 26 -4 39 31 29
73 -7 28 -43 35 -52 11z m41 -37 c0 -24 -5 -35 -17 -37 -14 -3 -18 4 -18 31 0
18 3 37 7 41 15 14 28 -2 28 -35z"/>
<path d="M7180 5855 c-9 -11 -10 -16 -2 -11 9 5 12 -2 12 -28 0 -19 -6 -37
-12 -39 -7 -3 1 -6 17 -6 17 0 25 3 18 7 -6 4 -13 27 -15 51 -3 41 -4 43 -18
26z"/>
<path d="M7250 5843 c1 -15 0 -37 -2 -48 -2 -16 3 -20 22 -20 23 0 25 4 25 45
0 39 -3 45 -23 48 -19 3 -22 -1 -22 -25z m32 2 c0 -5 -5 -11 -11 -13 -6 -2
-11 4 -11 13 0 9 5 15 11 13 6 -2 11 -8 11 -13z m3 -46 c10 -15 -1 -23 -20
-15 -9 3 -13 10 -10 16 8 13 22 13 30 -1z"/>
<path d="M868 5849 c-2 -6 -2 -26 0 -45 3 -24 9 -34 21 -33 10 0 11 2 4 6 -15
5 -18 50 -4 55 5 2 3 8 -4 15 -9 9 -15 9 -17 2z"/>
<path d="M6411 5846 c-6 -7 -25 -11 -43 -9 -32 3 -32 3 -8 -9 25 -11 25 -11 3
-15 -15 -3 -23 -12 -23 -24 0 -15 7 -19 31 -19 17 0 28 4 24 10 -3 5 -1 18 4
27 9 16 10 14 11 -9 0 -23 4 -28 23 -27 12 0 16 3 10 6 -15 6 -17 35 -4 49 6
5 4 14 -4 21 -10 10 -16 9 -24 -1z m-31 -50 c0 -3 -4 -8 -10 -11 -5 -3 -10 -1
-10 4 0 6 5 11 10 11 6 0 10 -2 10 -4z"/>
<path d="M1388 5845 c-2 -3 -2 -20 0 -40 3 -25 9 -35 21 -34 10 0 11 2 4 6
-16 6 -17 50 -1 55 8 3 6 6 -4 10 -9 4 -18 5 -20 3z"/>
<path d="M1658 5845 c-2 -3 -2 -20 0 -40 3 -25 9 -35 21 -34 10 0 11 2 4 6
-16 6 -17 50 -1 55 8 3 6 6 -4 10 -9 4 -18 5 -20 3z"/>
<path d="M933 5833 c23 -6 22 -19 -3 -26 -29 -8 -26 -37 5 -37 22 0 25 4 25
35 0 30 -3 35 -22 34 -17 -1 -19 -2 -5 -6z m17 -43 c0 -5 -7 -10 -15 -10 -8 0
-15 5 -15 10 0 6 7 10 15 10 8 0 15 -4 15 -10z"/>
<path d="M980 5806 c0 -20 5 -36 10 -36 6 0 10 14 10 30 0 39 27 41 33 3 4
-26 4 -26 3 2 -1 25 -6 31 -28 33 -26 3 -28 1 -28 -32z"/>
<path d="M1090 5825 c0 -9 7 -18 15 -21 20 -8 19 -21 -2 -27 -14 -4 -12 -5 5
-6 26 -1 29 20 6 40 -14 12 -14 14 3 20 16 7 15 8 -4 8 -14 1 -23 -5 -23 -14z"/>
<path d="M1272 5808 c-2 -35 0 -38 26 -38 27 0 28 2 23 38 l-6 37 -3 -32 c-2
-20 -9 -33 -17 -33 -8 0 -15 14 -18 33 -4 31 -4 31 -5 -5z"/>
<path d="M1353 5805 c0 -22 2 -30 4 -17 2 12 2 30 0 40 -3 9 -5 -1 -4 -23z"/>
<path d="M1448 5833 c27 -6 29 -19 2 -26 -30 -8 -25 -37 6 -37 23 0 25 3 22
33 -2 26 -8 32 -28 34 -22 1 -22 1 -2 -4z m22 -43 c0 -5 -7 -10 -15 -10 -8 0
-15 5 -15 10 0 6 7 10 15 10 8 0 15 -4 15 -10z"/>
<path d="M1501 5803 c1 -28 3 -31 6 -13 3 14 10 31 15 38 8 9 6 12 -6 12 -12
0 -16 -9 -15 -37z"/>
<path d="M1706 5822 c-10 -30 4 -53 28 -50 31 4 30 62 -1 66 -14 2 -23 -3 -27
-16z m44 -17 c0 -16 -6 -25 -15 -25 -9 0 -15 9 -15 25 0 16 6 25 15 25 9 0 15
-9 15 -25z"/>
<path d="M1780 5805 c0 -19 5 -35 10 -35 6 0 10 13 10 29 0 16 6 32 13 34 6 3
2 6 -10 6 -20 1 -23 -4 -23 -34z"/>
<path d="M1834 5826 c-11 -28 1 -51 26 -53 22 -1 22 -1 3 4 -28 6 -30 23 -3
23 13 0 20 7 20 20 0 24 -37 28 -46 6z m36 -6 c0 -5 -7 -10 -15 -10 -8 0 -15
5 -15 10 0 6 7 10 15 10 8 0 15 -4 15 -10z"/>
<path d="M5950 5828 c0 -6 8 -20 18 -31 16 -19 16 -20 0 -14 -10 4 -18 2 -18
-3 0 -14 37 -12 46 2 4 6 0 16 -9 23 -18 13 -24 31 -8 20 5 -3 12 -1 16 5 4 6
-5 10 -19 10 -14 0 -26 -5 -26 -12z"/>
<path d="M6010 5820 c0 -11 5 -20 10 -20 6 0 10 -5 10 -11 0 -5 -4 -7 -10 -4
-5 3 -10 1 -10 -4 0 -6 9 -11 20 -11 13 0 20 7 20 20 0 11 -4 20 -10 20 -5 0
-10 5 -10 11 0 5 5 7 10 4 6 -3 10 -1 10 4 0 6 -9 11 -20 11 -13 0 -20 -7 -20
-20z"/>
<path d="M6070 5805 c0 -32 2 -35 30 -35 28 0 30 3 30 35 0 19 -4 35 -10 35
-5 0 -10 -11 -10 -24 0 -14 -4 -28 -10 -31 -6 -4 -10 7 -10 24 0 17 -4 31 -10
31 -5 0 -10 -16 -10 -35z"/>
<path d="M6144 5826 c-12 -30 1 -51 31 -53 l30 -3 -25 12 c-25 11 -25 11 -2
15 33 6 30 43 -3 43 -14 0 -28 -6 -31 -14z m36 -6 c0 -5 -5 -10 -11 -10 -5 0
-7 5 -4 10 3 6 8 10 11 10 2 0 4 -4 4 -10z"/>
<path d="M6461 5822 c-12 -23 4 -52 29 -52 11 0 20 4 20 10 0 5 -6 7 -14 4 -8
-3 -17 -1 -21 5 -4 7 4 11 20 11 21 0 26 4 21 16 -3 9 -6 18 -6 20 0 13 -41 1
-49 -14z m34 -2 c3 -5 1 -10 -4 -10 -6 0 -11 5 -11 10 0 6 2 10 4 10 3 0 8 -4
11 -10z"/>
<path d="M799 5653 c-12 -14 -12 -16 0 -9 11 7 13 0 9 -33 -3 -32 0 -41 12
-41 12 0 14 10 12 50 -4 53 -11 60 -33 33z"/>
<path d="M871 5657 c-16 -20 -3 -47 22 -47 19 0 20 -1 2 -20 -10 -11 -13 -20
-8 -20 20 0 34 29 31 62 -3 36 -27 48 -47 25z m39 -17 c0 -11 -7 -20 -15 -20
-8 0 -15 9 -15 20 0 11 7 20 15 20 8 0 15 -9 15 -20z"/>
<path d="M980 5620 l0 -50 33 1 c30 2 30 2 5 6 -34 5 -37 30 -5 43 l22 9 -22
0 c-13 1 -23 7 -23 15 0 8 10 17 23 19 19 4 18 4 -5 6 -27 1 -28 -1 -28 -49z"/>
<path d="M1192 5620 c0 -41 2 -47 7 -25 3 17 13 30 21 30 8 0 18 -13 22 -30 6
-29 6 -29 5 5 -2 28 -7 36 -24 38 -12 2 -24 11 -26 20 -3 9 -5 -8 -5 -38z"/>
<path d="M1607 5663 c-14 -13 -6 -42 13 -48 27 -9 25 -33 -2 -38 -20 -3 -20
-4 2 -3 33 1 41 41 11 51 -28 9 -27 33 2 38 20 4 20 4 1 6 -11 0 -24 -2 -27
-6z"/>
<path d="M1668 5645 c-2 -3 -2 -20 0 -40 3 -25 9 -35 21 -34 10 0 11 2 4 6
-16 6 -17 50 -1 55 8 3 6 6 -4 10 -9 4 -18 5 -20 3z"/>
<path d="M1065 5622 c4 -13 2 -29 -5 -37 -8 -9 -8 -15 -2 -15 6 0 12 6 15 13
3 9 8 8 22 -3 17 -14 17 -13 7 5 -7 15 -7 26 1 40 9 17 8 18 -4 8 -12 -10 -18
-10 -28 0 -11 10 -12 8 -6 -11z"/>
<path d="M1125 5621 c-8 -28 5 -51 29 -50 16 1 17 2 4 6 -11 3 -18 14 -18 28
0 14 7 25 18 28 13 4 12 5 -5 6 -13 1 -24 -6 -28 -18z"/>
<path d="M1283 5634 c23 -7 22 -20 -4 -27 -29 -8 -19 -31 15 -35 26 -3 27 -1
24 30 -2 27 -7 33 -28 35 -14 1 -18 0 -7 -3z m17 -44 c0 -5 -7 -10 -16 -10 -8
0 -12 5 -9 10 3 6 10 10 16 10 5 0 9 -4 9 -10z"/>
<path d="M1342 5603 c1 -37 1 -37 5 -5 3 18 10 32 18 32 8 0 15 -14 18 -32 4
-32 4 -32 5 5 2 33 0 37 -23 37 -23 0 -25 -4 -23 -37z"/>
<path d="M1414 5626 c-10 -27 1 -50 26 -57 l25 -6 -25 -12 -25 -11 25 3 c22 2
25 7 28 50 3 45 2 47 -23 47 -14 0 -28 -6 -31 -14z m46 -15 c0 -11 -5 -23 -11
-27 -15 -9 -33 12 -26 30 9 23 37 20 37 -3z"/>
<path d="M1494 5626 c-11 -28 1 -51 26 -53 22 -1 22 -1 3 4 -28 6 -30 23 -3
23 13 0 20 7 20 20 0 24 -37 28 -46 6z m36 -6 c0 -5 -7 -10 -15 -10 -8 0 -15
5 -15 10 0 6 7 10 15 10 8 0 15 -4 15 -10z"/>
<path d="M799 5453 c-12 -14 -12 -16 0 -9 11 7 13 0 9 -33 -3 -32 0 -41 12
-41 12 0 14 10 12 50 -4 53 -11 60 -33 33z"/>
<path d="M888 5460 c27 -11 27 -14 1 -56 l-21 -34 29 1 c16 1 21 3 11 6 -16 4
-17 7 -2 35 19 37 12 58 -18 57 l-23 0 23 -9z"/>
<path d="M950 5443 c1 -15 0 -37 -2 -48 -2 -16 3 -20 22 -20 23 0 25 4 25 45
0 39 -3 45 -23 48 -19 3 -22 -1 -22 -25z m32 2 c0 -5 -5 -11 -11 -13 -6 -2
-11 4 -11 13 0 9 5 15 11 13 6 -2 11 -8 11 -13z m3 -46 c10 -15 -1 -23 -20
-15 -9 3 -13 10 -10 16 8 13 22 13 30 -1z"/>
<path d="M1024 5456 c-3 -8 -4 -29 -2 -48 2 -25 8 -34 25 -36 26 -4 39 31 29
73 -7 28 -43 35 -52 11z m41 -37 c0 -24 -5 -35 -17 -37 -14 -3 -18 4 -18 31 0
18 3 37 7 41 15 14 28 -2 28 -35z"/>
<path d="M1110 5455 c-9 -11 -10 -16 -2 -11 9 5 12 -2 12 -28 0 -19 -6 -37
-12 -39 -7 -3 1 -6 17 -6 17 0 25 3 18 7 -6 4 -13 27 -15 51 -3 41 -4 43 -18
26z"/>
<path d="M1222 5458 c-15 -15 -15 -61 0 -76 7 -7 22 -12 35 -12 18 0 23 6 23
25 0 17 -5 25 -17 24 -11 0 -13 -3 -5 -6 20 -8 14 -33 -8 -33 -41 0 -38 75 3
83 20 4 20 4 2 6 -12 0 -26 -4 -33 -11z"/>
<path d="M1301 5423 c0 -29 3 -53 7 -53 4 0 6 17 4 38 -6 64 -10 69 -11 15z"/>
<path d="M1581 5418 c1 -29 3 -44 6 -33 3 11 12 26 21 33 14 11 14 12 -1 12
-25 0 -21 28 6 33 19 4 18 4 -5 6 -27 1 -28 0 -27 -51z"/>
<path d="M1731 5423 c0 -29 3 -53 7 -53 4 0 6 17 4 38 -6 64 -10 69 -11 15z"/>
<path d="M1771 5423 c0 -29 3 -53 7 -53 4 0 6 17 4 38 -6 64 -10 69 -11 15z"/>
<path d="M1902 5420 c1 -35 3 -43 5 -22 2 17 8 32 14 32 5 0 9 -3 9 -7 0 -5 9
-19 20 -33 l20 -25 -2 55 c-1 40 -2 45 -5 20 l-5 -35 -29 35 -28 35 1 -55z"/>
<path d="M1996 5455 c26 -75 33 -90 34 -67 0 13 7 37 16 55 l15 32 -19 -23
-18 -24 -18 24 c-14 19 -16 20 -10 3z"/>
<path d="M1336 5422 c-10 -31 3 -52 33 -51 23 2 24 2 4 6 -29 6 -30 19 -2 26
26 7 20 31 -8 35 -14 2 -23 -4 -27 -16z m44 -2 c0 -5 -7 -10 -15 -10 -8 0 -15
5 -15 10 0 6 7 10 15 10 8 0 15 -4 15 -10z"/>
<path d="M1412 5403 c1 -37 1 -37 5 -5 3 18 10 32 18 32 8 0 15 -14 18 -32 4
-32 4 -32 5 5 2 33 0 37 -23 37 -23 0 -25 -4 -23 -37z"/>
<path d="M1480 5426 c0 -8 7 -16 15 -20 20 -7 19 -24 -2 -29 -14 -4 -13 -5 4
-6 32 -2 39 19 13 39 -22 17 -23 18 -4 23 16 4 16 5 -3 6 -14 1 -23 -5 -23
-13z"/>
<path d="M1673 5433 c23 -6 22 -19 -3 -26 -29 -8 -26 -37 5 -37 22 0 25 4 25
35 0 30 -3 35 -22 34 -17 -1 -19 -2 -5 -6z m17 -43 c0 -5 -7 -10 -15 -10 -8 0
-15 5 -15 10 0 6 7 10 15 10 8 0 15 -4 15 -10z"/>
<path d="M1800 5426 c0 -8 7 -16 15 -20 20 -7 19 -24 -2 -29 -14 -4 -13 -5 4
-6 32 -2 39 19 13 39 -22 17 -23 18 -4 23 16 4 16 5 -3 6 -14 1 -23 -5 -23
-13z"/>
<path d="M794 5225 c1 -49 2 -50 31 -50 29 0 30 1 31 50 l2 50 -7 -45 c-5 -36
-10 -45 -26 -45 -16 0 -21 9 -26 45 l-7 45 2 -50z"/>
<path d="M883 5254 c-4 -11 3 -23 20 -36 34 -25 34 -36 0 -41 l-28 -4 28 -2
c41 -2 47 27 12 55 -22 17 -25 24 -15 28 8 2 22 7 30 9 8 3 2 6 -13 6 -17 1
-30 -5 -34 -15z"/>
<path d="M971 5232 c-22 -59 -24 -69 -11 -49 13 21 50 23 50 2 0 -8 4 -15 9
-15 8 0 -18 82 -30 94 -3 3 -11 -11 -18 -32z m29 -13 c0 -5 -4 -9 -10 -9 -5 0
-10 7 -10 16 0 8 5 12 10 9 6 -3 10 -10 10 -16z"/>
<path d="M793 5063 c13 -3 17 -16 19 -51 l1 -47 4 40 c2 22 11 46 20 53 14 10
11 12 -23 11 -21 -1 -31 -3 -21 -6z"/>
<path d="M942 5023 c-2 -45 1 -53 16 -53 11 0 13 3 5 8 -6 4 -13 28 -16 52
l-4 45 -1 -52z"/>
<path d="M1162 5035 l-22 -35 25 0 c17 0 25 -6 26 -17 0 -17 1 -16 8 0 8 21 2
87 -8 87 -3 0 -16 -16 -29 -35z m28 -10 c0 -8 -7 -15 -16 -15 -14 0 -14 3 -4
15 7 8 14 15 16 15 2 0 4 -7 4 -15z"/>
<path d="M1258 5064 c-4 -4 -5 -18 -2 -30 4 -14 2 -24 -5 -24 -6 0 -8 8 -5 18
5 14 3 14 -11 -3 -15 -19 -15 -20 4 -23 11 -2 22 -11 24 -20 4 -15 5 -15 6 1
0 9 7 17 14 17 9 0 9 2 0 8 -6 4 -13 20 -15 35 -1 16 -6 26 -10 21z"/>
<path d="M1323 5063 c23 -6 22 -34 -4 -67 l-20 -26 33 1 c18 1 25 3 16 6 -22
5 -21 4 -4 38 18 34 11 55 -18 54 -16 -1 -17 -2 -3 -6z"/>
<path d="M1392 5063 c14 -3 16 -9 8 -23 -7 -13 -6 -19 5 -24 23 -8 18 -34 -7
-39 l-23 -4 23 -2 c27 -1 40 24 25 48 -7 11 -7 23 -1 34 7 14 4 17 -19 16 -17
-1 -21 -3 -11 -6z"/>
<path d="M1473 5043 c-28 -38 -28 -43 -4 -43 11 0 22 -8 24 -17 4 -17 5 -17 6
0 0 9 7 17 14 17 9 0 9 2 0 8 -6 4 -13 21 -15 37 l-3 30 -22 -32z m13 -30
c-10 -10 -19 5 -10 18 6 11 8 11 12 0 2 -7 1 -15 -2 -18z"/>
<path d="M1548 5063 c28 -5 28 -26 1 -64 l-20 -29 28 1 c15 1 20 3 11 6 -15 4
-15 6 0 32 19 34 10 61 -20 60 l-23 -2 23 -4z"/>
<path d="M1622 5063 c14 -3 16 -9 8 -23 -7 -13 -6 -19 5 -24 23 -8 18 -34 -7
-39 l-23 -4 23 -2 c27 -1 40 24 25 48 -7 11 -7 23 -1 34 7 14 4 17 -19 16 -17
-1 -21 -3 -11 -6z"/>
<path d="M1703 5043 c-28 -38 -28 -43 -4 -43 11 0 22 -8 24 -17 4 -17 5 -17 6
0 0 9 7 17 14 17 9 0 9 2 0 8 -6 4 -13 21 -15 37 l-3 30 -22 -32z m13 -30
c-10 -10 -19 5 -10 18 6 11 8 11 12 0 2 -7 1 -15 -2 -18z"/>
<path d="M1773 5063 c19 -5 22 -19 6 -29 -8 -5 -6 -10 5 -16 23 -13 20 -36 -6
-41 -22 -4 -22 -4 -2 -6 12 0 27 6 34 14 10 13 10 19 -4 34 -11 13 -14 21 -7
26 20 12 11 25 -16 24 -17 -1 -21 -3 -10 -6z"/>
<path d="M1868 5064 c-4 -4 -5 -18 -2 -30 4 -14 2 -24 -5 -24 -6 0 -8 8 -5 18
5 14 3 14 -11 -3 -15 -19 -15 -20 4 -23 11 -2 22 -11 24 -20 4 -15 5 -15 6 1
0 9 7 17 14 17 9 0 9 2 0 8 -6 4 -13 20 -15 35 -1 16 -6 26 -10 21z"/>
<path d="M1920 5045 c0 -16 6 -25 15 -25 21 0 19 -38 -2 -43 -14 -4 -13 -5 3
-6 31 -2 40 30 15 51 -26 20 -27 35 -3 41 13 4 11 5 -5 6 -18 1 -23 -4 -23
-24z"/>
<path d="M2008 5060 c27 -11 27 -14 1 -56 l-21 -34 29 1 c16 1 21 3 11 6 -16
4 -17 7 -2 35 19 37 12 58 -18 57 l-23 0 23 -9z"/>
<path d="M1101 5038 c-1 -10 -6 -18 -11 -18 -7 0 -6 -5 2 -13 9 -10 15 -11 24
-3 6 6 8 13 4 16 -4 3 -10 12 -13 20 -4 12 -6 11 -6 -2z"/>
<path d="M874 5026 c-11 -28 1 -51 26 -53 22 -1 22 -1 3 4 -28 6 -30 23 -3 23
13 0 20 7 20 20 0 24 -37 28 -46 6z m36 -6 c0 -5 -7 -10 -15 -10 -8 0 -15 5
-15 10 0 6 7 10 15 10 8 0 15 -4 15 -10z"/>
<path d="M790 4820 c0 -46 2 -50 23 -50 30 0 47 18 47 50 0 32 -17 50 -47 50
-21 0 -23 -4 -23 -50z m50 26 c18 -23 8 -61 -17 -64 -21 -3 -23 1 -23 37 0 43
17 54 40 27z"/>
<path d="M1100 4855 c0 -8 -9 -15 -19 -15 -22 0 -35 -28 -25 -54 3 -9 17 -16
30 -16 22 0 24 4 24 50 0 28 -2 50 -5 50 -3 0 -5 -7 -5 -15z m0 -50 c0 -16 -6
-25 -15 -25 -9 0 -15 9 -15 25 0 16 6 25 15 25 9 0 15 -9 15 -25z"/>
<path d="M1182 4858 c-15 -15 -15 -61 0 -76 7 -7 22 -12 35 -12 18 0 23 6 23
25 0 17 -5 25 -17 24 -11 0 -13 -3 -5 -6 20 -8 14 -33 -8 -33 -41 0 -38 75 3
83 20 4 20 4 2 6 -12 0 -26 -4 -33 -11z"/>
<path d="M1420 4855 c0 -8 -9 -15 -19 -15 -22 0 -35 -28 -25 -54 3 -9 17 -16
30 -16 22 0 24 4 24 50 0 28 -2 50 -5 50 -3 0 -5 -7 -5 -15z m0 -50 c0 -16 -6
-25 -15 -25 -9 0 -15 9 -15 25 0 16 6 25 15 25 9 0 15 -9 15 -25z"/>
<path d="M903 4833 c23 -6 22 -19 -3 -26 -29 -8 -26 -37 5 -37 22 0 25 4 25
35 0 30 -3 35 -22 34 -17 -1 -19 -2 -5 -6z m17 -43 c0 -5 -7 -10 -15 -10 -8 0
-15 5 -15 10 0 6 7 10 15 10 8 0 15 -4 15 -10z"/>
<path d="M951 4830 c0 -23 25 -64 32 -53 4 6 11 23 17 39 l10 29 -17 -23 -16
-24 -13 24 c-8 14 -13 17 -13 8z"/>
<path d="M1023 4805 c0 -22 2 -30 4 -17 2 12 2 30 0 40 -3 9 -5 -1 -4 -23z"/>
<path d="M1256 4822 c-10 -30 4 -53 28 -50 31 4 30 62 -1 66 -14 2 -23 -3 -27
-16z m44 -17 c0 -16 -6 -25 -15 -25 -9 0 -15 9 -15 25 0 16 6 25 15 25 9 0 15
-9 15 -25z"/>
<path d="M1331 4803 c1 -28 3 -31 6 -13 3 14 10 31 15 38 8 9 6 12 -6 12 -12
0 -16 -9 -15 -37z"/>
<path d="M1454 4826 c-11 -29 0 -51 26 -51 21 0 25 5 25 30 0 24 -5 31 -23 33
-13 2 -24 -3 -28 -12z m44 -24 c2 -14 -2 -22 -12 -22 -19 0 -29 17 -22 36 8
22 30 12 34 -14z"/>
<path d="M1532 4803 c1 -37 1 -37 5 -5 3 18 10 32 18 32 8 0 15 -14 18 -32 4
-32 4 -32 5 5 2 33 0 37 -23 37 -23 0 -25 -4 -23 -37z"/>
<path d="M740 3880 l0 -240 2940 0 2940 0 0 -300 0 -300 370 0 370 0 0 540 0
540 -3310 0 -3310 0 0 -240z m210 100 l0 -130 -100 0 -100 0 0 130 0 130 100
0 100 0 0 -130z m2690 0 l0 -130 -1340 0 -1340 0 0 130 0 130 1340 0 1340 0 0
-130z m348 3 l-3 -128 -165 0 -165 0 -3 128 -3 127 171 0 171 0 -3 -127z m442
-3 l0 -130 -215 0 -215 0 0 130 0 130 215 0 215 0 0 -130z m720 0 l0 -130
-355 0 -355 0 0 130 0 130 355 0 355 0 0 -130z m1470 0 l0 -130 -730 0 -730 0
0 130 0 130 730 0 730 0 0 -130z m730 0 l0 -130 -360 0 -360 0 0 130 0 130
360 0 360 0 0 -130z m-6400 -235 l0 -95 -100 0 -100 0 0 95 0 95 100 0 100 0
0 -95z m2690 0 l0 -95 -1340 0 -1340 0 0 95 0 95 1340 0 1340 0 0 -95z m348 3
l-3 -93 -165 0 -165 0 -3 93 -3 92 171 0 171 0 -3 -92z m442 -3 l0 -95 -215 0
-215 0 0 95 0 95 215 0 215 0 0 -95z m720 0 l0 -95 -355 0 -355 0 0 95 0 95
355 0 355 0 0 -95z m1470 0 l0 -95 -730 0 -730 0 0 95 0 95 730 0 730 0 0 -95z
m728 3 l-3 -93 -357 -3 -358 -2 0 95 0 95 360 0 361 0 -3 -92z m0 -200 l-3
-93 -357 -3 -358 -2 0 95 0 95 360 0 361 0 -3 -92z m0 -200 l-3 -93 -357 -3
-358 -2 0 95 0 95 360 0 361 0 -3 -92z m0 -200 l-3 -93 -357 -3 -358 -2 0 95
0 95 360 0 361 0 -3 -92z"/>
<path d="M834 4018 c-4 -7 -9 -26 -10 -43 -2 -16 0 -24 3 -17 2 6 9 12 14 12
6 0 7 -4 4 -10 -3 -5 -1 -10 4 -10 6 0 11 5 11 10 0 19 2 25 10 35 5 6 5 17 0
25 -7 10 -10 11 -10 3 0 -7 -5 -13 -11 -13 -5 0 -7 5 -4 10 3 6 4 10 1 10 -3
0 -8 -5 -12 -12z"/>
<path d="M1777 4033 c-11 -10 -8 -93 3 -93 6 0 10 23 10 50 0 51 -1 55 -13 43z"/>
<path d="M2092 3988 c-30 -73 -28 -86 3 -19 14 30 24 58 22 64 -1 5 -13 -15
-25 -45z"/>
<path d="M2170 3990 c0 -46 2 -50 23 -50 31 0 47 18 47 52 0 28 -23 48 -54 48
-12 0 -16 -11 -16 -50z m50 25 c18 -21 4 -65 -20 -65 -17 0 -20 7 -20 40 0 43
17 53 40 25z"/>
<path d="M1818 4015 c-2 -3 -2 -20 0 -40 3 -25 9 -35 21 -34 10 0 11 2 4 6
-16 6 -17 50 -1 55 8 3 6 6 -4 10 -9 4 -18 5 -20 3z"/>
<path d="M2618 4015 c-2 -3 -2 -20 0 -40 3 -25 9 -35 21 -34 10 0 11 2 4 6
-16 6 -17 50 -1 55 8 3 6 6 -4 10 -9 4 -18 5 -20 3z"/>
<path d="M1864 3996 c-11 -28 1 -51 26 -53 22 -1 22 -1 3 4 -28 6 -30 23 -3
23 13 0 20 7 20 20 0 24 -37 28 -46 6z m36 -6 c0 -5 -7 -10 -15 -10 -8 0 -15
5 -15 10 0 6 7 10 15 10 8 0 15 -4 15 -10z"/>
<path d="M1931 3973 c1 -36 2 -36 8 -9 9 43 31 45 32 4 l1 -33 7 29 c9 42 29
44 34 4 l4 -33 1 38 2 37 -45 0 -45 0 1 -37z"/>
<path d="M2264 3996 c-11 -28 1 -51 26 -53 22 -1 22 -1 3 4 -28 6 -30 23 -3
23 13 0 20 7 20 20 0 24 -37 28 -46 6z m36 -6 c0 -5 -7 -10 -15 -10 -8 0 -15
5 -15 10 0 6 7 10 15 10 8 0 15 -4 15 -10z"/>
<path d="M2330 3995 c0 -9 7 -18 15 -21 20 -8 19 -21 -2 -27 -14 -4 -12 -5 5
-6 26 -1 29 20 6 40 -14 12 -14 14 3 20 16 7 15 8 -4 8 -14 1 -23 -5 -23 -14z"/>
<path d="M2394 3996 c-11 -28 1 -51 26 -53 22 -1 22 -1 3 4 -16 3 -23 12 -23
28 0 17 7 25 23 28 l22 4 -23 2 c-12 0 -25 -5 -28 -13z"/>
<path d="M2450 3975 c0 -19 5 -35 10 -35 6 0 10 13 10 29 0 16 6 32 13 34 6 3
2 6 -10 6 -20 1 -23 -4 -23 -34z"/>
<path d="M2503 3975 c0 -22 2 -30 4 -17 2 12 2 30 0 40 -3 9 -5 -1 -4 -23z"/>
<path d="M2541 3958 c1 -29 3 -45 6 -35 2 9 11 17 18 17 19 0 37 34 29 54 -3
9 -17 16 -30 16 -22 0 -24 -3 -23 -52z m39 17 c0 -16 -6 -25 -15 -25 -9 0 -15
9 -15 25 0 16 6 25 15 25 9 0 15 -9 15 -25z"/>
<path d="M2663 3975 c0 -22 2 -30 4 -17 2 12 2 30 0 40 -3 9 -5 -1 -4 -23z"/>
<path d="M2696 3992 c-10 -30 4 -53 28 -50 31 4 30 62 -1 66 -14 2 -23 -3 -27
-16z m44 -17 c0 -16 -6 -25 -15 -25 -9 0 -15 9 -15 25 0 16 6 25 15 25 9 0 15
-9 15 -25z"/>
<path d="M2770 3976 c0 -20 5 -36 10 -36 6 0 10 14 10 30 0 39 27 41 33 3 4
-26 4 -26 3 2 -1 25 -6 31 -28 33 -26 3 -28 1 -28 -32z"/>
<path d="M3731 4026 c-31 -37 9 -103 47 -80 36 23 23 94 -18 94 -10 0 -23 -6
-29 -14z m54 -16 c9 -29 -3 -60 -25 -60 -9 0 -20 9 -23 20 -8 31 3 60 23 60
10 0 22 -9 25 -20z"/>
<path d="M3818 4015 c-2 -3 -2 -20 0 -40 3 -25 9 -35 21 -34 10 0 11 2 4 6
-16 6 -17 50 -1 55 8 3 6 6 -4 10 -9 4 -18 5 -20 3z"/>
<path d="M3866 3993 c4 -10 8 -32 8 -50 1 -48 18 -29 41 47 5 17 4 22 -3 15
-5 -5 -12 -19 -14 -30 -4 -18 -6 -17 -16 8 -6 15 -14 27 -18 27 -3 0 -3 -8 2
-17z"/>
<path d="M3763 3923 c9 -2 25 -2 35 0 9 3 1 5 -18 5 -19 0 -27 -2 -17 -5z"/>
<path d="M4074 3995 c1 -45 4 -50 25 -53 13 -2 28 2 32 10 12 19 11 91 -1 83
-5 -3 -10 -24 -10 -46 0 -33 -3 -40 -17 -37 -13 2 -20 16 -24 48 l-7 45 2 -50z"/>
<path d="M4268 4015 c-2 -3 -2 -20 0 -40 3 -25 9 -35 21 -34 10 0 11 2 4 6
-16 6 -17 50 -1 55 8 3 6 6 -4 10 -9 4 -18 5 -20 3z"/>
<path d="M4162 3973 c1 -37 1 -37 5 -5 3 18 10 32 18 32 8 0 15 -14 18 -32 4
-32 4 -32 5 5 2 33 0 37 -23 37 -23 0 -25 -4 -23 -37z"/>
<path d="M4243 3975 c0 -22 2 -30 4 -17 2 12 2 30 0 40 -3 9 -5 -1 -4 -23z"/>
<path d="M4320 3995 c0 -9 7 -18 15 -21 20 -8 19 -21 -2 -27 -14 -4 -12 -5 5
-6 26 -1 29 20 6 40 -14 12 -14 14 3 20 16 7 15 8 -4 8 -14 1 -23 -5 -23 -14z"/>
<path d="M4514 3995 c1 -49 2 -50 31 -50 29 0 30 1 31 50 l2 50 -7 -45 c-5
-36 -10 -45 -26 -45 -16 0 -21 9 -26 45 l-7 45 2 -50z"/>
<path d="M4801 3988 c1 -29 3 -45 6 -35 3 10 16 22 30 28 35 13 29 53 -9 57
-28 3 -28 2 -27 -50z m47 19 c2 -12 -3 -17 -17 -17 -15 0 -21 6 -21 21 0 25
33 22 38 -4z"/>
<path d="M4718 4019 c-2 -6 -2 -26 0 -45 3 -24 9 -34 21 -33 10 0 11 2 4 6
-15 5 -18 50 -4 55 5 2 3 8 -4 15 -9 9 -15 9 -17 2z"/>
<path d="M4600 3976 c0 -20 5 -36 10 -36 6 0 10 14 10 30 0 39 27 41 33 3 4
-26 4 -26 3 2 -1 25 -6 31 -28 33 -26 3 -28 1 -28 -32z"/>
<path d="M4683 3975 c0 -22 2 -30 4 -17 2 12 2 30 0 40 -3 9 -5 -1 -4 -23z"/>
<path d="M4881 3973 c1 -28 3 -31 6 -13 3 14 10 31 15 38 8 9 6 12 -6 12 -12
0 -16 -9 -15 -37z"/>
<path d="M4933 3975 c0 -22 2 -30 4 -17 2 12 2 30 0 40 -3 9 -5 -1 -4 -23z"/>
<path d="M4964 3996 c-11 -28 1 -51 26 -53 25 -3 25 -3 3 7 -13 5 -23 16 -23
25 0 9 10 20 23 25 l22 9 -23 0 c-12 1 -25 -5 -28 -13z"/>
<path d="M5026 3992 c-10 -31 3 -52 33 -51 23 2 24 2 4 6 -29 6 -30 19 -2 26
26 7 20 31 -8 35 -14 2 -23 -4 -27 -16z m44 -2 c0 -5 -7 -10 -15 -10 -8 0 -15
5 -15 10 0 6 7 10 15 10 8 0 15 -4 15 -10z"/>
<path d="M5642 4033 c12 -3 18 -18 21 -51 l3 -47 2 47 c2 35 6 48 20 51 9 3
-1 5 -23 5 -22 0 -32 -2 -23 -5z"/>
<path d="M5897 4034 c-11 -11 -8 -94 3 -94 6 0 10 9 10 20 0 11 4 20 9 20 5 0
13 -9 16 -20 3 -11 11 -20 17 -20 6 0 3 11 -6 25 -10 15 -12 25 -6 25 6 0 10
10 8 23 -3 22 -36 36 -51 21z m38 -24 c0 -7 -6 -15 -12 -17 -8 -3 -13 4 -13
17 0 13 5 20 13 18 6 -3 12 -11 12 -18z"/>
<path d="M6048 4015 c-2 -3 -2 -20 0 -40 3 -25 9 -35 21 -34 10 0 11 2 4 6
-16 6 -17 50 -1 55 8 3 6 6 -4 10 -9 4 -18 5 -20 3z"/>
<path d="M5733 4003 c23 -6 22 -19 -3 -26 -29 -8 -26 -37 5 -37 22 0 25 4 25
35 0 30 -3 35 -22 34 -17 -1 -19 -2 -5 -6z m17 -43 c0 -5 -7 -10 -15 -10 -8 0
-15 5 -15 10 0 6 7 10 15 10 8 0 15 -4 15 -10z"/>
<path d="M5789 3996 c10 -11 10 -20 0 -38 -12 -22 -11 -22 6 -8 14 11 19 12
22 3 3 -7 9 -13 15 -13 6 0 5 7 -3 16 -10 12 -10 20 -1 35 7 10 8 19 3 19 -5
0 -12 -6 -15 -12 -5 -10 -7 -10 -12 0 -3 6 -10 12 -16 12 -7 0 -6 -5 1 -14z"/>
<path d="M5993 4003 c23 -6 22 -19 -3 -26 -29 -8 -26 -37 5 -37 22 0 25 4 25
35 0 30 -3 35 -22 34 -17 -1 -19 -2 -5 -6z m17 -43 c0 -5 -7 -10 -15 -10 -8 0
-15 5 -15 10 0 6 7 10 15 10 8 0 15 -4 15 -10z"/>
<path d="M6094 3996 c-11 -28 1 -51 26 -53 l25 -3 -25 11 -25 12 25 6 c14 4
25 13 25 21 0 20 -44 25 -51 6z m36 -6 c0 -5 -4 -10 -10 -10 -5 0 -10 5 -10
10 0 6 5 10 10 10 6 0 10 -4 10 -10z"/>
<path d="M6852 4033 c12 -3 18 -18 21 -51 l3 -47 2 47 c2 35 6 48 20 51 9 3
-1 5 -23 5 -22 0 -32 -2 -23 -5z"/>
<path d="M7121 3993 c0 -29 3 -53 7 -53 4 0 6 17 4 38 -6 64 -10 69 -11 15z"/>
<path d="M6998 4019 c-2 -6 -2 -26 0 -45 3 -24 9 -34 21 -33 10 0 11 2 4 6
-15 5 -18 50 -4 55 5 2 3 8 -4 15 -9 9 -15 9 -17 2z"/>
<path d="M6924 3996 c-10 -26 1 -51 22 -54 24 -3 38 20 29 49 -7 22 -43 25
-51 5z m41 -21 c0 -11 -8 -21 -17 -23 -14 -3 -18 3 -18 23 0 20 4 26 18 23 9
-2 17 -12 17 -23z"/>
<path d="M7063 4003 c23 -6 22 -19 -3 -26 -29 -8 -26 -37 5 -37 22 0 25 4 25
35 0 30 -3 35 -22 34 -17 -1 -19 -2 -5 -6z m17 -43 c0 -5 -7 -10 -15 -10 -8 0
-15 5 -15 10 0 6 7 10 15 10 8 0 15 -4 15 -10z"/>
<path d="M829 3793 c-12 -14 -12 -16 0 -9 11 7 13 0 9 -33 -3 -32 0 -41 12
-41 12 0 14 10 12 50 -4 53 -11 60 -33 33z"/>
<path d="M1000 3760 c0 -50 1 -51 28 -48 25 3 27 6 27 48 0 42 -2 45 -27 48
-27 3 -28 2 -28 -48z m48 23 c2 -8 -5 -13 -17 -13 -12 0 -21 6 -21 16 0 18 31
15 38 -3z m2 -49 c0 -8 -9 -14 -20 -14 -19 0 -27 19 -14 33 10 9 34 -4 34 -19z"/>
<path d="M1315 3786 c-22 -33 -5 -76 30 -76 20 0 25 5 25 25 0 17 -5 25 -17
24 -11 0 -13 -3 -5 -6 19 -7 15 -35 -5 -31 -13 2 -18 13 -18 38 0 28 5 35 25
41 23 7 24 7 3 8 -13 1 -29 -9 -38 -23z"/>
<path d="M1508 3789 c-2 -6 -2 -26 0 -45 3 -24 9 -34 21 -33 10 0 11 2 4 6
-15 5 -18 50 -4 55 5 2 3 8 -4 15 -9 9 -15 9 -17 2z"/>
<path d="M1103 3773 c23 -6 22 -19 -3 -26 -29 -8 -26 -37 5 -37 22 0 25 4 25
35 0 30 -3 35 -22 34 -17 -1 -19 -2 -5 -6z m17 -43 c0 -5 -7 -10 -15 -10 -8 0
-15 5 -15 10 0 6 7 10 15 10 8 0 15 -4 15 -10z"/>
<path d="M1150 3766 c0 -8 7 -16 15 -20 20 -7 19 -24 -2 -29 -14 -4 -13 -5 4
-6 32 -2 39 19 13 39 -22 17 -23 18 -4 23 16 4 16 5 -3 6 -14 1 -23 -5 -23
-13z"/>
<path d="M1210 3765 c0 -9 7 -18 15 -21 20 -8 19 -21 -2 -27 -14 -4 -12 -5 5
-6 26 -1 29 20 6 40 -14 12 -14 14 3 20 16 7 15 8 -4 8 -14 1 -23 -5 -23 -14z"/>
<path d="M1393 3750 c2 -30 6 -35 30 -38 25 -3 27 -1 26 35 -1 36 -2 37 -8 8
-3 -17 -13 -30 -21 -30 -8 0 -18 13 -22 30 -6 29 -6 29 -5 -5z"/>
<path d="M1473 3745 c0 -22 2 -30 4 -17 2 12 2 30 0 40 -3 9 -5 -1 -4 -23z"/>
<path d="M1573 3773 c23 -6 22 -19 -3 -26 -29 -8 -26 -37 5 -37 22 0 25 4 25
35 0 30 -3 35 -22 34 -17 -1 -19 -2 -5 -6z m17 -43 c0 -5 -7 -10 -15 -10 -8 0
-15 5 -15 10 0 6 7 10 15 10 8 0 15 -4 15 -10z"/>
<path d="M1620 3745 c0 -19 5 -35 10 -35 6 0 10 13 10 29 0 16 6 32 13 34 6 3
2 6 -10 6 -20 1 -23 -4 -23 -34z"/>
<path d="M3819 3793 c-12 -14 -12 -16 0 -9 11 7 13 0 9 -33 -3 -32 0 -41 12
-41 12 0 14 10 12 50 -4 53 -11 60 -33 33z"/>
<path d="M3888 3785 c-13 -30 3 -75 27 -75 24 0 40 45 27 75 -6 14 -19 25 -27
25 -8 0 -21 -11 -27 -25z m42 -25 c0 -27 -4 -40 -14 -40 -16 0 -26 32 -19 60
10 37 33 23 33 -20z"/>
<path d="M4181 3728 c1 -29 3 -45 6 -35 2 9 13 17 24 17 11 0 21 9 25 24 8 32
-2 46 -32 46 -23 0 -24 -3 -23 -52z m44 16 c0 -10 -8 -20 -17 -22 -18 -3 -26
27 -11 42 12 11 28 0 28 -20z"/>
<path d="M4254 3766 c-11 -28 1 -51 26 -53 25 -3 25 -3 3 7 -13 5 -23 16 -23
25 0 9 10 20 23 25 l22 9 -23 0 c-12 1 -25 -5 -28 -13z"/>
<path d="M4315 3770 c-3 -5 3 -15 15 -22 26 -17 25 -28 -2 -29 -19 -1 -20 -2
-4 -6 28 -7 45 15 24 31 -10 7 -18 16 -18 19 0 3 8 8 18 10 13 4 12 5 -5 6
-12 0 -25 -3 -28 -9z"/>
<path d="M4649 3804 c-10 -12 -10 -20 -1 -35 16 -24 15 -49 0 -49 -9 0 -9 -3
1 -9 18 -12 51 4 51 24 0 7 -12 23 -26 34 l-26 21 22 8 c19 7 20 10 7 15 -8 3
-21 -1 -28 -9z m36 -63 c3 -5 1 -12 -5 -16 -5 -3 -10 1 -10 9 0 18 6 21 15 7z"/>
<path d="M4729 3808 c-1 -2 -3 -25 -5 -51 -3 -45 -2 -48 19 -45 19 3 22 9 22
48 0 35 -4 45 -17 48 -10 2 -19 2 -19 0z m31 -23 c0 -8 -7 -15 -15 -15 -8 0
-15 7 -15 15 0 8 7 15 15 15 8 0 15 -7 15 -15z m0 -50 c0 -8 -7 -15 -15 -15
-8 0 -15 7 -15 15 0 8 7 15 15 15 8 0 15 -7 15 -15z"/>
<path d="M4794 3786 c-10 -43 3 -78 29 -74 19 3 22 9 22 48 0 39 -3 45 -22 48
-17 3 -24 -3 -29 -22z m44 -30 c3 -32 1 -37 -15 -34 -19 3 -29 38 -19 65 10
26 31 8 34 -31z"/>
<path d="M4868 3785 c-13 -30 3 -75 27 -75 8 0 21 11 27 25 13 30 -3 75 -27
75 -8 0 -21 -11 -27 -25z m42 -25 c0 -27 -4 -40 -14 -40 -16 0 -26 32 -19 60
10 37 33 23 33 -20z"/>
<path d="M4974 3786 c-10 -43 3 -78 29 -74 19 3 22 9 22 48 0 39 -3 45 -22 48
-17 3 -24 -3 -29 -22z m44 -30 c3 -32 1 -37 -15 -34 -19 3 -29 38 -19 65 10
26 31 8 34 -31z"/>
<path d="M5054 3796 c-3 -8 -4 -29 -2 -48 2 -25 8 -34 25 -36 26 -4 39 31 29
73 -7 28 -43 35 -52 11z m41 -37 c0 -24 -5 -35 -17 -37 -14 -3 -18 4 -18 31 0
18 3 37 7 41 15 14 28 -2 28 -35z"/>
<path d="M6350 3795 c-9 -11 -10 -16 -2 -11 9 5 12 -2 12 -28 0 -19 -6 -37
-12 -39 -7 -3 1 -6 17 -6 17 0 25 3 18 7 -6 4 -13 27 -15 51 -3 41 -4 43 -18
26z"/>
<path d="M6428 3803 c26 -5 26 -2 6 -48 -8 -20 -13 -39 -11 -41 2 -3 14 18 25
46 l21 50 -32 -1 c-24 -1 -26 -3 -9 -6z"/>
<path d="M6490 3790 c0 -10 8 -23 18 -29 14 -8 15 -12 5 -22 -7 -7 -13 -17
-13 -22 0 -5 9 1 20 14 l19 24 1 -23 c0 -17 5 -23 18 -20 9 2 17 12 17 23 0
13 -6 20 -17 19 -22 -2 -23 9 -3 26 8 7 15 18 15 24 0 6 -9 0 -19 -13 -18 -23
-18 -23 -24 -2 -7 27 -37 28 -37 1z m33 -9 c3 -14 1 -18 -9 -14 -8 3 -14 11
-14 19 0 21 17 17 23 -5z m47 -46 c0 -8 -4 -15 -10 -15 -5 0 -10 7 -10 15 0 8
5 15 10 15 6 0 10 -7 10 -15z"/>
<path d="M6739 3804 c-10 -12 -10 -20 -1 -35 16 -24 15 -49 0 -49 -9 0 -9 -3
1 -9 18 -12 51 4 51 24 0 7 -12 23 -26 34 l-26 21 22 8 c19 7 20 10 7 15 -8 3
-21 -1 -28 -9z m36 -63 c3 -5 1 -12 -5 -16 -5 -3 -10 1 -10 9 0 18 6 21 15 7z"/>
<path d="M6819 3808 c-1 -2 -3 -25 -5 -51 -3 -45 -2 -48 19 -45 19 3 22 9 22
48 0 35 -4 45 -17 48 -10 2 -19 2 -19 0z m31 -23 c0 -8 -7 -15 -15 -15 -8 0
-15 7 -15 15 0 8 7 15 15 15 8 0 15 -7 15 -15z m0 -50 c0 -8 -7 -15 -15 -15
-8 0 -15 7 -15 15 0 8 7 15 15 15 8 0 15 -7 15 -15z"/>
<path d="M6914 3786 c-10 -43 3 -78 29 -74 19 3 22 9 22 48 0 39 -3 45 -22 48
-17 3 -24 -3 -29 -22z m44 -30 c3 -32 1 -37 -15 -34 -19 3 -29 38 -19 65 10
26 31 8 34 -31z"/>
<path d="M6994 3796 c-3 -8 -4 -29 -2 -48 2 -25 8 -34 25 -36 26 -4 39 31 29
73 -7 28 -43 35 -52 11z m41 -37 c0 -24 -5 -35 -17 -37 -14 -3 -18 4 -18 31 0
18 3 37 7 41 15 14 28 -2 28 -35z"/>
<path d="M7068 3785 c-13 -30 3 -75 27 -75 24 0 40 45 27 75 -6 14 -19 25 -27
25 -8 0 -21 -11 -27 -25z m42 -25 c0 -43 -23 -57 -33 -20 -7 28 3 60 19 60 10
0 14 -13 14 -40z"/>
<path d="M7174 3786 c-10 -43 3 -78 29 -74 19 3 22 9 22 48 0 39 -3 45 -22 48
-17 3 -24 -3 -29 -22z m44 -30 c3 -32 1 -37 -15 -34 -19 3 -29 38 -19 65 10
26 31 8 34 -31z"/>
<path d="M7248 3785 c-13 -30 3 -75 27 -75 24 0 40 45 27 75 -6 14 -19 25 -27
25 -8 0 -21 -11 -27 -25z m42 -25 c0 -43 -23 -57 -33 -20 -7 28 3 60 19 60 10
0 14 -13 14 -40z"/>
<path d="M6881 3704 c0 -11 3 -14 6 -6 3 7 2 16 -1 19 -3 4 -6 -2 -5 -13z"/>
<path d="M6739 3604 c-10 -12 -10 -20 -1 -35 16 -24 15 -49 0 -49 -9 0 -9 -3
1 -9 18 -12 51 4 51 24 0 7 -12 23 -26 34 l-26 21 22 8 c19 7 20 10 7 15 -8 3
-21 -1 -28 -9z m36 -63 c3 -5 1 -12 -5 -16 -5 -3 -10 1 -10 9 0 18 6 21 15 7z"/>
<path d="M6819 3608 c-1 -2 -3 -25 -5 -51 -3 -45 -2 -48 19 -45 19 3 22 9 22
48 0 35 -4 45 -17 48 -10 2 -19 2 -19 0z m31 -23 c0 -8 -7 -15 -15 -15 -8 0
-15 7 -15 15 0 8 7 15 15 15 8 0 15 -7 15 -15z m0 -50 c0 -8 -7 -15 -15 -15
-8 0 -15 7 -15 15 0 8 7 15 15 15 8 0 15 -7 15 -15z"/>
<path d="M6914 3586 c-10 -43 3 -78 29 -74 19 3 22 9 22 48 0 39 -3 45 -22 48
-17 3 -24 -3 -29 -22z m44 -30 c3 -32 1 -37 -15 -34 -19 3 -29 38 -19 65 10
26 31 8 34 -31z"/>
<path d="M6994 3596 c-3 -8 -4 -29 -2 -48 2 -25 8 -34 25 -36 26 -4 39 31 29
73 -7 28 -43 35 -52 11z m41 -37 c0 -24 -5 -35 -17 -37 -14 -3 -18 4 -18 31 0
18 3 37 7 41 15 14 28 -2 28 -35z"/>
<path d="M7068 3585 c-13 -30 3 -75 27 -75 24 0 40 45 27 75 -6 14 -19 25 -27
25 -8 0 -21 -11 -27 -25z m42 -25 c0 -43 -23 -57 -33 -20 -7 28 3 60 19 60 10
0 14 -13 14 -40z"/>
<path d="M7174 3586 c-10 -43 3 -78 29 -74 19 3 22 9 22 48 0 39 -3 45 -22 48
-17 3 -24 -3 -29 -22z m44 -30 c3 -32 1 -37 -15 -34 -19 3 -29 38 -19 65 10
26 31 8 34 -31z"/>
<path d="M7248 3585 c-13 -30 3 -75 27 -75 24 0 40 45 27 75 -6 14 -19 25 -27
25 -8 0 -21 -11 -27 -25z m42 -25 c0 -27 -4 -40 -14 -40 -16 0 -26 32 -19 60
10 37 33 23 33 -20z"/>
<path d="M6881 3504 c0 -11 3 -14 6 -6 3 7 2 16 -1 19 -3 4 -6 -2 -5 -13z"/>
<path d="M6739 3404 c-10 -12 -10 -20 -1 -35 16 -24 15 -49 0 -49 -9 0 -9 -3
1 -9 18 -12 51 4 51 24 0 7 -12 23 -26 34 l-26 21 22 8 c19 7 20 10 7 15 -8 3
-21 -1 -28 -9z m36 -63 c3 -5 1 -12 -5 -16 -5 -3 -10 1 -10 9 0 18 6 21 15 7z"/>
<path d="M6820 3395 c-9 -11 -10 -16 -2 -11 9 5 12 -2 12 -28 0 -19 -6 -37
-12 -39 -7 -3 1 -6 17 -6 17 0 25 3 18 7 -6 4 -13 27 -15 51 -3 41 -4 43 -18
26z"/>
<path d="M6933 3403 c15 -4 16 -7 6 -20 -11 -12 -10 -17 4 -24 23 -14 21 -28
-5 -39 -23 -10 -23 -10 2 -7 17 1 26 9 28 25 2 12 -2 22 -8 22 -8 0 -10 9 -6
25 5 21 3 25 -16 24 -18 -1 -19 -2 -5 -6z"/>
<path d="M7006 3391 c-10 -11 -16 -31 -14 -48 2 -22 8 -28 28 -28 33 0 42 44
11 52 -26 7 -27 19 -3 32 9 6 12 11 6 11 -6 0 -19 -9 -28 -19z m29 -52 c0 -7
-8 -15 -17 -17 -18 -3 -25 18 -11 32 10 10 28 1 28 -15z"/>
<path d="M7068 3385 c-13 -30 3 -75 27 -75 24 0 40 45 27 75 -6 14 -19 25 -27
25 -8 0 -21 -11 -27 -25z m42 -25 c0 -43 -23 -57 -33 -20 -7 28 3 60 19 60 10
0 14 -13 14 -40z"/>
<path d="M7174 3386 c-10 -43 3 -78 29 -74 19 3 22 9 22 48 0 39 -3 45 -22 48
-17 3 -24 -3 -29 -22z m44 -30 c3 -32 1 -37 -15 -34 -19 3 -29 38 -19 65 10
26 31 8 34 -31z"/>
<path d="M7248 3385 c-13 -30 3 -75 27 -75 24 0 40 45 27 75 -6 14 -19 25 -27
25 -8 0 -21 -11 -27 -25z m42 -25 c0 -27 -4 -40 -14 -40 -16 0 -26 32 -19 60
10 37 33 23 33 -20z"/>
<path d="M6881 3304 c0 -11 3 -14 6 -6 3 7 2 16 -1 19 -3 4 -6 -2 -5 -13z"/>
<path d="M6739 3204 c-10 -12 -10 -20 -1 -35 16 -24 15 -49 0 -49 -9 0 -9 -3
1 -9 18 -12 51 4 51 24 0 7 -12 23 -26 34 l-26 21 22 8 c19 7 20 10 7 15 -8 3
-21 -1 -28 -9z m36 -63 c3 -5 1 -12 -5 -16 -5 -3 -10 1 -10 9 0 18 6 21 15 7z"/>
<path d="M6811 3197 c-16 -20 -3 -47 22 -47 19 0 20 -1 2 -20 -10 -11 -13 -20
-8 -20 20 0 34 29 31 62 -3 36 -27 48 -47 25z m39 -17 c0 -11 -7 -20 -15 -20
-8 0 -15 9 -15 20 0 11 7 20 15 20 8 0 15 -9 15 -20z"/>
<path d="M6933 3203 c15 -4 16 -7 6 -20 -11 -12 -10 -17 4 -24 23 -14 21 -28
-5 -39 -23 -10 -23 -10 2 -7 17 1 26 9 28 25 2 12 -2 22 -8 22 -8 0 -10 9 -6
25 5 21 3 25 -16 24 -18 -1 -19 -2 -5 -6z"/>
<path d="M7006 3191 c-10 -11 -16 -31 -14 -48 2 -22 8 -28 28 -28 33 0 42 44
11 52 -26 7 -27 19 -3 32 9 6 12 11 6 11 -6 0 -19 -9 -28 -19z m29 -52 c0 -7
-8 -15 -17 -17 -18 -3 -25 18 -11 32 10 10 28 1 28 -15z"/>
<path d="M7068 3185 c-13 -30 3 -75 27 -75 24 0 40 45 27 75 -6 14 -19 25 -27
25 -8 0 -21 -11 -27 -25z m42 -25 c0 -43 -23 -57 -33 -20 -7 28 3 60 19 60 10
0 14 -13 14 -40z"/>
<path d="M7174 3186 c-10 -43 3 -78 29 -74 19 3 22 9 22 48 0 39 -3 45 -22 48
-17 3 -24 -3 -29 -22z m44 -30 c3 -32 1 -37 -15 -34 -19 3 -29 38 -19 65 10
26 31 8 34 -31z"/>
<path d="M7248 3185 c-13 -30 3 -75 27 -75 24 0 40 45 27 75 -6 14 -19 25 -27
25 -8 0 -21 -11 -27 -25z m42 -25 c0 -27 -4 -40 -14 -40 -16 0 -26 32 -19 60
10 37 33 23 33 -20z"/>
<path d="M6881 3104 c0 -11 3 -14 6 -6 3 7 2 16 -1 19 -3 4 -6 -2 -5 -13z"/>
<path d="M6063 3594 c-4 -10 4 -24 23 -39 22 -18 25 -25 14 -28 -8 -3 -22 -8
-30 -10 -8 -3 -2 -6 13 -6 40 -1 47 27 14 51 -33 24 -34 35 -4 41 l22 4 -23 2
c-12 0 -25 -6 -29 -15z"/>
<path d="M6211 3563 c-1 -50 0 -53 24 -53 18 0 26 7 31 24 7 31 -1 46 -26 46
-10 0 -21 8 -23 18 -3 9 -5 -7 -6 -35z m44 -19 c0 -10 -8 -20 -17 -22 -18 -3
-26 27 -11 42 12 11 28 0 28 -20z"/>
<path d="M6531 3563 c0 -29 3 -53 7 -53 4 0 6 17 4 38 -6 64 -10 69 -11 15z"/>
<path d="M6288 3589 c-2 -6 -2 -26 0 -45 3 -24 9 -34 21 -33 10 0 11 2 4 6
-15 5 -18 50 -4 55 5 2 3 8 -4 15 -9 9 -15 9 -17 2z"/>
<path d="M6408 3589 c-2 -6 -2 -26 0 -45 3 -24 9 -34 21 -33 10 0 11 2 4 6
-15 5 -18 50 -4 55 5 2 3 8 -4 15 -9 9 -15 9 -17 2z"/>
<path d="M6133 3550 c2 -30 6 -35 30 -38 25 -3 27 -1 26 35 -1 36 -2 37 -8 8
-3 -17 -13 -30 -21 -30 -8 0 -18 13 -22 30 -6 29 -6 29 -5 -5z"/>
<path d="M6334 3566 c-11 -29 0 -51 26 -51 21 0 25 5 25 30 0 24 -5 31 -23 33
-13 2 -24 -3 -28 -12z m44 -24 c2 -14 -2 -22 -12 -22 -19 0 -29 17 -22 36 8
22 30 12 34 -14z"/>
<path d="M6473 3574 c23 -7 22 -20 -4 -27 -29 -8 -19 -31 15 -35 26 -3 27 -1
24 30 -2 27 -7 33 -28 35 -14 1 -18 0 -7 -3z m17 -44 c0 -5 -7 -10 -16 -10 -8
0 -12 5 -9 10 3 6 10 10 16 10 5 0 9 -4 9 -10z"/>
<path d="M5973 3403 c13 -3 17 -16 19 -51 l1 -47 4 40 c2 22 11 46 20 53 14
10 11 12 -23 11 -21 -1 -31 -3 -21 -6z"/>
<path d="M6234 3388 c-9 -29 -8 -73 3 -92 5 -9 8 11 8 50 0 35 -1 64 -2 64 -1
0 -5 -10 -9 -22z"/>
<path d="M6280 3395 c-9 -11 -10 -16 -2 -11 9 5 12 -2 12 -28 0 -19 -6 -37
-12 -39 -7 -3 1 -6 17 -6 17 0 25 3 18 7 -6 4 -13 27 -15 51 -3 41 -4 43 -18
26z"/>
<path d="M6358 3403 c26 -5 27 -14 6 -54 -8 -17 -13 -33 -11 -36 4 -4 47 81
47 93 0 2 -15 3 -32 3 -24 -1 -27 -3 -10 -6z"/>
<path d="M6420 3390 c0 -10 8 -23 18 -29 14 -8 15 -12 5 -22 -7 -7 -13 -17
-13 -22 0 -5 9 1 20 14 l19 24 1 -23 c0 -17 5 -23 18 -20 9 2 17 12 17 23 0
13 -6 20 -17 19 -22 -2 -23 9 -3 26 8 7 15 18 15 24 0 6 -9 0 -19 -13 -18 -23
-18 -23 -24 -2 -7 27 -37 28 -37 1z m33 -9 c3 -14 1 -18 -9 -14 -8 3 -14 11
-14 19 0 21 17 17 23 -5z m47 -46 c0 -8 -4 -15 -10 -15 -5 0 -10 7 -10 15 0 8
5 15 10 15 6 0 10 -7 10 -15z"/>
<path d="M6526 3390 c4 -14 8 -34 8 -45 0 -11 -4 -31 -8 -45 -7 -21 -6 -23 5
-12 8 7 14 33 14 57 0 24 -6 50 -14 57 -11 11 -12 9 -5 -12z"/>
<path d="M6063 3374 c23 -7 22 -20 -4 -27 -29 -8 -19 -31 15 -35 26 -3 27 -1
24 30 -2 27 -7 33 -28 35 -14 1 -18 0 -7 -3z m17 -44 c0 -5 -7 -10 -16 -10 -8
0 -12 5 -9 10 3 6 10 10 16 10 5 0 9 -4 9 -10z"/>
<path d="M6125 3362 c4 -13 2 -29 -5 -37 -8 -9 -8 -15 -2 -15 6 0 12 6 15 13
3 9 8 8 22 -3 17 -14 17 -13 7 5 -7 15 -7 26 1 40 9 17 8 18 -4 8 -12 -10 -18
-10 -28 0 -11 10 -12 8 -6 -11z"/>
<path d="M6262 3203 c12 -3 18 -18 21 -51 l3 -47 2 47 c2 35 6 48 20 51 9 3
-1 5 -23 5 -22 0 -32 -2 -23 -5z"/>
<path d="M6531 3163 c0 -29 3 -53 7 -53 4 0 6 17 4 38 -6 64 -10 69 -11 15z"/>
<path d="M6408 3189 c-2 -6 -2 -26 0 -45 3 -24 9 -34 21 -33 10 0 11 2 4 6
-15 5 -18 50 -4 55 5 2 3 8 -4 15 -9 9 -15 9 -17 2z"/>
<path d="M6334 3166 c-11 -29 0 -51 26 -51 21 0 25 5 25 30 0 24 -5 31 -23 33
-13 2 -24 -3 -28 -12z m44 -24 c2 -14 -2 -22 -12 -22 -19 0 -29 17 -22 36 8
22 30 12 34 -14z"/>
<path d="M6473 3174 c23 -7 22 -20 -4 -27 -29 -8 -19 -31 15 -35 26 -3 27 -1
24 30 -2 27 -7 33 -28 35 -14 1 -18 0 -7 -3z m17 -44 c0 -5 -7 -10 -16 -10 -8
0 -12 5 -9 10 3 6 10 10 16 10 5 0 9 -4 9 -10z"/>
<path d="M790 1561 c0 -50 1 -51 29 -51 30 0 47 22 34 43 -4 7 -7 21 -8 32 0
14 -8 21 -27 23 -27 3 -28 2 -28 -47z m40 19 c0 -5 -4 -10 -10 -10 -5 0 -10 5
-10 10 0 6 5 10 10 10 6 0 10 -4 10 -10z m2 -45 c0 -5 -5 -11 -11 -13 -6 -2
-11 4 -11 13 0 9 5 15 11 13 6 -2 11 -8 11 -13z"/>
<path d="M1020 1560 c0 -47 12 -66 23 -37 4 10 6 10 6 0 1 -7 8 -13 17 -13 13
0 14 3 4 15 -6 8 -9 23 -5 35 7 21 -10 29 -18 8 -3 -7 -6 -1 -6 15 -2 49 -21
28 -21 -23z"/>
<path d="M1120 1560 c0 -49 1 -50 30 -50 29 0 50 22 50 54 0 22 -28 46 -56 46
-22 0 -24 -4 -24 -50z m55 0 c0 -16 -6 -26 -17 -28 -14 -3 -18 3 -18 28 0 25
4 31 18 28 11 -2 17 -12 17 -28z"/>
<path d="M1400 1600 c0 -5 5 -10 10 -10 6 0 10 5 10 10 0 6 -4 10 -10 10 -5 0
-10 -4 -10 -10z"/>
<path d="M1440 1560 c0 -33 4 -50 13 -50 8 0 11 15 9 50 -5 65 -22 65 -22 0z"/>
<path d="M1287 1583 c-8 -14 5 -73 17 -73 15 0 14 72 -1 77 -6 2 -13 0 -16 -4z"/>
<path d="M890 1568 c25 -11 25 -11 3 -15 -35 -7 -31 -43 5 -43 27 0 32 12 23
63 0 4 -13 7 -28 6 l-28 0 25 -11z m20 -32 c0 -3 -4 -8 -10 -11 -5 -3 -10 -1
-10 4 0 6 5 11 10 11 6 0 10 -2 10 -4z"/>
<path d="M940 1545 c0 -19 5 -35 10 -35 6 0 10 11 10 24 0 14 5 28 10 31 6 4
10 -7 10 -24 0 -17 5 -31 10 -31 6 0 10 16 10 35 0 32 -2 35 -30 35 -28 0 -30
-3 -30 -35z"/>
<path d="M1214 1566 c-10 -26 1 -51 24 -54 12 -2 22 2 22 8 0 6 -4 9 -9 5 -5
-3 -12 -1 -16 5 -3 6 3 10 15 10 15 0 20 5 18 18 -4 22 -46 29 -54 8z"/>
<path d="M1350 1568 c25 -11 25 -11 3 -15 -35 -7 -31 -43 5 -43 27 0 32 12 23
63 0 4 -13 7 -28 6 l-28 0 25 -11z m20 -32 c0 -3 -4 -8 -10 -11 -5 -3 -10 -1
-10 4 0 6 5 11 10 11 6 0 10 -2 10 -4z"/>
<path d="M1400 1545 c0 -19 5 -35 10 -35 6 0 10 16 10 35 0 19 -4 35 -10 35
-5 0 -10 -16 -10 -35z"/>
<path d="M1480 1568 c0 -6 8 -20 18 -31 16 -19 16 -20 0 -14 -10 4 -18 2 -18
-3 0 -14 37 -12 46 2 4 6 0 16 -9 23 -18 13 -24 31 -8 20 5 -3 12 -1 16 5 4 6
-5 10 -19 10 -14 0 -26 -5 -26 -12z"/>
<path d="M816 1402 c-3 -6 -13 -30 -21 -54 -12 -34 -12 -39 -1 -25 17 22 42
22 50 1 4 -9 9 -15 11 -12 2 2 -4 26 -14 52 -10 27 -21 44 -25 38z m14 -42 c0
-5 -4 -10 -10 -10 -5 0 -10 5 -10 10 0 6 5 10 10 10 6 0 10 -4 10 -10z"/>
<path d="M1312 1360 c1 -35 3 -43 5 -22 2 17 8 32 14 32 5 0 9 -3 9 -7 0 -5 9
-19 20 -33 l20 -25 -2 55 c-1 40 -2 45 -5 20 l-5 -35 -29 35 -28 35 1 -55z"/>
<path d="M1735 1386 c-22 -33 -5 -76 30 -76 20 0 25 5 25 25 0 17 -5 25 -17
24 -11 0 -13 -3 -5 -6 19 -7 15 -35 -5 -31 -13 2 -18 13 -18 38 0 28 5 35 25
41 23 7 24 7 3 8 -13 1 -29 -9 -38 -23z"/>
<path d="M1902 1393 c-4 -10 -5 -34 -1 -53 l6 -35 2 33 c0 18 6 32 14 32 8 0
7 4 -3 10 -13 9 -13 11 0 20 9 6 11 10 3 10 -7 0 -16 -8 -21 -17z"/>
<path d="M1952 1393 c-4 -10 -5 -34 -1 -53 l6 -35 2 33 c0 18 6 32 14 32 8 0
7 4 -3 10 -13 9 -13 11 0 20 9 6 11 10 3 10 -7 0 -16 -8 -21 -17z"/>
<path d="M2070 1363 c0 -29 5 -53 10 -53 6 0 10 14 10 30 0 42 27 40 33 -2 4
-32 4 -32 5 5 2 28 -2 37 -14 37 -9 0 -23 8 -30 18 -12 15 -13 10 -14 -35z"/>
<path d="M2248 1404 c-9 -18 -9 -94 0 -94 12 0 22 70 12 89 -4 7 -9 10 -12 5z"/>
<path d="M2308 1385 c-7 -15 -17 -24 -25 -21 -16 6 -17 -10 -2 -20 7 -4 17 2
23 12 9 17 11 15 17 -16 6 -31 7 -29 8 18 1 58 -4 64 -21 27z"/>
<path d="M2637 1403 c-14 -13 -6 -42 13 -48 27 -9 25 -33 -2 -38 -20 -3 -20
-4 2 -3 33 1 41 41 11 51 -28 9 -27 33 2 38 20 4 20 4 1 6 -11 0 -24 -2 -27
-6z"/>
<path d="M1228 1389 c-2 -6 -2 -26 0 -45 3 -24 9 -34 21 -33 10 0 11 2 4 6
-15 5 -18 50 -4 55 5 2 3 8 -4 15 -9 9 -15 9 -17 2z"/>
<path d="M2028 1385 c-2 -3 -2 -20 0 -40 3 -25 9 -35 21 -34 10 0 11 2 4 6
-16 6 -17 50 -1 55 8 3 6 6 -4 10 -9 4 -18 5 -20 3z"/>
<path d="M2708 1385 c-2 -3 -2 -20 0 -40 3 -25 9 -35 21 -34 10 0 11 2 4 6
-16 6 -17 50 -1 55 8 3 6 6 -4 10 -9 4 -18 5 -20 3z"/>
<path d="M874 1366 c-11 -28 1 -51 26 -53 25 -3 25 -3 3 7 -13 5 -23 16 -23
25 0 9 10 20 23 25 l22 9 -23 0 c-12 1 -25 -5 -28 -13z"/>
<path d="M935 1361 c-8 -28 5 -51 29 -50 16 1 17 2 4 6 -11 3 -18 14 -18 28 0
14 7 25 18 28 13 4 12 5 -5 6 -13 1 -24 -6 -28 -18z"/>
<path d="M1004 1366 c-10 -26 1 -51 22 -54 24 -3 38 20 29 49 -7 22 -43 25
-51 5z m41 -21 c0 -11 -8 -21 -17 -23 -14 -3 -18 3 -18 23 0 20 4 26 18 23 9
-2 17 -12 17 -23z"/>
<path d="M1073 1350 c2 -30 6 -35 30 -38 25 -3 27 -1 26 35 -1 36 -2 37 -8 8
-3 -17 -13 -30 -21 -30 -8 0 -18 13 -22 30 -6 29 -6 29 -5 -5z"/>
<path d="M1151 1343 c1 -36 2 -37 8 -8 3 17 13 30 21 30 8 0 18 -13 22 -30 6
-29 6 -29 5 5 -2 30 -6 35 -29 38 -26 3 -28 1 -27 -35z"/>
<path d="M1423 1374 c23 -7 22 -20 -4 -27 -29 -8 -19 -31 15 -35 26 -3 27 -1
24 30 -2 27 -7 33 -28 35 -14 1 -18 0 -7 -3z m17 -44 c0 -5 -7 -10 -16 -10 -8
0 -12 5 -9 10 3 6 10 10 16 10 5 0 9 -4 9 -10z"/>
<path d="M1470 1346 c0 -20 5 -36 10 -36 6 0 10 14 10 30 0 17 5 30 10 30 6 0
10 -13 10 -30 0 -16 5 -30 10 -30 6 0 10 14 10 31 0 39 22 34 32 -7 6 -27 6
-27 5 6 -2 34 -3 35 -49 38 l-48 3 0 -35z"/>
<path d="M1586 1362 c-10 -31 3 -52 33 -51 23 2 24 2 4 6 -29 6 -30 19 -2 26
26 7 20 31 -8 35 -14 2 -23 -4 -27 -16z m44 -2 c0 -5 -7 -10 -15 -10 -8 0 -15
5 -15 10 0 6 7 10 15 10 8 0 15 -4 15 -10z"/>
<path d="M1810 1345 c0 -19 5 -35 10 -35 6 0 10 13 10 29 0 16 6 32 13 34 6 3
2 6 -10 6 -20 1 -23 -4 -23 -34z"/>
<path d="M1863 1345 c0 -22 2 -30 4 -17 2 12 2 30 0 40 -3 9 -5 -1 -4 -23z"/>
<path d="M1993 1345 c0 -22 2 -30 4 -17 2 12 2 30 0 40 -3 9 -5 -1 -4 -23z"/>
<path d="M2150 1365 c0 -9 7 -18 15 -21 20 -8 19 -21 -2 -27 -14 -4 -12 -5 5
-6 26 -1 29 20 6 40 -14 12 -14 14 3 20 16 7 15 8 -4 8 -14 1 -23 -5 -23 -14z"/>
<path d="M2362 1348 c-2 -34 0 -38 23 -38 23 0 25 4 23 38 -1 36 -1 36 -5 5
-3 -19 -10 -33 -18 -33 -8 0 -15 14 -18 33 -4 31 -4 31 -5 -5z"/>
<path d="M2430 1365 c0 -9 7 -18 15 -21 20 -8 19 -21 -2 -27 -14 -4 -12 -5 5
-6 26 -1 29 20 6 40 -14 12 -14 14 3 20 16 7 15 8 -4 8 -14 1 -23 -5 -23 -14z"/>
<path d="M2493 1345 c0 -22 2 -30 4 -17 2 12 2 30 0 40 -3 9 -5 -1 -4 -23z"/>
<path d="M2525 1361 c-8 -28 5 -51 29 -50 16 1 17 2 4 6 -11 3 -18 14 -18 28
0 14 7 25 18 28 13 4 12 5 -5 6 -13 1 -24 -6 -28 -18z"/>
<path d="M2754 1366 c-10 -26 1 -51 22 -54 24 -3 38 20 29 49 -7 22 -43 25
-51 5z m41 -21 c0 -11 -8 -21 -17 -23 -14 -3 -18 3 -18 23 0 20 4 26 18 23 9
-2 17 -12 17 -23z"/>
<path d="M2820 1345 c0 -19 5 -35 10 -35 6 0 10 13 10 29 0 16 6 32 13 34 6 3
2 6 -10 6 -20 1 -23 -4 -23 -34z"/>
<path d="M2874 1366 c-11 -28 1 -51 26 -53 l25 -3 -25 11 -25 12 25 6 c14 4
25 13 25 21 0 20 -44 25 -51 6z m36 -6 c0 -5 -4 -10 -10 -10 -5 0 -10 5 -10
10 0 6 5 10 10 10 6 0 10 -4 10 -10z"/>
<path d="M816 1202 c-3 -6 -13 -30 -21 -54 -12 -34 -12 -39 -1 -25 17 22 42
22 50 1 4 -9 9 -15 11 -12 2 2 -4 26 -14 52 -10 27 -21 44 -25 38z m14 -42 c0
-5 -4 -10 -10 -10 -5 0 -10 5 -10 10 0 6 5 10 10 10 6 0 10 -4 10 -10z"/>
<path d="M1470 1195 c-9 -11 -10 -16 -2 -11 9 5 12 -2 12 -28 0 -19 -6 -37
-12 -39 -7 -3 1 -6 17 -6 17 0 25 3 18 7 -6 4 -13 27 -15 51 -3 41 -4 43 -18
26z"/>
<path d="M1548 1203 c28 -5 28 -26 1 -64 l-20 -29 28 1 c15 1 20 3 11 6 -15 4
-15 6 0 32 19 34 10 61 -20 60 l-23 -2 23 -4z"/>
<path d="M1622 1203 c14 -3 16 -9 8 -23 -7 -13 -6 -19 5 -24 23 -8 18 -34 -7
-39 l-23 -4 23 -2 c27 -1 40 24 25 48 -7 11 -7 23 -1 34 7 14 4 17 -19 16 -17
-1 -21 -3 -11 -6z"/>
<path d="M1703 1183 c-28 -38 -28 -43 -4 -43 11 0 22 -8 24 -17 4 -17 5 -17 6
0 0 9 7 17 14 17 9 0 9 2 0 8 -6 4 -13 21 -15 37 l-3 30 -22 -32z m13 -30
c-10 -10 -19 5 -10 18 6 11 8 11 12 0 2 -7 1 -15 -2 -18z"/>
<path d="M1770 1186 c0 -13 7 -26 15 -30 21 -8 19 -34 -2 -39 -14 -3 -13 -4 2
-3 25 1 34 43 11 52 -21 8 -20 31 2 37 13 4 11 5 -5 6 -18 1 -23 -4 -23 -23z"/>
<path d="M1863 1202 c-19 -12 -32 -56 -22 -75 13 -22 45 -22 53 -1 8 20 -10
44 -32 44 -13 0 -12 3 3 20 19 21 18 25 -2 12z m17 -62 c0 -11 -7 -20 -15 -20
-8 0 -15 9 -15 20 0 11 7 20 15 20 8 0 15 -9 15 -20z"/>
<path d="M1928 1203 c26 -5 27 -14 6 -54 -8 -17 -13 -33 -11 -36 4 -4 47 81
47 93 0 2 -15 3 -32 3 -24 -1 -27 -3 -10 -6z"/>
<path d="M1997 1203 c-3 -5 -4 -26 -3 -48 1 -33 5 -41 22 -43 23 -3 39 22 27
41 -4 7 -6 22 -4 35 2 16 -3 22 -18 22 -11 0 -22 -3 -24 -7z m33 -18 c0 -8 -4
-15 -9 -15 -13 0 -22 16 -14 24 11 11 23 6 23 -9z m3 -50 c1 -5 -6 -11 -15
-13 -11 -2 -18 3 -18 13 0 17 30 18 33 0z"/>
<path d="M2071 1197 c-16 -20 -3 -47 22 -47 19 0 20 -1 2 -20 -10 -11 -13 -20
-8 -20 20 0 34 29 31 62 -3 36 -27 48 -47 25z m39 -17 c0 -11 -7 -20 -15 -20
-8 0 -15 9 -15 20 0 11 7 20 15 20 8 0 15 -9 15 -20z"/>
<path d="M1228 1189 c-2 -6 -2 -26 0 -45 3 -24 9 -34 21 -33 10 0 11 2 4 6
-15 5 -18 50 -4 55 5 2 3 8 -4 15 -9 9 -15 9 -17 2z"/>
<path d="M1324 1188 c-4 -7 -9 -26 -10 -43 -2 -16 0 -24 3 -17 2 6 9 12 14 12
6 0 7 -4 4 -10 -3 -5 -1 -10 4 -10 6 0 11 5 11 10 0 19 2 25 10 35 5 6 5 17 0
25 -7 10 -10 11 -10 3 0 -7 -5 -13 -11 -13 -5 0 -7 5 -4 10 3 6 4 10 1 10 -3
0 -8 -5 -12 -12z"/>
<path d="M874 1166 c-11 -28 1 -51 26 -53 25 -3 25 -3 3 7 -13 5 -23 16 -23
25 0 9 10 20 23 25 l22 9 -23 0 c-12 1 -25 -5 -28 -13z"/>
<path d="M935 1161 c-8 -28 5 -51 29 -50 16 1 17 2 4 6 -11 3 -18 14 -18 28 0
14 7 25 18 28 13 4 12 5 -5 6 -13 1 -24 -6 -28 -18z"/>
<path d="M1004 1166 c-10 -26 1 -51 22 -54 24 -3 38 20 29 49 -7 22 -43 25
-51 5z m41 -21 c0 -11 -8 -21 -17 -23 -14 -3 -18 3 -18 23 0 20 4 26 18 23 9
-2 17 -12 17 -23z"/>
<path d="M1073 1150 c2 -30 6 -35 30 -38 25 -3 27 -1 26 35 -1 36 -2 37 -8 8
-3 -17 -13 -30 -21 -30 -8 0 -18 13 -22 30 -6 29 -6 29 -5 -5z"/>
<path d="M1151 1143 c1 -36 2 -37 8 -8 3 17 13 30 21 30 8 0 18 -13 22 -30 6
-29 6 -29 5 5 -2 30 -6 35 -29 38 -26 3 -28 1 -27 -35z"/>
<path d="M790 960 c0 -50 1 -51 28 -48 25 3 27 6 27 48 0 42 -2 45 -27 48 -27
3 -28 2 -28 -48z m48 23 c2 -8 -5 -13 -17 -13 -12 0 -21 6 -21 16 0 18 31 15
38 -3z m2 -49 c0 -8 -9 -14 -20 -14 -19 0 -27 19 -14 33 10 9 34 -4 34 -19z"/>
<path d="M1023 960 c0 -30 1 -47 4 -37 5 18 6 18 24 1 20 -18 27 -6 7 14 -8 8
-8 15 3 29 13 17 12 16 -8 0 -21 -19 -22 -19 -26 15 -2 20 -4 11 -4 -22z"/>
<path d="M1127 1004 c-11 -11 -8 -94 2 -94 6 0 11 15 13 33 l3 32 20 -32 c26
-44 35 -41 35 12 0 49 -17 62 -22 18 l-3 -28 -21 33 c-11 18 -23 29 -27 26z"/>
<path d="M1700 996 c0 -8 -10 -16 -22 -18 -18 -2 -23 -10 -23 -33 0 -25 4 -30
28 -33 26 -3 27 -2 27 47 0 28 -2 51 -5 51 -3 0 -5 -6 -5 -14z m0 -45 c0 -11
-5 -23 -11 -27 -15 -9 -33 12 -26 30 9 23 37 20 37 -3z"/>
<path d="M1781 972 c-22 -59 -24 -69 -11 -49 13 21 50 23 50 2 0 -8 4 -15 9
-15 8 0 -18 82 -30 94 -3 3 -11 -11 -18 -32z m29 -13 c0 -5 -4 -9 -10 -9 -5 0
-10 7 -10 16 0 8 5 12 10 9 6 -3 10 -10 10 -16z"/>
<path d="M1892 999 c-1 -9 -11 -19 -22 -22 -24 -6 -28 -55 -6 -63 33 -13 41 0
35 51 -3 28 -7 43 -7 34z m-2 -54 c0 -16 -6 -25 -15 -25 -9 0 -15 9 -15 25 0
16 6 25 15 25 9 0 15 -9 15 -25z"/>
<path d="M1970 996 c0 -8 -10 -16 -22 -18 -18 -2 -23 -10 -23 -33 0 -25 4 -30
28 -33 26 -3 27 -2 27 47 0 28 -2 51 -5 51 -3 0 -5 -6 -5 -14z m0 -45 c0 -11
-5 -23 -11 -27 -15 -9 -33 12 -26 30 9 23 37 20 37 -3z"/>
<path d="M2301 1000 c-1 -8 4 -33 11 -55 l11 -40 15 35 15 35 12 -35 c14 -37
16 -35 34 33 5 22 6 35 0 32 -5 -4 -9 -15 -9 -25 0 -29 -17 -33 -24 -5 -7 29
-26 34 -26 7 0 -34 -14 -34 -26 0 -7 18 -13 26 -13 18z"/>
<path d="M2492 963 c-2 -45 1 -53 16 -53 11 0 13 3 5 8 -6 4 -13 28 -16 52
l-4 45 -1 -52z"/>
<path d="M2541 963 c0 -29 3 -53 7 -53 4 0 6 17 4 38 -6 64 -10 69 -11 15z"/>
<path d="M2671 958 c1 -29 3 -44 6 -33 3 11 12 26 21 33 14 11 14 12 -1 12
-25 0 -21 28 6 33 19 4 18 4 -5 6 -27 1 -28 0 -27 -51z"/>
<path d="M3050 959 c0 -49 1 -50 28 -47 24 3 27 7 28 43 1 41 -8 55 -38 55
-15 0 -18 -9 -18 -51z m40 26 c0 -8 -7 -15 -15 -15 -8 0 -15 7 -15 15 0 8 7
15 15 15 8 0 15 -7 15 -15z m10 -46 c0 -12 -29 -24 -37 -16 -3 4 -3 13 0 21 6
16 37 11 37 -5z"/>
<path d="M3270 961 c0 -28 3 -51 8 -51 4 0 15 17 25 37 15 30 16 34 3 24 -14
-12 -16 -10 -16 7 0 12 -4 24 -10 27 -6 4 -10 -13 -10 -44z"/>
<path d="M893 973 c23 -6 22 -19 -3 -26 -29 -8 -26 -37 5 -37 22 0 25 4 25 35
0 30 -3 35 -22 34 -17 -1 -19 -2 -5 -6z m17 -43 c0 -5 -7 -10 -15 -10 -8 0
-15 5 -15 10 0 6 7 10 15 10 8 0 15 -4 15 -10z"/>
<path d="M940 946 c0 -20 5 -36 10 -36 6 0 10 14 10 30 0 39 27 41 33 3 4 -26
4 -26 3 2 -1 25 -6 31 -28 33 -26 3 -28 1 -28 -32z"/>
<path d="M1233 974 c23 -7 22 -20 -4 -27 -29 -8 -19 -31 15 -35 26 -3 27 -1
24 30 -2 27 -7 33 -28 35 -14 1 -18 0 -7 -3z m17 -44 c0 -5 -7 -10 -16 -10 -8
0 -12 5 -9 10 3 6 10 10 16 10 5 0 9 -4 9 -10z"/>
<path d="M1292 943 c1 -37 1 -37 5 -5 3 18 10 32 18 32 8 0 15 -14 18 -32 l4
-33 1 33 c1 20 7 32 16 32 9 0 16 -13 19 -32 4 -32 4 -32 5 5 l2 37 -45 0 -45
0 2 -37z"/>
<path d="M1404 966 c-11 -28 1 -51 26 -53 22 -1 22 -1 3 4 -28 6 -30 23 -3 23
13 0 20 7 20 20 0 24 -37 28 -46 6z m36 -6 c0 -5 -7 -10 -15 -10 -8 0 -15 5
-15 10 0 6 7 10 15 10 8 0 15 -4 15 -10z"/>
<path d="M1528 973 c27 -6 29 -19 2 -26 -30 -8 -25 -37 6 -37 23 0 25 3 22 33
-2 26 -8 32 -28 34 -22 1 -22 1 -2 -4z m22 -43 c0 -5 -7 -10 -15 -10 -8 0 -15
5 -15 10 0 6 7 10 15 10 8 0 15 -4 15 -10z"/>
<path d="M1582 943 c1 -37 1 -37 5 -5 3 18 10 32 18 32 8 0 15 -14 18 -32 4
-32 4 -32 5 5 2 33 0 37 -23 37 -23 0 -25 -4 -23 -37z"/>
<path d="M2001 943 c1 -28 3 -31 6 -13 3 14 10 31 15 38 8 9 6 12 -6 12 -12 0
-16 -9 -15 -37z"/>
<path d="M2046 962 c-10 -31 3 -52 33 -51 23 2 24 2 4 6 -29 6 -30 19 -2 26
26 7 20 31 -8 35 -14 2 -23 -4 -27 -16z m44 -2 c0 -5 -7 -10 -15 -10 -8 0 -15
5 -15 10 0 6 7 10 15 10 8 0 15 -4 15 -10z"/>
<path d="M2115 970 c-3 -5 3 -15 15 -22 26 -17 25 -28 -2 -29 -19 -1 -20 -2
-4 -6 28 -7 45 15 24 31 -10 7 -18 16 -18 19 0 3 8 8 18 10 13 4 12 5 -5 6
-12 0 -25 -3 -28 -9z"/>
<path d="M2175 970 c-3 -5 3 -15 15 -22 26 -17 25 -28 -2 -29 -19 -1 -20 -2
-4 -6 28 -7 45 15 24 31 -10 7 -18 16 -18 19 0 3 8 8 18 10 13 4 12 5 -5 6
-12 0 -25 -3 -28 -9z"/>
<path d="M2424 966 c-11 -28 1 -51 26 -53 22 -1 22 -1 3 4 -28 6 -30 23 -3 23
13 0 20 7 20 20 0 24 -37 28 -46 6z m36 -6 c0 -5 -7 -10 -15 -10 -8 0 -15 5
-15 10 0 6 7 10 15 10 8 0 15 -4 15 -10z"/>
<path d="M2570 966 c0 -8 7 -16 15 -20 20 -7 19 -24 -2 -29 -14 -4 -13 -5 4
-6 32 -2 39 19 13 39 -22 17 -23 18 -4 23 16 4 16 5 -3 6 -14 1 -23 -5 -23
-13z"/>
<path d="M2758 973 c27 -6 29 -19 2 -26 -30 -8 -25 -37 6 -37 23 0 25 3 22 33
-2 26 -8 32 -28 34 -22 1 -22 1 -2 -4z m22 -43 c0 -5 -7 -10 -15 -10 -8 0 -15
5 -15 10 0 6 7 10 15 10 8 0 15 -4 15 -10z"/>
<path d="M2811 943 c1 -28 3 -31 6 -13 3 14 10 31 15 38 8 9 6 12 -6 12 -12 0
-16 -9 -15 -37z"/>
<path d="M2855 961 c-8 -26 4 -51 26 -51 25 0 24 -17 -1 -23 -17 -4 -16 -4 2
-3 20 1 23 7 26 49 3 44 2 47 -22 47 -15 0 -27 -7 -31 -19z m45 -16 c0 -16 -6
-25 -15 -25 -9 0 -15 9 -15 25 0 16 6 25 15 25 9 0 15 -9 15 -25z"/>
<path d="M2934 966 c-11 -29 0 -51 26 -51 21 0 25 5 25 30 0 24 -5 31 -23 33
-13 2 -24 -3 -28 -12z m44 -24 c2 -14 -2 -22 -12 -22 -19 0 -29 17 -22 36 8
22 30 12 34 -14z"/>
<path d="M3143 974 c23 -7 22 -20 -4 -27 -29 -8 -19 -31 15 -35 26 -3 27 -1
24 30 -2 27 -7 33 -28 35 -14 1 -18 0 -7 -3z m17 -44 c0 -5 -7 -10 -16 -10 -8
0 -12 5 -9 10 3 6 10 10 16 10 5 0 9 -4 9 -10z"/>
<path d="M3202 943 c1 -37 1 -37 5 -5 3 18 10 32 18 32 8 0 15 -14 18 -32 4
-32 4 -32 5 5 2 33 0 37 -23 37 -23 0 -25 -4 -23 -37z"/>
<path d="M3300 932 c0 -12 19 -26 26 -19 2 2 -2 10 -11 17 -9 8 -15 8 -15 2z"/>
<path d="M802 775 l-22 -35 25 0 c17 0 25 -6 26 -17 0 -17 1 -16 8 0 8 21 2
87 -8 87 -3 0 -16 -16 -29 -35z m28 -10 c0 -8 -7 -15 -16 -15 -14 0 -14 3 -4
15 7 8 14 15 16 15 2 0 4 -7 4 -15z"/>
<path d="M893 802 c-19 -12 -32 -56 -22 -75 13 -22 45 -22 53 -1 8 20 -10 44
-32 44 -13 0 -12 3 3 20 19 21 18 25 -2 12z m17 -62 c0 -11 -7 -20 -15 -20 -8
0 -15 9 -15 20 0 11 7 20 15 20 8 0 15 -9 15 -20z"/>
<path d="M963 803 c15 -4 16 -7 6 -20 -11 -12 -10 -17 4 -24 23 -14 21 -28 -5
-39 -23 -10 -23 -10 2 -7 17 1 26 9 28 25 2 12 -2 22 -8 22 -8 0 -10 9 -6 25
5 21 3 25 -16 24 -18 -1 -19 -2 -5 -6z"/>
<path d="M1060 759 c0 -49 1 -50 28 -47 24 3 27 7 28 43 1 41 -8 55 -38 55
-15 0 -18 -9 -18 -51z m40 26 c0 -8 -7 -15 -15 -15 -8 0 -15 7 -15 15 0 8 7
15 15 15 8 0 15 -7 15 -15z m10 -46 c0 -12 -29 -24 -37 -16 -3 4 -3 13 0 21 6
16 37 11 37 -5z"/>
<path d="M1372 799 c-1 -9 -11 -19 -22 -22 -24 -6 -28 -55 -6 -63 33 -13 41 0
35 51 -3 28 -7 43 -7 34z m-2 -54 c0 -16 -6 -25 -15 -25 -9 0 -15 9 -15 25 0
16 6 25 15 25 9 0 15 -9 15 -25z"/>
<path d="M1717 804 c-11 -11 -8 -94 2 -94 6 0 11 15 13 33 l3 32 20 -32 c26
-44 35 -41 35 12 0 49 -17 62 -22 18 l-3 -28 -21 33 c-11 18 -23 29 -27 26z"/>
<path d="M2011 805 c0 -5 6 -19 14 -29 8 -11 15 -31 15 -45 1 -23 2 -22 14 9
30 79 29 77 9 52 l-19 -24 -17 24 c-9 12 -16 19 -16 13z"/>
<path d="M2223 760 c0 -30 1 -47 4 -37 5 18 6 18 24 1 20 -18 27 -6 7 14 -8 8
-8 15 3 29 13 17 12 16 -8 0 -21 -19 -22 -19 -26 15 -2 20 -4 11 -4 -22z"/>
<path d="M2357 804 c-11 -11 -8 -94 2 -94 6 0 11 15 13 33 l3 32 20 -32 c26
-44 35 -41 35 12 0 49 -17 62 -22 18 l-3 -28 -21 33 c-11 18 -23 29 -27 26z"/>
<path d="M2441 805 c0 -5 6 -19 14 -29 8 -11 15 -31 15 -45 1 -23 2 -22 14 9
30 79 29 77 9 52 l-19 -24 -17 24 c-9 12 -16 19 -16 13z"/>
<path d="M2583 803 c-7 -3 -13 -9 -13 -14 0 -6 5 -7 10 -4 6 4 10 -8 10 -29 0
-19 -6 -37 -12 -39 -7 -3 1 -6 17 -6 17 0 25 3 18 7 -6 4 -13 26 -15 48 -2 27
-7 39 -15 37z"/>
<path d="M2644 796 c-3 -8 -4 -29 -2 -48 2 -25 8 -34 25 -36 26 -4 39 31 29
73 -7 28 -43 35 -52 11z m41 -37 c0 -24 -5 -35 -17 -37 -14 -3 -18 4 -18 31 0
18 3 37 7 41 15 14 28 -2 28 -35z"/>
<path d="M2718 785 c-13 -30 3 -75 27 -75 24 0 40 45 27 75 -6 14 -19 25 -27
25 -8 0 -21 -11 -27 -25z m42 -25 c0 -43 -23 -57 -33 -20 -7 28 3 60 19 60 10
0 14 -13 14 -40z"/>
<path d="M2813 803 c-7 -3 -13 -9 -13 -14 0 -6 5 -7 10 -4 6 4 10 -8 10 -29 0
-19 -6 -37 -12 -39 -7 -3 1 -6 17 -6 17 0 25 3 18 7 -6 4 -13 26 -15 48 -2 27
-7 39 -15 37z"/>
<path d="M2883 803 c19 -5 22 -19 6 -29 -8 -5 -6 -10 5 -16 23 -13 20 -36 -6
-41 -22 -4 -22 -4 -2 -6 12 0 27 6 34 14 10 13 10 19 -4 34 -11 13 -14 21 -7
26 20 12 11 25 -16 24 -17 -1 -21 -3 -10 -6z"/>
<path d="M3018 804 c-13 -12 -9 -59 5 -78 7 -10 22 -17 33 -14 15 2 19 12 20
51 l1 47 -4 -45 c-3 -36 -8 -45 -23 -45 -15 0 -19 9 -22 46 -2 25 -6 42 -10
38z"/>
<path d="M3103 794 c-4 -11 3 -23 20 -36 34 -25 34 -36 0 -41 l-28 -4 28 -2
c41 -2 47 27 12 55 -22 17 -25 24 -15 28 8 2 22 7 30 9 8 3 2 6 -13 6 -17 1
-30 -5 -34 -15z"/>
<path d="M3206 802 c-3 -6 -13 -30 -21 -54 -12 -34 -12 -39 -1 -25 17 22 42
22 50 1 4 -9 9 -15 11 -12 2 2 -4 26 -14 52 -10 27 -21 44 -25 38z m14 -42 c0
-5 -4 -10 -10 -10 -5 0 -10 5 -10 10 0 6 5 10 10 10 6 0 10 -4 10 -10z"/>
<path d="M1141 743 c1 -28 3 -31 6 -13 3 14 10 31 15 38 8 9 6 12 -6 12 -12 0
-16 -9 -15 -37z"/>
<path d="M1186 762 c-10 -30 4 -53 28 -50 31 4 30 62 -1 66 -14 2 -23 -3 -27
-16z m44 -17 c0 -16 -6 -25 -15 -25 -9 0 -15 9 -15 25 0 16 6 25 15 25 9 0 15
-9 15 -25z"/>
<path d="M1278 773 c27 -6 29 -19 2 -26 -30 -8 -25 -37 6 -37 23 0 25 3 22 33
-2 26 -8 32 -28 34 -22 1 -22 1 -2 -4z m22 -43 c0 -5 -7 -10 -15 -10 -8 0 -15
5 -15 10 0 6 7 10 15 10 8 0 15 -4 15 -10z"/>
<path d="M1406 758 c13 -46 21 -53 29 -28 l7 23 17 -22 17 -22 11 35 c6 20 7
34 2 30 -5 -3 -9 -13 -9 -22 0 -14 -4 -12 -19 7 l-18 24 -7 -24 -7 -24 -9 23
c-5 12 -12 22 -15 22 -4 0 -3 -10 1 -22z"/>
<path d="M1528 773 c27 -6 29 -19 2 -26 -30 -8 -25 -37 6 -37 23 0 25 3 22 33
-2 26 -8 32 -28 34 -22 1 -22 1 -2 -4z m22 -43 c0 -5 -7 -10 -15 -10 -8 0 -15
5 -15 10 0 6 7 10 15 10 8 0 15 -4 15 -10z"/>
<path d="M1586 744 c12 -28 12 -39 3 -50 -7 -8 -7 -14 -1 -14 5 0 17 18 26 40
19 48 20 78 1 35 l-13 -30 -7 28 c-4 15 -11 27 -16 27 -4 0 -1 -16 7 -36z"/>
<path d="M1806 762 c-10 -31 3 -52 33 -51 23 2 24 2 4 6 -29 6 -30 19 -2 26
26 7 20 31 -8 35 -14 2 -23 -4 -27 -16z m44 -2 c0 -5 -7 -10 -15 -10 -8 0 -15
5 -15 10 0 6 7 10 15 10 8 0 15 -4 15 -10z"/>
<path d="M1876 758 c13 -46 21 -53 29 -28 l7 23 17 -22 17 -22 11 35 c6 20 7
34 2 30 -5 -3 -9 -13 -9 -22 0 -14 -4 -12 -19 7 l-18 24 -7 -24 -7 -24 -9 23
c-5 12 -12 22 -15 22 -4 0 -3 -10 1 -22z"/>
<path d="M2096 762 c-10 -30 4 -53 28 -50 31 4 30 62 -1 66 -14 2 -23 -3 -27
-16z m44 -17 c0 -16 -6 -25 -15 -25 -9 0 -15 9 -15 25 0 16 6 25 15 25 9 0 15
-9 15 -25z"/>
<path d="M2171 743 c1 -28 3 -31 6 -13 3 14 10 31 15 38 8 9 6 12 -6 12 -12 0
-16 -9 -15 -37z"/>
<path d="M1643 705 c0 -8 4 -12 9 -9 4 3 8 9 8 15 0 5 -4 9 -8 9 -5 0 -9 -7
-9 -15z"/>
<path d="M2286 705 c4 -8 8 -15 10 -15 2 0 4 7 4 15 0 8 -4 15 -10 15 -5 0 -7
-7 -4 -15z"/>
<path d="M2943 705 c0 -8 4 -12 9 -9 4 3 8 9 8 15 0 5 -4 9 -8 9 -5 0 -9 -7
-9 -15z"/>
<path d="M790 560 c0 -50 1 -51 28 -48 25 3 27 6 27 48 0 42 -2 45 -27 48 -27
3 -28 2 -28 -48z m48 23 c2 -8 -5 -13 -17 -13 -12 0 -21 6 -21 16 0 18 31 15
38 -3z m2 -49 c0 -8 -9 -14 -20 -14 -19 0 -27 19 -14 33 10 9 34 -4 34 -19z"/>
<path d="M1023 560 c0 -30 1 -47 4 -37 5 18 6 18 24 1 20 -18 27 -6 7 14 -8 8
-8 15 3 29 13 17 12 16 -8 0 -21 -19 -22 -19 -26 15 -2 20 -4 11 -4 -22z"/>
<path d="M1951 563 c-1 -50 0 -53 24 -53 18 0 26 7 31 24 7 31 -1 46 -26 46
-10 0 -21 8 -23 18 -3 9 -5 -7 -6 -35z m44 -19 c0 -10 -8 -20 -17 -22 -18 -3
-26 27 -11 42 12 11 28 0 28 -20z"/>
<path d="M2233 603 c-7 -3 -13 -9 -13 -14 0 -6 5 -7 10 -4 6 4 10 -8 10 -29 0
-19 -6 -37 -12 -39 -7 -3 1 -6 17 -6 17 0 25 3 18 7 -6 4 -13 26 -15 48 -2 27
-7 39 -15 37z"/>
<path d="M2308 600 c27 -11 27 -14 1 -56 l-21 -34 29 1 c16 1 21 3 11 6 -16 4
-17 7 -2 35 19 37 12 58 -18 57 l-23 0 23 -9z"/>
<path d="M2383 603 c15 -4 16 -7 6 -20 -11 -12 -10 -17 4 -24 23 -14 21 -28
-5 -39 -23 -10 -23 -10 2 -7 17 1 26 9 28 25 2 12 -2 22 -8 22 -8 0 -10 9 -6
25 5 21 3 25 -16 24 -18 -1 -19 -2 -5 -6z"/>
<path d="M2452 575 l-22 -35 25 0 c17 0 25 -6 26 -17 0 -17 1 -16 8 0 8 21 2
87 -8 87 -3 0 -16 -16 -29 -35z m28 -10 c0 -8 -7 -15 -16 -15 -14 0 -14 3 -4
15 7 8 14 15 16 15 2 0 4 -7 4 -15z"/>
<path d="M2520 586 c0 -15 7 -26 20 -29 27 -7 25 -25 -2 -37 -23 -10 -23 -10
2 -7 33 3 42 46 11 54 -28 7 -27 30 2 36 19 4 18 4 -5 6 -23 1 -28 -3 -28 -23z"/>
<path d="M2604 586 c-23 -36 -15 -71 16 -71 33 0 42 44 11 52 -26 7 -26 12 -3
29 10 8 12 13 5 14 -7 0 -20 -11 -29 -24z m34 -49 c2 -10 -3 -17 -12 -17 -18
0 -29 16 -21 31 9 14 29 6 33 -14z"/>
<path d="M2688 603 c26 -5 26 -2 6 -48 -8 -20 -13 -39 -11 -41 2 -3 14 18 25
46 l21 50 -32 -1 c-24 -1 -26 -3 -9 -6z"/>
<path d="M2759 608 c-1 -2 -3 -25 -5 -51 -3 -45 -2 -48 19 -45 19 3 22 9 22
48 0 35 -4 45 -17 48 -10 2 -19 2 -19 0z m31 -23 c0 -8 -7 -15 -15 -15 -8 0
-15 7 -15 15 0 8 7 15 15 15 8 0 15 -7 15 -15z m0 -50 c0 -8 -7 -15 -15 -15
-8 0 -15 7 -15 15 0 8 7 15 15 15 8 0 15 -7 15 -15z"/>
<path d="M2824 596 c-10 -25 3 -46 28 -46 l23 -1 -24 -19 c-17 -15 -19 -20 -7
-20 40 0 48 93 8 98 -13 2 -25 -3 -28 -12z m44 -19 c2 -10 -3 -17 -12 -17 -18
0 -29 16 -21 31 9 14 29 6 33 -14z"/>
<path d="M1408 585 c-2 -3 -2 -20 0 -40 3 -25 9 -35 21 -34 10 0 11 2 4 6 -16
6 -17 50 -1 55 8 3 6 6 -4 10 -9 4 -18 5 -20 3z"/>
<path d="M893 573 c23 -6 22 -19 -3 -26 -29 -8 -26 -37 5 -37 22 0 25 4 25 35
0 30 -3 35 -22 34 -17 -1 -19 -2 -5 -6z m17 -43 c0 -5 -7 -10 -15 -10 -8 0
-15 5 -15 10 0 6 7 10 15 10 8 0 15 -4 15 -10z"/>
<path d="M940 546 c0 -20 5 -36 10 -36 6 0 10 14 10 30 0 39 27 41 33 3 4 -26
4 -26 3 2 -1 25 -6 31 -28 33 -26 3 -28 1 -28 -32z"/>
<path d="M1115 570 c-3 -5 3 -15 15 -22 26 -17 25 -28 -2 -29 -19 -1 -20 -2
-4 -6 28 -7 45 15 24 31 -10 7 -18 16 -18 19 0 3 8 8 18 10 13 4 12 5 -5 6
-12 0 -25 -3 -28 -9z"/>
<path d="M1210 545 c0 -19 5 -35 10 -35 6 0 10 13 10 29 0 16 6 32 13 34 6 3
2 6 -10 6 -20 1 -23 -4 -23 -34z"/>
<path d="M1264 566 c-10 -26 1 -51 22 -54 24 -3 38 20 29 49 -7 22 -43 25 -51
5z m41 -21 c0 -11 -8 -21 -17 -23 -14 -3 -18 3 -18 23 0 20 4 26 18 23 9 -2
17 -12 17 -23z"/>
<path d="M1342 548 c-2 -34 0 -38 23 -38 23 0 25 4 23 38 -1 36 -1 36 -5 5 -3
-19 -10 -33 -18 -33 -8 0 -15 14 -18 33 -4 31 -4 31 -5 -5z"/>
<path d="M1463 545 c0 -22 2 -30 4 -17 2 12 2 30 0 40 -3 9 -5 -1 -4 -23z"/>
<path d="M1502 543 c1 -37 1 -37 5 -5 3 18 10 32 18 32 8 0 15 -14 18 -32 4
-32 4 -32 5 5 2 33 0 37 -23 37 -23 0 -25 -4 -23 -37z"/>
<path d="M1574 566 c-10 -27 1 -50 26 -57 l25 -6 -25 -12 -25 -11 25 3 c22 2
25 7 28 50 3 45 2 47 -23 47 -14 0 -28 -6 -31 -14z m46 -15 c0 -11 -5 -23 -11
-27 -15 -9 -33 12 -26 30 9 23 37 20 37 -3z"/>
<path d="M1680 546 c0 -20 5 -36 10 -36 6 0 10 14 10 30 0 39 27 41 33 3 4
-26 4 -26 3 2 -1 25 -6 31 -28 33 -26 3 -28 1 -28 -32z"/>
<path d="M1762 548 c-2 -35 0 -38 26 -38 27 0 28 2 23 38 l-6 37 -3 -32 c-2
-20 -9 -33 -17 -33 -8 0 -15 14 -18 33 -4 31 -4 31 -5 -5z"/>
<path d="M1842 543 c1 -37 1 -37 5 -5 3 18 10 32 18 32 8 0 15 -14 18 -32 l4
-33 1 33 c1 20 7 32 16 32 9 0 16 -13 19 -32 4 -32 4 -32 5 5 l2 37 -45 0 -45
0 2 -37z"/>
<path d="M2026 562 c-10 -31 3 -52 33 -51 23 2 24 2 4 6 -29 6 -30 19 -2 26
26 7 20 31 -8 35 -14 2 -23 -4 -27 -16z m44 -2 c0 -5 -7 -10 -15 -10 -8 0 -15
5 -15 10 0 6 7 10 15 10 8 0 15 -4 15 -10z"/>
<path d="M2101 543 c2 -35 2 -35 6 -8 3 16 10 33 16 37 8 5 6 8 -5 8 -14 0
-18 -8 -17 -37z"/>
<path d="M790 360 c0 -50 1 -51 28 -48 25 3 27 6 27 48 0 42 -2 45 -27 48 -27
3 -28 2 -28 -48z m48 23 c2 -8 -5 -13 -17 -13 -12 0 -21 6 -21 16 0 18 31 15
38 -3z m2 -49 c0 -8 -9 -14 -20 -14 -19 0 -27 19 -14 33 10 9 34 -4 34 -19z"/>
<path d="M1023 360 c0 -30 1 -47 4 -37 5 18 6 18 24 1 20 -18 27 -6 7 14 -8 8
-8 15 3 29 13 17 12 16 -8 0 -21 -19 -22 -19 -26 15 -2 20 -4 11 -4 -22z"/>
<path d="M1123 394 c-4 -11 3 -23 20 -36 34 -25 34 -36 0 -41 l-28 -4 28 -2
c41 -2 47 27 12 55 -22 17 -25 24 -15 28 8 2 22 7 30 9 8 3 2 6 -13 6 -17 1
-30 -5 -34 -15z"/>
<path d="M1190 405 c0 -5 7 -30 14 -55 l14 -45 13 35 13 35 14 -35 15 -35 14
49 c8 26 12 51 9 54 -3 3 -9 -9 -12 -26 -8 -41 -20 -41 -29 1 l-7 32 -11 -32
c-11 -35 -27 -44 -27 -15 0 9 -5 24 -10 32 -5 8 -10 11 -10 5z"/>
<path d="M1323 360 c0 -30 2 -43 4 -27 2 15 2 39 0 55 -2 15 -4 2 -4 -28z"/>
<path d="M1357 403 c-11 -10 -8 -93 3 -93 6 0 10 11 10 24 0 15 7 26 18 29 16
4 16 5 0 6 -26 2 -22 29 5 34 20 4 20 4 -4 6 -14 0 -29 -2 -32 -6z"/>
<path d="M1432 403 c12 -3 18 -18 21 -51 l3 -47 2 47 c2 35 6 48 20 51 9 3 -1
5 -23 5 -22 0 -32 -2 -23 -5z"/>
<path d="M1587 372 c-19 -46 -22 -77 -6 -49 12 21 38 22 45 2 4 -8 12 -15 19
-15 7 0 15 7 19 15 7 20 33 19 45 -2 15 -26 13 -13 -6 43 l-17 49 -22 -50 -22
-50 -11 30 c-27 72 -26 72 -44 27z m27 -7 c3 -9 0 -15 -9 -15 -9 0 -12 6 -9
15 4 8 7 15 9 15 2 0 5 -7 9 -15z m80 0 c3 -9 0 -15 -9 -15 -9 0 -12 6 -9 15
4 8 7 15 9 15 2 0 5 -7 9 -15z"/>
<path d="M1751 372 c-22 -59 -24 -69 -11 -49 13 21 50 23 50 2 0 -8 6 -15 14
-15 8 0 16 7 20 15 3 8 15 15 26 15 11 0 20 -7 20 -15 0 -8 4 -15 9 -15 6 0 4
14 -3 33 -7 17 -16 41 -20 52 -7 17 -10 14 -24 -22 -24 -58 -28 -60 -42 -16
-18 55 -24 58 -39 15z m29 -13 c0 -5 -4 -9 -10 -9 -5 0 -10 7 -10 16 0 8 5 12
10 9 6 -3 10 -10 10 -16z m80 0 c0 -5 -4 -9 -10 -9 -5 0 -10 7 -10 16 0 8 5
12 10 9 6 -3 10 -10 10 -16z"/>
<path d="M1904 365 c1 -49 2 -50 31 -50 29 0 30 1 31 50 l2 50 -7 -45 c-5 -36
-10 -45 -26 -45 -16 0 -21 9 -26 45 l-7 45 2 -50z"/>
<path d="M1993 394 c-4 -10 4 -24 23 -39 22 -18 25 -25 14 -28 -8 -3 -22 -8
-30 -10 -8 -3 -2 -6 13 -6 40 -1 47 27 14 51 -33 24 -34 35 -4 41 l22 4 -23 2
c-12 0 -25 -6 -29 -15z"/>
<path d="M2083 403 c-7 -3 -13 -9 -13 -14 0 -6 5 -7 10 -4 6 4 10 -8 10 -29 0
-19 -6 -37 -12 -39 -7 -3 1 -6 17 -6 17 0 25 3 18 7 -6 4 -13 26 -15 48 -2 27
-7 39 -15 37z"/>
<path d="M2158 403 c28 -5 28 -26 1 -64 l-20 -29 28 1 c15 1 20 3 11 6 -15 4
-15 6 0 32 19 34 10 61 -20 60 l-23 -2 23 -4z"/>
<path d="M893 373 c23 -6 22 -19 -3 -26 -29 -8 -26 -37 5 -37 22 0 25 4 25 35
0 30 -3 35 -22 34 -17 -1 -19 -2 -5 -6z m17 -43 c0 -5 -7 -10 -15 -10 -8 0
-15 5 -15 10 0 6 7 10 15 10 8 0 15 -4 15 -10z"/>
<path d="M940 346 c0 -20 5 -36 10 -36 6 0 10 14 10 30 0 39 27 41 33 3 4 -26
4 -26 3 2 -1 25 -6 31 -28 33 -26 3 -28 1 -28 -32z"/>
</g>
</svg>
