<svg width="320" height="385" version="1.1" xmlns="http://www.w3.org/2000/svg" desc="Created with imagetracer.js version 1.2.5"><path d="M 100 22 L 220 22 L 220 63 L 100 63 L 100 22 Z M 101 25 L 101 60 L 102 60 L 219 60 L 219 26 L 219 25 L 101 25 Z "></path><path d="M 118.5 29 L 122 30.5 L 124 37.5 L 124 47.5 L 123 52.5 L 120.5 56 L 117 54.5 L 115 47.5 L 115 37.5 L 116 32.5 L 118.5 29 Z M 118 32 L 117 35 L 117 51 L 118 52 Q 117 54 121 53 L 122 51 L 122 35 L 121 34 Q 122 31 118 32 Z "></path><path d="M 136.5 29 Q 142.6 27.8 142 30.5 Q 145 32.5 144 38.5 L 142 43 L 140 43.5 L 144 54.5 L 142 55.5 L 139 43 L 137 43 L 137 54.5 L 135 55 L 135 30.5 L 136.5 29 Z M 137 32 L 137 40 L 142 40 L 142 32 L 137 32 Z "></path><path d="M 151 29 Q 156.4 27.5 158 30.5 L 159 39.5 L 156 45.5 L 159 55.5 L 157 54.5 L 155 43 L 152 43.5 L 152 55.5 L 151 55.5 L 151 29 Z M 152 32 L 152 40 L 157 40 Q 159 39 158 34 Q 157 31 152 32 Z "></path><path d="M 161 29 L 169 29 L 169 32 L 162 32 L 162 41 Q 167.4 39.5 169 42.5 Q 167.4 45.5 162 44 L 162 53 L 169 53 L 169 56 L 161.5 56 L 161 55.5 L 161 29 Z "></path><path d="M 173 29 L 177 29 L 177 30.5 Q 179.6 31.9 179 36.5 L 178 36.5 L 177 32 Q 171.4 29.8 173 35.5 L 172 36.5 L 172 48.5 L 173 53 L 177 53 L 177 51.5 L 178.5 48 L 179 51.5 L 177 56 L 173 56 L 173 54.5 L 171 50.5 L 171 34.5 L 173 29 Z "></path><path d="M 181 29 L 189 29 L 189 32 L 182 32 L 182 41 Q 187.4 39.5 189 42.5 Q 187.4 45.5 182 44 L 182 53 L 189 53 L 189 56 L 181.5 56 L 181 55.5 L 181 29 Z "></path><path d="M 192.5 29 Q 195.1 28.2 194 31.5 L 193 32.5 L 193 52.5 L 194 56 L 191 54.5 L 192 53.5 L 192 31.5 Q 189.7 30.3 192.5 29 Z "></path><path d="M 197.5 29 Q 203.6 27.8 203 30.5 Q 206 32.5 205 38.5 L 203 43 L 198 43 L 198 54.5 L 196 55 L 196 30.5 L 197.5 29 Z M 198 32 L 198 40 L 203 40 L 203 32 L 198 32 Z "></path><path d="M 207.5 29 Q 213.5 27.5 215 30.5 L 211 32 L 210.5 56 L 210 32 L 206 30.5 L 207.5 29 Z "></path><path d="M 105.5 30 Q 108.5 29.1 107 33.5 L 109.5 41 L 112 30 L 114 30.5 L 110 43.5 L 109.5 56 L 109 43.5 L 105.5 30 Z "></path><path d="M 125 30 L 127 30.5 L 127 51.5 L 130.5 53 L 132 51.5 L 132 30 L 134 30.5 L 134 49.5 L 130.5 56 L 127 54.5 L 125 49.5 L 125 30 Z "></path><path d="M 133 67 L 138 67 L 138 69 L 136 69.5 L 136 77.5 L 135 77.5 L 135 69.5 Q 132.3 70.1 133 67 Z "></path><path d="M 139.5 67 L 140 70 L 144 71.5 L 143.5 78 L 143 71 L 140 72.5 L 139.5 78 L 139.5 67 Z "></path><path d="M 157.5 67 L 158.5 72 L 161.5 70 L 160 72.5 L 162 77.5 L 160 76.5 L 158.5 74 L 157.5 78 L 157.5 67 Z "></path><path d="M 146.5 70 L 150 71.5 L 149.5 78 L 147.5 78 L 145 76.5 Q 143.5 72.1 146.5 73 L 147.5 71 L 146.5 70 Z M 146 74 Q 145 77 148 76 Q 149 73 146 74 Z "></path><path d="M 151 70 Q 154.8 69 156 71.5 L 155.5 78 L 155 71 L 152 72.5 L 151.5 78 L 151 70 Z "></path><path d="M 169.5 70 L 171.5 74 L 173.5 70 L 174 72.5 L 170.5 79 L 169 78.5 L 171 75.5 Q 168 73.7 169.5 70 Z "></path><path d="M 176.5 70 L 180 71.5 Q 181.3 76.8 178.5 78 L 175 76.5 Q 173.8 71.3 176.5 70 Z M 178 71 L 176 73 Q 175 78 179 76 Q 180 72 178 71 Z "></path><path d="M 181.5 70 L 182 76 L 185 74.5 L 185.5 70 L 186 77 L 182.5 78 Q 179.1 76.1 181.5 70 Z "></path><path d="M 98.5 82 L 99 92.5 L 98 92.5 L 96.5 88 L 96 92 L 94 91.5 L 94 83 Q 96.7 81.9 96 84.5 L 97.5 87 L 98.5 82 Z "></path><path d="M 101.5 82 L 105 83.5 L 105 91.5 L 103.5 93 L 100 91.5 L 100 83.5 L 101.5 82 Z M 101 84 L 101 91 L 104 91 L 104 84 L 101 84 Z "></path><path d="M 106.5 82 L 108.5 89 L 110.5 82 L 111 86.5 L 108.5 93 L 106 86.5 L 106.5 82 Z "></path><path d="M 113.5 82 Q 118.3 80.7 117 84 Q 112.5 82.5 114 87 L 116 87.5 L 114 88 L 114 91 Q 118.1 89.7 117 93 Q 113.2 94 112 91.5 L 112 83.5 L 113.5 82 Z "></path><path d="M 122.5 82 L 123 92.5 L 122 92.5 L 121.5 88 L 119 88.5 L 118.5 93 L 118 83.5 L 120 84.5 L 120.5 87 L 122.5 82 Z "></path><path d="M 124 82 Q 127.8 81.3 129 84.5 L 128 86.5 L 129 92 L 124 93 L 124 82 Z M 125 84 Q 124 87 127 86 Q 128 83 125 84 Z M 125 88 Q 124 93 128 91 Q 130 87 125 88 Z "></path><path d="M 131.5 82 Q 136.3 80.7 135 84 Q 130.5 82.5 132 87 L 134 87.5 L 132 88 L 132 91 Q 136.1 89.7 135 93 Q 131.2 94 130 91.5 L 130 83.5 L 131.5 82 Z "></path><path d="M 136 82 Q 139.8 81 141 83.5 L 140 89.5 L 141 92.5 L 140 92.5 L 137.5 88 L 136.5 93 L 136 82 Z M 137 84 L 137 87 L 140 86 Q 141 82 137 84 Z "></path><path d="M 167.5 82 L 171 83.5 L 171 86.5 L 168 90.5 L 171 91 L 171 93 L 166 93 L 166 90.5 L 170 84 L 166.5 85 L 166 83.5 L 167.5 82 Z "></path><path d="M 174.5 82 Q 178.5 83.5 177 90.5 Q 174.5 95.5 172 90.5 Q 170.5 83.5 174.5 82 Z M 173 84 L 173 91 L 176 91 L 176 84 L 173 84 Z "></path><path d="M 185.5 82 L 189 83.5 L 189 86.5 L 186 90.5 L 189 91 L 189 93 L 184 93 L 184 90.5 L 188 84 L 184.5 85 L 184 83.5 L 185.5 82 Z "></path><path d="M 202 82 Q 207.2 80.3 206 84 Q 201.9 82.7 203 86 L 207 87.5 Q 208 92 205.5 93 L 202 91.5 L 202.5 90 L 206 91 L 204.5 87 L 202.5 88 L 202 82 Z "></path><path d="M 216.5 82 Q 220.5 83.5 219 90.5 Q 216.5 95.5 214 90.5 Q 212.5 83.5 216.5 82 Z M 215 84 L 215 91 L 218 91 L 218 84 L 215 84 Z "></path><path d="M 222.5 82 Q 226.5 83.5 225 90.5 Q 222.5 95.5 220 90.5 Q 218.5 83.5 222.5 82 Z M 221 84 L 221 91 L 224 91 L 224 84 L 221 84 Z "></path><path d="M 149 83 L 152 83 L 152 92 Q 148.5 93.1 150 85.5 L 149 83 Z "></path><path d="M 179 83 L 182 83 L 182 92 Q 178.5 93.1 180 85.5 L 179 83 Z "></path><path d="M 197 83 L 200 83 L 200 92 Q 196.5 93.1 198 85.5 L 197 83 Z "></path><path d="M 210.5 85 Q 213.5 86.5 210.5 88 L 210.5 85 Z "></path><path d="M 156.5 90 L 158 92.5 L 156 93.5 L 156.5 90 Z "></path><path d="M 210.5 90 Q 213.5 91.5 210.5 93 L 210.5 90 Z "></path><path d="M 16 127 L 21 127 L 21 129 L 19 129.5 L 19 137.5 L 18 137.5 L 18 129.5 Q 15.3 130.1 16 127 Z "></path><path d="M 26.5 127 L 27 137.5 L 26 137.5 L 25.5 133 L 23 133.5 L 22.5 138 L 22 128.5 L 24 129.5 L 24.5 132 L 26.5 127 Z "></path><path d="M 34.5 127 L 35 132 Q 39.9 133.8 38 127.5 L 39 127.5 L 38.5 138 L 38 133 Q 33.1 131.2 35 137.5 L 34 137.5 L 34.5 127 Z "></path><path d="M 240.5 127 Q 243.1 126.3 242 129 L 239 130.5 L 243 132.5 Q 244 137 241.5 138 L 238 136.5 Q 236.3 128.8 240.5 127 Z M 241 132 L 239 134 Q 238 138 242 136 L 241 132 Z "></path><path d="M 252.5 127 Q 256.5 128.5 255 135.5 Q 252.5 140.5 250 135.5 Q 248.5 128.5 252.5 127 Z M 251 129 L 251 136 L 254 136 L 254 129 L 251 129 Z "></path><path d="M 258.5 127 Q 262.5 128.5 261 135.5 Q 258.5 140.5 256 135.5 Q 254.5 128.5 258.5 127 Z M 257 129 L 257 136 L 260 136 L 260 129 L 257 129 Z "></path><path d="M 40.5 130 L 42.5 132 L 45 130.5 L 43 133.5 L 45 137.5 L 44 137.5 L 42.5 135 L 40.5 138 L 40 136.5 L 42 133.5 Q 39 132.5 40.5 130 Z "></path><path d="M 46.5 130 L 48.5 132 L 51 130.5 L 49 133.5 L 51 137.5 L 50 137.5 L 48.5 135 L 46.5 138 L 46 136.5 L 48 133.5 Q 45 132.5 46.5 130 Z "></path><path d="M 52.5 130 L 54.5 132 L 57 130.5 L 55 133.5 L 57 137.5 L 56 137.5 L 54.5 135 L 52.5 138 L 52 136.5 L 54 133.5 Q 51 132.5 52.5 130 Z "></path><path d="M 29 132 Q 33.1 130.7 32 134 Q 27.9 135.3 29 132 Z "></path><path d="M 246.5 135 Q 249.5 136.5 246.5 138 L 246.5 135 Z "></path><path d="M 16 142 Q 19.8 141 21 143.5 Q 22 148 19.5 149 Q 15.3 147.7 17 152.5 L 16 152.5 L 16 142 Z M 17 144 Q 16 149 20 147 Q 22 143 17 144 Z "></path><path d="M 23.5 142 L 27 143.5 L 26.5 146 L 26 144 Q 22.3 142.5 23 145.5 L 27 148.5 Q 27.8 152.3 25.5 153 L 22 151.5 L 22.5 149 L 23 151 Q 26.8 152.5 26 149.5 L 22 147 Q 21 143.2 23.5 142 Z "></path><path d="M 250 142 L 255 142 L 255 144.5 L 253 152 Q 250.3 153.1 251 150.5 L 253 144 Q 248.9 145.3 250 142 Z "></path><path d="M 258.5 142 Q 262.5 143.5 261 150.5 Q 258.5 155.5 256 150.5 Q 254.5 143.5 258.5 142 Z M 257 144 L 257 151 L 260 151 L 260 144 L 257 144 Z "></path><path d="M 239 143 L 242 143 L 242 152 Q 238.5 153.1 240 145.5 L 239 143 Z "></path><path d="M 34.5 145 L 36.5 147 L 39 145.5 L 37 148.5 L 39 152.5 L 38 152.5 L 36.5 150 L 34.5 153 L 34 151.5 L 36 148.5 Q 33 147.5 34.5 145 Z "></path><path d="M 40.5 145 L 42.5 147 L 45 145.5 L 43 148.5 L 45 152.5 L 44 152.5 L 42.5 150 L 40.5 153 L 40 151.5 L 42 148.5 Q 39 147.5 40.5 145 Z "></path><path d="M 46.5 145 L 48.5 147 L 51 145.5 L 49 148.5 L 51 152.5 L 50 152.5 L 48.5 150 L 46.5 153 L 46 151.5 L 48 148.5 Q 45 147.5 46.5 145 Z "></path><path d="M 29 147 Q 33.1 145.7 32 149 Q 27.9 150.3 29 147 Z "></path><path d="M 246.5 150 Q 249.5 151.5 246.5 153 L 246.5 150 Z "></path><path d="M 16 173 L 21 173 L 21 175 L 19 175.5 L 19 192.5 L 18 192.5 L 18 175.5 Q 15.3 176.1 16 173 Z "></path><path d="M 23.5 173 L 27 174.5 L 27 191.5 L 25.5 193 L 22 191.5 L 22 174.5 L 23.5 173 Z M 25 175 L 23 177 L 23 190 Q 25 193 26 190 L 26 177 L 25 175 Z "></path><path d="M 28 173 L 33 173 L 33 175 L 31 175.5 L 31 192.5 L 30 192.5 L 30 175.5 Q 27.3 176.1 28 173 Z "></path><path d="M 36.5 173 L 39 183.5 L 39 192.5 L 38 192.5 Q 39.9 186.2 35 188 L 34.5 193 L 34 183.5 L 36.5 173 Z M 37 179 L 36 186 L 37 186 L 37 179 Z "></path><path d="M 40 173 L 42 173.5 L 42 190.5 L 45 191 L 45 193 L 40 192.5 L 40 173 Z "></path><path d="M 238 173 L 243 173 L 243 177.5 L 241 185.5 L 241 193 Q 237.3 194.3 239 188.5 L 240 187.5 L 241 175 Q 236.9 176.3 238 173 Z "></path><path d="M 250 173 L 255 173 L 255 177.5 L 253 185.5 L 253 193 Q 249.3 194.3 251 188.5 L 252 187.5 L 253 175 Q 248.9 176.3 250 173 Z "></path><path d="M 257 173 Q 260.8 171.5 260 174.5 L 261 175.5 L 261 190.5 L 260 193 Q 256.3 194.5 257 191.5 L 256 190.5 L 256 175.5 L 257 173 Z M 259 175 L 257 178 L 257 189 L 259 191 L 260 189 L 260 178 L 259 175 Z "></path><path d="M 246 189 Q 249.7 187.8 248 193 Q 244.3 194.2 246 189 Z "></path><path d="M 17 201 Q 21.1 199.7 20 203 Q 15.9 204.3 17 201 Z "></path><path d="M 23 201 Q 27.1 199.7 26 203 Q 21.9 204.3 23 201 Z "></path><path d="M 29 201 Q 33.1 199.7 32 203 Q 27.9 204.3 29 201 Z "></path><path d="M 35 201 Q 39.1 199.7 38 203 Q 33.9 204.3 35 201 Z "></path><path d="M 41 201 Q 45.1 199.7 44 203 Q 39.9 204.3 41 201 Z "></path><path d="M 47 201 Q 51.1 199.7 50 203 Q 45.9 204.3 47 201 Z "></path><path d="M 53 201 Q 57.1 199.7 56 203 Q 51.9 204.3 53 201 Z "></path><path d="M 59 201 Q 63.1 199.7 62 203 Q 57.9 204.3 59 201 Z "></path><path d="M 65 201 Q 69.1 199.7 68 203 Q 63.9 204.3 65 201 Z "></path><path d="M 71 201 Q 75.1 199.7 74 203 Q 69.9 204.3 71 201 Z "></path><path d="M 77 201 Q 81.1 199.7 80 203 Q 75.9 204.3 77 201 Z "></path><path d="M 83 201 Q 87.1 199.7 86 203 Q 81.9 204.3 83 201 Z "></path><path d="M 89 201 Q 93.1 199.7 92 203 Q 87.9 204.3 89 201 Z "></path><path d="M 95 201 Q 99.1 199.7 98 203 Q 93.9 204.3 95 201 Z "></path><path d="M 101 201 Q 105.1 199.7 104 203 Q 99.9 204.3 101 201 Z "></path><path d="M 107 201 Q 111.1 199.7 110 203 Q 105.9 204.3 107 201 Z "></path><path d="M 113 201 Q 117.1 199.7 116 203 Q 111.9 204.3 113 201 Z "></path><path d="M 119 201 Q 123.1 199.7 122 203 Q 117.9 204.3 119 201 Z "></path><path d="M 125 201 Q 129.1 199.7 128 203 Q 123.9 204.3 125 201 Z "></path><path d="M 131 201 Q 135.1 199.7 134 203 Q 129.9 204.3 131 201 Z "></path><path d="M 137 201 Q 141.1 199.7 140 203 Q 135.9 204.3 137 201 Z "></path><path d="M 143 201 Q 147.1 199.7 146 203 Q 141.9 204.3 143 201 Z "></path><path d="M 149 201 Q 153.1 199.7 152 203 Q 147.9 204.3 149 201 Z "></path><path d="M 155 201 Q 159.1 199.7 158 203 Q 153.9 204.3 155 201 Z "></path><path d="M 161 201 Q 165.1 199.7 164 203 Q 159.9 204.3 161 201 Z "></path><path d="M 167 201 Q 171.1 199.7 170 203 Q 165.9 204.3 167 201 Z "></path><path d="M 173 201 Q 177.1 199.7 176 203 Q 171.9 204.3 173 201 Z "></path><path d="M 179 201 Q 183.1 199.7 182 203 Q 177.9 204.3 179 201 Z "></path><path d="M 185 201 Q 189.1 199.7 188 203 Q 183.9 204.3 185 201 Z "></path><path d="M 191 201 Q 195.1 199.7 194 203 Q 189.9 204.3 191 201 Z "></path><path d="M 197 201 Q 201.1 199.7 200 203 Q 195.9 204.3 197 201 Z "></path><path d="M 203 201 Q 207.1 199.7 206 203 Q 201.9 204.3 203 201 Z "></path><path d="M 209 201 Q 213.1 199.7 212 203 Q 207.9 204.3 209 201 Z "></path><path d="M 215 201 Q 219.1 199.7 218 203 Q 213.9 204.3 215 201 Z "></path><path d="M 221 201 Q 225.1 199.7 224 203 Q 219.9 204.3 221 201 Z "></path><path d="M 227 201 Q 231.1 199.7 230 203 Q 225.9 204.3 227 201 Z "></path><path d="M 233 201 Q 237.1 199.7 236 203 Q 231.9 204.3 233 201 Z "></path><path d="M 239 201 Q 243.1 199.7 242 203 Q 237.9 204.3 239 201 Z "></path><path d="M 245 201 Q 249.1 199.7 248 203 Q 243.9 204.3 245 201 Z "></path><path d="M 251 201 Q 255.1 199.7 254 203 Q 249.9 204.3 251 201 Z "></path><path d="M 257 201 Q 261.1 199.7 260 203 Q 255.9 204.3 257 201 Z "></path><path d="M 263 201 Q 267.1 199.7 266 203 Q 261.9 204.3 263 201 Z "></path><path d="M 16 211 Q 19.8 210 21 212.5 Q 22 217 19.5 218 Q 15.3 216.7 17 221.5 L 16 221.5 L 16 211 Z M 17 213 Q 16 218 20 216 Q 22 212 17 213 Z "></path><path d="M 24.5 211 L 27 216.5 L 27 221.5 L 26 221.5 Q 27.1 217.3 23 219 L 22.5 222 L 22 217.5 L 24.5 211 Z M 25 214 L 24 218 L 25 218 L 25 214 Z "></path><path d="M 29 211 Q 32.8 209.5 32 212.5 Q 29.5 214 31 219.5 L 32 222 Q 28.3 223.5 29 220.5 Q 31.5 219 30 213.5 L 29 211 Z "></path><path d="M 34 211 Q 37.8 210.3 39 213.5 Q 40.5 220.5 36.5 222 L 34 221.5 L 34 211 Z M 35 213 L 35 220 L 37 220 Q 39 219 38 215 L 35 213 Z "></path><path d="M 240.5 211 Q 244.5 212.5 243 219.5 Q 240.5 224.5 238 219.5 Q 236.5 212.5 240.5 211 Z M 239 213 L 239 220 L 242 220 L 242 213 L 239 213 Z "></path><path d="M 252.5 211 Q 256.5 212.5 255 219.5 Q 252.5 224.5 250 219.5 Q 248.5 212.5 252.5 211 Z M 251 213 L 251 220 L 254 220 L 254 213 L 251 213 Z "></path><path d="M 258.5 211 Q 262.5 212.5 261 219.5 Q 258.5 224.5 256 219.5 Q 254.5 212.5 258.5 211 Z M 257 213 L 257 220 L 260 220 L 260 213 L 257 213 Z "></path><path d="M 233 212 L 236 212 L 236 221 Q 232.5 222.1 234 214.5 L 233 212 Z "></path><path d="M 246.5 219 Q 249.5 220.5 246.5 222 L 246.5 219 Z "></path><path d="M 17.5 226 L 21 227.5 L 20.5 230 L 20 228 L 17 228 L 17 235 Q 20.7 236.5 20 233.5 L 21 233.5 L 19.5 237 L 16 235.5 L 16 227.5 L 17.5 226 Z "></path><path d="M 22.5 226 L 23 231 Q 27.9 232.8 26 226.5 L 27 226.5 L 26.5 237 L 26 232 Q 21.1 230.2 23 236.5 L 22 236.5 L 22.5 226 Z "></path><path d="M 30.5 226 L 33 231.5 L 33 236.5 L 32 236.5 Q 33.1 232.3 29 234 L 28.5 237 L 28 232.5 L 30.5 226 Z M 31 229 L 30 233 L 31 233 L 31 229 Z "></path><path d="M 38.5 226 L 39 236.5 L 38 236.5 L 36.5 232 L 36 236 L 34 235.5 L 34 227 Q 36.7 225.9 36 228.5 L 37.5 231 L 38.5 226 Z "></path><path d="M 41.5 226 L 45 227.5 L 44.5 230 L 44 228 L 41 228 L 41 235 L 44 233.5 L 43 231 L 45 231 L 45 236 L 41.5 237 L 40 235.5 L 40 227.5 L 41.5 226 Z "></path><path d="M 47.5 226 Q 52.3 224.7 51 228 Q 46.5 226.5 48 231 L 51 231.5 L 48 232 L 48 235 Q 52.1 233.7 51 237 Q 47.2 238 46 235.5 L 46 227.5 L 47.5 226 Z "></path><path d="M 239.5 226 L 243 227.5 L 243 230.5 L 240 234.5 L 243 235 L 243 237 L 238 237 L 238 234.5 L 242 228 L 238.5 229 L 238 227.5 L 239.5 226 Z "></path><path d="M 251.5 226 L 255 227.5 L 254 231.5 L 255 235.5 L 251.5 237 L 250 234.5 L 251.5 235 Q 255.7 236.1 254 232 Q 251 233 252 230 Q 255 231 254 228 L 250.5 229 L 250 227.5 L 251.5 226 Z "></path><path d="M 258.5 226 Q 262.5 227.5 261 234.5 Q 258.5 239.5 256 234.5 Q 254.5 227.5 258.5 226 Z M 257 228 L 257 235 L 260 235 L 260 228 L 257 228 Z "></path><path d="M 246.5 234 Q 249.5 235.5 246.5 237 L 246.5 234 Z "></path><path d="M 109 271 Q 112.8 270.3 114 273.5 L 113 275.5 L 114 281 L 109 282 L 109 271 Z M 110 273 Q 109 276 112 275 Q 113 272 110 273 Z M 110 277 Q 109 282 113 280 Q 115 276 110 277 Z "></path><path d="M 159.5 271 L 160.5 273 Q 157.7 273.7 159.5 271 Z "></path><path d="M 208.5 271 L 210 272.5 Q 208.8 277.3 211 278.5 L 210 281 Q 207 282 208 279 L 205 279 L 205 277.5 L 208.5 271 Z M 208 275 L 207 278 L 208 278 L 208 275 Z "></path><path d="M 170 272 L 172 272 Q 170.9 274.7 173.5 274 L 173.5 275 Q 170.1 274.1 172 279.5 L 173 282 L 170 280.5 Q 171.2 275.7 169 274.5 L 170 272 Z "></path><path d="M 200 272 L 203 272 L 203 281 Q 199.5 282.1 201 274.5 L 200 272 Z "></path><path d="M 94.5 273 L 96 273.5 L 93 277.5 L 96 279 L 95.5 281 L 91 278 L 94.5 273 Z "></path><path d="M 100.5 273 L 102 273.5 L 99 277.5 L 102 279 L 101.5 281 L 97 278 L 100.5 273 Z "></path><path d="M 217.5 273 L 222 276.5 Q 222.8 278.8 220.5 278 L 217 280.5 Q 216.3 278.3 218.5 279 L 220 276.5 L 217.5 273 Z "></path><path d="M 223.5 273 L 228 276.5 Q 228.8 278.8 226.5 278 L 223 280.5 Q 222.3 278.3 224.5 279 L 226 276.5 L 223.5 273 Z "></path><path d="M 116.5 274 L 120 275.5 Q 121.3 280.8 118.5 282 L 115 280.5 Q 113.8 275.3 116.5 274 Z M 118 275 L 116 277 Q 115 282 119 280 Q 120 276 118 275 Z "></path><path d="M 121 274 Q 124.8 273 126 275.5 L 125.5 282 L 125 275 L 122 276.5 L 121.5 282 L 121 274 Z "></path><path d="M 127.5 274 L 128 280 L 131 278.5 L 131.5 274 L 132 281 L 128.5 282 Q 125.1 280.1 127.5 274 Z "></path><path d="M 134.5 274 L 138 275.5 L 136.5 276 L 134.5 275 L 135.5 277 L 138 278.5 L 136.5 282 L 133 280.5 L 133.5 279 L 136.5 280 L 135.5 278 L 133 276.5 L 134.5 274 Z "></path><path d="M 145 274 Q 148.8 273 150 275.5 Q 151 280 148.5 281 Q 145.2 279.9 146 282.5 L 145 282.5 L 145 274 Z M 148 275 L 146 279 Q 148 282 149 279 L 148 275 Z "></path><path d="M 152.5 274 L 156 275.5 Q 157.3 280.8 154.5 282 L 151 280.5 Q 149.8 275.3 152.5 274 Z M 154 275 L 152 277 Q 151 282 155 280 Q 156 276 154 275 Z "></path><path d="M 158.5 274 L 161 274 L 161 281 Q 157 282.4 159 275.5 L 158.5 274 Z "></path><path d="M 163 274 Q 166.8 273 168 275.5 L 167.5 282 L 167 275 L 164 276.5 L 163.5 282 L 163 274 Z "></path><path d="M 176.5 274 L 180 275.5 L 178.5 276 L 176.5 275 L 177.5 277 L 180 278.5 L 178.5 282 L 175 280.5 L 175.5 279 L 178.5 280 L 177.5 278 L 175 276.5 L 176.5 274 Z "></path><path d="M 189.5 274 Q 192.5 275.5 189.5 277 L 189.5 274 Z "></path><path d="M 189.5 279 Q 192.5 280.5 189.5 282 L 189.5 279 Z "></path><path d="M 82.5 290 L 84 291.5 L 84 314.5 L 82 315.5 L 82.5 290 Z "></path><path d="M 88.5 290 L 89 315.5 L 87 314.5 L 87 291.5 L 88.5 290 Z "></path><path d="M 91.5 290 L 95 291.5 L 95 314.5 L 93.5 316 L 90 314.5 L 90 291.5 L 91.5 290 Z "></path><path d="M 96 290 L 100 290.5 L 100 316 L 96 315.5 L 96 290 Z "></path><path d="M 102.5 290 L 103 315.5 L 101 314.5 L 101 291.5 L 102.5 290 Z "></path><path d="M 105.5 290 L 106 315.5 L 104 314.5 L 104 291.5 L 105.5 290 Z "></path><path d="M 108.5 290 L 109 315.5 L 107 314.5 L 107 291.5 L 108.5 290 Z "></path><path d="M 113 290 L 117 290.5 L 117 316 L 113 315.5 L 113 290 Z "></path><path d="M 119.5 290 L 123 291.5 L 123 314.5 L 121.5 316 L 120 316.5 Q 122.5 318 121 323.5 Q 119 327 117 322.5 Q 116 316.5 120 315.5 L 118 315 L 118 291.5 L 119.5 290 Z M 120 318 L 119 323 L 120 323 L 120 318 Z "></path><path d="M 124.5 290 L 126 291.5 L 126 314.5 L 124 315.5 L 124.5 290 Z "></path><path d="M 127.5 290 L 129 291.5 L 129 314.5 L 127 315.5 L 127.5 290 Z "></path><path d="M 130.5 290 L 132 291.5 L 132 314.5 L 130 315.5 L 130.5 290 Z "></path><path d="M 136.5 290 L 140 291.5 L 140 314.5 L 138.5 315 L 136.5 316 L 135 314.5 L 135 291.5 L 136.5 290 Z "></path><path d="M 141 290 L 145 290.5 L 145 316 L 141 315.5 L 141 290 Z "></path><path d="M 147.5 290 L 148 315.5 L 146 314.5 L 146 291.5 L 147.5 290 Z "></path><path d="M 150.5 290 L 151 315.5 L 149 314.5 L 149 291.5 L 150.5 290 Z "></path><path d="M 153.5 290 L 154 315.5 L 152 314.5 L 152 291.5 L 153.5 290 Z "></path><path d="M 158 290 L 162 290.5 L 162 316 L 160 316.5 Q 162.5 318 161 323.5 Q 159 327 157 322.5 Q 156 316.5 160 315.5 L 158 315 L 158 290 Z M 160 318 L 159 323 L 160 323 L 160 318 Z "></path><path d="M 164.5 290 L 168 291.5 L 168 314.5 L 166.5 316 L 163 314.5 L 163 291.5 L 164.5 290 Z "></path><path d="M 169.5 290 L 171 291.5 L 171 314.5 L 169 315.5 L 169.5 290 Z "></path><path d="M 172 290 L 176 290.5 L 176 316 L 172 315.5 L 172 290 Z "></path><path d="M 178.5 290 L 180 324.5 L 179 324.5 L 178 317.5 Q 180.5 316 177 314.5 L 177 291.5 L 178.5 290 Z "></path><path d="M 183.5 290 L 185 291.5 L 185 314.5 L 183 315.5 L 183.5 290 Z "></path><path d="M 186.5 290 L 188 291.5 L 188 314.5 L 186 315.5 L 186.5 290 Z "></path><path d="M 189 290 L 193 290.5 L 193 316 L 189 315.5 L 189 290 Z "></path><path d="M 195.5 290 L 196 315.5 L 194 314.5 L 194 291.5 L 195.5 290 Z "></path><path d="M 198.5 290 L 199 315.5 Q 202.8 317.4 201 324 L 197 321.5 L 199 316.5 L 197 314.5 L 197 291.5 L 198.5 290 Z "></path><path d="M 203 290 L 207 290.5 L 207 316 L 203 315.5 L 203 290 Z "></path><path d="M 209.5 290 L 210 315.5 L 208 314.5 L 208 291.5 L 209.5 290 Z "></path><path d="M 212.5 290 L 216 291.5 L 216 314.5 L 214.5 316 L 211 314.5 L 211 291.5 L 212.5 290 Z "></path><path d="M 217.5 290 L 219 291.5 L 219 314.5 L 217 315.5 L 217.5 290 Z "></path><path d="M 223.5 290 L 224 315.5 L 222 314.5 L 222 291.5 L 223.5 290 Z "></path><path d="M 226.5 290 L 230 291.5 L 230 314.5 L 228.5 316 L 225 314.5 L 225 291.5 L 226.5 290 Z "></path><path d="M 231 290 L 235 290.5 L 235 316 L 231 315.5 L 231 290 Z "></path><path d="M 237.5 290 L 238 315.5 L 236 314.5 L 236 291.5 L 237.5 290 Z "></path><path d="M 139.5 316 Q 142.5 317.5 141 323.5 Q 139 327 137 322.5 Q 136 317 139.5 316 Z M 140 318 L 139 323 L 140 323 L 140 318 Z "></path><path d="M 98 319 L 101 319.5 L 100.5 322 Q 96.3 323.1 98 319 Z "></path><path d="M 218 319 L 221 319.5 L 220.5 322 Q 216.3 323.1 218 319 Z "></path></svg>