<svg width="397" height="819" version="1.1" xmlns="http://www.w3.org/2000/svg" desc="Created with imagetracer.js version 1.2.5"><path d="M 6.5 15 L 7 790.5 L 6 790.5 L 6.5 15 Z "></path><path d="M 390.5 15 L 391 790.5 L 390 790.5 L 390.5 15 Z "></path><path d="M 228.5 16 L 230 16.5 L 223 21.5 Q 221.3 30.3 226.5 32 L 230 33.5 L 228.5 34 L 222 30.5 L 220 23.5 L 223.5 18 L 228.5 16 Z "></path><path d="M 270.5 17 L 276 20.5 L 277 27.5 L 273.5 32 L 270.5 33 L 271.5 31 Q 273.8 31.8 273 29.5 L 275 24.5 L 273 19 L 270.5 17 Z "></path><path d="M 118 19 Q 125.6 17.9 129 20 L 129 24 L 127.5 24 L 126 26.5 L 131 30.5 L 128.5 31 L 122.5 26 L 120 26 L 120 31 L 118 31 L 118 19 Z M 120 20 L 120 25 Q 125 26 126 24 L 126 20 L 120 20 Z "></path><path d="M 135 19 Q 143.3 17.8 147 20 Q 148 23.8 145.5 25 L 137 26 L 137 31 L 135 31 L 135 19 Z M 137 20 Q 134 28 143 25 L 145 22 L 144 20 L 137 20 Z "></path><path d="M 154.5 19 Q 162.1 17.9 164 22.5 Q 165.3 28.8 161.5 30 L 154.5 31 L 150 29 L 149 24.5 L 150 21 L 154.5 19 Z M 155 20 L 152 23 Q 151 29 155 30 L 161 29 L 162 26 L 161 21 L 155 20 Z "></path><path d="M 165.5 19 Q 170.1 17.6 168 23.5 L 169.5 28 L 172 22 Q 175.8 20.5 175 23.5 L 177.5 28 L 179 20.5 L 180.5 19 L 181 23.5 L 179 31 L 175 29.5 L 173.5 25 L 171 31 Q 167.3 32.5 168 29.5 L 165.5 19 Z "></path><path d="M 185 19 L 196 19.5 L 187 20 L 187 25 L 194.5 25 L 194.5 26 L 187 26 L 187 30 L 197 30.5 L 185 31 L 185 19 Z "></path><path d="M 201 19 Q 208.6 17.9 212 20 Q 213 23.8 210.5 25 L 209 25.5 L 213.5 31 L 211.5 31 L 206.5 26 L 203 26 L 203 31 L 201 31 L 201 19 Z M 203 20 L 203 25 L 208 25 L 210 22 Q 208 18 203 20 Z "></path><path d="M 238 19 Q 241.1 18.3 240.5 21 L 246.5 21 L 246.5 22 Q 236.8 18.8 240 28.5 Q 241.6 31.4 247 30.5 L 240.5 31 L 238 30 L 238 22 L 234.5 22 L 234.5 21 Q 239.3 22.3 238 19 Z "></path><path d="M 250 21 L 253.5 22 L 256.5 21 Q 258.5 25 260.5 21 L 264 22.5 L 264 30.5 L 262 31 L 262 23.5 L 260.5 23 Q 256.5 24.7 258 31 L 256 31 L 256 23.5 L 254.5 23 Q 250.5 24.7 252 31 L 250 30.5 L 250 21 Z "></path><path d="M 211.5 34 L 215 34.5 L 211 36.5 Q 209.7 40.7 214.5 39 L 214.5 40 L 211 40 L 211 48.5 L 210 48.5 L 210 40.5 L 208.5 40 L 208.5 39 Q 211.5 39.9 210 35.5 L 211.5 34 Z "></path><path d="M 241.5 34 L 245 34.5 L 245 48.5 L 244 48.5 L 244 35.5 L 241.5 35 L 241.5 34 Z "></path><path d="M 150 37 Q 154.6 35.8 156 38.5 Q 157.9 43.9 154.5 43 L 151 44 L 150.5 49 L 150 37 Z M 151 38 L 151 43 L 154 43 L 155 40 L 151 38 Z "></path><path d="M 184 37 Q 187 36 186 39 L 188.5 39 L 188.5 40 L 186 40 L 186 48 L 189 48.5 L 185 49 Q 183.1 46.2 184 40 L 182 39.5 L 184 39 L 184 37 Z "></path><path d="M 226.5 37 L 230 37.5 L 226 38 L 227.5 42 L 231 44.5 Q 232.5 48.9 229.5 48 L 225.5 49 L 224.5 47 L 229 48 L 230 45.5 L 225 43 L 224 40.5 L 226.5 37 Z "></path><path d="M 159.5 39 Q 163.3 38.3 164 40.5 Q 165.8 47.3 162.5 49 Q 158.8 49.8 158 47.5 L 157 42.5 L 159.5 39 Z M 161 40 Q 158 41 159 47 L 162 48 Q 164 47 163 42 L 161 40 Z "></path><path d="M 166.5 39 L 170 39 L 170 48.5 L 169 48.5 L 169 40.5 L 166.5 40 L 166.5 39 Z "></path><path d="M 174 39 L 176.5 40 L 180 39 Q 182 42.1 181 49 L 179 49 L 179 40.5 L 177 40 Q 175.1 42.8 176 49 L 174 48.5 L 174 39 Z "></path><path d="M 201.5 39 Q 205.5 38.5 206 41.5 Q 207.3 47.8 203.5 49 Q 199.5 49.5 199 46.5 Q 197.8 40.3 201.5 39 Z M 201 40 L 201 48 L 204 48 L 205 45 L 204 43 Q 205 38 201 40 Z "></path><path d="M 234.5 39 Q 238.9 37.5 238 40.5 L 240 48.5 L 238.5 49 L 236.5 48 L 234.5 49 Q 232.3 48.3 233 44.5 L 237 43 Q 238.7 38.9 234.5 40 L 233 40.5 L 234.5 39 Z M 236 44 L 234 48 L 237 47 Q 238 43 236 44 Z "></path><path d="M 252.5 39 L 256 40.5 Q 258.3 47.3 251.5 45 L 252 46.5 Q 251.1 49.5 255.5 48 L 255.5 49 L 250 48 L 250 40.5 L 251.5 40 L 252.5 39 Z M 252 40 L 251 43 L 251 44 L 255 44 L 254 42 Q 255 39 252 40 Z "></path><path d="M 109.5 54 Q 113.9 52.5 113 55.5 L 114 57.5 L 112 60.5 Q 114.8 61.3 114 65.5 Q 113.5 68.5 109.5 68 L 107 64.5 L 109 60.5 L 108 55.5 L 109.5 54 Z M 111 55 L 109 58 L 112 59 L 112 55 L 111 55 Z M 109 62 L 109 66 L 112 67 L 112 62 L 109 62 Z "></path><path d="M 117.5 54 Q 121.3 53.3 122 55.5 L 122 59.5 L 118 67 L 122 67.5 L 116 68 L 120 60.5 L 120 55 L 116.5 56 L 117.5 54 Z "></path><path d="M 125 54 L 130 54.5 L 126 55 Q 124.5 58.8 127.5 58 Q 131.5 59.5 130 66.5 Q 129.3 68.8 125.5 68 L 125.5 67 L 129 65.5 L 128 59 L 125 59 L 125 54 Z "></path><path d="M 134 54 L 139 54.5 L 135 55 Q 133.5 58.8 136.5 58 Q 139.6 59.4 139 64.5 L 136.5 68 L 134 67.5 L 137 65.5 Q 138.3 60.3 135.5 59 L 134 59 L 134 54 Z "></path><path d="M 269 54 Q 272 53 271 56 Q 268 57 269 54 Z "></path><path d="M 150 56 L 156 56.5 L 151 57 L 151 62 L 154.5 62 L 154.5 63 Q 148.8 61.4 151 67 L 156 67.5 L 150 68 L 150 56 Z "></path><path d="M 174 56 Q 179.5 54.8 181 58.5 L 179 63.5 L 181 67.5 L 178 65.5 L 176.5 63 L 176 68 L 174 67.5 L 174 56 Z M 176 57 L 176 62 L 178 62 L 179 59 L 176 57 Z "></path><path d="M 209 56 Q 212 55 211 58 L 213.5 58 L 213.5 59 L 211 59 L 211 67 L 214 67.5 L 210 68 Q 208.1 65.2 209 59 L 207 58.5 L 209 58 L 209 56 Z "></path><path d="M 249 56 L 256 57 L 257 63.5 L 253.5 68 L 249 68 L 249 56 Z M 251 57 L 251 67 L 254 67 Q 256 65 255 59 L 251 57 Z "></path><path d="M 184.5 58 Q 188.9 56.5 188 59.5 L 190 67.5 L 188.5 68 L 186.5 67 L 184.5 68 Q 182.3 67.3 183 63.5 L 187 62 Q 188.7 57.9 184.5 59 L 183 59.5 L 184.5 58 Z M 186 63 L 184 67 L 187 66 Q 188 62 186 63 Z "></path><path d="M 191.5 58 L 195 58 L 195 67.5 L 194 67.5 L 194 59.5 L 191.5 59 L 191.5 58 Z "></path><path d="M 199 58 L 201.5 59 L 205 58 Q 207 61.1 206 68 L 204 68 L 204 59.5 L 202 59 Q 200.1 61.8 201 68 L 199 67.5 L 199 58 Z "></path><path d="M 217 58 L 219.5 59 L 223 58 Q 224.3 62.1 221 61 L 220.5 59 L 219 60.5 L 219 68 L 217 67.5 L 217 58 Z "></path><path d="M 226.5 58 Q 230.5 57.5 231 60.5 L 231 64 L 226 64 L 226 65.5 L 231 67.5 L 226.5 68 Q 223.4 66.6 224 61.5 L 226.5 58 Z M 228 59 L 226 61 Q 225 65 229 63 L 229 59 L 228 59 Z "></path><path d="M 235.5 58 L 239 59.5 Q 241.3 66.3 234.5 64 L 235 65.5 Q 234.1 68.5 238.5 67 L 238.5 68 L 233 67 L 233 59.5 L 234.5 59 L 235.5 58 Z M 235 59 L 234 62 L 234 63 L 238 63 L 237 61 Q 238 58 235 59 Z "></path><path d="M 259 58 L 261.5 59 L 265 58 Q 266.3 62.1 263 61 L 262.5 59 L 261 60.5 L 261 68 L 259 67.5 L 259 58 Z "></path><path d="M 266.5 58 L 271 58 L 271 68 L 269 67.5 L 269 59 L 266.5 59 L 266.5 58 Z "></path><path d="M 274.5 58 Q 277.1 57.2 276 60.5 L 277 64 Q 280 65.3 279 61.5 L 280 58 L 282 58.5 L 279 68 Q 276.3 69.1 277 66.5 L 274.5 58 Z "></path><path d="M 285.5 58 L 289 59.5 L 290 64 L 285 64 L 285 65.5 L 289 67.5 L 285.5 68 Q 281.8 66.8 283 60.5 L 285.5 58 Z M 285 59 L 285 63 Q 289 65 288 61 L 285 59 Z "></path><path d="M 160 65 Q 163.3 63.9 162 68 Q 158.7 69.1 160 65 Z "></path><path d="M 185 73 Q 188 72 187 75 Q 184 76 185 73 Z "></path><path d="M 217.5 73 Q 221.3 72.3 222 74.5 L 222 78.5 L 218 86 L 222 86.5 L 216 87 L 220 79.5 L 220 74 L 216.5 75 L 217.5 73 Z "></path><path d="M 226.5 73 L 230 74.5 L 231 83.5 L 228.5 87 L 225 85.5 L 224 76.5 L 226.5 73 Z M 228 74 L 226 76 L 226 85 Q 228 88 229 85 L 229 76 L 228 74 Z "></path><path d="M 234 73 Q 237.8 72.3 239 75.5 L 239 84.5 L 236.5 87 Q 233.2 88.1 234 85.5 L 232 78.5 L 234 73 Z M 235 74 L 234 77 Q 232 83 235 85 Q 234 87 237 86 L 238 84 Q 240 77 237 76 Q 238 73 235 74 Z "></path><path d="M 167 75 L 172 75.5 L 168 76 L 168 80 L 169.5 80 L 173 82.5 Q 173.5 86.5 170.5 87 Q 166.8 87.8 166 85.5 L 167.5 86 L 171 84.5 Q 172.1 81.2 169.5 82 L 166 79.5 L 167 75 Z "></path><path d="M 193.5 75 L 194 77 L 197 77.5 L 194 78 Q 192.3 84.1 195.5 86 L 198 86.5 L 194.5 87 L 193 85.5 L 193 78 L 191 77.5 L 193 77 L 193.5 75 Z "></path><path d="M 174 77 L 176 77 L 176 85.5 L 177.5 86 L 179 84.5 L 179 77 L 181 77.5 L 181 87 L 178.5 86 L 175 87 L 174 77 Z "></path><path d="M 183.5 77 L 187 77 L 187 87 L 185 87 L 185 78.5 L 183.5 78 L 183.5 77 Z "></path><path d="M 201.5 77 Q 205.5 76.5 206 79.5 L 206 83 L 201 83 L 201 84.5 L 206 86.5 L 201.5 87 Q 198.4 85.6 199 80.5 L 201.5 77 Z M 203 78 L 201 80 Q 200 84 204 82 L 204 78 L 203 78 Z "></path><path d="M 154 91 L 156 91.5 L 156 106 L 153.5 105 L 151.5 106 Q 148 105 149 99.5 L 151.5 96 L 154 96 L 154 91 Z M 153 97 L 151 99 L 151 105 L 154 104 Q 155 96 153 97 Z "></path><path d="M 166.5 91 L 170 91.5 L 170 105.5 L 169 105.5 L 169 92.5 L 166.5 92 L 166.5 91 Z "></path><path d="M 226.5 92 Q 230.9 90.5 230 93.5 L 231 95.5 L 229 98.5 Q 231.8 99.3 231 103.5 Q 230.5 106.5 226.5 106 L 224 102.5 L 226 98.5 L 225 93.5 L 226.5 92 Z M 228 93 L 226 96 L 229 97 L 229 93 L 228 93 Z M 226 100 L 226 104 L 229 105 L 229 100 L 226 100 Z "></path><path d="M 234 92 L 239 92.5 L 235 93 Q 233.5 96.8 236.5 96 Q 239.6 97.4 239 102.5 L 236.5 106 L 234 105.5 L 237 103.5 Q 238.3 98.3 235.5 97 L 234 97 L 234 92 Z "></path><path d="M 242.5 92 Q 246.3 91.3 247 93.5 L 247 97.5 L 243 105 L 247 105.5 L 241 106 L 245 98.5 L 245 93 L 241.5 94 L 242.5 92 Z "></path><path d="M 252.5 92 L 256 92.5 L 252 94.5 L 251 96.5 L 256 98.5 Q 257.5 104.5 254.5 106 Q 250.5 106.5 250 103.5 Q 248.3 94.8 252.5 92 Z M 252 98 L 252 101 L 252 103 Q 251 106 254 105 Q 256 104 255 100 L 252 98 Z "></path><path d="M 260.5 92 L 264 93.5 L 265 101.5 L 262.5 106 Q 258.5 106.5 258 103.5 L 258 94.5 L 260.5 92 Z M 260 93 L 259 97 Q 258 101 260 103 Q 259 106 262 105 L 263 104 L 263 95 L 260 93 Z "></path><path d="M 275 92 Q 279.7 91 281 94.5 L 277 105 L 281 105.5 L 275 106 L 275 103.5 L 279 97.5 L 279 94.5 L 276.5 93 L 275 93.5 L 275 92 Z "></path><path d="M 285.5 92 L 289 92.5 L 285 94.5 Q 283.8 98.3 287.5 97 Q 290.8 97.8 290 102.5 L 287.5 106 L 284 104.5 L 283 96.5 L 285.5 92 Z M 287 98 Q 284 99 285 104 L 288 105 Q 289 100 287 98 Z "></path><path d="M 293.5 92 Q 297.9 90.5 297 93.5 L 298 95.5 L 296 98.5 Q 298.8 99.3 298 103.5 Q 297.5 106.5 293.5 106 L 291 102.5 L 293 98.5 L 292 93.5 L 293.5 92 Z M 295 93 L 293 96 L 296 97 L 296 93 L 295 93 Z M 293 100 L 293 104 L 296 105 L 296 100 L 293 100 Z "></path><path d="M 303 92 L 305 92.5 L 305 100.5 L 305 102.5 L 304.5 106 L 304 102 L 299 102 L 299 100.5 L 303 92 Z M 304 96 L 301 100 Q 300 103 304 101 L 304 96 Z "></path><path d="M 100 94 L 105 94.5 L 101 95 L 101 99 L 102.5 99 L 106 101.5 Q 106.5 105.5 103.5 106 Q 99.8 106.8 99 104.5 L 100.5 105 L 104 103.5 Q 105.1 100.2 102.5 101 L 99 98.5 L 100 94 Z "></path><path d="M 126 94 Q 129 93 128 96 L 130.5 96 L 130.5 97 L 128 97 L 128 105 L 131 105.5 L 127.5 106 L 126 104.5 L 126 97 L 124 96.5 L 126 96 L 126 94 Z "></path><path d="M 134 94 Q 137 93 136 96 L 138.5 96 L 138.5 97 L 136 97 L 136 105 L 139 105.5 L 135 106 Q 133.1 103.2 134 97 L 132 96.5 L 134 96 L 134 94 Z "></path><path d="M 202.5 94 Q 205.5 93.1 204 97.5 L 206 105 Q 208.7 106.1 208 103.5 L 213 95.5 L 208 94.5 L 214 94 L 214 96.5 L 209 104.5 L 215 105.5 L 205 106 L 205 103 L 200 103 L 199.5 106 L 199 102.5 L 202.5 94 Z M 203 97 L 201 101 Q 200 103 204 102 L 203 97 Z "></path><path d="M 109.5 96 L 114 96.5 L 109 98.5 Q 107.8 103.8 110.5 105 L 114 105.5 L 110.5 106 L 108 105 L 107 100.5 L 109.5 96 Z "></path><path d="M 118.5 96 Q 122.5 95.5 123 98.5 Q 124.3 104.8 120.5 106 L 116 105 L 116 97.5 L 117.5 97 L 118.5 96 Z M 118 97 L 117 100 L 118 104 Q 117 106 120 105 Q 122 104 121 99 L 118 97 Z "></path><path d="M 143.5 96 L 147 96.5 L 143 97 Q 141.5 100.8 144.5 100 L 147 101 Q 148 104.8 145.5 106 L 142 105.5 L 146 103.5 L 142 101 L 141 98.5 L 143.5 96 Z "></path><path d="M 159.5 96 Q 163.9 94.5 163 97.5 L 165 105.5 L 163.5 106 L 161.5 105 L 159.5 106 Q 157.3 105.3 158 101.5 L 162 100 Q 163.7 95.9 159.5 97 L 158 97.5 L 159.5 96 Z M 161 101 L 159 105 L 162 104 Q 163 100 161 101 Z "></path><path d="M 176.5 96 Q 180.5 95.5 181 98.5 L 181 102 L 176 102 L 176 103.5 L 181 105.5 L 176.5 106 Q 173.4 104.6 174 99.5 L 176.5 96 Z M 178 97 L 176 99 Q 175 103 179 101 L 179 97 L 178 97 Z "></path><path d="M 267.5 100 L 272 100.5 L 267.5 101 L 267.5 100 Z "></path><path d="M 185 103 Q 188.7 101.7 187 107.5 L 185 108.5 L 186 106.5 L 185 103 Z "></path><path d="M 153 111 L 155 111.5 L 155 119.5 L 155 121.5 Q 156.3 126.3 153 125 L 153 121 L 149 121 L 149 119.5 L 153 111 Z M 153 115 L 151 119 Q 150 121 153 120 L 153 115 Z "></path><path d="M 159 111 Q 162.8 110 164 112.5 Q 164.8 116.8 162 117.5 Q 165 118.5 164 123.5 Q 163.3 125.8 159.5 125 Q 157 124 158 119.5 L 159 116.5 L 158 113.5 L 159 111 Z M 160 112 L 160 116 L 162 116 L 163 114 L 160 112 Z M 161 118 L 159 121 L 161 124 L 163 123 Q 164 119 161 118 Z "></path><path d="M 168.5 111 L 172 112.5 L 173 120.5 L 170.5 125 Q 166.5 125.5 166 122.5 L 166 113.5 L 168.5 111 Z M 168 112 L 167 116 Q 166 120 168 122 Q 167 125 170 124 L 171 123 L 171 114 L 168 112 Z "></path><path d="M 186 111 L 188 111.5 L 188 119.5 L 188 121.5 L 187.5 125 L 187 121 L 182 121 L 182 119.5 L 186 111 Z M 187 115 L 184 119 Q 183 121 187 120 L 187 115 Z "></path><path d="M 192.5 111 Q 196.3 110.3 197 112.5 L 197 116.5 L 193 124 L 197 124.5 L 191 125 L 195 117.5 L 195 112 L 191.5 113 L 192.5 111 Z "></path><path d="M 200 111 L 205 111.5 L 201 112 Q 199.5 115.7 202.5 115 Q 206.5 116.5 205 123.5 Q 204.3 125.8 200.5 125 L 200.5 124 L 204 122.5 L 203 116 L 200 116 L 200 111 Z "></path><path d="M 217.5 111 Q 221.3 110.3 222 112.5 L 222 116.5 L 218 124 L 222 124.5 L 216 125 L 220 117.5 L 220 112 L 216.5 113 L 217.5 111 Z "></path><path d="M 225.5 111 Q 229.3 110.3 230 112.5 L 230 117.5 L 226 123.5 L 230 124.5 L 224.5 125 L 225 123.5 L 229 116.5 L 229 113.5 L 225.5 112 L 225.5 111 Z "></path><path d="M 233 111 Q 237.7 110 239 113.5 L 235 124 L 239 124.5 L 233 125 L 233 122.5 L 237 116.5 L 237 113.5 L 234.5 112 L 233 112.5 L 233 111 Z "></path><path d="M 242.5 111 Q 246.3 110.3 247 112.5 L 247 116.5 L 243 124 L 247 124.5 L 241 125 L 245 117.5 L 245 112 L 241.5 113 L 242.5 111 Z "></path><path d="M 175.5 119 L 180 119.5 L 175.5 120 L 175.5 119 Z "></path><path d="M 208.5 119 L 214 119.5 L 208.5 120 L 208.5 119 Z "></path><path d="M 150 133 L 152.5 134 L 156 133 L 155.5 136 L 155 134 Q 152.3 132.9 153 135.5 L 152 136.5 L 152 143 L 150 142.5 L 150 133 Z "></path><path d="M 158.5 133 L 160.5 133 L 164 134.5 Q 165.8 141.3 162.5 143 Q 157.3 141.3 159 146.5 L 158 146.5 L 158.5 133 Z M 160 134 L 159 141 L 162 142 Q 164 141 163 136 L 160 134 Z "></path><path d="M 168.5 133 Q 172.5 132.5 173 135.5 Q 174.3 141.8 170.5 143 L 166 142 L 166 134.5 L 167.5 134 L 168.5 133 Z M 168 134 L 167 137 L 168 141 Q 167 143 170 142 Q 172 141 171 136 L 168 134 Z "></path><path d="M 173.5 133 Q 176.9 132.1 175 137.5 L 176 137.5 L 177.5 134 L 179.5 139 Q 178.9 134.4 181.5 133 L 182 134.5 Q 179.5 136 181 141.5 L 179.5 143 L 177.5 138 L 175.5 143 L 174 140.5 Q 174.5 134.5 173.5 133 Z "></path><path d="M 185.5 133 L 189 134.5 Q 191.3 141.3 184.5 139 L 185 140.5 Q 184.1 143.5 188.5 142 L 188.5 143 L 183 142 L 183 134.5 L 184.5 134 L 185.5 133 Z M 185 134 L 184 137 L 184 138 L 188 138 L 187 136 Q 188 133 185 134 Z "></path><path d="M 192 133 L 194.5 134 L 198 133 Q 199.3 137.1 196 136 L 195.5 134 L 194 135.5 L 194 143 L 192 142.5 L 192 133 Z "></path><path d="M 199 133 L 201.5 134 L 204.5 133 Q 207.5 134.5 206 140.5 L 202.5 143 L 201 142.5 Q 202.7 148.3 199 147 L 199 133 Z M 203 134 Q 200 135 201 141 L 204 142 L 205 139 L 204 137 Q 205 133 203 134 Z "></path><path d="M 209.5 133 Q 213.3 132.3 214 134.5 Q 215.8 141.3 212.5 143 Q 208.8 143.8 208 141.5 L 207 136.5 L 209.5 133 Z M 211 134 Q 208 135 209 141 L 212 142 Q 214 141 213 136 L 211 134 Z "></path><path d="M 218.5 133 L 222 133.5 L 218 134 Q 216.5 137.8 219.5 137 L 222 138 Q 223 141.8 220.5 143 L 217 142.5 L 221 140.5 L 217 138 L 216 135.5 L 218.5 133 Z "></path><path d="M 235.5 133 L 239 133.5 L 234 136.5 Q 233.3 141.3 236.5 142 L 239 142.5 L 235.5 143 Q 231.8 141.8 233 135.5 L 235.5 133 Z "></path><path d="M 243.5 133 Q 247.5 132.5 248 135.5 Q 249.3 141.8 245.5 143 L 241 142 L 241 134.5 L 242.5 134 L 243.5 133 Z M 243 134 L 242 137 L 243 141 Q 242 143 245 142 Q 247 141 246 136 L 243 134 Z "></path><path d="M 249 133 L 253.5 134 L 256 133 Q 258 136.1 257 143 L 255 142.5 L 255 134.5 L 254 134.5 L 254 142.5 L 252 143 L 251.5 134 L 251 143 L 249 142.5 L 249 133 Z "></path><path d="M 226 140 Q 230.5 138.5 229 143 Q 224.5 144.5 226 140 Z "></path><path d="M 71 166 L 73 166.5 L 67 184 L 65 183.5 L 71 166 Z "></path><path d="M 180.5 166 L 181 167.5 L 174.5 184 L 174 182.5 L 180.5 166 Z "></path><path d="M 205.5 166 L 206 167.5 L 199.5 184 L 199 182.5 L 205.5 166 Z "></path><path d="M 35.5 167 L 36 170.5 L 35.5 172 L 37 172 L 37 167 L 39 167 L 38 172 L 40 172.5 L 38 173 L 37 175.5 L 39 176.5 L 37 177 L 35.5 181 L 35 179.5 L 36 177 Q 32.7 175.7 34 180.5 L 33 180.5 L 32 176.5 L 34 176 Q 35.5 172.3 32.5 173 L 32.5 172 Q 34.8 172.8 34 170.5 L 35.5 167 Z M 36 173 L 35 176 L 36 176 L 36 173 Z "></path><path d="M 41.5 167 L 47 167 L 47 169.5 L 42.5 181 L 42 177.5 L 46 168.5 L 41.5 168 L 41.5 167 Z "></path><path d="M 53.5 167 L 54 176 L 56 176.5 L 54 177 L 53.5 181 L 53 177 Q 47.8 179.1 49 174.5 L 53.5 167 Z M 53 171 L 50 176 L 53 176 L 53 171 Z "></path><path d="M 61 167 L 63 167.5 L 63 175.5 L 63 177.5 Q 64.3 182.3 61 181 L 61 177 L 57 177 L 57 175.5 L 61 167 Z M 61 171 L 59 175 Q 58 177 61 176 L 61 171 Z "></path><path d="M 77.5 167 L 78 180 L 81 180.5 L 74.5 181 L 74.5 180 L 77 179.5 L 77 169 L 75 168.5 L 77.5 167 Z "></path><path d="M 159 167 Q 162.8 166.3 164 169.5 L 164 178.5 L 161.5 181 Q 158.2 182.1 159 179.5 L 157 172.5 L 159 167 Z M 160 168 L 159 171 Q 157 177 160 179 Q 159 181 162 180 L 163 178 Q 165 171 162 170 Q 163 167 160 168 Z "></path><path d="M 169.5 167 L 170 180 L 173 180.5 L 166.5 181 L 166.5 180 L 169 179.5 L 169 169 L 167 168.5 L 169.5 167 Z "></path><path d="M 184 167 Q 187.8 166.3 189 169.5 L 189 178.5 L 186.5 181 Q 183.2 182.1 184 179.5 L 182 172.5 L 184 167 Z M 185 168 L 184 171 Q 182 177 185 179 Q 184 181 187 180 L 188 178 Q 190 171 187 170 Q 188 167 185 168 Z "></path><path d="M 192 167 L 197 167.5 L 193 168 Q 191.5 171.7 194.5 171 Q 198.3 172.3 197 178.5 Q 196.5 181.5 192.5 181 L 192.5 180 Q 196.3 181.3 195 177.5 L 196 175.5 L 193.5 172 L 192 172 L 192 167 Z "></path><path d="M 208 167 Q 212.7 166 214 169.5 L 210 180 L 214 180.5 L 208 181 L 208 178.5 L 212 172.5 L 212 169.5 L 209.5 168 L 208 168.5 L 208 167 Z "></path><path d="M 217.5 167 Q 221.3 166.3 222 168.5 L 221 173.5 L 222 180 L 217.5 181 L 217.5 180 L 221 178.5 L 220 174 L 217 173.5 L 220 173 L 220 168 L 217.5 168 L 217.5 167 Z "></path><path d="M 258.5 167 L 259 180 L 265 180.5 L 251.5 181 L 251.5 180 L 257 180 L 257 169 L 253 168.5 L 258.5 167 Z "></path><path d="M 274.5 167 L 276 167.5 L 276 180 L 280.5 180 L 280.5 181 L 268 180.5 L 273 180 L 273 169 L 269.5 169 L 269.5 168 L 274.5 167 Z "></path><path d="M 305.5 167 Q 311 166.5 313 169.5 L 314 176.5 L 311.5 180 L 305.5 181 L 301 177.5 L 300 172.5 L 303.5 168 L 305.5 167 Z M 306 168 L 303 172 L 304 179 Q 305 181 309 180 Q 313 178 311 171 Q 310 167 306 168 Z "></path><path d="M 325.5 167 L 326 180 L 331 180.5 L 318.5 181 L 318.5 180 L 323 180 L 323 169 L 320 168.5 L 325.5 167 Z "></path><path d="M 235 169 Q 237.7 167.9 237 170.5 L 240 180.5 L 238 179.5 L 238 178 L 234 178 Q 235.5 181.7 232.5 181 L 233 179.5 L 235 169 Z M 237 173 L 235 177 L 238 177 L 237 173 Z "></path><path d="M 288 171 Q 293.6 169.1 292 174 Q 286.4 175.9 288 171 Z "></path><path d="M 337.5 171 Q 344 170 346 173.5 Q 344.5 180.5 347.5 180 L 347.5 181 L 342 179.5 L 343 176 Q 338.4 174.8 337 177.5 Q 335.7 181.7 340.5 180 L 340.5 181 L 334 180 L 335.5 176 L 343 175 L 341.5 172 Q 336.5 173 337.5 171 Z "></path><path d="M 350 171 L 354.5 172 L 356.5 171 Q 358.5 175 360.5 171 Q 364.9 169.5 364 172.5 L 365 173.5 L 365 181 L 362 181 L 362 173.5 L 360.5 173 Q 357.3 174.9 359 181 L 356 181 L 356 173.5 L 354.5 173 Q 351.3 174.9 353 181 L 350 180.5 L 350 171 Z "></path><path d="M 225.5 175 L 230 175.5 L 225.5 176 L 225.5 175 Z "></path><path d="M 288 178 Q 293.6 176.1 292 181 Q 286.4 182.9 288 178 Z "></path><path d="M 300.5 185 L 301.5 191 L 304.5 190 Q 307.8 191.8 306 198.5 L 302.5 200 L 300 199.5 L 300.5 185 Z M 302 191 L 301 198 L 304 199 Q 306 198 305 193 L 302 191 Z "></path><path d="M 308.5 185 L 312 185.5 L 312 199.5 L 311 199.5 L 311 186.5 L 308.5 186 L 308.5 185 Z "></path><path d="M 94.5 186 Q 100.6 185.3 103 187 Q 104 190.8 101.5 192 L 100 192.5 L 104 194 Q 105 197.8 102.5 199 L 93.5 200 L 93.5 199 Q 99.5 200.5 101 197.5 Q 102.5 193.1 99.5 194 L 95 192.5 Q 99.7 192.7 101 189.5 L 99.5 187 Q 93.5 188.2 94.5 186 Z "></path><path d="M 358.5 186 L 359 199 L 365 199.5 L 351.5 200 L 351.5 199 L 357 199 L 357 188 L 353 187.5 L 358.5 186 Z "></path><path d="M 35.5 188 L 39 188.5 L 34 190.5 L 33 194.5 L 35.5 199 Q 40.1 200.2 38 195 L 36 194.5 L 39 194 L 39 200 L 35.5 200 L 33 199 Q 31.4 196.9 32 191.5 L 33 189 L 35.5 188 Z "></path><path d="M 67 188 Q 70 187 69 190 L 71.5 190 L 71.5 191 L 69 191 L 69 199 L 72 199.5 L 68 200 Q 66.1 197.2 67 191 L 65 190.5 L 67 190 L 67 188 Z "></path><path d="M 117 188 L 122 188.5 L 118 189 L 118 193 L 119.5 193 L 123 195.5 Q 123.5 199.5 120.5 200 Q 116.8 200.8 116 198.5 L 117.5 199 L 121 197.5 Q 122.1 194.2 119.5 195 L 116 192.5 L 117 188 Z "></path><path d="M 166 188 Q 170.6 186.8 172 189.5 L 171 194.5 L 173 197.5 L 172 200 L 166 200 L 166 188 Z M 168 189 L 168 194 L 170 194 L 171 191 L 168 189 Z M 168 195 L 168 199 Q 172 201 171 197 L 168 195 Z "></path><path d="M 282.5 188 L 290 188.5 L 287 189 L 287 199.5 L 285 200 L 285 189.5 L 282.5 189 L 282.5 188 Z "></path><path d="M 333 188 L 337 188 L 337 189.5 L 340.5 195 L 344.5 188 L 347 188.5 L 347 200 L 345 199.5 L 345 191.5 L 344 191.5 L 342 197 L 338 195.5 L 335.5 191 L 335 200 L 333 199.5 L 333 188 Z "></path><path d="M 41.5 190 L 42 197.5 L 43.5 199 L 45 197.5 L 45 190 L 47 190.5 L 47 200 L 44.5 199 L 42.5 200 L 41 198.5 L 41.5 190 Z "></path><path d="M 51.5 190 L 55 191.5 L 56 196 L 51 196 L 51 197.5 L 55 199.5 L 51.5 200 Q 47.8 198.8 49 192.5 L 51.5 190 Z M 51 191 L 51 195 Q 55 197 54 193 L 51 191 Z "></path><path d="M 59.5 190 L 63 190.5 L 59 192.5 L 64 196.5 L 61.5 200 L 58 199.5 L 62 199 Q 63.5 195.3 60.5 196 L 58 195 Q 57 191.2 59.5 190 Z "></path><path d="M 76.5 190 L 80 190.5 L 76 191 Q 74.5 194.8 77.5 194 L 80 195 Q 81 198.8 78.5 200 L 75 199.5 L 79 197.5 L 75 195 L 74 192.5 L 76.5 190 Z "></path><path d="M 126.5 190 Q 130.5 189.5 131 192.5 L 131 196 L 126 196 L 126 197.5 L 131 199.5 L 126.5 200 Q 123.4 198.6 124 193.5 L 126.5 190 Z M 128 191 L 126 193 Q 125 197 129 195 L 129 191 L 128 191 Z "></path><path d="M 134.5 190 L 136.5 190 Q 140.3 188.8 139 192.5 L 138 192.5 L 137.5 191 L 135 193.5 L 134.5 200 L 134.5 190 Z "></path><path d="M 141.5 190 L 144.5 197 L 147.5 190 L 148 191.5 L 145 200 Q 142 201.3 143 197.5 Q 140 194.8 141.5 190 Z "></path><path d="M 151.5 190 Q 155.5 189.5 156 192.5 L 156 196 L 151 196 L 151 197.5 L 156 199.5 L 151.5 200 Q 148.4 198.6 149 193.5 L 151.5 190 Z M 153 191 L 151 193 Q 150 197 154 195 L 154 191 L 153 191 Z "></path><path d="M 159.5 190 L 161.5 190 Q 165.3 188.8 164 192.5 L 163 192.5 L 162.5 191 L 160 193.5 L 159.5 200 L 159.5 190 Z "></path><path d="M 292 190 Q 295.8 189 297 191.5 Q 295.3 197.8 298 199.5 L 296.5 200 L 294.5 200 L 291 198.5 Q 290.5 194.5 293.5 194 Q 296.8 195.1 296 192.5 L 293.5 191 L 292 191.5 L 292 190 Z M 295 195 L 293 199 L 296 198 Q 297 194 295 195 Z "></path><path d="M 318.5 190 Q 322.5 189.5 323 192.5 L 323 196 L 318 196 L 318 197.5 L 323 199.5 L 318.5 200 Q 315.4 198.6 316 193.5 L 318.5 190 Z M 320 191 L 318 193 Q 317 197 321 195 L 321 191 L 320 191 Z "></path><path d="M 31.5 213 L 366 213.5 L 31.5 214 L 31.5 213 Z "></path><path d="M 66.5 222 L 70 222.5 L 70 236.5 L 69 236.5 L 69 223.5 L 66.5 223 L 66.5 222 Z "></path><path d="M 91 222 L 93 222.5 L 93 230.5 L 94 230.5 L 96.5 227 L 96 228.5 L 94 231.5 L 98 236.5 L 96.5 237 L 93.5 233 L 93 237 L 91 236.5 L 91 222 Z "></path><path d="M 36.5 223 L 37 236 L 39 236.5 L 33.5 237 L 33.5 236 L 35 235.5 L 35 225 L 33 224.5 L 36.5 223 Z "></path><path d="M 334.5 223 Q 338.3 222.3 339 224.5 L 339 228.5 L 335 236 L 339 236.5 L 333 237 L 337 229.5 L 337 224 L 333.5 225 L 334.5 223 Z "></path><path d="M 351.5 223 Q 355.5 222.5 356 225.5 L 356 234.5 L 353.5 237 L 350 236.5 L 354 234.5 L 355 232.5 L 350 230.5 Q 348.5 224.5 351.5 223 Z M 353 224 Q 350 225 351 230 L 354 231 L 355 229 L 354 226 Q 355 223 353 224 Z "></path><path d="M 359 223 L 364 223.5 L 360 224 Q 358.5 227.8 361.5 227 Q 365.3 228.3 364 234.5 Q 363.5 237.5 359.5 237 L 359.5 236 Q 363.3 237.3 362 233.5 L 363 231.5 L 360.5 228 L 359 228 L 359 223 Z "></path><path d="M 57 225 Q 62.5 223.8 64 227.5 L 62 231.5 L 64 235.5 Q 62.4 238.5 57 237 L 57 225 Z M 59 226 L 59 231 L 62 230 Q 64 224 59 226 Z M 59 232 L 59 236 Q 63 238 62 234 L 59 232 Z "></path><path d="M 106.5 225 L 115 225.5 L 111 226 L 110.5 237 L 110 226 Q 105.6 227 106.5 225 Z "></path><path d="M 75.5 227 Q 79.3 226.3 80 228.5 Q 78.3 234.8 81 236.5 L 79.5 237 L 77.5 237 L 74 235.5 Q 72.5 231.1 75.5 232 L 78 231 Q 79.7 226.9 75.5 228 L 75.5 227 Z M 76 232 L 75 235 L 78 236 Q 80 231 76 232 Z "></path><path d="M 85.5 227 L 89 227.5 L 84 230.5 Q 83.3 235.3 86.5 236 L 89 236.5 L 85.5 237 Q 81.8 235.8 83 229.5 L 85.5 227 Z "></path><path d="M 118.5 227 L 122 228.5 L 123 233 L 118 233 L 118 234.5 L 122 236.5 L 118.5 237 Q 114.8 235.8 116 229.5 L 118.5 227 Z M 118 228 L 118 232 Q 122 234 121 230 L 118 228 Z "></path><path d="M 125 227 Q 128.8 226 130 228.5 Q 128.3 234.8 131 236.5 L 129.5 237 L 127.5 237 L 124 235.5 Q 123.5 231.5 126.5 231 Q 129.8 232.1 129 229.5 L 126.5 228 L 125 228.5 L 125 227 Z M 128 232 L 126 236 L 129 235 Q 130 231 128 232 Z "></path><path d="M 43 234 Q 46.3 232.9 45 237 Q 41.7 238.1 43 234 Z "></path><path d="M 51 234 Q 54.3 232.9 53 237 Q 49.7 238.1 51 234 Z "></path><path d="M 343 234 Q 347.5 232.5 346 237 Q 341.5 238.5 343 234 Z "></path><path d="M 62.5 243 Q 65.8 244.8 62 246.5 L 60 249.5 L 64 250 L 66.5 246 Q 72.8 247.8 74.5 245 L 75.5 247 L 71 247 L 71 259.5 L 70 259.5 L 70 247.5 L 66 247 L 61 254.5 L 61.5 256 L 59 255.5 L 62 251 L 59.5 252 Q 56.3 250.3 60 248.5 L 62.5 243 Z "></path><path d="M 85.5 243 L 86 245 Q 91 246.3 92.5 243 L 93 245 L 98 245 L 98 247 L 93 247 Q 94.1 249.7 91.5 249 L 92.5 251 L 98 253 L 97.5 255 L 95 254 L 95 256 L 90 256 L 90 262 L 88 262 L 88 256 L 83 256 L 83 254.5 L 81.5 255 Q 78.9 255.7 80 253 L 89.5 248 L 91 248.5 L 91 247 L 86 247 Q 87 250 84 249 L 84 247 Q 78.8 248.7 80 245 Q 84.3 246 85.5 243 Z M 89 250 L 85 253 L 85 254 Q 89 255 88 252 Q 91 251 90 254 L 94 254 L 89 250 Z "></path><path d="M 84.5 257 L 86 257.5 L 81.5 261 L 84.5 257 Z "></path><path d="M 92.5 257 L 97 259.5 Q 97.8 261.8 95.5 261 L 92.5 257 Z "></path><path d="M 62.5 258 L 65 258.5 L 59.5 261 L 59 259 L 62.5 258 Z "></path><path d="M 66.5 263 L 70 263.5 L 70 277.5 L 69 277.5 L 69 264.5 L 66.5 264 L 66.5 263 Z "></path><path d="M 36.5 264 L 37 277 L 39 277.5 L 33.5 278 L 33.5 277 L 35 276.5 L 35 266 L 33 265.5 L 36.5 264 Z "></path><path d="M 335.5 264 L 339 264.5 L 335 266.5 Q 333.8 270.3 337.5 269 Q 340.8 269.8 340 274.5 L 337.5 278 L 334 276.5 L 333 268.5 L 335.5 264 Z M 337 270 Q 334 271 335 276 L 338 277 Q 339 272 337 270 Z "></path><path d="M 350.5 264 L 356 264 L 356 266.5 L 351.5 278 L 351 274.5 L 355 265.5 L 350.5 265 L 350.5 264 Z "></path><path d="M 359 264 L 364 264.5 L 360 265 Q 358.5 268.8 361.5 268 Q 365.3 269.3 364 275.5 Q 363.5 278.5 359.5 278 L 359.5 277 Q 363.3 278.3 362 274.5 L 363 272.5 L 360.5 269 L 359 269 L 359 264 Z "></path><path d="M 60.5 266 L 64 266.5 L 59 268.5 Q 57.3 275.3 60.5 277 L 64 277.5 L 60.5 278 L 58 277 Q 56.4 274.9 57 269.5 L 58 267 L 60.5 266 Z "></path><path d="M 100 266 L 105 266.5 L 101 267 L 101 271 L 102.5 271 L 106 273.5 Q 106.5 277.5 103.5 278 Q 99.8 278.8 99 276.5 L 100.5 277 L 104 275.5 Q 105.1 272.2 102.5 273 L 99 270.5 L 100 266 Z "></path><path d="M 75.5 268 Q 79.3 267.3 80 269.5 Q 78.3 275.8 81 277.5 L 79.5 278 L 77.5 278 L 74 276.5 Q 72.5 272.1 75.5 273 L 78 272 Q 79.7 267.9 75.5 269 L 75.5 268 Z M 76 273 L 75 276 L 78 277 Q 80 272 76 273 Z "></path><path d="M 82 268 L 86.5 269 L 89 268 Q 91 271.1 90 278 L 88 277.5 L 88 269.5 L 87 269.5 L 87 277.5 L 85 278 L 84.5 269 L 84 278 L 82 277.5 L 82 268 Z "></path><path d="M 109.5 268 Q 113.5 267.5 114 270.5 Q 115.3 276.8 111.5 278 Q 107.5 278.5 107 275.5 Q 105.8 269.3 109.5 268 Z M 109 269 L 109 277 L 112 277 L 113 274 L 112 272 Q 113 267 109 269 Z "></path><path d="M 116 268 L 118 268 L 118 276.5 L 120 277 L 121.5 268 L 122 277.5 L 119.5 278 L 116 276.5 L 116 268 Z "></path><path d="M 124 268 L 126.5 269 L 129.5 268 Q 132.5 269.5 131 275.5 L 127.5 278 L 126 277.5 Q 127.7 283.4 124 282 L 124 268 Z M 128 269 Q 125 270 126 276 L 129 277 L 130 274 L 129 272 Q 130 268 128 269 Z "></path><path d="M 43 275 Q 46.3 273.9 45 278 Q 41.7 279.1 43 275 Z "></path><path d="M 51 275 Q 54.3 273.9 53 278 Q 49.7 279.1 51 275 Z "></path><path d="M 343 275 Q 347.5 273.5 346 278 Q 341.5 279.5 343 275 Z "></path><path d="M 61 284 L 63 284 L 63 288 L 65 288 Q 63.9 290.7 66.5 290 L 70 284 Q 72.7 282.9 72 285.5 L 77 290.5 L 77 292.5 L 74 291.5 Q 74.6 294.3 68.5 293 L 65 292.5 Q 66 296.3 63 295 L 63 298.5 L 64 298.5 Q 63.3 295.9 66 297 L 66.5 300 L 67 294 L 74.5 294 L 76 295.5 Q 77.5 301.5 74.5 303 L 69.5 302 L 67 303 L 66.5 301 L 64.5 301 L 58 302 Q 56.9 298.7 61 300 L 61 295.5 L 60 295.5 L 59.5 297 L 59 288 Q 62.7 289.2 61 284 Z M 72 287 L 69 291 L 74 291 L 72 287 Z M 61 289 L 60 294 L 61 294 L 61 289 Z M 64 290 L 63 293 L 64 293 L 64 290 Z M 69 296 Q 67 302 74 300 Q 76 294 69 296 Z "></path><path d="M 82 284 L 84 284 Q 82.3 289.2 86 288 L 86 295 L 84 295.5 Q 86 299 88 294.5 L 89 291 L 87 290.5 L 89 290 L 88.5 286 L 87 286.5 Q 86.1 283.5 90.5 285 Q 91.8 282.8 93 285.5 L 91 286 Q 89.3 291.2 93 290 Q 91.7 285.9 95 287 L 95 297.5 L 93 298 L 91.5 295 L 91 301.5 L 89.5 303 L 88.5 296 L 88 298 Q 85.3 296.9 86 299.5 L 87 302 L 83.5 301 L 79 302 Q 77.9 298.7 82 300 L 82 295.5 L 80 295.5 L 80 288.5 Q 83.3 289.3 82 284 Z M 82 289 L 81 293 L 82 293 L 82 289 Z M 91 291 L 91 293 L 93 294 Q 94 290 91 291 Z "></path><path d="M 96 284 L 98 284.5 L 98 301.5 L 95 303 L 96 300.5 L 96 284 Z "></path><path d="M 103.5 285 Q 106.1 284.2 105 287.5 L 104 287.5 L 103.5 285 Z "></path><path d="M 115.5 285 L 116 286.5 L 110 291.5 L 113 292.5 L 108.5 298 L 106.5 299 L 110 294.5 Q 110.7 291.9 108 293 L 108 291 L 115.5 285 Z "></path><path d="M 101.5 290 L 104 291.5 L 102.5 292 L 101.5 290 Z "></path><path d="M 114 292 L 116 292.5 L 110.5 301 L 107.5 302 L 107.5 301 L 113 296.5 L 114 292 Z "></path><path d="M 117 292 Q 119.7 290.9 119 293.5 Q 116.2 295.3 118 301.5 L 116.5 303 L 113 301.5 L 117 299.5 L 117 292 Z "></path><path d="M 104.5 294 L 105 296.5 L 103.5 303 L 102 300.5 L 103 298.5 Q 100.5 297 104 295.5 L 104.5 294 Z "></path><path d="M 138.5 305 L 139 319.5 L 136.5 320 L 133 318.5 L 132 314.5 L 134.5 310 L 138 310 L 138.5 305 Z M 136 311 Q 133 312 134 318 L 137 319 L 138 313 L 136 311 Z "></path><path d="M 141.5 305 L 145 305.5 L 145 319.5 L 144 319.5 L 144 306.5 L 141.5 306 L 141.5 305 Z "></path><path d="M 36.5 306 L 37 319 L 39 319.5 L 33.5 320 L 33.5 319 L 35 318.5 L 35 308 L 33 307.5 L 36.5 306 Z "></path><path d="M 335.5 306 L 339 307.5 L 340 314.5 L 336.5 320 L 334 319.5 L 337 319 L 338 315 L 334 315 L 334 313.5 L 333 308.5 L 335.5 306 Z M 335 307 L 334 310 L 335 312 Q 334 315 337 314 Q 339 313 338 309 L 335 307 Z "></path><path d="M 351.5 306 Q 355.5 305.5 356 308.5 L 356 317.5 L 353.5 320 L 350 319.5 L 354 317.5 L 355 315.5 L 350 313.5 Q 348.5 307.5 351.5 306 Z M 353 307 Q 350 308 351 313 L 354 314 L 355 312 L 354 309 Q 355 306 353 307 Z "></path><path d="M 359 306 L 364 306.5 L 360 307 Q 358.5 310.8 361.5 310 Q 365.3 311.3 364 317.5 Q 363.5 320.5 359.5 320 L 359.5 319 Q 363.3 320.3 362 316.5 L 363 314.5 L 360.5 311 L 359 311 L 359 306 Z "></path><path d="M 59.5 308 L 63 308.5 L 59 309 L 60.5 313 L 64 315.5 Q 65.5 319.9 62.5 319 L 58.5 320 L 57.5 318 L 62 319 L 63 316.5 L 58 314 L 57 311.5 L 59.5 308 Z "></path><path d="M 107 308 Q 109.7 306.9 109 309.5 L 112.5 315 L 113.5 308 L 114 320 Q 111.3 321.1 112 318.5 L 108.5 313 L 107.5 320 L 107 308 Z "></path><path d="M 66.5 310 L 68.5 310 L 72 311.5 Q 73.8 318.3 70.5 320 Q 65.7 318.3 67 322.5 L 66 322.5 L 66.5 310 Z M 68 311 L 67 318 L 70 319 Q 72 318 71 313 L 68 311 Z "></path><path d="M 74.5 310 L 78 310 L 78 319.5 L 77 319.5 L 77 311.5 L 74.5 311 L 74.5 310 Z "></path><path d="M 85.5 310 L 89 310.5 L 84 313.5 Q 83.3 318.3 86.5 319 L 89 319.5 L 85.5 320 Q 81.8 318.8 83 312.5 L 85.5 310 Z "></path><path d="M 91.5 310 L 94.5 316 L 97.5 310 L 98 311.5 L 93.5 323 L 93 320.5 L 93 318.5 L 91.5 310 Z "></path><path d="M 118.5 310 Q 122.5 309.5 123 312.5 Q 124.3 318.8 120.5 320 L 116 319 L 116 311.5 L 117.5 311 L 118.5 310 Z M 118 311 L 117 314 L 118 318 Q 117 320 120 319 Q 122 318 121 313 L 118 311 Z "></path><path d="M 126.5 310 Q 130.5 309.5 131 312.5 Q 132.3 318.8 128.5 320 Q 124.5 320.5 124 317.5 Q 122.8 311.3 126.5 310 Z M 126 311 L 126 319 L 129 319 L 130 316 L 129 314 Q 130 309 126 311 Z "></path><path d="M 151.5 310 Q 155.5 309.5 156 312.5 L 156 316 L 151 316 L 151 317.5 L 156 319.5 L 151.5 320 Q 148.4 318.6 149 313.5 L 151.5 310 Z M 153 311 L 151 313 Q 150 317 154 315 L 154 311 L 153 311 Z "></path><path d="M 159.5 310 L 163 310.5 L 160 311 Q 158.5 314.7 161.5 314 L 164 315 Q 165 318.8 162.5 320 L 158 319.5 L 162 319 L 160.5 315 L 158 313.5 L 159.5 310 Z "></path><path d="M 43 317 Q 46.3 315.9 45 320 Q 41.7 321.1 43 317 Z "></path><path d="M 51 317 Q 54.3 315.9 53 320 Q 49.7 321.1 51 317 Z "></path><path d="M 343 317 Q 347.5 315.5 346 320 Q 341.5 321.5 343 317 Z "></path><path d="M 67 325 Q 70.1 324.3 69.5 327 L 75.5 327 L 76.5 329 Q 71.3 327.5 73 332 Q 77.1 330.7 76 334 L 73 334.5 L 77 341 L 74 339.5 L 73.5 338 L 72.5 344 L 70.5 339 L 70 341 Q 67.3 342.1 68 339.5 L 68.5 338 L 66.5 337 L 66 344 Q 62.7 345.3 64 340.5 L 62.5 341 Q 58.8 339.8 60 343.5 L 58 342.5 L 59 340.5 L 59 327 L 66.5 327 L 67 325 Z M 61 329 L 62 339 L 64 336 Q 65 333 62 334 L 64 330 L 68 332 Q 69 335 67 334 L 70 338 L 71 336 Q 72 333 69 334 Q 68 331 71 332 L 72 330 L 61 329 Z "></path><path d="M 83 325 L 85 325.5 L 84.5 327 Q 88.7 325.7 87 330.5 L 86 332.5 L 88 333.5 L 88 331 Q 93.2 332.7 92 329 Q 86.8 330.7 88 327 L 92 327 Q 91 324 94 325 L 94 327 Q 99.2 325.3 98 329 Q 92.8 327.3 94 331 L 97 331 L 97 336 L 94 336.5 L 99 340.5 Q 97.7 343.3 96.5 341 L 94.5 340 L 94 344 Q 90.3 345.4 92 339.5 L 87.5 343 L 86 341.5 L 91 337.5 Q 91.8 334.9 88.5 336 L 84.5 335 L 85.5 337 L 88 337.5 L 84 339.5 Q 84.5 343.5 81.5 344 Q 78.9 344.7 80 342 Q 82.7 343.1 82 340.5 L 82.5 339 Q 77.7 340.3 79 337 Q 84.2 338.7 83 335 L 79 334.5 Q 81.8 333.8 81 329.5 L 80 327 Q 84.1 328.3 83 325 Z M 83 329 L 84 333 L 85 331 Q 86 328 83 329 Z M 90 333 Q 89 336 92 335 Q 93 332 90 333 Z M 94 333 Q 93 336 96 335 Q 97 332 94 333 Z "></path><path d="M 101 326 L 118.5 326 L 119 328 L 111 328 L 111 331 L 118 331 L 118 343 L 104.5 343 L 102 344 L 102 331 L 107.5 331 L 109 328 L 101.5 328 L 101 326 Z M 104 332 L 104 341 L 106 341 Q 108 339 107 334 L 104 332 Z M 108 332 Q 107 336 112 334 Q 113 330 108 332 Z M 115 332 Q 112 334 113 340 L 116 341 L 116 333 L 115 332 Z M 109 336 L 109 337 L 112 337 L 109 336 Z M 108 339 Q 107 343 112 341 Q 113 337 108 339 Z "></path><path d="M 33.5 347 Q 37.3 346.3 38 348.5 L 38 353.5 L 34 359.5 L 38 360.5 L 32.5 361 L 33 359.5 L 37 352.5 L 37 349.5 L 33.5 348 L 33.5 347 Z "></path><path d="M 334 347 L 339 347.5 L 335 348 Q 333.5 351.7 336.5 351 Q 340.3 352.3 339 358.5 Q 338.5 361.5 334.5 361 L 334.5 360 Q 338.3 361.3 337 357.5 L 338 355.5 L 335.5 352 L 334 352 L 334 347 Z "></path><path d="M 351.5 347 Q 355.5 346.5 356 349.5 L 356 358.5 L 353.5 361 L 350 360.5 L 354 358.5 L 355 356.5 L 350 354.5 Q 348.5 348.5 351.5 347 Z M 353 348 Q 350 349 351 354 L 354 355 L 355 353 L 354 350 Q 355 347 353 348 Z "></path><path d="M 360.5 347 L 364 348.5 L 365 356.5 L 362.5 361 Q 358.5 361.5 358 358.5 L 358 349.5 L 360.5 347 Z M 360 348 L 359 352 Q 358 356 360 358 Q 359 361 362 360 L 363 359 L 363 350 L 360 348 Z "></path><path d="M 60.5 349 L 64 349.5 L 59 351.5 L 58 355.5 L 60.5 360 Q 65.1 361.2 63 356 L 61 355.5 L 64 355 L 64 361 L 60.5 361 L 58 360 Q 56.4 357.9 57 352.5 L 58 350 L 60.5 349 Z "></path><path d="M 106.5 349 L 115 349.5 L 111 350 L 110.5 361 L 110 350 Q 105.6 351 106.5 349 Z "></path><path d="M 67.5 351 L 69.5 351 Q 73.3 349.8 72 353.5 L 71 353.5 L 70.5 352 L 68 354.5 L 67.5 361 L 67.5 351 Z "></path><path d="M 76.5 351 L 80 352.5 L 81 357 L 76 357 L 76 358.5 L 80 360.5 L 76.5 361 Q 72.8 359.8 74 353.5 L 76.5 351 Z M 76 352 L 76 356 Q 80 358 79 354 L 76 352 Z "></path><path d="M 85.5 351 L 89 352.5 Q 91.3 359.3 84.5 357 L 85 358.5 Q 84.1 361.5 88.5 360 L 88.5 361 L 83 360 L 83 352.5 L 84.5 352 L 85.5 351 Z M 85 352 L 84 355 L 84 356 L 88 356 L 87 354 Q 88 351 85 352 Z "></path><path d="M 91 351 L 93.5 352 L 95.5 351 L 97 352.5 L 97 360.5 L 96 360.5 Q 97.8 353.7 94.5 352 L 93 353.5 L 93 361 L 91 360.5 L 91 351 Z "></path><path d="M 118.5 351 L 122 352.5 L 123 357 L 118 357 L 118 358.5 L 122 360.5 L 118.5 361 Q 114.8 359.8 116 353.5 L 118.5 351 Z M 118 352 L 118 356 Q 122 358 121 354 L 118 352 Z "></path><path d="M 125 351 Q 128.8 350 130 352.5 Q 128.3 358.8 131 360.5 L 129.5 361 L 127.5 361 L 124 359.5 Q 123.5 355.5 126.5 355 Q 129.8 356.1 129 353.5 L 126.5 352 L 125 352.5 L 125 351 Z M 128 356 L 126 360 L 129 359 Q 130 355 128 356 Z "></path><path d="M 43 358 Q 46.3 356.9 45 361 Q 41.7 362.1 43 358 Z "></path><path d="M 51 358 Q 54.3 356.9 53 361 Q 49.7 362.1 51 358 Z "></path><path d="M 343 358 Q 347.5 356.5 346 361 Q 341.5 362.5 343 358 Z "></path><path d="M 62.5 366 L 63 367.5 L 60 371.5 L 62.5 372 L 65 370.5 L 61 376.5 L 63 377.5 L 59.5 379 L 59 377.5 L 62 373.5 L 58 372.5 L 62.5 366 Z "></path><path d="M 85.5 366 L 86 368 Q 91 369.3 92.5 366 L 93 368 L 98 368 L 98 370 L 93 370 Q 94.1 372.7 91.5 372 L 92.5 374 L 98 376 L 97.5 378 L 95 377 L 95 379 L 90 379 L 90 385 L 88 385 L 88 379 L 83 379 L 83 377.5 L 81.5 378 Q 78.9 378.7 80 376 L 89.5 371 L 91 371.5 L 91 370 L 86 370 Q 87 373 84 372 L 84 370 Q 78.8 371.7 80 368 Q 84.3 369 85.5 366 Z M 89 373 L 85 376 L 85 377 Q 89 378 88 375 Q 91 374 90 377 L 94 377 L 89 373 Z "></path><path d="M 73 367 L 75 367.5 L 73.5 374 L 73 367 Z "></path><path d="M 70.5 374 L 72.5 378 L 75 376.5 L 73 379.5 L 77 382.5 Q 75 386 73 381.5 L 71.5 378 Q 72.4 383.4 69.5 385 L 67 383.5 L 70 383 L 70.5 374 Z "></path><path d="M 66.5 376 Q 68.8 375.3 68 377.5 L 66.5 376 Z "></path><path d="M 61.5 380 L 63 380.5 L 58 383 Q 56.8 380 60.5 381 L 61.5 380 Z "></path><path d="M 66.5 380 L 64.5 383 L 64 381 L 66.5 380 Z "></path><path d="M 84.5 380 L 86 380.5 L 81.5 384 L 84.5 380 Z "></path><path d="M 92.5 380 L 97 382.5 Q 97.8 384.8 95.5 384 L 92.5 380 Z "></path><path d="M 36.5 388 L 37 401 L 39 401.5 L 33.5 402 L 33.5 401 L 35 400.5 L 35 390 L 33 389.5 L 36.5 388 Z "></path><path d="M 109 388 L 113 389.5 L 111 395.5 L 112.5 398 L 113 395 Q 116 393.8 115 397.5 L 114 402 Q 108.6 403.5 107 400.5 L 106 397.5 L 109 393.5 L 108 390.5 L 109 388 Z M 111 389 L 110 393 L 111 393 L 111 389 Z M 108 396 L 108 400 L 111 401 L 110 398 Q 111 395 108 396 Z "></path><path d="M 337.5 388 L 338 397 L 340 397.5 L 338 398 L 337.5 402 L 337 398 Q 331.8 400.1 333 395.5 L 337.5 388 Z M 337 392 L 334 397 L 337 397 L 337 392 Z "></path><path d="M 350.5 388 L 356 388 L 356 390.5 L 351.5 402 L 351 398.5 L 355 389.5 L 350.5 389 L 350.5 388 Z "></path><path d="M 359 388 L 364 388.5 L 360 389 Q 358.5 392.8 361.5 392 Q 365.3 393.3 364 399.5 Q 363.5 402.5 359.5 402 L 359.5 401 Q 363.3 402.3 362 398.5 L 363 396.5 L 360.5 393 L 359 393 L 359 388 Z "></path><path d="M 59.5 390 L 63 390.5 L 59 391 L 60.5 395 L 64 397.5 Q 65.5 401.9 62.5 401 L 58.5 402 L 57.5 400 L 62 401 L 63 398.5 L 58 396 L 57 393.5 L 59.5 390 Z "></path><path d="M 93.5 390 L 94 392 L 97 392.5 L 94 393 Q 92.3 399.1 95.5 401 L 98 401.5 L 94.5 402 L 93 400.5 L 93 393 L 91 392.5 L 93 392 L 93.5 390 Z "></path><path d="M 126.5 390 L 130 390.5 L 126 391 L 127.5 395 L 131 397.5 Q 132.5 401.9 129.5 401 L 125.5 402 L 124.5 400 L 129 401 L 130 398.5 L 125 396 L 124 393.5 L 126.5 390 Z "></path><path d="M 167 390 L 172 390.5 L 168 391 L 168 395 L 169.5 395 L 173 397.5 Q 173.5 401.5 170.5 402 Q 166.8 402.8 166 400.5 L 167.5 401 L 171 399.5 Q 172.1 396.2 169.5 397 L 166 394.5 L 167 390 Z "></path><path d="M 65.5 392 L 67.5 397 L 68 393 Q 71.3 391.7 70 396.5 L 71 396.5 L 72.5 392 L 73 395.5 L 72 402 Q 68.7 403.3 70 398.5 L 68 397.5 Q 69.7 403.4 66 402 L 65.5 392 Z "></path><path d="M 76.5 392 L 80 393.5 L 81 398 L 76 398 L 76 399.5 L 80 401.5 L 76.5 402 Q 72.8 400.8 74 394.5 L 76.5 392 Z M 76 393 L 76 397 Q 80 399 79 395 L 76 393 Z "></path><path d="M 85.5 392 L 89 393.5 Q 91.3 400.3 84.5 398 L 85 399.5 Q 84.1 402.5 88.5 401 L 88.5 402 L 83 401 L 83 393.5 L 84.5 393 L 85.5 392 Z M 85 393 L 84 396 L 84 397 L 88 397 L 87 395 Q 88 392 85 393 Z "></path><path d="M 134.5 392 Q 138.3 391.3 139 393.5 Q 140.8 400.3 137.5 402 Q 133.8 402.8 133 400.5 L 132 395.5 L 134.5 392 Z M 136 393 Q 133 394 134 400 L 137 401 Q 139 400 138 395 L 136 393 Z "></path><path d="M 141 392 L 143 392 L 143 400.5 L 145 401 L 146.5 392 L 147 401.5 L 144.5 402 L 141 400.5 L 141 392 Z "></path><path d="M 150 392 L 152.5 393 L 156 392 L 155.5 395 L 155 393 Q 152.3 391.9 153 394.5 L 152 395.5 L 152 402 L 150 401.5 L 150 392 Z "></path><path d="M 176.5 392 Q 180.5 391.5 181 394.5 Q 182.3 400.8 178.5 402 Q 174.5 402.5 174 399.5 Q 172.8 393.3 176.5 392 Z M 176 393 L 176 401 L 179 401 L 180 398 L 179 396 Q 180 391 176 393 Z "></path><path d="M 183.5 392 L 184 399.5 L 185.5 401 L 187 399.5 L 187 392 L 189 392.5 L 189 402 L 186.5 401 L 184.5 402 L 183 400.5 L 183.5 392 Z "></path><path d="M 191 392 L 193.5 393 L 195.5 392 Q 199 393 198 398.5 L 195.5 402 L 193 402 Q 194.7 407.2 191 406 L 191 392 Z M 195 393 L 193 395 L 193 401 L 196 400 Q 197 392 195 393 Z "></path><path d="M 43 399 Q 46.3 397.9 45 402 Q 41.7 403.1 43 399 Z "></path><path d="M 51 399 Q 54.3 397.9 53 402 Q 49.7 403.1 51 399 Z "></path><path d="M 343 399 Q 347.5 397.5 346 402 Q 341.5 403.5 343 399 Z "></path><path d="M 61 407 Q 64.7 405.6 63 411.5 L 64 411.5 Q 62.5 407.1 65.5 408 L 71 409 Q 70 406 73 407 L 73 409 Q 78.2 407.3 77 411 L 73 411.5 L 76 412 L 77 415.5 L 76 419 L 69 418.5 L 71 418 Q 72.1 414.7 68 416 Q 69.5 423.2 65.5 426 L 65 423.5 L 66 420.5 L 63 420.5 Q 65 427.4 61 426 L 60.5 421 L 58 422.5 L 61 416 Q 58 417 59 414 L 61 413.5 L 59 413 L 59.5 409 L 61 409.5 L 61 407 Z M 66 411 L 65 413 L 63 414 L 66 414 L 66 411 Z M 68 411 Q 66 416 71 415 L 71 414 Q 68 415 69 412 L 71 412 L 68 411 Z M 64 416 L 66 419 Q 67 415 64 416 Z M 70 422 L 70 424 Q 74 425 75 423 L 70 422 Z "></path><path d="M 91 407 Q 93.7 405.9 93 408.5 L 94 408.5 Q 93.3 405.9 96 407 L 98 411 Q 95 410 96 413 L 99 414.5 L 88 415 L 88 425 L 81.5 425 L 80 425.5 L 80 412.5 Q 83 413.3 82 409 L 79 408.5 L 87.5 408 L 87.5 409 Q 84.5 408.2 86 412 Q 88.7 410.9 88 413.5 L 89.5 413 Q 92.1 413.7 91 411 Q 88 412 89 409 Q 92 410 91 407 Z M 84 409 L 83 412 L 84 412 L 84 409 Z M 82 413 L 81 416 L 82 416 L 82 413 Z M 84 413 L 83 418 L 82 420 L 87 420 L 84 418 L 84 413 Z M 92 418 Q 91 421 95 420 Q 96 417 92 418 Z M 83 421 L 82 423 L 87 423 Q 86 420 83 421 Z M 93 421 L 91 423 L 95 423 Q 96 420 93 421 Z "></path><path d="M 103.5 408 Q 106.1 407.2 105 410.5 L 104 410.5 L 103.5 408 Z "></path><path d="M 115.5 408 L 116 409.5 L 110 414.5 L 113 415.5 L 108.5 421 L 106.5 422 L 110 417.5 Q 110.7 414.9 108 416 L 108 414 L 115.5 408 Z "></path><path d="M 101.5 413 L 104 414.5 L 102.5 415 L 101.5 413 Z "></path><path d="M 114 415 L 116 415.5 L 110.5 424 L 107.5 425 L 107.5 424 L 113 419.5 L 114 415 Z "></path><path d="M 117 415 Q 119.7 413.9 119 416.5 Q 116.2 418.3 118 424.5 L 116.5 426 L 113 424.5 L 117 422.5 L 117 415 Z "></path><path d="M 90 416 L 97 416 L 97 425.5 L 95.5 425 L 90.5 426 L 90 416 Z "></path><path d="M 104.5 417 L 105 419.5 L 103.5 426 L 102 423.5 L 103 421.5 Q 100.5 420 104 418.5 L 104.5 417 Z "></path><path d="M 69 420 L 76 420 L 76 425.5 L 74.5 425 L 69.5 426 L 69 420 Z "></path><path d="M 158.5 428 L 159.5 434 L 162.5 433 L 164 434.5 L 164 443 L 162 442.5 L 162 434.5 L 160 435.5 L 158.5 443 L 158.5 428 Z "></path><path d="M 183 428 L 185 428.5 L 185 435.5 L 187 434.5 Q 186.3 432.3 188.5 433 L 187 435.5 L 186 437.5 L 189 442.5 L 186 440.5 L 185.5 439 L 185 443 L 183 442.5 L 183 428 Z "></path><path d="M 36.5 429 L 37 442 L 39 442.5 L 33.5 443 L 33.5 442 L 35 441.5 L 35 431 L 33 430.5 L 36.5 429 Z "></path><path d="M 93.5 429 L 96 430.5 Q 96.8 434.8 94 435.5 L 96.5 439 L 97.5 436 L 98 439.5 L 98 441.5 Q 98.6 444.3 92.5 443 Q 89.3 442.3 90 437.5 L 92 435.5 Q 90.8 430.3 93.5 429 Z M 95 430 L 93 432 L 95 433 L 95 430 Z M 92 437 L 92 441 L 95 442 L 94 439 Q 95 436 92 437 Z "></path><path d="M 328.5 429 L 329 442 L 332 442.5 L 325.5 443 L 325.5 442 L 328 441.5 L 328 431 L 325.5 432 L 326.5 430 L 328.5 429 Z "></path><path d="M 334 429 L 339 429.5 L 335 430 Q 333.5 433.7 336.5 433 Q 340.3 434.3 339 440.5 Q 338.5 443.5 334.5 443 L 334.5 442 Q 338.3 443.3 337 439.5 L 338 437.5 L 335.5 434 L 334 434 L 334 429 Z "></path><path d="M 351.5 429 Q 355.5 428.5 356 431.5 L 356 440.5 L 353.5 443 L 350 442.5 L 354 440.5 L 355 438.5 L 350 436.5 Q 348.5 430.5 351.5 429 Z M 353 430 Q 350 431 351 436 L 354 437 L 355 435 L 354 432 Q 355 429 353 430 Z "></path><path d="M 359 429 L 364 429.5 L 360 430 Q 358.5 433.7 361.5 433 Q 365.3 434.3 364 440.5 Q 363.5 443.5 359.5 443 L 359.5 442 Q 363.3 443.3 362 439.5 L 363 437.5 L 360.5 434 L 359 434 L 359 429 Z "></path><path d="M 59.5 431 L 63 431.5 L 59 432 L 60.5 436 L 64 438.5 Q 65.5 442.9 62.5 442 L 58.5 443 L 57.5 441 L 62 442 L 63 439.5 L 58 437 L 57 434.5 L 59.5 431 Z "></path><path d="M 76.5 431 L 77 433 L 80 433.5 L 77 434 Q 75.3 440.1 78.5 442 L 81 442.5 L 77.5 443 L 76 441.5 L 76 434 L 74 433.5 L 76 433 L 76.5 431 Z "></path><path d="M 109.5 431 L 113 431.5 L 109 432 L 110.5 436 L 114 438.5 Q 115.5 442.9 112.5 442 L 108.5 443 L 107.5 441 L 112 442 L 113 439.5 L 108 437 L 107 434.5 L 109.5 431 Z "></path><path d="M 152.5 431 L 156 431.5 L 151 433.5 Q 149.3 440.2 152.5 442 L 156 442.5 L 152.5 443 L 150 442 Q 148.4 439.9 149 434.5 L 150 432 L 152.5 431 Z "></path><path d="M 65.5 433 L 67.5 438 L 68 434 Q 71.3 432.7 70 437.5 L 71 437.5 L 72.5 433 L 73 436.5 L 72 443 Q 68.7 444.3 70 439.5 L 68 438.5 Q 69.7 444.4 66 443 L 65.5 433 Z "></path><path d="M 118.5 433 Q 122.5 432.5 123 435.5 Q 124.3 441.8 120.5 443 L 116 442 L 116 434.5 L 117.5 434 L 118.5 433 Z M 118 434 L 117 437 L 118 441 Q 117 443 120 442 Q 122 441 121 436 L 118 434 Z "></path><path d="M 124 433 L 126 433 L 126 441.5 L 127.5 442 L 129 440.5 L 129 433 L 131 433.5 L 131 443 L 128.5 442 L 125 443 L 124 433 Z "></path><path d="M 134.5 433 L 136.5 433 Q 140.3 431.8 139 435.5 L 138 435.5 L 137.5 434 L 135 436.5 L 134.5 443 L 134.5 433 Z "></path><path d="M 166.5 433 L 170 433 L 170 442.5 L 169 442.5 L 169 434.5 L 166.5 434 L 166.5 433 Z "></path><path d="M 176.5 433 L 181 433.5 L 176 435.5 Q 174.8 440.8 177.5 442 L 181 442.5 L 177.5 443 L 175 442 L 174 437.5 L 176.5 433 Z "></path><path d="M 191 433 L 193.5 434 L 195.5 433 L 197 434.5 L 197 442.5 L 196 442.5 Q 197.8 435.8 194.5 434 L 193 435.5 L 193 443 L 191 442.5 L 191 433 Z "></path><path d="M 43 440 Q 46.3 438.9 45 443 Q 41.7 444.1 43 440 Z "></path><path d="M 51 440 Q 54.3 438.9 53 443 Q 49.7 444.1 51 440 Z "></path><path d="M 343 440 Q 347.5 438.5 346 443 Q 341.5 444.5 343 440 Z "></path><path d="M 70 448 L 73 448.5 L 71 452 L 74 451.5 L 73.5 450 L 77 452.5 L 77 454.5 Q 78.2 459.1 73 457 L 71.5 453 L 70 455.5 Q 71.3 459 76 458 L 74 463.5 L 77 465 Q 78.1 467.7 75.5 467 L 71.5 465 L 68 467 Q 66.9 464.3 69.5 465 L 71 462 L 68.5 463 L 67 462.5 Q 68.9 467.9 65.5 467 L 60.5 466 L 59 466.5 L 59 453.5 Q 62 454.3 61 450 L 58 449.5 L 66.5 449 L 66.5 450 Q 62.3 448.9 64 453 L 70 450.5 L 70 448 Z M 63 450 L 62 453 L 63 453 L 63 450 Z M 75 453 Q 73 456 76 455 L 75 453 Z M 67 454 L 67 457 L 69 456 Q 70 453 67 454 Z M 63 455 L 60 460 L 60 461 L 65 461 Q 66 458 63 459 L 63 455 Z M 65 455 L 64 458 L 65 458 L 65 455 Z M 67 458 L 67 461 L 69 460 Q 70 457 67 458 Z M 72 460 Q 72 464 74 461 L 72 460 Z M 60 462 L 60 464 L 65 464 L 65 462 L 60 462 Z "></path><path d="M 86.5 448 L 87.5 450 Q 82.9 448.8 85 454 L 88 454 Q 87 451 90 452 L 90 448.5 L 91 448.5 Q 89.4 454.2 95 452 Q 93.3 446.8 97 448 Q 96 452.3 99 453.5 L 97 454 L 97 465.5 L 95.5 466 L 92.5 465 L 90 466.5 L 90 454.5 L 88 454 L 88 456 Q 83.9 454.7 85 458 L 88 458 L 88 466 L 82 465 Q 83 468 80 467 L 80 458.5 L 83 458 L 83 456 L 79 454.5 L 83 454 L 83 451 Q 78.9 452.3 80 449 L 86.5 448 Z M 91 454 L 91 457 L 95 458 Q 97 452 91 454 Z M 93 459 L 91 463 L 95 464 L 95 459 L 93 459 Z M 82 460 Q 80 465 86 463 Q 88 458 82 460 Z "></path><path d="M 112.5 448 L 113 449.5 L 110 452.5 L 109.5 460 L 109 450.5 L 112 449.5 L 112.5 448 Z "></path><path d="M 116.5 450 L 117 456.5 L 114.5 458 L 113.5 456 L 116 456 L 116.5 450 Z "></path><path d="M 101.5 451 Q 108.5 449.5 108 452.5 L 106 459.5 L 107 463.5 L 106 463.5 L 104.5 460 L 102.5 463 L 103 461.5 L 104 457.5 L 103.5 456 L 105 456.5 L 106 452 L 101.5 452 L 101.5 451 Z "></path><path d="M 112.5 452 L 114 454.5 L 113 454.5 L 112.5 452 Z "></path><path d="M 118.5 458 L 119 463.5 L 116.5 467 L 114 465.5 L 117 465 L 118 460.5 Q 115.8 459.3 118.5 458 Z "></path><path d="M 99.5 469 L 103 469.5 L 103 483.5 L 102 483.5 L 102 470.5 L 99.5 470 L 99.5 469 Z "></path><path d="M 169.5 469 L 173 469.5 L 170 470 L 169 474 L 173 474.5 L 169 475 L 168.5 484 L 168 475 L 166 474.5 L 168 474 Q 167 470.2 169.5 469 Z "></path><path d="M 36.5 470 L 37 483 L 39 483.5 L 33.5 484 L 33.5 483 L 35 482.5 L 35 472 L 33 471.5 L 36.5 470 Z "></path><path d="M 110 470 Q 113 469 112 472 Q 109 473 110 470 Z "></path><path d="M 328.5 470 L 329 483 L 332 483.5 L 325.5 484 L 325.5 483 L 328 482.5 L 328 472 L 325.5 473 L 326.5 471 L 328.5 470 Z "></path><path d="M 335.5 470 L 339 470.5 L 335 472.5 Q 333.8 476.3 337.5 475 Q 340.8 475.8 340 480.5 L 337.5 484 L 334 482.5 L 333 474.5 L 335.5 470 Z M 337 476 Q 334 477 335 482 L 338 483 Q 339 478 337 476 Z "></path><path d="M 351.5 470 Q 355.5 469.5 356 472.5 L 356 481.5 L 353.5 484 L 350 483.5 L 354 481.5 L 355 479.5 L 350 477.5 Q 348.5 471.5 351.5 470 Z M 353 471 Q 350 472 351 477 L 354 478 L 355 476 L 354 473 Q 355 470 353 471 Z "></path><path d="M 359 470 L 364 470.5 L 360 471 Q 358.5 474.7 361.5 474 Q 365.3 475.3 364 481.5 Q 363.5 484.5 359.5 484 L 359.5 483 Q 363.3 484.3 362 480.5 L 363 478.5 L 360.5 475 L 359 475 L 359 470 Z "></path><path d="M 57 472 Q 60 470.8 59 474.5 L 60.5 478 L 62 472 L 64 472.5 L 64 483.5 L 63 483.5 L 62.5 477 L 60.5 481 L 58.5 477 L 57.5 484 L 57 472 Z "></path><path d="M 141 472 Q 145.6 470.8 147 473.5 L 146 478.5 L 148 481.5 L 147 484 L 141 484 L 141 472 Z M 143 473 L 143 478 L 145 478 L 146 475 L 143 473 Z M 143 479 L 143 483 Q 147 485 146 481 L 143 479 Z "></path><path d="M 67.5 474 Q 71.3 473.3 72 475.5 Q 73.8 482.3 70.5 484 Q 66.8 484.8 66 482.5 L 65 477.5 L 67.5 474 Z M 69 475 Q 66 476 67 482 L 70 483 Q 72 482 71 477 L 69 475 Z "></path><path d="M 74 474 L 76.5 475 L 78.5 474 L 80 475.5 L 80 483.5 L 79 483.5 Q 80.8 476.8 77.5 475 L 76 476.5 L 76 484 L 74 483.5 L 74 474 Z "></path><path d="M 84.5 474 L 89 474 L 89 485.5 Q 88.3 488.8 83.5 488 L 83.5 487 Q 87.9 488.5 87 485.5 L 87.5 484 Q 83.8 484.8 83 482.5 L 82 478.5 L 84.5 474 Z M 86 475 Q 83 476 84 482 L 87 483 L 88 477 L 86 475 Z "></path><path d="M 93.5 474 Q 97.5 473.5 98 476.5 Q 99.3 482.8 95.5 484 L 91 483 L 91 475.5 L 92.5 475 L 93.5 474 Z M 93 475 L 92 478 L 93 482 Q 92 484 95 483 Q 97 482 96 477 L 93 475 Z "></path><path d="M 107.5 474 L 112 474 L 112 484 L 110 483.5 L 110 475 L 107.5 475 L 107.5 474 Z "></path><path d="M 117.5 474 Q 121.3 473.3 122 475.5 Q 120.3 481.8 123 483.5 L 121.5 484 L 119.5 484 L 116 482.5 Q 114.5 478.1 117.5 479 L 120 478 Q 121.7 473.9 117.5 475 L 117.5 474 Z M 118 479 L 117 482 L 120 483 Q 122 478 118 479 Z "></path><path d="M 124 474 L 126.5 475 L 130 474 Q 132 477.1 131 484 L 129 484 L 129 475.5 L 127 475 Q 125.1 477.8 126 484 L 124 483.5 L 124 474 Z "></path><path d="M 151.5 474 Q 155.5 473.5 156 476.5 L 156 480 L 151 480 L 151 481.5 L 156 483.5 L 151.5 484 Q 148.4 482.6 149 477.5 L 151.5 474 Z M 153 475 L 151 477 Q 150 481 154 479 L 154 475 L 153 475 Z "></path><path d="M 160.5 474 L 164 475.5 Q 166.3 482.3 159.5 480 L 160 481.5 Q 159.1 484.5 163.5 483 L 163.5 484 L 158 483 L 158 475.5 L 159.5 475 L 160.5 474 Z M 160 475 L 159 478 L 159 479 L 163 479 L 162 477 Q 163 474 160 475 Z "></path><path d="M 43 481 Q 46.3 479.9 45 484 Q 41.7 485.1 43 481 Z "></path><path d="M 51 481 Q 54.3 479.9 53 484 Q 49.7 485.1 51 481 Z "></path><path d="M 343 481 Q 347.5 479.5 346 484 Q 341.5 485.5 343 481 Z "></path><path d="M 64.5 489 L 69.5 490 L 71.5 490 Q 77.3 488.3 76 492 L 71 492.5 L 76 493 L 75.5 496 L 73.5 494 L 61 494 Q 62 497 59 496 Q 57.2 491.1 63.5 493 L 63.5 492 Q 57.6 493.7 59 490 L 64.5 489 Z M 66 492 L 66 493 L 70 493 L 66 492 Z "></path><path d="M 88 489 L 90 489.5 L 89 492 L 97.5 492 L 98 494 L 89 494 L 89 498 L 95 498 L 95 507 Q 91.6 504.9 84 506 Q 85 509 82 508 L 82 498 L 88 498 L 88 494 L 79.5 494 L 79 492 L 88 492 L 88 489 Z M 84 500 L 84 505 L 93 505 L 93 500 L 84 500 Z "></path><path d="M 109 489 L 112 489.5 L 111 492.5 Q 112.4 495.1 117 494.5 Q 112.4 493.9 111 496.5 L 112.5 500 Q 120.1 498.5 119 502 L 111 502 L 111 508 L 109 508 L 109 502 L 102.5 502 L 101.5 500 L 109 500 L 109 495 L 105 495 L 105 496.5 L 102 498 L 105.5 490 L 107.5 494 L 109 494 L 109 489 Z "></path><path d="M 131.5 489 L 132 492 L 140 492 L 140 506.5 L 137.5 508 L 136.5 506 L 138 505.5 L 138 494 L 132 494.5 L 137 497.5 Q 137.8 499.8 135.5 499 L 131.5 496 L 126.5 500 L 126 498.5 L 129.5 494 L 125 494 L 125 507.5 L 123 508 L 123 492 L 129.5 492 L 130 490.5 L 131.5 489 Z "></path><path d="M 62 495 L 72.5 495 L 73 497 L 62.5 497 L 62 495 Z "></path><path d="M 59.5 498 L 76 498.5 L 74 499 Q 75.1 501.7 72.5 501 L 71.5 503 L 77 505 Q 78.1 507.7 75.5 507 L 70 505 Q 71.8 509.5 66.5 508 L 67.5 506 Q 69.8 506.8 69 504.5 L 67.5 505 L 59.5 508 L 59 506 L 64 504.5 L 60 503.5 L 63 502.5 L 59 501.5 L 65 499.5 L 59.5 499 L 59.5 498 Z M 69 499 L 70 501 L 72 500 L 69 499 Z "></path><path d="M 131.5 498 L 133.5 501 L 137 503.5 Q 134.7 507.2 132.5 502 L 126 505 Q 124.9 502.3 127.5 503 L 131.5 498 Z "></path><path d="M 196.5 510 L 195 512.5 Q 192.7 515.7 194 522.5 L 197 527.5 L 193 524.5 L 192 516.5 L 196.5 510 Z "></path><path d="M 202.5 510 L 205 511.5 L 203 512 L 203 516.5 L 206 522.5 L 202.5 526 L 201.5 525 Q 199.3 525.8 200 523.5 L 202 523.5 L 202 518.5 Q 199 517.5 200 512.5 L 202.5 510 Z M 204 520 L 203 523 L 204 523 L 204 520 Z "></path><path d="M 250.5 510 Q 255.9 512.6 255 521.5 L 250.5 528 L 252 525.5 Q 254.5 522 253 514.5 L 250.5 510 Z "></path><path d="M 36.5 511 L 37 524 L 39 524.5 L 33.5 525 L 33.5 524 L 35 523.5 L 35 513 L 33 512.5 L 36.5 511 Z "></path><path d="M 61.5 511 L 62 524 L 64 524.5 L 58.5 525 L 58.5 524 L 60 523.5 L 60 513 L 58 512.5 L 61.5 511 Z "></path><path d="M 67 511 Q 70.8 510 72 512.5 Q 72.8 516.8 70 517.5 Q 73 518.5 72 523.5 Q 71.3 525.8 67.5 525 Q 65 524 66 519.5 L 67 516.5 L 66 513.5 L 67 511 Z M 68 512 L 68 516 L 70 516 L 71 514 L 68 512 Z M 69 518 L 67 521 L 69 524 L 71 523 Q 72 519 69 518 Z "></path><path d="M 74.5 511 L 77 512.5 L 77.5 516 L 80.5 511 L 81 512.5 L 78 519 L 81 519 L 81 525 Q 77.3 526.5 78 523.5 L 76.5 521 L 73.5 525 L 74 523.5 L 77 516.5 L 75.5 517 L 73 515.5 Q 72.3 511.8 74.5 511 Z M 74 512 Q 72 517 76 516 Q 78 511 74 512 Z M 80 520 L 78 523 L 80 524 L 80 520 Z "></path><path d="M 211.5 511 L 212 524 L 215 524.5 L 208.5 525 L 208.5 524 L 211 523.5 L 211 513 L 208.5 514 L 209.5 512 L 211.5 511 Z "></path><path d="M 219.5 511 L 220 524 L 223 524.5 L 216.5 525 L 216.5 524 L 219 523.5 L 219 513 L 217 512.5 L 219.5 511 Z "></path><path d="M 234.5 511 Q 238.5 510.5 239 513.5 L 237 517.5 Q 239.8 518.3 239 522.5 Q 238.3 525.8 233.5 525 L 233.5 524 Q 239.2 525.8 237 519.5 L 234 517.5 L 237 515.5 Q 238.7 510.7 234.5 512 L 234.5 511 Z "></path><path d="M 243.5 511 L 247 512.5 L 246 517.5 L 248 521.5 L 245.5 525 Q 241.5 525.5 241 522.5 Q 240.3 518.3 243 517.5 L 241 514.5 L 243.5 511 Z M 243 512 L 243 516 L 245 516 L 246 514 L 243 512 Z M 243 519 L 243 524 L 245 524 L 246 521 L 243 519 Z "></path><path d="M 92 513 L 97 513.5 L 93 514 L 93 518 L 94.5 518 L 98 520.5 Q 98.5 524.5 95.5 525 Q 91.8 525.8 91 523.5 L 92.5 524 L 96 522.5 Q 97.1 519.2 94.5 520 L 91 517.5 L 92 513 Z "></path><path d="M 152.5 513 L 156 513.5 L 151 515.5 L 150 519.5 L 152.5 524 Q 157.1 525.2 155 520 L 153 519.5 L 156 519 L 156 525 L 152.5 525 L 150 524 Q 148.4 521.9 149 516.5 L 150 514 L 152.5 513 Z "></path><path d="M 176 513 Q 179 512 178 515 L 180.5 515 L 180.5 516 L 178 516 L 178 524 L 181 524.5 L 177.5 525 L 176 523.5 L 176 516 L 174 515.5 L 176 515 L 176 513 Z "></path><path d="M 101.5 515 L 105 516.5 L 106 521 L 101 521 L 101 522.5 L 105 524.5 L 101.5 525 Q 97.8 523.8 99 517.5 L 101.5 515 Z M 101 516 L 101 520 Q 105 522 104 518 L 101 516 Z "></path><path d="M 108 515 L 110.5 516 L 114 515 L 113.5 518 L 113 516 Q 110.3 514.9 111 517.5 L 110 518.5 L 110 525 L 108 524.5 L 108 515 Z "></path><path d="M 116.5 515 L 119.5 522 L 122.5 515 L 123 516.5 L 120 525 Q 117 526.3 118 522.5 Q 115 519.8 116.5 515 Z "></path><path d="M 126.5 515 Q 130.5 514.5 131 517.5 L 131 521 L 126 521 L 126 522.5 L 131 524.5 L 126.5 525 Q 123.4 523.6 124 518.5 L 126.5 515 Z M 128 516 L 126 518 Q 125 522 129 520 L 129 516 L 128 516 Z "></path><path d="M 134.5 515 L 136.5 515 Q 140.3 513.8 139 517.5 L 138 517.5 L 137.5 516 L 135 518.5 L 134.5 525 L 134.5 515 Z "></path><path d="M 159.5 515 L 161.5 515 Q 165.3 513.8 164 517.5 L 163 517.5 L 162.5 516 L 160 518.5 L 159.5 525 L 159.5 515 Z "></path><path d="M 167.5 515 Q 171.3 514.3 172 516.5 Q 170.3 522.8 173 524.5 L 171.5 525 L 169.5 525 L 166 523.5 Q 164.5 519.1 167.5 520 L 170 519 Q 171.7 514.9 167.5 516 L 167.5 515 Z M 168 520 L 167 523 L 170 524 Q 172 519 168 520 Z "></path><path d="M 43 522 Q 46.3 520.9 45 525 Q 41.7 526.1 43 522 Z "></path><path d="M 51 522 Q 54.3 520.9 53 525 Q 49.7 526.1 51 522 Z "></path><path d="M 226 522 Q 230.5 520.5 229 525 Q 224.5 526.5 226 522 Z "></path><path d="M 83.5 529 L 84.5 535 L 87.5 534 L 89 535.5 L 89 544 L 87 543.5 L 87 535.5 L 85 536.5 L 83.5 544 L 83.5 529 Z "></path><path d="M 36.5 530 L 37 543 L 39 543.5 L 33.5 544 L 33.5 543 L 35 542.5 L 35 532 L 33 531.5 L 36.5 530 Z "></path><path d="M 110 530 Q 113 529 112 532 Q 109 533 110 530 Z "></path><path d="M 334.5 530 Q 338.3 529.3 339 531.5 L 339 535.5 L 335 543 L 339 543.5 L 333 544 L 337 536.5 L 337 531 L 333.5 532 L 334.5 530 Z "></path><path d="M 351.5 530 Q 355.5 529.5 356 532.5 L 356 541.5 L 353.5 544 L 350 543.5 L 354 541.5 L 355 539.5 L 350 537.5 Q 348.5 531.5 351.5 530 Z M 353 531 Q 350 532 351 537 L 354 538 L 355 536 L 354 533 Q 355 530 353 531 Z "></path><path d="M 360.5 530 L 364 531.5 L 363 536.5 L 365 540.5 L 362.5 544 Q 358.5 544.5 358 541.5 Q 357.3 537.3 360 536.5 L 358 533.5 L 360.5 530 Z M 360 531 L 360 535 L 362 535 L 363 533 L 360 531 Z M 360 538 L 360 543 L 362 543 L 363 540 L 360 538 Z "></path><path d="M 60.5 532 L 64 532.5 L 59 534.5 Q 57.3 541.2 60.5 543 L 64 543.5 L 60.5 544 L 58 543 Q 56.4 540.9 57 535.5 L 58 533 L 60.5 532 Z "></path><path d="M 99 532 Q 104.5 530.8 106 534.5 Q 106.8 540.6 105 543 L 99 544 L 99 532 Z M 100 533 L 100 543 L 103 543 Q 106 541 104 535 L 100 533 Z "></path><path d="M 159 532 Q 162 531 161 534 L 163.5 534 L 163.5 535 L 161 535 L 161 543 L 164 543.5 L 160 544 Q 158.1 541.2 159 535 L 157 534.5 L 159 534 L 159 532 Z "></path><path d="M 67.5 534 Q 71.9 532.5 71 535.5 L 73 543.5 L 71.5 544 L 69.5 543 L 67.5 544 Q 65.3 543.3 66 539.5 L 70 538 Q 71.7 533.9 67.5 535 L 66 535.5 L 67.5 534 Z M 69 539 L 67 543 L 70 542 Q 71 538 69 539 Z "></path><path d="M 76.5 534 L 80 534.5 L 76 535 Q 74.5 538.8 77.5 538 L 80 539 Q 81 542.8 78.5 544 L 75 543.5 L 79 541.5 L 75 539 L 74 536.5 L 76.5 534 Z "></path><path d="M 107.5 534 L 112 534 L 112 544 L 110 543.5 L 110 535 L 107.5 535 L 107.5 534 Z "></path><path d="M 118.5 534 L 122 534.5 L 118 535 Q 116.5 538.8 119.5 538 L 122 539 Q 123 542.8 120.5 544 L 117 543.5 L 121 541.5 L 117 539 L 116 536.5 L 118.5 534 Z "></path><path d="M 126.5 534 L 131 534.5 L 126 536.5 Q 124.8 541.8 127.5 543 L 131 543.5 L 127.5 544 L 125 543 L 124 538.5 L 126.5 534 Z "></path><path d="M 134.5 534 Q 138.3 533.3 139 535.5 Q 140.8 542.3 137.5 544 Q 133.8 544.8 133 542.5 L 132 537.5 L 134.5 534 Z M 136 535 Q 133 536 134 542 L 137 543 Q 139 542 138 537 L 136 535 Z "></path><path d="M 141 534 L 143 534 L 143 542.5 L 145 543 L 146.5 534 L 147 543.5 L 144.5 544 L 141 542.5 L 141 534 Z "></path><path d="M 149 534 L 151.5 535 L 155 534 Q 157 537.1 156 544 L 154 544 L 154 535.5 L 152 535 Q 150.1 537.8 151 544 L 149 543.5 L 149 534 Z "></path><path d="M 325.5 538 L 331 538.5 L 325.5 539 L 325.5 538 Z "></path><path d="M 43 541 Q 46.3 539.9 45 544 Q 41.7 545.1 43 541 Z "></path><path d="M 51 541 Q 54.3 539.9 53 544 Q 49.7 545.1 51 541 Z "></path><path d="M 343 541 Q 347.5 539.5 346 544 Q 341.5 545.5 343 541 Z "></path><path d="M 306.5 557 L 366 557.5 L 306.5 558 L 306.5 557 Z "></path><path d="M 327.5 568 L 331 568.5 L 327 570.5 L 326 572.5 L 331 574.5 Q 332.5 580.5 329.5 582 Q 325.5 582.5 325 579.5 Q 323.3 570.8 327.5 568 Z M 327 574 L 327 577 L 327 579 Q 326 582 329 581 Q 331 580 330 576 L 327 574 Z "></path><path d="M 335.5 568 L 339 569.5 L 340 577.5 L 337.5 582 Q 333.5 582.5 333 579.5 L 333 570.5 L 335.5 568 Z M 335 569 L 334 573 Q 333 577 335 579 Q 334 582 337 581 L 338 580 L 338 571 L 335 569 Z "></path><path d="M 350 568 Q 354.7 567 356 570.5 L 352 581 L 356 581.5 L 350 582 L 350 579.5 L 354 573.5 L 354 570.5 L 351.5 569 L 350 569.5 L 350 568 Z "></path><path d="M 359.5 568 Q 363.3 567.3 364 569.5 L 364 573.5 L 360 581 L 364 581.5 L 358 582 L 362 574.5 L 362 569 L 358.5 570 L 359.5 568 Z "></path><path d="M 191.5 570 L 197 570.5 L 195 571 L 195 580.5 L 196.5 581 L 196.5 582 L 191 581.5 L 193 581 L 193 571.5 L 191.5 571 L 191.5 570 Z "></path><path d="M 201 570 Q 204 569 203 572 L 205.5 572 L 205.5 573 L 203 573 L 203 581 L 206 581.5 L 202.5 582 L 201 580.5 L 201 573 L 199 572.5 L 201 572 L 201 570 Z "></path><path d="M 210.5 572 L 214 573.5 Q 216.3 580.3 209.5 578 L 210 579.5 Q 209.1 582.5 213.5 581 L 213.5 582 L 208 581 L 208 573.5 L 209.5 573 L 210.5 572 Z M 210 573 L 209 576 L 209 577 L 213 577 L 212 575 Q 213 572 210 573 Z "></path><path d="M 216.5 572 L 219.5 573 L 221.5 572 L 223 573.5 L 223 581.5 L 222 581.5 L 222 574.5 L 220 574 L 219.5 582 L 219 574 L 217 574.5 L 217 581.5 L 216 581.5 L 216.5 572 Z "></path><path d="M 226.5 572 L 230 572.5 L 226 574.5 L 231 578.5 L 228.5 582 L 225 581.5 L 229 581 Q 230.5 577.2 227.5 578 L 225 577 Q 224 573.2 226.5 572 Z "></path><path d="M 343 579 Q 347.5 577.5 346 582 Q 341.5 583.5 343 579 Z "></path><path d="M 154.5 585 L 156 585.5 Q 151.1 588.1 152 596.5 L 156 602.5 L 154.5 603 Q 149 600 151 589.5 L 154.5 585 Z "></path><path d="M 224.5 585 L 228 587.5 Q 230.5 591 229 598.5 L 225.5 603 L 224 602.5 Q 229.6 600.1 228 590.5 L 224.5 585 Z "></path><path d="M 185.5 586 L 189 586.5 L 185 588.5 L 184 590.5 L 189 592.5 Q 190.5 598.5 187.5 600 Q 183.5 600.5 183 597.5 Q 181.3 588.8 185.5 586 Z M 185 592 L 185 595 L 185 597 Q 184 600 187 599 Q 189 598 188 594 L 185 592 Z "></path><path d="M 192.5 586 Q 196.3 585.3 197 587.5 L 196 592.5 L 197 599 L 192.5 600 L 192.5 599 L 196 597.5 L 195 593 L 192 592.5 L 195 592 L 195 587 L 192.5 587 L 192.5 586 Z "></path><path d="M 208 586 Q 212.7 585 214 588.5 L 210 599 L 214 599.5 L 208 600 L 208 597.5 L 212 591.5 L 212 588.5 L 209.5 587 L 208 587.5 L 208 586 Z "></path><path d="M 218.5 586 L 222 587.5 L 223 595.5 L 220.5 600 Q 216.5 600.5 216 597.5 L 216 588.5 L 218.5 586 Z M 218 587 L 217 591 Q 216 595 218 597 Q 217 600 220 599 L 221 598 L 221 589 L 218 587 Z "></path><path d="M 334 586 L 339 586.5 L 335 587 Q 333.5 590.7 336.5 590 Q 340.3 591.3 339 597.5 Q 338.5 600.5 334.5 600 L 334.5 599 Q 338.3 600.3 337 596.5 L 338 594.5 L 335.5 591 L 334 591 L 334 586 Z "></path><path d="M 350.5 586 L 356 586 L 356 588.5 L 351.5 600 L 351 596.5 L 355 587.5 L 350.5 587 L 350.5 586 Z "></path><path d="M 359.5 586 Q 363.3 585.3 364 587.5 L 364 591.5 L 360 599 L 364 599.5 L 358 600 L 362 592.5 L 362 587 L 358.5 588 L 359.5 586 Z "></path><path d="M 115.5 588 L 123 588.5 L 120 589 L 120 599.5 L 118 600 L 118 589.5 L 115.5 589 L 115.5 588 Z "></path><path d="M 125 590 Q 128.8 589 130 591.5 Q 128.3 597.8 131 599.5 L 129.5 600 L 127.5 600 L 124 598.5 Q 123.5 594.5 126.5 594 Q 129.8 595.1 129 592.5 L 126.5 591 L 125 591.5 L 125 590 Z M 128 595 L 126 599 L 129 598 Q 130 594 128 595 Z "></path><path d="M 133.5 590 L 137 592.5 L 138.5 590 L 139 591.5 L 137 595.5 L 139 599.5 L 135 597.5 L 133.5 600 L 133 598.5 L 135 594.5 L 133.5 590 Z "></path><path d="M 159.5 590 Q 163.3 589.3 164 591.5 Q 165.8 598.3 162.5 600 Q 158.8 600.8 158 598.5 L 157 593.5 L 159.5 590 Z M 161 591 Q 158 592 159 598 L 162 599 Q 164 598 163 593 L 161 591 Z "></path><path d="M 166 590 L 168.5 591 L 170.5 590 L 172 591.5 L 172 599.5 L 171 599.5 Q 172.8 592.8 169.5 591 L 168 592.5 L 168 600 L 166 599.5 L 166 590 Z "></path><path d="M 201 597 Q 205.5 595.5 204 600 Q 199.5 601.5 201 597 Z "></path><path d="M 343 597 Q 347.5 595.5 346 600 Q 341.5 601.5 343 597 Z "></path><path d="M 189 605 Q 193.1 603.7 192 607 Q 187.9 608.3 189 605 Z "></path><path d="M 291.5 605 L 293 605.5 L 293 618 L 297.5 618 L 297.5 619 L 285 618.5 L 290 618 L 290 607 L 286.5 607 L 286.5 606 L 291.5 605 Z "></path><path d="M 308.5 605 L 309 618 L 315 618.5 L 301.5 619 L 301.5 618 L 307 618 L 307 607 L 303 606.5 L 308.5 605 Z "></path><path d="M 336.5 605 Q 343.8 603.8 346 607.5 L 343 611.5 L 346 613.5 Q 346.8 617.3 344.5 618 L 335.5 619 L 335.5 618 Q 342.5 619.5 344 615.5 L 341.5 612 L 337 611.5 Q 341.6 612.1 343 609.5 L 341.5 606 Q 335.5 607.2 336.5 605 Z "></path><path d="M 355.5 605 Q 361.3 604.2 363 607.5 L 360 611.5 L 364 614.5 L 361.5 618 L 354.5 619 L 351 616.5 Q 350.5 612 354 611.5 L 352 607.5 L 355.5 605 Z M 356 606 L 354 609 L 359 611 L 361 608 Q 360 605 356 606 Z M 356 612 L 353 616 Q 354 619 360 618 L 361 614 L 356 612 Z "></path><path d="M 105.5 607 L 112 607.5 L 103 609 L 102 614.5 Q 103.8 619.5 111 618 Q 113.1 612.8 108.5 614 L 108.5 613 Q 115.3 610.8 113 617.5 Q 111.5 620.5 105.5 619 L 99 614.5 Q 98.3 608.8 102.5 608 L 105.5 607 Z "></path><path d="M 154 607 Q 157.1 606.3 156.5 609 L 162.5 609 L 162.5 610 L 156 610 L 156 615.5 L 157 618 L 163 618.5 L 156.5 619 L 154 618 L 154 610 L 150.5 610 L 150.5 609 Q 155.3 610.3 154 607 Z "></path><path d="M 204 607 Q 208.3 606 207.5 609 L 212.5 609 L 212.5 610 L 207 610 L 207 618 L 214 618.5 L 207.5 619 L 204 616.5 L 204 610 L 201.5 610 L 201.5 609 Q 205.3 610 204 607 Z "></path><path d="M 119 609 Q 121.7 607.9 121 610.5 L 122.5 610 L 124 610.5 Q 119.5 612.3 121 619 L 119 618.5 L 119 609 Z "></path><path d="M 125.5 609 Q 131.8 607.1 130 612 Q 127 613 128 610 L 125.5 610 L 125.5 609 Z "></path><path d="M 136.5 609 Q 142.6 608.3 145 610 Q 143.2 616.1 146.5 618 L 148 618.5 L 144.5 619 L 142 617.5 L 143 614 L 138 613.5 L 143 613 L 141.5 610 Q 136.8 608.8 135.5 611 L 136.5 609 Z "></path><path d="M 167 609 L 170 609 L 170 616.5 L 173.5 618 L 177 615.5 Q 175.5 607.9 179 609 L 179 618.5 L 177 619 L 176.5 617 Q 174.8 619.8 169.5 619 Q 165.5 616.2 167 609 Z "></path><path d="M 184.5 609 L 192 609 L 192 619 L 189 619 L 189 610 L 184.5 610 L 184.5 609 Z "></path><path d="M 217 609 Q 220.8 607.5 220 610.5 L 223 616 Q 225.7 617.1 225 614.5 L 229.5 609 L 231 609.5 L 222.5 622 L 217.5 623 L 217.5 622 Q 221.3 622.8 222 620.5 L 223 618.5 L 217 609 Z "></path><path d="M 135.5 614 L 137 614.5 L 136 616.5 L 141 618.5 L 136.5 619 L 134 618 L 135.5 614 Z "></path><path d="M 322 616 Q 327.6 614.1 326 619 Q 320.4 620.9 322 616 Z "></path><path d="M 177.5 624 L 178.5 627 Q 179.8 624.8 181 627.5 L 178.5 628 L 176.5 628 L 174 627.5 L 177 626.5 L 177.5 624 Z "></path><path d="M 132 626 L 139 627 L 140 633.5 L 136.5 638 L 132 638 L 132 626 Z M 134 627 L 134 637 L 137 637 Q 139 635 138 629 L 134 627 Z "></path><path d="M 141 626 L 147 626.5 L 143 627 L 143 632 L 146.5 632 L 146.5 633 Q 140.8 631.4 143 637 L 148 637.5 L 141 638 L 141 626 Z "></path><path d="M 149 626 Q 152 624.8 151 628.5 L 152.5 632 L 154 626 L 156 626.5 L 156 637.5 L 155 637.5 L 154.5 631 L 152.5 635 L 150.5 631 L 149.5 638 L 149 626 Z "></path><path d="M 159.5 626 Q 163.3 625.3 164 627.5 L 165 634.5 L 162.5 638 Q 158.8 638.8 158 636.5 L 157 629.5 L 159.5 626 Z M 161 627 Q 157 629 159 636 L 162 637 Q 165 635 163 629 L 161 627 Z "></path><path d="M 190 626 Q 193 624.8 192 628.5 L 194.5 634 L 197.5 626 L 198 628.5 L 195 638 Q 192 639.3 193 635.5 L 190 626 Z "></path><path d="M 201.5 626 Q 205.5 625.5 206 628.5 Q 207.8 636.3 203.5 638 Q 199.5 638.5 199 635.5 Q 197.2 627.8 201.5 626 Z M 201 627 L 200 631 L 201 635 Q 200 639 204 637 L 205 635 Q 206 630 204 629 Q 205 626 201 627 Z "></path><path d="M 208.5 626 L 214 626.5 L 212 627 L 212 636.5 L 213.5 637 L 213.5 638 L 208 637.5 L 210 637 L 210 627.5 L 208.5 627 L 208.5 626 Z "></path><path d="M 216 626 Q 221.5 624.8 223 628.5 Q 224.8 636.3 220.5 638 L 216 638 L 216 626 Z M 218 627 L 218 637 L 220 637 Q 223 636 222 630 L 218 627 Z "></path><path d="M 235.5 626 L 239 626.5 L 234 629.5 Q 232.8 635.8 236.5 637 L 239 637.5 L 235.5 638 Q 231.3 636.7 232 630.5 L 235.5 626 Z "></path><path d="M 241.5 626 L 242 632 L 246 632 L 246 626 L 248 626 L 248 637.5 L 246 638 Q 248.4 630.9 242 633 L 241.5 638 L 241.5 626 Z "></path><path d="M 250 626 L 256 626.5 L 252 627 L 252 632 L 254.5 632 L 254.5 633 Q 249.9 631.8 252 637 L 256 637.5 L 250 638 L 250 626 Z "></path><path d="M 260.5 626 Q 265.9 624.1 265 627.5 L 263.5 627 L 260 628.5 L 259 633.5 L 261.5 637 L 265 637.5 L 260.5 638 Q 256.3 636.3 258 628.5 L 260.5 626 Z "></path><path d="M 266 626 Q 269.7 624.6 268 630.5 L 269 630.5 L 271 626 L 273 626.5 L 270 632.5 L 273 638 Q 270.3 639.1 271 636.5 L 268.5 633 L 268 638 L 266 637.5 L 266 626 Z "></path><path d="M 176.5 629 L 180 630.5 L 178.5 631 L 177 630.5 L 176.5 632 Q 173.5 630.5 176.5 629 Z "></path><path d="M 285 644 L 297 644 L 297 648.5 Q 290.5 657.6 289 671 Q 284.9 672.7 286 668.5 L 294 648 L 285 648 L 285 644 Z "></path><path d="M 301 644 L 313.5 644 L 314 647.5 Q 307.5 657.2 306 671 Q 301.1 672.8 303 666.5 L 311 648 L 301 648 L 301 644 Z "></path><path d="M 338.5 644 Q 343.6 643.4 345 646.5 L 346 651.5 L 342 656.5 L 345 658.5 L 346 667.5 L 343.5 671 L 337.5 672 L 335 671 Q 333.5 667.2 336.5 668 L 340.5 669 Q 343.8 667.3 344 662.5 L 340.5 658 Q 335.3 659.5 337 655 Q 341.7 656 343 652.5 Q 344 648 341.5 647 L 336.5 648 L 336 645 L 338.5 644 Z "></path><path d="M 354.5 644 Q 360.7 643.3 362 647.5 L 362 655.5 Q 356.2 659.7 354 667.5 L 362 668 L 361.5 671 L 351 671 L 353 663.5 L 360 653.5 L 360 649.5 Q 359.3 646.3 354.5 647 L 352 648 Q 350.5 644.3 353.5 645 L 354.5 644 Z "></path><path d="M 72.5 645 L 79 645.5 L 70 647 L 69 652.5 Q 71 657.5 79 656.5 L 72.5 657 L 66 652.5 Q 65.3 646.8 69.5 646 L 72.5 645 Z "></path><path d="M 88 645 Q 91.8 644.3 93 647.5 L 98 656.5 L 95.5 657 L 94 654 L 85.5 654 L 85 655.5 L 82 657 L 88 645 Z M 90 647 L 87 652 L 87 653 L 93 653 L 90 647 Z "></path><path d="M 104.5 645 L 111 645.5 L 104.5 646 L 103 647.5 Q 102.3 649.8 104.5 649 L 113 652.5 L 111.5 656 L 102.5 657 L 101.5 655 Q 103.3 657.7 109.5 656 L 111 653.5 L 101 650 L 102.5 646 L 104.5 645 Z "></path><path d="M 117 645 L 120 645 L 120 651 L 127 651 L 127 645 L 130 645 L 130 656.5 L 127 657 L 127 652 L 120 652 L 120 657 L 117 657 L 117 645 Z "></path><path d="M 149.5 645 L 165 645.5 L 158 646 L 158 656.5 L 156 657 L 156 646 L 149.5 646 L 149.5 645 Z "></path><path d="M 171.5 645 Q 177.7 644.3 180 647.5 L 181 652.5 L 178.5 656 L 171.5 657 L 167 654.5 L 166 649.5 L 168.5 646 L 171.5 645 Z M 172 646 Q 168 647 169 654 Q 170 657 176 656 Q 179 655 178 649 Q 177 645 172 646 Z "></path><path d="M 182.5 645 L 198 645.5 L 191 646 L 191 656.5 L 189 657 L 189 646 L 182.5 646 L 182.5 645 Z "></path><path d="M 205 645 Q 208.8 644.3 210 647.5 L 215 656.5 L 212.5 657 L 211 654 L 202.5 654 L 202 655.5 L 199 657 L 205 645 Z M 207 647 L 204 652 L 204 653 L 210 653 L 207 647 Z "></path><path d="M 218 645 L 221 645.5 L 221 656 L 229.5 656 L 229.5 657 L 218 657 L 218 645 Z "></path><path d="M 322 666 Q 328.4 663.9 326 671 Q 319.6 673.1 322 666 Z "></path><path d="M 149.5 682 L 165 682.5 L 158 683 L 158 693.5 L 156 694 L 156 683 L 149.5 683 L 149.5 682 Z "></path><path d="M 171.5 682 Q 177.7 681.3 180 684.5 L 181 689.5 L 178.5 693 L 171.5 694 L 167 691.5 L 166 686.5 L 168.5 683 L 171.5 682 Z M 172 683 Q 168 684 169 691 Q 170 694 176 693 Q 179 692 178 686 Q 177 682 172 683 Z "></path><path d="M 182.5 682 L 198 682.5 L 191 683 L 191 693.5 L 189 694 L 189 683 L 182.5 683 L 182.5 682 Z "></path><path d="M 205 682 Q 208.8 681.3 210 684.5 L 215 693.5 L 212.5 694 L 211 691 L 202.5 691 L 202 692.5 L 199 694 L 205 682 Z M 207 684 L 204 689 L 204 690 L 210 690 L 207 684 Z "></path><path d="M 218 682 L 221 682.5 L 221 693 L 229.5 693 L 229.5 694 L 218 694 L 218 682 Z "></path><path d="M 289.5 682 L 295 683 Q 296.6 685.1 296 690.5 L 293 694.5 L 297 699.5 L 297 705.5 L 292.5 710 L 288.5 710 Q 283.1 708.4 284 700.5 L 288 694.5 Q 284.8 692.7 285 687.5 L 287.5 683 L 289.5 682 Z M 290 685 L 288 687 Q 287 692 291 693 L 294 691 L 293 687 Q 294 683 290 685 Z M 290 696 L 287 700 Q 286 706 290 707 Q 293 708 294 706 L 294 701 L 290 696 Z "></path><path d="M 305.5 682 Q 311.3 681.3 312 685.5 Q 315.6 690.9 314 701.5 Q 312.8 707.3 308.5 710 Q 302.8 710.8 302 706.5 L 300 699.5 L 300 692.5 L 302 685.5 L 305.5 682 Z M 307 685 L 303 691 Q 302 699 304 705 Q 305 708 309 707 L 311 704 L 311 689 L 310 687 L 307 685 Z "></path><path d="M 338.5 682 Q 343.6 681.4 345 684.5 L 346 689.5 L 342 694.5 L 345 696.5 L 346 705.5 L 343.5 709 L 337.5 710 L 335 709 Q 333.5 705.3 336.5 706 L 340.5 707 Q 343.8 705.3 344 700.5 L 340.5 696 Q 335.3 697.5 337 693 Q 341.7 694 343 690.5 Q 344 686 341.5 685 L 336.5 686 L 336 683 L 338.5 682 Z "></path><path d="M 355.5 682 Q 361.3 681.3 362 685.5 Q 365.6 690.9 364 701.5 Q 362.8 707.3 358.5 710 Q 352.8 710.8 352 706.5 L 350 699.5 L 350 692.5 L 352 685.5 L 355.5 682 Z M 357 685 L 353 691 Q 352 699 354 705 Q 355 708 359 707 L 361 704 L 361 689 L 360 687 L 357 685 Z "></path><path d="M 322 704 Q 328.4 701.9 326 709 Q 319.6 711.1 322 704 Z "></path><path d="M 84 735 L 86 735.5 L 86 791 L 84 790.5 L 84 735 Z "></path><path d="M 89.5 735 L 90 790.5 L 89 790.5 L 89.5 735 Z "></path><path d="M 91 735 L 94 735.5 L 94 791 L 91 790.5 L 91 735 Z "></path><path d="M 96 735 L 99 735.5 L 99 791 L 96 790.5 L 96 735 Z "></path><path d="M 101 735 L 103 735.5 L 103 791 L 101 790.5 L 101 735 Z "></path><path d="M 104 735 L 106 735.5 L 106 791 L 104 790.5 L 104 735 Z "></path><path d="M 107 735 L 109 735.5 L 109 791 L 107 790.5 L 107 735 Z "></path><path d="M 110 735 L 113 735.5 L 113 791 L 110 790.5 L 110 735 Z "></path><path d="M 114 735 L 117 735.5 L 117 791 L 114 790.5 L 114 735 Z "></path><path d="M 120 735 L 122 735.5 L 122 791 L 120 790.5 L 120 735 Z "></path><path d="M 123 735 L 125 735.5 L 125 791 L 123 790.5 L 123 735 Z "></path><path d="M 128.5 735 L 129 790.5 L 128 790.5 L 128.5 735 Z "></path><path d="M 132 735 L 134 735.5 L 134 791 L 132 790.5 L 132 735 Z "></path><path d="M 135.5 735 L 136 790.5 L 135 790.5 L 135.5 735 Z "></path><path d="M 139 735 L 141 735.5 L 141 791 L 139 790.5 L 139 735 Z "></path><path d="M 142 735 L 144 735.5 L 144 791 L 142 790.5 L 142 735 Z "></path><path d="M 145 735 L 147 735.5 L 147 791 L 145 790.5 L 145 735 Z "></path><path d="M 150.5 735 L 151 790.5 L 150 790.5 L 150.5 735 Z "></path><path d="M 152 735 L 155 735.5 L 155 791 L 152 790.5 L 152 735 Z "></path><path d="M 157 735 L 160 735.5 L 160 791 L 157 790.5 L 157 735 Z "></path><path d="M 161 735 L 164 735.5 L 164 791 L 161 790.5 L 161 735 Z "></path><path d="M 166 735 L 169 735.5 L 169 791 L 166 790.5 L 166 735 Z "></path><path d="M 170.5 735 L 171 790.5 L 170 790.5 L 170.5 735 Z "></path><path d="M 173.5 735 L 174 790.5 L 173 790.5 L 173.5 735 Z "></path><path d="M 177 735 L 179 735.5 L 179 791 L 177 790.5 L 177 735 Z "></path><path d="M 180 735 L 183 735.5 L 183 791 L 180 790.5 L 180 735 Z "></path><path d="M 185 735 L 188 735.5 L 188 791 L 185 790.5 L 185 735 Z "></path><path d="M 189.5 735 L 190 790.5 L 189 790.5 L 189.5 735 Z "></path><path d="M 193 735 L 195 735.5 L 195 791 L 193 790.5 L 193 735 Z "></path><path d="M 196 735 L 198 735.5 L 198 791 L 196 790.5 L 196 735 Z "></path><path d="M 199 735 L 201 735.5 L 201 791 L 199 790.5 L 199 735 Z "></path><path d="M 202 735 L 205 735.5 L 205 791 L 202 790.5 L 202 735 Z "></path><path d="M 208 735 L 210 735.5 L 210 791 L 208 790.5 L 208 735 Z "></path><path d="M 211 735 L 213 735.5 L 213 791 L 211 790.5 L 211 735 Z "></path><path d="M 214 735 L 217 735.5 L 217 791 L 214 790.5 L 214 735 Z "></path><path d="M 218 735 L 221 735.5 L 221 791 L 218 790.5 L 218 735 Z "></path><path d="M 223 735 L 226 735.5 L 226 791 L 223 790.5 L 223 735 Z "></path><path d="M 227 735 L 229 735.5 L 229 791 L 227 790.5 L 227 735 Z "></path><path d="M 231 735 L 233 735.5 L 233 791 L 231 790.5 L 231 735 Z "></path><path d="M 234 735 L 236 735.5 L 236 791 L 234 790.5 L 234 735 Z "></path><path d="M 237 735 L 239 735.5 L 239 791 L 237 790.5 L 237 735 Z "></path><path d="M 240 735 L 242 735.5 L 242 791 L 240 790.5 L 240 735 Z "></path><path d="M 245 735 L 248 735.5 L 248 791 L 245 790.5 L 245 735 Z "></path><path d="M 249 735 L 252 735.5 L 252 791 L 249 790.5 L 249 735 Z "></path><path d="M 253 735 L 255 735.5 L 255 791 L 253 790.5 L 253 735 Z "></path><path d="M 256 735 L 259 735.5 L 259 791 L 256 790.5 L 256 735 Z "></path><path d="M 261.5 735 L 262 790.5 L 261 790.5 L 261.5 735 Z "></path><path d="M 264.5 735 L 265 790.5 L 264 790.5 L 264.5 735 Z "></path><path d="M 268 735 L 271 735.5 L 271 791 L 268 790.5 L 268 735 Z "></path><path d="M 272 735 L 274 735.5 L 274 791 L 272 790.5 L 272 735 Z "></path><path d="M 275 735 L 278 735.5 L 278 791 L 275 790.5 L 275 735 Z "></path><path d="M 281 735 L 283 735.5 L 283 791 L 281 790.5 L 281 735 Z "></path><path d="M 284 735 L 286 735.5 L 286 791 L 284 790.5 L 284 735 Z "></path><path d="M 287 735 L 289 735.5 L 289 791 L 287 790.5 L 287 735 Z "></path><path d="M 290 735 L 293 735.5 L 293 791 L 290 790.5 L 290 735 Z "></path><path d="M 294 735 L 296 735.5 L 296 791 L 294 790.5 L 294 735 Z "></path><path d="M 299.5 735 L 300 790.5 L 299 790.5 L 299.5 735 Z "></path><path d="M 302 735 L 305 735.5 L 305 791 L 302 790.5 L 302 735 Z "></path><path d="M 306 735 L 309 735.5 L 309 791 L 306 790.5 L 306 735 Z "></path><path d="M 310 735 L 312 735.5 L 312 791 L 310 790.5 L 310 735 Z "></path></svg>