<?xml version="1.0" standalone="no"?>
<!DOCTYPE svg PUBLIC "-//W3C//DTD SVG 20010904//EN"
 "http://www.w3.org/TR/2001/REC-SVG-20010904/DTD/svg10.dtd">
<svg version="1.0" xmlns="http://www.w3.org/2000/svg"
 width="864.000000pt" height="1310.000000pt" viewBox="0 0 864.000000 1310.000000"
 preserveAspectRatio="xMidYMid meet">
<metadata>
Created by potrace 1.16, written by Peter Selinger 2001-2019
</metadata>
<g transform="translate(0.000000,1310.000000) scale(0.100000,-0.100000)"
fill="#000000" stroke="none">
<path d="M2262 12490 c-37 -23 -52 -54 -52 -108 0 -49 29 -83 110 -130 57 -32
65 -42 68 -70 3 -27 -1 -34 -25 -43 -27 -10 -58 -7 -140 17 -21 6 -23 3 -23
-29 0 -44 20 -57 100 -64 67 -6 118 8 151 43 18 19 23 36 23 78 1 66 -19 92
-108 139 -69 37 -88 67 -61 97 21 23 62 26 109 6 32 -13 34 -13 45 10 6 14 11
31 11 38 0 38 -153 49 -208 16z"/>
<path d="M2620 12290 l0 -220 40 0 39 0 3 93 3 92 88 3 87 3 0 -96 0 -95 45 0
45 0 -2 218 -3 217 -42 3 -43 3 0 -91 0 -91 -87 3 -88 3 -3 88 -3 87 -39 0
-40 0 0 -220z"/>
<path d="M3219 12487 c-66 -35 -94 -97 -93 -202 2 -118 33 -175 116 -210 73
-30 184 -10 230 41 57 64 71 215 27 300 -33 64 -88 94 -174 94 -45 0 -74 -6
-106 -23z m165 -62 c34 -22 51 -70 51 -140 -1 -76 -20 -115 -68 -139 -34 -16
-42 -17 -74 -5 -57 22 -78 59 -78 137 0 79 18 127 54 147 35 19 86 19 115 0z"/>
<path d="M3680 12290 l0 -220 45 0 45 0 0 74 0 73 68 11 c57 10 72 16 100 46
29 32 32 42 32 95 0 105 -55 141 -214 141 l-76 0 0 -220z m193 119 c22 -28 22
-50 -4 -83 -16 -20 -29 -26 -60 -26 l-39 0 0 71 0 72 43 -7 c24 -4 49 -15 60
-27z"/>
<path d="M4340 12290 l0 -220 41 0 42 0 -5 165 c-3 91 -4 165 -2 165 3 0 83
-141 147 -260 l36 -65 61 -3 60 -3 -2 218 -3 218 -38 3 -38 3 3 -165 c2 -91 1
-166 -2 -166 -5 0 -45 68 -140 238 l-51 92 -55 0 -54 0 0 -220z"/>
<path d="M4915 12304 c-38 -114 -71 -214 -73 -221 -3 -9 9 -13 42 -13 l45 0
14 48 14 47 83 0 83 0 13 -46 c14 -46 15 -47 59 -51 26 -2 45 1 44 7 0 5 -33
105 -72 220 l-72 210 -55 3 -55 3 -70 -207z m157 39 l25 -88 -29 -3 c-15 -2
-41 -2 -56 0 l-29 3 25 88 c14 48 29 87 32 87 3 0 18 -39 32 -87z"/>
<path d="M5370 12290 l0 -220 41 0 42 0 -5 170 c-3 94 -4 170 -2 170 1 0 14
-37 28 -82 13 -46 36 -123 51 -171 l27 -88 41 3 41 3 51 162 c28 89 54 166 59
170 4 4 6 -70 4 -165 l-3 -172 43 0 42 0 -2 218 -3 217 -61 3 c-60 3 -62 2
-68 -25 -22 -87 -99 -314 -105 -306 -4 4 -20 51 -35 103 -15 52 -37 125 -48
163 l-20 67 -59 0 -59 0 0 -220z"/>
<path d="M6007 12503 c-4 -3 -7 -102 -7 -220 l0 -213 123 0 123 0 -4 35 -4 35
-74 0 -74 0 0 60 0 60 70 0 70 0 0 35 0 35 -71 0 -70 0 3 53 3 52 75 3 76 3
-4 34 -4 35 -112 0 c-62 0 -116 -3 -119 -7z"/>
<path d="M1880 11860 c0 -47 -11 -63 -25 -40 -11 18 -61 11 -83 -13 -32 -34
-31 -115 1 -145 27 -25 69 -29 87 -7 11 13 14 13 26 -2 11 -15 13 3 14 120 0
85 -4 137 -10 137 -5 0 -10 -22 -10 -50z m-18 -67 c23 -21 24 -89 1 -115 -37
-41 -93 -7 -93 57 0 63 51 95 92 58z"/>
<path d="M2120 11860 c0 -47 -11 -63 -25 -40 -8 13 -51 13 -75 0 -29 -16 -43
-71 -30 -120 14 -52 46 -70 93 -52 21 8 33 9 35 2 2 -5 8 -10 13 -10 5 0 9 60
9 135 0 83 -4 135 -10 135 -5 0 -10 -22 -10 -50z m-19 -67 c8 -9 14 -35 14
-58 0 -49 -18 -75 -51 -75 -35 0 -54 26 -54 75 0 49 19 75 54 75 13 0 30 -7
37 -17z"/>
<path d="M1559 11863 c-59 -153 -80 -215 -74 -221 4 -4 9 -2 11 3 2 6 12 26
22 45 16 32 21 35 62 35 43 0 46 -2 64 -42 17 -38 37 -57 36 -35 -2 24 -88
236 -98 240 -7 2 -17 -9 -23 -25z m36 -40 c33 -78 32 -83 -15 -83 -28 0 -40 4
-38 13 2 6 10 33 18 60 8 26 15 47 17 47 1 0 10 -17 18 -37z"/>
<path d="M3280 11765 l0 -125 65 0 c51 0 65 3 65 15 0 12 -13 15 -55 15 l-55
0 0 110 c0 67 -4 110 -10 110 -6 0 -10 -48 -10 -125z"/>
<path d="M4600 11765 c0 -77 4 -125 10 -125 6 0 10 48 10 125 0 77 -4 125 -10
125 -6 0 -10 -48 -10 -125z"/>
<path d="M5991 11876 c-10 -11 -3 -14 41 -12 l53 1 3 -37 c3 -32 -3 -43 -57
-101 -34 -35 -61 -70 -61 -76 0 -7 28 -11 80 -11 64 0 80 3 80 15 0 12 -13 15
-61 15 l-61 0 50 55 c58 63 72 104 48 140 -13 20 -25 25 -60 25 -25 0 -48 -6
-55 -14z"/>
<path d="M6223 11883 c-28 -11 -10 -19 40 -18 50 0 52 -1 55 -30 4 -33 -18
-55 -55 -55 -13 0 -23 -4 -23 -10 0 -5 12 -10 26 -10 60 0 85 -48 44 -85 -15
-14 -29 -16 -65 -12 -26 4 -45 3 -45 -3 0 -25 106 -24 136 1 8 6 14 29 14 50
0 32 -5 42 -24 50 l-23 11 23 24 c28 27 30 41 8 72 -12 17 -25 22 -57 21 -23
0 -48 -3 -54 -6z"/>
<path d="M6616 11864 c-15 -14 -26 -28 -22 -31 3 -3 14 1 24 10 10 10 22 17
25 17 4 0 7 -49 7 -110 0 -67 4 -110 10 -110 6 0 10 48 10 125 0 137 -3 143
-54 99z"/>
<path d="M6824 11864 c-36 -55 -25 -192 17 -214 31 -17 70 -8 92 22 27 36 29
138 4 186 -15 28 -23 32 -57 32 -31 0 -43 -5 -56 -26z m96 -13 c16 -31 12
-143 -6 -169 -52 -75 -121 53 -81 151 14 31 21 37 46 37 20 0 34 -7 41 -19z"/>
<path d="M2240 11738 c0 -59 4 -98 10 -98 6 0 10 28 10 65 0 70 20 105 60 105
11 0 20 5 20 10 0 15 -33 12 -55 -4 -17 -12 -21 -12 -32 3 -10 13 -12 -1 -13
-81z"/>
<path d="M2425 11805 c-19 -18 -25 -35 -25 -70 0 -73 58 -114 124 -89 30 12
16 22 -23 17 -31 -4 -43 -1 -60 16 -37 37 -28 50 42 53 60 3 62 4 59 28 -10
70 -70 93 -117 45z m83 -7 c7 -7 12 -20 12 -30 0 -15 -9 -18 -50 -18 -54 0
-58 4 -34 38 17 24 53 29 72 10z"/>
<path d="M2636 11811 c-25 -28 -13 -55 34 -76 53 -24 66 -40 49 -61 -10 -12
-25 -15 -56 -11 -42 4 -58 -5 -27 -17 48 -18 114 10 114 48 0 16 -46 56 -65
56 -6 0 -19 8 -29 19 -15 16 -15 19 -1 31 9 8 29 10 51 7 25 -4 34 -2 31 6 -2
7 -21 13 -43 15 -30 2 -45 -2 -58 -17z"/>
<path d="M2837 11817 c-30 -22 -18 -59 27 -82 76 -39 72 -81 -7 -71 -26 3 -37
1 -34 -7 6 -19 82 -20 101 -2 32 32 20 62 -35 90 -64 33 -65 60 -1 60 23 0 41
4 39 10 -5 16 -70 17 -90 2z"/>
<path d="M3022 11813 c5 -25 28 -28 28 -4 0 12 -6 21 -16 21 -9 0 -14 -7 -12
-17z"/>
<path d="M3493 11804 c-22 -22 -25 -32 -20 -77 3 -37 11 -56 27 -69 29 -23 72
-23 101 1 20 16 24 28 24 76 0 48 -4 60 -24 76 -33 27 -77 24 -108 -7z m103
-19 c18 -28 14 -85 -7 -111 -16 -19 -63 -18 -80 3 -8 9 -14 35 -14 58 0 23 6
49 14 58 21 26 68 21 87 -8z"/>
<path d="M3731 11828 c-6 -28 -1 -178 6 -180 4 -2 9 26 11 62 3 68 20 100 54
100 10 0 18 5 18 10 0 15 -36 12 -50 -5 -16 -20 -27 -19 -33 3 -3 9 -5 14 -6
10z"/>
<path d="M3918 11819 c-26 -15 -42 -83 -28 -123 14 -45 67 -68 114 -50 29 11
16 23 -19 17 -40 -6 -75 16 -75 49 0 15 8 18 60 18 59 0 60 0 60 28 0 55 -63
90 -112 61z m76 -25 c31 -30 20 -44 -34 -44 -52 0 -58 7 -40 41 13 23 53 25
74 3z"/>
<path d="M4120 11735 c0 -57 4 -95 10 -95 6 0 10 26 10 58 0 69 17 106 50 110
36 6 50 -22 50 -100 0 -39 4 -68 10 -68 6 0 10 31 10 73 0 80 9 97 51 97 34 0
39 -14 39 -102 0 -49 4 -68 12 -66 16 6 14 154 -2 173 -16 19 -60 19 -87 0
-18 -13 -22 -13 -33 0 -15 18 -61 20 -79 3 -11 -10 -14 -10 -18 0 -13 36 -23
1 -23 -83z"/>
<path d="M4720 11695 c0 -83 4 -135 10 -135 6 0 10 23 10 50 0 47 11 63 25 40
11 -17 64 -11 85 10 15 15 20 33 20 75 0 42 -5 60 -20 75 -22 22 -69 26 -89 8
-11 -10 -14 -10 -18 0 -3 6 -9 12 -14 12 -5 0 -9 -60 -9 -135z m112 98 c25
-23 25 -94 -1 -117 -43 -39 -97 6 -87 72 9 60 49 81 88 45z"/>
<path d="M4966 11811 c-26 -29 -12 -57 40 -81 37 -16 45 -24 42 -42 -3 -20 -8
-23 -50 -22 -48 0 -62 -8 -32 -20 48 -18 114 10 114 48 0 17 -46 56 -66 56 -7
0 -20 7 -29 16 -25 26 0 47 48 41 26 -4 37 -2 34 6 -2 7 -21 13 -43 15 -30 2
-45 -2 -58 -17z"/>
<path d="M5160 11745 c0 -73 3 -86 19 -95 26 -13 64 -13 79 2 8 8 15 8 27 -2
13 -11 15 -2 15 84 0 57 -4 96 -10 96 -6 0 -10 -29 -10 -68 0 -74 -16 -102
-56 -102 -35 0 -44 21 -44 97 0 42 -4 73 -10 73 -6 0 -10 -35 -10 -85z"/>
<path d="M5405 11819 c-10 -25 -1 -174 10 -174 6 0 11 31 13 70 3 75 13 95 46
95 37 0 46 -19 46 -97 0 -42 4 -73 10 -73 6 0 10 28 10 63 0 72 18 107 56 107
31 0 44 -32 44 -111 0 -33 4 -59 10 -59 17 0 12 142 -6 168 -17 25 -60 29 -89
8 -16 -11 -21 -11 -33 0 -17 17 -64 18 -80 2 -10 -10 -15 -10 -22 2 -8 12 -10
12 -15 -1z"/>
<path d="M6430 11740 c0 -5 16 -10 35 -10 19 0 35 5 35 10 0 6 -16 10 -35 10
-19 0 -35 -4 -35 -10z"/>
<path d="M3020 11660 c0 -11 7 -20 15 -20 8 0 15 9 15 20 0 11 -7 20 -15 20
-8 0 -15 -9 -15 -20z"/>
<path d="M5745 11668 c-8 -29 -12 -68 -5 -68 9 0 30 46 30 65 0 18 -19 20 -25
3z"/>
<path d="M3290 11356 c0 -84 4 -136 10 -136 6 0 10 50 10 129 0 76 -4 132 -10
136 -6 4 -10 -42 -10 -129z"/>
<path d="M2810 11460 c0 -5 18 -10 40 -10 l40 0 0 -115 c0 -70 4 -115 10 -115
6 0 10 45 10 115 l0 115 40 0 c22 0 40 5 40 10 0 6 -37 10 -90 10 -53 0 -90
-4 -90 -10z"/>
<path d="M3926 11444 c-15 -14 -26 -28 -22 -31 3 -3 15 2 26 12 24 22 23 26
20 -102 -2 -89 0 -103 14 -103 14 0 16 17 16 125 0 137 -3 143 -54 99z"/>
<path d="M4155 11445 c-16 -13 -26 -27 -22 -31 4 -4 16 1 27 11 20 18 20 18
20 -93 0 -89 3 -112 14 -112 11 0 13 18 10 93 -2 50 -4 107 -4 125 0 38 -6 39
-45 7z"/>
<path d="M4357 11459 c-24 -14 -12 -32 13 -19 31 17 68 12 80 -10 16 -30 6
-52 -56 -125 -30 -35 -54 -68 -54 -74 0 -7 28 -11 75 -11 43 0 75 4 75 10 0 6
-27 10 -60 10 -33 0 -60 4 -60 8 0 4 18 26 41 47 69 67 87 125 51 158 -21 19
-77 22 -105 6z"/>
<path d="M4584 11456 c-10 -8 -16 -18 -12 -22 4 -4 14 -1 22 5 8 7 30 11 48 9
30 -3 33 -6 36 -40 3 -33 -3 -44 -57 -102 -34 -36 -61 -70 -61 -76 0 -6 32
-10 80 -10 47 0 80 4 80 10 0 6 -27 10 -60 10 -33 0 -60 4 -60 8 0 4 18 25 40
47 40 39 70 90 70 119 0 46 -82 73 -126 42z"/>
<path d="M4813 11463 c-7 -2 -13 -11 -13 -18 0 -10 6 -11 28 -3 16 6 41 8 55
4 22 -5 27 -12 27 -36 0 -31 -22 -50 -59 -50 -12 0 -21 -4 -21 -10 0 -5 13
-10 29 -10 53 0 79 -50 44 -85 -12 -13 -28 -16 -65 -13 -26 3 -48 2 -48 -2 0
-24 96 -27 128 -4 30 21 30 77 1 98 l-21 14 21 23 c26 29 27 53 1 79 -19 19
-76 26 -107 13z"/>
<path d="M5037 11459 c-24 -14 -12 -32 13 -19 42 22 90 6 90 -30 0 -23 -32
-50 -58 -50 -11 0 -24 -4 -27 -10 -4 -6 6 -10 22 -10 35 0 73 -25 73 -49 0
-34 -35 -54 -85 -49 -32 4 -45 2 -42 -6 2 -6 27 -12 55 -14 41 -2 55 1 71 17
29 29 27 76 -3 96 l-24 16 23 23 c26 26 25 61 -3 84 -19 15 -80 15 -105 1z"/>
<path d="M5295 11388 c-30 -46 -55 -88 -55 -95 0 -8 21 -13 58 -15 55 -3 57
-4 55 -30 -1 -19 3 -28 12 -28 10 0 15 10 15 30 0 20 5 30 15 30 8 0 15 5 15
10 0 6 -7 10 -15 10 -12 0 -15 16 -15 85 0 110 -12 111 -85 3z m61 -20 l-1
-63 -48 -3 -48 -3 43 65 c24 36 46 66 49 66 4 0 6 -28 5 -62z"/>
<path d="M5525 11390 c-79 -113 -79 -110 -6 -110 l61 0 0 -30 c0 -20 5 -30 15
-30 10 0 15 10 15 30 0 20 5 30 15 30 8 0 15 5 15 10 0 6 -7 10 -15 10 -12 0
-15 16 -15 85 0 67 -3 85 -14 85 -8 0 -40 -36 -71 -80z m57 -24 l-4 -66 -45 0
-45 0 21 33 c12 17 32 49 44 69 12 20 24 35 27 33 3 -2 3 -33 2 -69z"/>
<path d="M3075 11385 c-19 -18 -25 -35 -25 -70 0 -35 6 -52 25 -70 25 -26 77
-33 105 -15 11 7 2 10 -32 10 -37 0 -50 5 -62 22 -28 40 -21 48 42 48 32 0 61
3 64 6 10 9 -11 68 -29 82 -26 19 -62 14 -88 -13z m79 -11 c31 -30 20 -44 -34
-44 -54 0 -58 4 -34 38 18 26 46 28 68 6z"/>
<path d="M3408 11404 c-5 -4 -8 -65 -8 -136 0 -111 2 -128 16 -128 13 0 15 9
12 50 -3 47 3 62 17 40 3 -5 21 -10 40 -10 51 0 78 40 72 104 -7 75 -61 108
-114 71 -19 -14 -22 -13 -25 1 -2 9 -6 12 -10 8z m106 -30 c18 -18 21 -85 6
-115 -12 -22 -59 -26 -78 -7 -20 20 -15 115 6 127 25 15 48 13 66 -5z"/>
<path d="M3636 11245 c-3 -9 1 -18 10 -22 19 -7 28 2 21 22 -8 19 -23 19 -31
0z"/>
<path d="M500 10599 c0 -29 -2 -30 -30 -24 -23 5 -30 3 -30 -9 0 -10 9 -16 25
-16 29 0 30 -3 9 -34 -10 -16 -12 -26 -5 -31 6 -3 16 5 23 19 14 33 22 33 37
-1 9 -19 15 -23 23 -15 9 9 7 16 -5 30 -23 25 -21 30 8 34 35 4 27 24 -7 20
-25 -2 -28 1 -28 28 0 16 -4 30 -10 30 -5 0 -10 -14 -10 -31z"/>
<path d="M820 10599 c0 -29 -2 -30 -30 -24 -23 5 -30 3 -30 -9 0 -10 9 -16 25
-16 29 0 30 -3 9 -34 -10 -16 -12 -26 -5 -31 6 -3 16 5 23 19 14 33 22 33 37
-1 9 -19 15 -23 23 -15 9 9 7 16 -5 30 -23 25 -21 30 10 34 14 2 28 9 31 16 3
10 -4 12 -32 7 -35 -7 -36 -6 -36 24 0 17 -4 31 -10 31 -5 0 -10 -14 -10 -31z"/>
<path d="M1140 10599 c0 -29 -2 -30 -30 -24 -23 5 -30 3 -30 -9 0 -10 9 -16
25 -16 28 0 30 -7 10 -34 -8 -10 -12 -23 -9 -27 10 -16 22 -9 28 16 8 32 19
32 36 0 9 -17 17 -22 24 -15 6 6 4 16 -7 28 -23 25 -21 30 10 34 14 2 28 9 31
16 3 10 -4 12 -32 7 -35 -7 -36 -6 -36 24 0 17 -4 31 -10 31 -5 0 -10 -14 -10
-31z"/>
<path d="M1470 10599 c0 -29 -2 -30 -30 -24 -23 5 -30 3 -30 -9 0 -10 9 -16
25 -16 29 0 30 -3 9 -34 -10 -16 -12 -26 -5 -31 6 -3 16 5 23 19 14 33 22 33
37 -1 9 -19 15 -23 23 -15 9 9 7 16 -5 30 -23 25 -21 30 10 34 14 2 28 9 31
16 3 10 -4 12 -32 7 -35 -7 -36 -6 -36 24 0 17 -4 31 -10 31 -5 0 -10 -14 -10
-31z"/>
<path d="M1790 10599 c0 -29 -2 -30 -30 -24 -23 5 -30 3 -30 -9 0 -10 9 -16
25 -16 28 0 30 -7 10 -34 -8 -10 -12 -23 -9 -27 10 -16 22 -9 28 16 8 32 20
32 35 -2 9 -19 15 -23 23 -15 9 9 7 16 -5 30 -23 25 -21 30 10 34 14 2 28 9
31 16 3 10 -4 12 -32 7 -35 -7 -36 -6 -36 24 0 17 -4 31 -10 31 -5 0 -10 -14
-10 -31z"/>
<path d="M2112 10599 c5 -30 4 -30 -29 -24 -26 5 -33 3 -33 -10 0 -9 9 -15 25
-15 28 0 30 -7 10 -34 -8 -10 -12 -23 -9 -27 10 -16 22 -9 28 16 8 33 24 32
37 -2 7 -18 13 -23 20 -16 8 8 6 18 -6 36 -16 25 -16 26 11 29 15 2 29 9 32
16 3 10 -5 12 -33 6 -38 -7 -38 -7 -33 25 3 22 1 31 -10 31 -10 0 -13 -9 -10
-31z"/>
<path d="M2440 10599 c0 -29 -2 -30 -30 -24 -23 5 -30 3 -30 -9 0 -10 9 -16
25 -16 29 0 30 -3 9 -34 -10 -16 -12 -26 -5 -31 6 -3 16 5 23 19 14 33 22 33
37 -1 9 -19 15 -23 23 -15 9 9 7 16 -5 30 -23 25 -21 30 10 34 14 2 28 9 31
16 3 10 -4 12 -32 7 -35 -7 -36 -6 -36 24 0 17 -4 31 -10 31 -5 0 -10 -14 -10
-31z"/>
<path d="M2760 10599 c0 -29 -2 -30 -30 -24 -23 5 -30 3 -30 -9 0 -10 9 -16
25 -16 28 0 30 -7 10 -34 -8 -10 -12 -23 -9 -27 10 -16 22 -9 28 16 8 32 19
32 36 0 8 -15 17 -22 23 -16 5 5 2 19 -8 34 -16 25 -16 26 11 29 15 2 29 9 32
16 3 10 -4 12 -32 7 -35 -7 -36 -6 -36 24 0 17 -4 31 -10 31 -5 0 -10 -14 -10
-31z"/>
<path d="M3084 10599 c6 -31 6 -31 -29 -25 -28 6 -35 4 -35 -9 0 -10 10 -15
31 -15 l30 0 -20 -26 c-11 -15 -18 -30 -15 -35 10 -17 24 -9 30 16 8 32 20 32
37 -1 9 -17 17 -23 21 -16 4 6 0 22 -9 36 -16 24 -16 25 11 28 15 2 29 9 32
16 3 10 -5 12 -33 6 -38 -7 -38 -7 -33 25 3 22 1 31 -10 31 -11 0 -13 -8 -8
-31z"/>
<path d="M3404 10599 c6 -31 6 -31 -30 -24 -28 5 -35 3 -32 -7 3 -7 17 -14 31
-16 l27 -3 -20 -29 c-17 -23 -18 -29 -5 -34 10 -3 17 3 21 19 8 32 20 32 37
-1 9 -18 16 -23 21 -15 4 7 1 23 -8 36 -15 23 -15 24 11 27 15 2 28 9 31 16 3
10 -5 12 -33 6 l-38 -7 6 32 c5 24 3 31 -9 31 -13 0 -15 -7 -10 -31z"/>
<path d="M3732 10599 c5 -30 4 -30 -29 -24 -26 5 -33 3 -33 -10 0 -9 9 -15 25
-15 28 0 30 -7 10 -34 -8 -10 -12 -23 -9 -27 10 -16 22 -9 28 16 8 32 22 32
39 -1 9 -17 17 -23 21 -16 4 6 0 22 -9 36 -16 24 -16 25 11 28 15 2 29 9 32
16 3 10 -5 12 -33 6 -38 -7 -38 -7 -33 25 3 22 1 31 -10 31 -10 0 -13 -9 -10
-31z"/>
<path d="M4054 10599 c6 -31 6 -31 -29 -25 -28 6 -35 4 -35 -9 0 -10 10 -15
31 -15 l30 0 -21 -27 c-16 -20 -18 -28 -8 -35 9 -5 16 0 22 17 12 32 22 32 39
-1 9 -18 16 -23 21 -15 4 7 1 23 -8 36 -15 23 -15 24 11 27 15 2 28 9 31 16 3
10 -5 12 -33 6 l-38 -7 6 32 c5 24 3 31 -9 31 -13 0 -15 -7 -10 -31z"/>
<path d="M4375 10599 l7 -32 -37 7 c-28 6 -36 4 -33 -6 3 -7 17 -14 31 -16
l27 -3 -20 -29 c-17 -24 -18 -29 -5 -34 8 -3 15 -2 15 2 0 5 6 17 14 27 14 19
15 19 26 -7 8 -16 18 -24 26 -21 11 4 10 11 -6 33 l-20 29 27 3 c14 2 28 9 31
16 3 10 -5 12 -33 6 l-38 -7 6 32 c5 24 3 31 -9 31 -12 0 -14 -7 -9 -31z"/>
<path d="M4704 10599 c6 -31 6 -31 -29 -25 -28 6 -35 4 -35 -9 0 -10 10 -15
31 -15 l30 0 -20 -26 c-11 -15 -18 -30 -15 -35 10 -17 24 -9 30 16 8 32 21 32
35 1 7 -14 17 -22 25 -19 11 4 10 11 -6 33 l-20 29 27 3 c14 2 28 9 31 16 3
10 -5 12 -33 6 l-38 -7 6 32 c5 24 3 31 -9 31 -13 0 -15 -7 -10 -31z"/>
<path d="M5024 10599 c6 -31 6 -31 -29 -25 -28 6 -35 4 -35 -9 0 -10 10 -15
31 -15 l30 0 -20 -29 c-18 -24 -19 -30 -6 -35 8 -3 15 -2 15 2 0 5 6 17 14 27
14 19 15 19 26 -7 8 -16 18 -24 26 -21 11 4 10 11 -6 33 l-20 29 27 3 c14 2
28 9 31 16 3 10 -5 12 -33 6 l-38 -7 6 32 c5 24 3 31 -9 31 -13 0 -15 -7 -10
-31z"/>
<path d="M5347 10599 l6 -32 -38 7 c-28 6 -36 4 -33 -6 3 -7 17 -14 31 -16
l27 -3 -20 -29 c-17 -24 -18 -29 -5 -34 8 -3 15 -2 15 2 0 5 6 17 14 27 14 19
15 19 26 -7 8 -16 18 -24 26 -21 11 4 10 11 -6 33 l-20 29 27 3 c14 2 28 9 31
16 3 10 -5 12 -33 6 l-38 -7 6 32 c5 23 3 31 -8 31 -11 0 -13 -8 -8 -31z"/>
<path d="M5667 10599 l6 -32 -38 7 c-28 6 -36 4 -33 -6 3 -7 16 -14 31 -16 26
-3 26 -4 11 -27 -9 -13 -12 -29 -8 -36 4 -8 12 -2 22 16 14 27 15 28 28 10 7
-10 15 -23 17 -29 3 -8 8 -8 16 0 9 8 6 17 -9 37 l-21 27 30 0 c21 0 31 5 31
15 0 13 -7 15 -35 9 -35 -6 -35 -6 -29 25 5 24 3 31 -9 31 -13 0 -15 -7 -10
-31z"/>
<path d="M5995 10599 c6 -31 5 -31 -30 -25 -28 6 -35 4 -35 -9 0 -10 10 -15
31 -15 l30 0 -20 -29 c-18 -24 -19 -30 -6 -35 8 -3 15 -2 15 2 0 5 6 17 14 27
14 19 15 19 26 -7 8 -16 18 -24 26 -21 11 4 10 11 -6 33 l-20 29 27 3 c14 2
28 9 31 16 3 10 -5 12 -33 6 l-38 -7 6 32 c5 24 3 31 -8 31 -12 0 -14 -8 -10
-31z"/>
<path d="M6317 10599 l6 -32 -38 7 c-28 6 -36 4 -33 -6 3 -7 17 -14 31 -16
l27 -3 -20 -29 c-16 -22 -17 -29 -6 -33 8 -3 18 5 26 21 11 26 12 26 26 8 7
-10 15 -23 17 -29 2 -6 9 -7 15 -3 9 5 7 15 -8 37 l-21 29 30 0 c21 0 31 5 31
15 0 13 -7 15 -35 9 -35 -6 -35 -6 -29 25 5 24 3 31 -9 31 -13 0 -15 -7 -10
-31z"/>
<path d="M6637 10599 l6 -30 -38 7 c-30 5 -37 4 -33 -7 2 -8 16 -15 31 -17 26
-3 26 -4 10 -28 -12 -18 -13 -28 -5 -36 8 -8 14 -3 22 18 11 28 12 28 25 10 8
-10 16 -24 18 -30 3 -8 8 -8 16 0 9 8 6 17 -9 37 l-21 27 30 0 c21 0 31 5 31
15 0 13 -7 15 -33 10 -33 -6 -34 -6 -29 24 3 24 0 31 -12 31 -12 0 -14 -7 -9
-31z"/>
<path d="M6967 10599 l6 -32 -36 7 c-30 6 -37 4 -37 -9 0 -10 10 -15 31 -15
l30 0 -20 -29 c-17 -23 -18 -30 -7 -34 8 -3 18 5 26 21 11 26 12 26 26 8 7
-10 15 -24 17 -30 3 -8 8 -8 16 0 9 8 6 17 -9 37 l-21 27 30 0 c21 0 31 5 31
15 0 13 -7 15 -35 9 -35 -6 -35 -6 -29 25 5 24 3 31 -9 31 -13 0 -15 -7 -10
-31z"/>
<path d="M7287 10599 l6 -30 -38 7 c-30 5 -37 4 -33 -7 2 -8 16 -15 31 -17 26
-3 26 -4 10 -28 -12 -18 -13 -28 -5 -36 8 -8 14 -3 22 18 11 28 12 28 25 10 8
-10 16 -24 18 -30 3 -8 8 -8 16 0 9 8 6 17 -9 37 l-21 27 30 0 c21 0 31 5 31
15 0 13 -7 15 -33 10 -33 -6 -34 -6 -29 24 3 24 0 31 -12 31 -12 0 -14 -7 -9
-31z"/>
<path d="M7607 10599 l6 -30 -38 7 c-30 5 -37 4 -33 -7 2 -8 16 -15 31 -17 26
-3 26 -4 10 -28 -12 -18 -13 -28 -5 -36 8 -8 14 -4 23 15 13 28 29 36 29 15 0
-22 17 -41 29 -33 9 5 8 13 -3 31 -21 31 -20 34 9 34 16 0 25 6 25 15 0 13 -7
15 -33 10 -33 -6 -34 -6 -29 24 3 24 0 31 -12 31 -12 0 -14 -7 -9 -31z"/>
<path d="M7937 10599 l6 -30 -38 7 c-30 5 -37 4 -33 -7 2 -8 16 -15 31 -17 26
-3 26 -4 10 -28 -12 -18 -13 -28 -5 -36 8 -8 14 -3 22 18 11 28 12 28 25 10 8
-10 16 -24 18 -30 3 -8 8 -8 16 0 9 8 6 17 -9 37 l-21 27 30 0 c21 0 31 5 31
15 0 13 -7 15 -33 10 -33 -6 -34 -6 -29 24 3 24 0 31 -12 31 -12 0 -14 -7 -9
-31z"/>
<path d="M2610 10129 c-61 -25 -92 -78 -92 -158 -1 -67 21 -123 56 -146 48
-32 166 -32 166 -1 0 10 -12 12 -48 8 -61 -5 -104 15 -126 62 -29 62 -15 148
32 189 26 23 92 33 121 18 17 -10 22 -9 27 4 4 9 4 18 1 21 -11 11 -113 13
-137 3z"/>
<path d="M2953 10132 c-11 -7 -49 -97 -104 -246 -34 -93 -33 -86 -15 -86 7 0
24 25 36 55 l23 56 66 -3 65 -3 21 -52 c13 -36 26 -53 37 -53 15 0 16 4 7 28
-6 15 -33 88 -61 162 -27 74 -53 138 -57 142 -3 4 -11 4 -18 0z m31 -109 c10
-32 21 -64 23 -70 4 -9 -9 -13 -46 -13 -32 0 -51 4 -51 11 0 20 42 129 50 129
3 0 14 -26 24 -57z"/>
<path d="M3220 10127 c-38 -19 -54 -60 -40 -102 9 -28 22 -39 75 -64 74 -35
91 -57 73 -96 -14 -31 -43 -40 -109 -32 -37 5 -49 3 -49 -7 0 -19 23 -26 87
-26 47 0 59 4 84 29 40 40 39 83 -1 121 -17 16 -43 31 -59 35 -64 14 -91 74
-51 110 18 16 27 17 70 9 39 -8 50 -8 54 3 12 29 -87 44 -134 20z"/>
<path d="M4721 10122 c-44 -22 -70 -57 -82 -111 -17 -78 9 -158 64 -191 48
-30 157 -26 157 5 0 8 -14 11 -48 7 -91 -8 -142 43 -142 141 0 50 30 104 70
125 22 11 66 12 109 1 26 -7 23 21 -4 31 -39 15 -86 12 -124 -8z"/>
<path d="M3490 9975 c0 -85 0 -158 -1 -162 0 -5 7 -9 15 -11 13 -3 16 10 16
77 l0 81 85 0 85 0 0 -80 c0 -73 2 -80 20 -80 19 0 20 7 20 165 0 158 -1 165
-20 165 -18 0 -20 -7 -20 -70 l0 -70 -85 0 -85 0 0 70 c0 56 -3 70 -15 70 -13
0 -15 -24 -15 -155z"/>
<path d="M4028 9965 c2 -136 5 -165 17 -165 12 0 15 16 15 71 l0 70 37 -3 c34
-3 40 -8 74 -68 25 -45 43 -66 59 -68 22 -4 22 -3 -6 45 -15 26 -36 60 -46 74
-18 27 -18 27 8 43 35 24 48 62 35 107 -14 46 -43 59 -129 59 l-67 0 3 -165z
m146 119 c9 -8 16 -28 16 -43 0 -45 -21 -63 -78 -69 l-52 -5 0 67 0 66 49 0
c32 0 55 -6 65 -16z"/>
<path d="M4352 9968 l3 -163 88 -3 c73 -2 87 0 87 13 0 12 -14 15 -70 15 l-70
0 0 65 0 65 65 0 c51 0 65 3 65 15 0 12 -14 15 -65 15 l-65 0 0 55 0 55 70 0
c56 0 70 3 70 15 0 12 -17 15 -90 15 l-90 0 2 -162z"/>
<path d="M4980 9965 l0 -165 90 0 c72 0 90 3 90 15 0 11 -17 15 -72 17 l-73 3
-3 63 -3 62 71 0 c55 0 70 3 70 15 0 11 -16 15 -67 17 l-68 3 -3 53 -3 52 75
0 c61 0 76 3 76 15 0 12 -17 15 -90 15 l-90 0 0 -165z"/>
<path d="M5272 9968 c3 -146 5 -163 21 -166 16 -3 17 10 17 162 0 160 -1 166
-20 166 -20 0 -20 -5 -18 -162z"/>
<path d="M5450 9964 c0 -152 1 -165 18 -162 14 3 18 15 20 65 l3 61 50 7 c73
10 109 44 109 101 0 34 -6 51 -25 69 -21 22 -33 25 -100 25 l-75 0 0 -166z
m141 125 c10 -5 22 -21 25 -35 10 -40 -10 -71 -53 -83 -72 -20 -73 -20 -73 65
l0 77 41 -7 c23 -4 50 -11 60 -17z"/>
<path d="M5722 10118 c3 -8 26 -14 56 -16 l52 -3 0 -150 c0 -126 2 -149 15
-149 13 0 15 23 15 150 l0 150 50 0 c38 0 50 4 50 15 0 13 -20 15 -121 15 -92
0 -120 -3 -117 -12z"/>
<path d="M500 9409 c0 -29 -2 -30 -30 -24 -23 5 -30 3 -30 -9 0 -10 9 -16 25
-16 29 0 30 -3 9 -34 -10 -16 -12 -26 -5 -31 6 -3 16 5 23 19 14 33 22 33 37
-1 9 -19 15 -23 23 -15 9 9 7 16 -5 30 -23 25 -21 30 8 34 35 4 27 24 -7 20
-25 -2 -28 1 -28 28 0 16 -4 30 -10 30 -5 0 -10 -14 -10 -31z"/>
<path d="M820 9409 c0 -29 -2 -30 -30 -24 -23 5 -30 3 -30 -9 0 -10 9 -16 25
-16 29 0 30 -3 9 -34 -10 -16 -12 -26 -5 -31 6 -3 16 5 23 19 14 33 22 33 37
-1 9 -19 15 -23 23 -15 9 9 7 16 -5 30 -23 25 -21 30 10 34 14 2 28 9 31 16 3
10 -4 12 -32 7 -35 -7 -36 -6 -36 24 0 17 -4 31 -10 31 -5 0 -10 -14 -10 -31z"/>
<path d="M1140 9409 c0 -29 -2 -30 -30 -24 -23 5 -30 3 -30 -9 0 -10 9 -16 25
-16 29 0 30 -3 9 -34 -10 -16 -12 -26 -5 -31 6 -3 16 5 23 19 14 33 22 33 37
-1 8 -18 15 -23 22 -16 8 8 6 19 -6 36 -16 25 -16 26 11 29 15 2 29 9 32 16 3
10 -4 12 -32 7 -35 -7 -36 -6 -36 24 0 17 -4 31 -10 31 -5 0 -10 -14 -10 -31z"/>
<path d="M1470 9409 c0 -29 -2 -30 -30 -24 -23 5 -30 3 -30 -9 0 -10 9 -16 25
-16 29 0 30 -3 9 -34 -10 -16 -12 -26 -5 -31 6 -3 16 5 23 19 14 33 22 33 37
-1 9 -19 15 -23 23 -15 9 9 7 16 -5 30 -23 25 -21 30 10 34 14 2 28 9 31 16 3
10 -4 12 -32 7 -35 -7 -36 -6 -36 24 0 17 -4 31 -10 31 -5 0 -10 -14 -10 -31z"/>
<path d="M1790 9409 c0 -29 -2 -30 -30 -24 -23 5 -30 3 -30 -9 0 -10 9 -16 25
-16 28 0 30 -7 10 -34 -8 -10 -12 -23 -9 -27 10 -16 22 -9 28 16 8 32 20 32
35 -2 8 -18 15 -23 22 -16 8 8 6 19 -6 36 -16 25 -16 26 11 29 15 2 29 9 32
16 3 10 -4 12 -32 7 -35 -7 -36 -6 -36 24 0 17 -4 31 -10 31 -5 0 -10 -14 -10
-31z"/>
<path d="M2112 9409 c5 -30 4 -30 -29 -24 -26 5 -33 3 -33 -10 0 -9 9 -15 25
-15 28 0 30 -7 10 -34 -8 -10 -12 -23 -9 -27 10 -16 22 -9 28 16 8 32 22 32
39 -1 9 -17 17 -23 21 -16 4 6 0 22 -9 36 -16 24 -16 25 11 28 15 2 29 9 32
16 3 10 -5 12 -33 6 -38 -7 -38 -7 -33 25 3 22 1 31 -10 31 -10 0 -13 -9 -10
-31z"/>
<path d="M2440 9409 c0 -29 -2 -30 -30 -24 -23 5 -30 3 -30 -9 0 -10 9 -16 25
-16 29 0 30 -3 9 -34 -10 -16 -12 -26 -5 -31 6 -3 16 5 23 19 14 33 22 33 37
-1 9 -19 15 -23 23 -15 9 9 7 16 -5 30 -23 25 -21 30 10 34 14 2 28 9 31 16 3
10 -4 12 -32 7 -35 -7 -36 -6 -36 24 0 17 -4 31 -10 31 -5 0 -10 -14 -10 -31z"/>
<path d="M2760 9409 c0 -29 -2 -30 -30 -24 -23 5 -30 3 -30 -9 0 -10 9 -16 25
-16 28 0 30 -7 10 -34 -8 -10 -12 -23 -9 -27 10 -16 22 -9 28 16 8 32 19 32
36 0 8 -15 17 -22 23 -16 5 5 2 19 -8 34 -16 25 -16 26 11 29 15 2 29 9 32 16
3 10 -5 12 -33 6 -38 -7 -38 -7 -33 25 3 21 0 31 -9 31 -8 0 -13 -12 -13 -31z"/>
<path d="M3084 9409 c6 -31 6 -31 -29 -25 -28 6 -35 4 -35 -9 0 -9 9 -15 25
-15 28 0 30 -7 10 -34 -8 -10 -12 -23 -9 -27 10 -16 22 -9 28 16 8 32 22 32
39 -1 9 -17 17 -23 21 -16 4 6 0 22 -9 36 -16 24 -16 25 11 28 15 2 29 9 32
16 3 10 -5 12 -33 6 -38 -7 -38 -7 -33 25 3 22 1 31 -10 31 -11 0 -13 -8 -8
-31z"/>
<path d="M3405 9409 l7 -32 -36 7 c-29 6 -36 4 -36 -9 0 -10 10 -15 31 -15
l30 0 -20 -29 c-18 -24 -19 -30 -6 -35 10 -3 17 3 21 19 8 32 20 32 37 -1 9
-18 16 -23 21 -15 4 7 1 23 -8 36 -15 23 -15 24 11 27 15 2 28 9 31 16 3 10
-5 12 -33 6 l-38 -7 6 32 c5 24 3 31 -9 31 -12 0 -14 -7 -9 -31z"/>
<path d="M3732 9409 c5 -30 4 -30 -29 -24 -26 5 -33 3 -33 -10 0 -9 9 -15 25
-15 29 0 30 -3 10 -34 -14 -21 -14 -24 0 -29 10 -4 17 2 21 18 8 32 20 32 37
-1 9 -17 17 -23 21 -16 4 6 0 22 -9 36 -16 24 -16 25 11 28 15 2 29 9 32 16 3
10 -5 12 -33 6 -38 -7 -38 -7 -33 25 3 22 1 31 -10 31 -10 0 -13 -9 -10 -31z"/>
<path d="M4054 9409 c6 -31 6 -31 -29 -25 -28 6 -35 4 -35 -9 0 -10 10 -15 31
-15 l30 0 -21 -29 c-14 -21 -17 -32 -9 -37 12 -7 29 12 29 34 0 21 20 13 31
-12 7 -14 17 -22 25 -19 11 4 10 11 -6 33 l-20 29 27 3 c14 2 28 9 31 16 3 10
-5 12 -33 6 l-38 -7 6 32 c5 24 3 31 -9 31 -13 0 -15 -7 -10 -31z"/>
<path d="M4375 9409 l7 -32 -36 7 c-29 6 -36 4 -36 -9 0 -10 10 -15 31 -15
l30 0 -20 -29 c-18 -24 -19 -30 -6 -35 8 -3 15 -2 15 2 0 5 6 17 14 27 14 19
15 19 26 -7 8 -16 18 -24 26 -21 11 4 10 11 -6 33 l-20 29 27 3 c14 2 28 9 31
16 3 10 -5 12 -33 6 l-38 -7 6 32 c5 24 3 31 -9 31 -12 0 -14 -7 -9 -31z"/>
<path d="M4704 9409 c6 -31 6 -31 -29 -25 -28 6 -35 4 -35 -9 0 -10 10 -15 31
-15 l30 0 -21 -29 c-14 -21 -17 -32 -9 -37 12 -7 29 12 29 34 0 21 20 13 31
-12 7 -14 17 -22 25 -19 11 4 10 11 -6 33 l-20 29 27 3 c14 2 28 9 31 16 3 10
-5 12 -33 6 l-38 -7 6 32 c5 24 3 31 -9 31 -13 0 -15 -7 -10 -31z"/>
<path d="M5025 9409 l7 -32 -36 7 c-29 6 -36 4 -36 -9 0 -10 10 -15 31 -15
l30 0 -20 -29 c-18 -24 -19 -30 -6 -35 8 -3 15 -2 15 2 0 5 6 17 14 27 14 19
15 19 26 -7 8 -16 18 -24 26 -21 11 4 10 11 -6 33 l-20 29 27 3 c14 2 28 9 31
16 3 10 -5 12 -33 6 l-38 -7 6 32 c5 24 3 31 -9 31 -12 0 -14 -7 -9 -31z"/>
<path d="M5347 9409 l6 -32 -36 7 c-30 6 -37 4 -37 -9 0 -10 10 -15 31 -15
l30 0 -20 -29 c-18 -24 -19 -30 -6 -35 8 -3 15 -2 15 2 0 5 6 17 14 27 14 19
15 19 26 -7 8 -16 18 -24 26 -21 11 4 10 11 -7 34 l-20 29 30 0 c21 0 31 5 31
15 0 13 -7 15 -37 9 l-36 -7 6 32 c5 23 3 31 -8 31 -11 0 -13 -8 -8 -31z"/>
<path d="M5667 9409 l6 -30 -38 7 c-30 5 -37 4 -33 -7 2 -8 17 -15 31 -17 l27
-3 -20 -29 c-16 -22 -17 -29 -6 -33 8 -3 18 5 26 21 11 26 12 26 26 8 7 -10
15 -23 17 -29 2 -6 9 -7 15 -3 9 5 7 15 -8 37 l-21 29 30 0 c21 0 31 5 31 15
0 13 -7 15 -35 9 -35 -6 -35 -6 -29 25 5 24 3 31 -9 31 -13 0 -15 -7 -10 -31z"/>
<path d="M5995 9409 l7 -32 -36 7 c-29 6 -36 4 -36 -9 0 -10 10 -15 31 -15
l30 0 -20 -29 c-18 -24 -19 -30 -6 -35 8 -3 15 -2 15 2 0 5 6 17 14 27 14 19
15 19 26 -7 8 -16 18 -24 26 -21 11 4 10 11 -7 34 l-20 29 30 0 c21 0 31 5 31
15 0 13 -7 15 -37 9 l-36 -7 6 32 c5 24 3 31 -9 31 -12 0 -14 -7 -9 -31z"/>
<path d="M6317 9409 c6 -30 6 -30 -31 -24 -29 6 -36 4 -36 -9 0 -11 9 -16 31
-16 l30 0 -20 -29 c-17 -23 -18 -30 -7 -34 8 -3 18 5 26 21 11 26 12 26 26 8
7 -10 15 -23 17 -29 2 -6 9 -7 15 -3 9 5 7 15 -8 37 l-21 29 30 0 c21 0 31 5
31 15 0 13 -7 15 -35 9 -35 -6 -36 -6 -30 25 4 23 2 31 -10 31 -11 0 -13 -7
-8 -31z"/>
<path d="M6637 9409 l6 -32 -38 7 c-28 6 -36 4 -33 -6 3 -7 16 -14 31 -16 26
-3 26 -4 10 -28 -12 -18 -13 -28 -5 -36 8 -8 14 -3 22 18 11 28 12 28 25 10 8
-10 16 -24 18 -30 3 -8 8 -8 16 0 9 8 6 17 -9 37 l-21 27 30 0 c21 0 31 5 31
15 0 13 -7 15 -33 10 -33 -6 -34 -6 -29 24 3 24 0 31 -12 31 -12 0 -14 -7 -9
-31z"/>
<path d="M6967 9409 l6 -32 -36 7 c-30 6 -37 4 -37 -9 0 -10 10 -15 31 -15
l30 0 -20 -29 c-17 -23 -18 -30 -7 -34 8 -3 18 5 26 21 11 26 12 26 26 8 7
-10 15 -23 17 -29 2 -6 9 -7 15 -3 9 5 7 15 -8 37 l-21 29 30 0 c21 0 31 5 31
15 0 13 -7 15 -35 9 -35 -6 -35 -6 -29 25 5 24 3 31 -9 31 -13 0 -15 -7 -10
-31z"/>
<path d="M7287 9409 c6 -30 6 -30 -31 -24 -29 6 -36 4 -36 -9 0 -11 9 -16 31
-16 l30 0 -20 -29 c-18 -25 -19 -30 -6 -35 11 -4 19 3 26 22 10 26 11 26 24 8
8 -10 16 -24 18 -30 3 -8 8 -8 16 0 9 8 6 17 -9 37 l-21 27 30 0 c21 0 31 5
31 15 0 13 -7 15 -33 10 -33 -6 -34 -6 -29 24 3 24 0 31 -12 31 -12 0 -14 -7
-9 -31z"/>
<path d="M7607 9409 l6 -30 -38 7 c-30 5 -37 4 -33 -7 2 -8 16 -15 31 -17 26
-3 26 -4 10 -28 -12 -18 -13 -28 -5 -36 8 -8 14 -4 23 15 13 28 29 36 29 15 0
-22 17 -41 29 -33 9 5 8 13 -3 31 -21 31 -20 34 9 34 16 0 25 6 25 16 0 12 -7
14 -30 9 -28 -6 -30 -5 -30 24 0 21 -5 31 -15 31 -11 0 -13 -8 -8 -31z"/>
<path d="M7937 9409 c6 -30 6 -30 -31 -24 -29 6 -36 4 -36 -9 0 -11 9 -16 30
-16 30 0 30 0 14 -26 -13 -18 -14 -28 -6 -36 8 -8 14 -3 22 18 11 28 12 28 25
10 8 -10 16 -24 18 -30 3 -8 8 -8 16 0 9 8 6 17 -9 37 l-21 27 30 0 c21 0 31
5 31 15 0 13 -7 15 -33 10 -33 -6 -34 -6 -29 24 3 24 0 31 -12 31 -12 0 -14
-7 -9 -31z"/>
<path d="M1470 8990 c0 -13 7 -20 18 -20 24 0 32 8 25 26 -8 22 -43 17 -43 -6z"/>
<path d="M2037 9003 c-16 -15 -6 -33 18 -33 18 0 25 5 25 20 0 20 -28 28 -43
13z"/>
<path d="M7620 8990 c0 -15 7 -20 25 -20 18 0 25 5 25 20 0 15 -7 20 -25 20
-18 0 -25 -5 -25 -20z"/>
<path d="M350 8875 l0 -125 49 0 c100 0 145 40 143 128 -1 78 -53 122 -147
122 l-45 0 0 -125z m130 59 c9 -8 15 -33 15 -58 0 -53 -25 -86 -67 -86 l-28 0
0 86 0 87 32 -7 c18 -4 40 -13 48 -22z"/>
<path d="M7188 8994 c-5 -4 -8 -61 -8 -126 l0 -118 24 0 c22 0 25 5 28 42 3
41 4 43 42 49 68 11 99 79 58 129 -13 16 -32 23 -77 27 -33 3 -63 2 -67 -3z
m93 -44 c37 -20 17 -70 -28 -70 -19 0 -23 5 -23 33 0 48 13 57 51 37z"/>
<path d="M1870 8955 c-5 -14 -14 -25 -20 -25 -5 0 -10 -7 -10 -15 0 -8 5 -15
10 -15 6 0 10 -25 10 -56 0 -76 11 -94 60 -94 32 0 40 4 40 18 0 13 -7 18 -22
18 -21 -1 -23 4 -26 57 -3 55 -2 57 23 57 18 0 25 5 25 20 0 15 -7 20 -25 20
-18 0 -25 5 -25 20 0 28 -29 25 -40 -5z"/>
<path d="M652 8920 c-42 -40 -41 -127 3 -156 33 -22 119 -16 123 9 3 15 -2 17
-37 11 -43 -7 -71 6 -71 32 0 10 16 14 61 14 l62 0 -6 38 c-4 20 -16 45 -28
55 -29 23 -80 22 -107 -3z m76 -22 c23 -23 13 -38 -23 -38 -22 0 -35 5 -35 13
0 16 20 37 35 37 6 0 16 -5 23 -12z"/>
<path d="M878 8929 c-11 -6 -18 -22 -18 -38 0 -30 18 -50 63 -69 40 -17 28
-37 -22 -36 -33 1 -41 -3 -41 -18 0 -15 8 -18 46 -18 60 0 84 14 84 49 0 30
-18 50 -62 69 -29 12 -37 31 -15 33 6 1 25 2 41 3 16 0 31 6 33 12 7 22 -77
32 -109 13z"/>
<path d="M1102 8933 c-20 -8 -42 -59 -42 -96 0 -20 9 -46 21 -61 18 -23 27
-27 68 -24 40 3 46 6 49 26 3 21 2 22 -18 12 -39 -21 -70 1 -70 49 0 45 19 65
54 59 28 -6 45 20 24 34 -14 8 -65 9 -86 1z"/>
<path d="M1280 8845 c0 -95 0 -95 25 -95 24 0 25 3 25 60 0 59 1 61 35 81 37
22 47 49 18 49 -9 0 -25 -8 -36 -17 -18 -17 -19 -17 -28 0 -6 9 -17 17 -24 17
-12 0 -15 -19 -15 -95z"/>
<path d="M1470 8845 c0 -88 1 -95 20 -95 19 0 20 7 20 95 0 88 -1 95 -20 95
-19 0 -20 -7 -20 -95z"/>
<path d="M1604 8927 c-2 -7 -3 -69 -2 -138 3 -120 4 -124 26 -127 21 -3 22 0
22 54 0 45 3 55 12 46 7 -7 27 -12 44 -12 43 0 64 30 64 91 0 78 -47 118 -103
88 -16 -9 -22 -9 -25 0 -5 15 -31 14 -38 -2z m114 -78 c4 -55 -14 -77 -47 -59
-15 7 -21 21 -21 45 0 52 9 66 39 63 23 -3 26 -8 29 -49z"/>
<path d="M2037 8933 c-4 -3 -7 -46 -7 -95 0 -87 0 -88 25 -88 25 0 25 0 25 95
0 85 -2 95 -18 95 -10 0 -22 -3 -25 -7z"/>
<path d="M2185 8915 c-33 -32 -35 -100 -4 -139 16 -21 29 -26 64 -26 36 0 48
5 65 28 29 36 24 117 -10 144 -32 26 -86 23 -115 -7z m93 -66 c2 -33 -2 -50
-13 -59 -35 -29 -76 31 -56 83 9 23 16 28 39 25 25 -3 27 -7 30 -49z"/>
<path d="M2417 8933 c-4 -3 -7 -46 -7 -95 0 -87 0 -88 25 -88 24 0 25 2 25 63
0 65 11 87 41 87 25 0 28 -8 30 -83 2 -63 4 -67 26 -67 22 0 23 3 23 73 0 49
-5 80 -16 95 -17 24 -53 29 -87 11 -16 -9 -22 -9 -25 0 -4 12 -25 15 -35 4z"/>
<path d="M7430 8845 c0 -88 1 -95 20 -95 17 0 20 7 20 53 0 60 15 87 48 90 16
1 22 8 22 24 0 27 -25 31 -52 7 -16 -16 -18 -16 -24 0 -3 9 -12 16 -20 16 -11
0 -14 -20 -14 -95z"/>
<path d="M7620 8845 c0 -95 0 -95 25 -95 25 0 25 0 25 95 0 95 0 95 -25 95
-25 0 -25 0 -25 -95z"/>
<path d="M7773 8916 c-24 -21 -28 -32 -28 -75 0 -73 30 -98 113 -93 16 2 22 8
22 25 0 20 -4 23 -30 19 -38 -5 -60 12 -60 47 0 43 22 65 57 58 25 -5 32 -2
36 13 10 38 -68 42 -110 6z"/>
<path d="M7984 8917 c-22 -19 -27 -32 -27 -68 0 -24 5 -54 11 -66 23 -42 142
-52 142 -12 0 17 -5 18 -38 13 -29 -4 -43 -2 -55 11 -28 28 -20 35 43 35 59 0
60 0 60 29 0 72 -80 106 -136 58z m80 -23 c21 -21 12 -34 -24 -34 -16 0 -31 4
-35 9 -6 10 21 41 35 41 5 0 16 -7 24 -16z"/>
<path d="M358 8564 c-5 -4 -8 -61 -8 -126 l0 -118 65 0 c78 0 88 18 13 22
l-53 3 -5 113 c-3 63 -8 110 -12 106z"/>
<path d="M7658 8541 c-18 -16 -30 -33 -26 -37 5 -4 16 0 26 9 10 10 20 17 23
17 2 0 2 -47 1 -105 -3 -91 -2 -105 12 -105 14 0 16 17 16 125 0 75 -4 125
-10 125 -5 0 -24 -13 -42 -29z"/>
<path d="M8001 8541 c-20 -16 -30 -31 -24 -34 6 -4 16 0 23 8 25 30 30 13 30
-90 0 -63 4 -105 10 -105 6 0 10 48 10 125 0 69 -3 125 -7 125 -5 0 -23 -13
-42 -29z"/>
<path d="M594 8496 c-36 -16 -44 -32 -44 -86 0 -84 87 -124 138 -65 43 51 19
142 -43 159 -11 3 -34 -1 -51 -8z m75 -32 c28 -36 27 -79 -4 -109 -13 -14 -29
-25 -35 -25 -22 0 -60 49 -60 78 0 35 34 82 60 82 10 0 28 -12 39 -26z"/>
<path d="M846 8495 c-24 -13 -31 -13 -38 -3 -4 7 -8 -28 -8 -79 0 -56 4 -93
10 -93 6 0 10 28 10 63 0 69 13 97 48 100 12 0 22 7 22 14 0 17 -8 16 -44 -2z"/>
<path d="M1010 8497 c-34 -17 -52 -55 -46 -100 6 -57 30 -77 88 -77 26 0 48 4
48 9 0 6 -18 9 -41 8 -44 -1 -69 19 -69 55 0 15 9 18 60 18 57 0 60 1 60 24 0
50 -56 85 -100 63z m61 -28 c19 -19 23 -41 6 -40 -4 1 -25 1 -47 1 -43 0 -50
12 -23 42 21 23 38 23 64 -3z"/>
<path d="M1238 8494 c-16 -8 -28 -10 -28 -4 0 5 -4 10 -10 10 -6 0 -10 -37
-10 -90 0 -67 3 -90 13 -90 9 0 12 11 9 35 -11 96 36 165 82 119 12 -11 16
-35 16 -85 0 -39 4 -69 10 -69 6 0 10 28 10 65 0 52 4 69 20 85 45 45 70 18
70 -77 0 -58 3 -73 15 -73 12 0 15 14 15 64 0 36 -4 76 -9 89 -11 30 -51 39
-86 21 -21 -11 -30 -10 -52 2 -34 17 -31 17 -65 -2z"/>
<path d="M7854 8346 c-4 -10 -2 -22 4 -28 8 -8 13 -7 18 6 4 10 2 22 -4 28 -8
8 -13 7 -18 -6z"/>
<path d="M7643 8140 c-13 -5 -23 -14 -23 -21 0 -6 7 -8 16 -5 60 23 94 9 94
-40 0 -22 -13 -40 -97 -134 -13 -14 -23 -28 -23 -32 0 -5 36 -8 81 -8 51 0 78
4 74 10 -3 6 -31 10 -61 10 -30 0 -54 3 -54 7 0 3 23 30 50 59 60 64 69 111
28 147 -22 19 -50 21 -85 7z"/>
<path d="M7994 8140 c-24 -9 -41 -30 -25 -30 5 0 21 4 35 10 31 11 53 4 67
-21 14 -27 -11 -75 -66 -129 -66 -65 -62 -76 30 -72 90 4 101 22 13 22 l-62 0
40 43 c56 58 74 87 74 119 0 53 -51 81 -106 58z"/>
<path d="M350 8020 c0 -89 3 -120 13 -120 9 0 11 29 9 120 -2 66 -7 120 -13
120 -5 0 -9 -52 -9 -120z"/>
<path d="M480 7948 c0 -93 4 -138 11 -138 7 0 10 19 7 54 l-3 53 30 -14 c58
-28 105 12 105 88 0 32 -16 69 -34 81 -18 12 -71 9 -84 -4 -10 -10 -15 -10
-22 2 -6 10 -10 -32 -10 -122z m119 78 c32 -67 -30 -145 -79 -101 -23 21 -28
103 -8 123 23 23 71 10 87 -22z"/>
<path d="M722 8068 c-27 -27 -14 -57 38 -83 28 -14 50 -31 50 -39 0 -25 -28
-39 -65 -32 -43 8 -48 -10 -5 -19 45 -10 85 13 85 50 0 26 -7 33 -45 52 -61
29 -63 58 -2 58 27 0 42 4 42 13 0 16 -82 16 -98 0z"/>
<path d="M910 8009 c0 -39 4 -79 10 -89 14 -26 56 -33 91 -16 16 8 29 10 29 5
0 -5 5 -9 10 -9 6 0 10 37 10 90 0 96 -19 130 -21 38 -1 -77 -11 -101 -43
-113 -44 -15 -66 19 -66 101 0 36 -4 64 -10 64 -6 0 -10 -30 -10 -71z"/>
<path d="M1160 7990 c0 -53 4 -90 10 -90 6 0 10 28 10 63 0 76 14 100 55 95
l30 -3 3 -77 c2 -60 6 -78 17 -78 12 0 15 15 15 68 0 75 10 92 51 92 33 0 39
-14 39 -96 0 -36 4 -64 10 -64 15 0 13 153 -2 168 -16 16 -71 15 -86 0 -10
-10 -17 -10 -32 0 -25 15 -72 16 -88 0 -9 -9 -12 -9 -12 0 0 7 -4 12 -10 12
-6 0 -10 -37 -10 -90z"/>
<path d="M7850 7910 c0 -11 7 -20 15 -20 8 0 15 9 15 20 0 11 -7 20 -15 20 -8
0 -15 -9 -15 -20z"/>
<path d="M870 7600 c0 -80 4 -130 10 -130 6 0 10 50 10 130 0 80 -4 130 -10
130 -6 0 -10 -50 -10 -130z"/>
<path d="M1727 7713 c-12 -11 -8 -23 8 -23 8 0 15 7 15 15 0 16 -12 20 -23 8z"/>
<path d="M7635 7706 c-38 -16 -18 -29 23 -15 39 13 72 -2 72 -35 0 -27 -14
-41 -52 -50 -35 -8 -36 -26 -2 -26 64 0 88 -54 38 -87 -21 -14 -33 -15 -65 -6
-31 8 -39 7 -39 -3 0 -16 60 -29 94 -20 40 10 57 34 54 75 -2 25 -9 39 -24 45
-20 9 -20 9 3 32 29 30 29 49 -2 79 -27 28 -55 31 -100 11z"/>
<path d="M7988 7708 c-16 -5 -28 -14 -28 -19 0 -12 12 -11 44 1 31 11 53 4 67
-21 15 -28 -5 -56 -46 -63 -44 -9 -46 -26 -2 -26 40 0 57 -15 57 -52 0 -35
-33 -50 -93 -42 -39 5 -41 4 -23 -10 38 -31 118 -14 137 28 15 33 5 70 -23 83
l-23 10 23 12 c31 16 31 74 0 95 -25 18 -50 19 -90 4z"/>
<path d="M350 7590 l0 -120 55 0 c31 0 69 7 84 15 64 33 68 169 6 209 -15 10
-47 16 -85 16 l-60 0 0 -120z m135 75 c24 -23 27 -32 27 -75 0 -43 -3 -52 -27
-75 -18 -19 -35 -25 -70 -25 l-45 0 0 93 c0 52 3 97 7 100 3 4 24 7 45 7 28 0
46 -7 63 -25z"/>
<path d="M1850 7675 c0 -7 -8 -19 -17 -25 -13 -8 -14 -13 -5 -16 8 -4 12 -28
12 -70 0 -66 20 -104 54 -104 25 0 28 18 4 22 -21 3 -23 9 -26 76 -3 71 -3 72
23 72 14 0 25 5 25 10 0 6 -11 10 -25 10 -18 0 -25 5 -25 20 0 11 -4 20 -10
20 -5 0 -10 -7 -10 -15z"/>
<path d="M2920 7675 c0 -9 -7 -18 -15 -21 -8 -4 -15 -10 -15 -15 0 -5 7 -9 15
-9 12 0 15 -15 15 -75 0 -63 3 -76 19 -85 24 -13 51 -13 51 -1 0 5 -10 11 -22
13 -21 3 -23 9 -26 76 -3 71 -3 72 23 72 14 0 25 5 25 10 0 6 -11 10 -25 10
-18 0 -25 5 -25 20 0 11 -4 20 -10 20 -5 0 -10 -7 -10 -15z"/>
<path d="M658 7639 c-10 -5 -22 -28 -28 -50 -22 -80 45 -154 108 -118 80 44
57 180 -30 179 -18 0 -41 -5 -50 -11z m92 -28 c15 -30 12 -92 -7 -113 -38 -42
-93 -6 -93 60 0 52 15 72 55 72 24 0 38 -6 45 -19z"/>
<path d="M1001 7624 c-38 -49 -22 -133 30 -154 59 -25 109 17 109 91 0 54 -32
89 -80 89 -30 0 -43 -6 -59 -26z m103 -16 c40 -57 -3 -142 -63 -123 -39 12
-51 94 -19 132 17 21 65 16 82 -9z"/>
<path d="M1231 7563 c-1 -56 3 -93 9 -93 6 0 10 28 10 63 0 67 17 97 53 97 9
0 17 5 17 10 0 15 -36 12 -50 -5 -16 -20 -27 -19 -33 3 -3 9 -5 -25 -6 -75z"/>
<path d="M1522 7638 c-27 -27 -14 -57 38 -83 28 -14 50 -31 50 -39 0 -25 -28
-39 -65 -32 -21 4 -35 3 -35 -3 0 -20 69 -24 96 -6 41 26 30 65 -26 92 -60 28
-62 58 -5 59 22 0 42 5 45 10 8 14 -83 17 -98 2z"/>
<path d="M1720 7560 c0 -73 3 -90 15 -90 12 0 15 17 15 90 0 73 -3 90 -15 90
-12 0 -15 -17 -15 -90z"/>
<path d="M2127 7643 c-16 -15 -5 -21 31 -16 27 4 42 1 51 -11 22 -26 6 -46
-37 -46 -62 0 -95 -56 -56 -94 19 -20 41 -20 77 -2 15 8 27 11 27 5 0 -5 5 -9
10 -9 13 0 13 136 0 161 -8 14 -21 19 -54 19 -23 0 -46 -3 -49 -7z m91 -105
c4 -23 -35 -60 -60 -56 -12 2 -26 11 -32 21 -9 15 -7 22 13 38 29 23 74 22 79
-3z"/>
<path d="M2340 7560 c0 -53 4 -90 10 -90 6 0 10 24 10 54 0 79 13 106 50 106
37 0 50 -27 50 -106 0 -30 5 -54 10 -54 6 0 10 29 10 68 0 75 9 92 52 92 32 0
36 -12 40 -103 2 -31 7 -58 12 -60 13 -3 7 155 -6 170 -13 16 -70 17 -86 1 -9
-9 -15 -9 -24 0 -15 15 -63 16 -89 2 -13 -7 -19 -7 -19 0 0 5 -4 10 -10 10 -6
0 -10 -37 -10 -90z"/>
<path d="M2700 7630 c-31 -31 -28 -113 5 -145 28 -28 71 -33 101 -10 18 14 16
15 -22 9 -35 -5 -46 -2 -64 16 -37 37 -23 55 43 55 l57 0 0 31 c0 17 -8 38
-18 47 -25 23 -78 21 -102 -3z m88 -12 c7 -7 12 -20 12 -30 0 -15 -9 -18 -50
-18 -52 0 -58 7 -40 41 12 22 59 26 78 7z"/>
<path d="M7850 7480 c0 -11 7 -20 15 -20 8 0 15 9 15 20 0 11 -7 20 -15 20 -8
0 -15 -9 -15 -20z"/>
<path d="M412 7279 c-50 -15 -74 -61 -69 -131 4 -68 31 -104 84 -114 39 -7 83
2 83 17 0 7 -10 9 -26 5 -36 -9 -88 10 -104 38 -20 39 -17 101 6 133 19 24 28
28 73 28 34 0 51 4 51 13 0 6 -6 12 -12 12 -7 0 -22 2 -33 4 -11 3 -35 0 -53
-5z"/>
<path d="M7719 7280 c-19 -11 -119 -161 -119 -178 0 -8 20 -12 60 -12 l60 0 0
-30 c0 -16 5 -30 10 -30 6 0 10 14 10 30 0 23 4 30 20 30 26 0 26 20 0 27 -17
5 -20 15 -22 88 -3 73 -5 83 -19 75z m-2 -157 c-3 -2 -23 -3 -46 -1 l-41 3 43
64 42 65 3 -63 c2 -35 1 -65 -1 -68z"/>
<path d="M8064 7282 c-18 -12 -114 -160 -114 -177 0 -12 12 -15 54 -15 52 0
55 -1 58 -27 4 -34 22 -33 26 2 2 14 10 25 18 25 8 0 14 7 14 15 0 8 -7 15
-15 15 -12 0 -15 15 -15 79 0 78 -6 96 -26 83z m2 -48 c-3 -9 -6 -38 -6 -65
l0 -49 -44 0 -44 0 41 64 c39 60 67 87 53 50z"/>
<path d="M1711 7253 c0 -7 -11 -21 -23 -33 -18 -17 -19 -20 -5 -20 14 0 17
-11 17 -69 0 -50 4 -74 16 -85 17 -18 50 -21 59 -6 3 6 -2 10 -12 10 -32 0
-43 21 -43 87 0 60 1 63 24 63 14 0 28 5 31 10 4 6 -6 10 -24 10 -23 0 -31 5
-34 23 -2 12 -5 17 -6 10z"/>
<path d="M2080 7251 c0 -5 -8 -17 -17 -27 -13 -13 -14 -19 -5 -22 8 -2 12 -26
12 -71 0 -53 4 -72 18 -84 21 -19 48 -22 57 -7 3 6 -3 10 -14 10 -28 0 -39 26
-37 90 1 52 2 55 29 58 15 2 27 7 27 12 0 5 -12 10 -27 12 -20 2 -27 8 -25 21
2 9 -2 17 -8 17 -5 0 -10 -4 -10 -9z"/>
<path d="M616 7201 c-9 -10 -19 -35 -23 -55 -15 -91 72 -152 132 -91 33 32 35
100 4 139 -26 32 -86 37 -113 7z m98 -23 c22 -31 20 -84 -4 -108 -43 -43 -90
-12 -90 60 0 25 5 51 12 58 20 20 65 14 82 -10z"/>
<path d="M840 7124 c0 -61 4 -93 10 -89 6 3 10 35 10 70 0 72 14 95 60 95 34
0 40 -13 40 -95 0 -35 5 -67 10 -70 15 -9 13 158 -2 173 -15 15 -63 16 -89 2
-13 -7 -19 -7 -19 0 0 5 -4 10 -10 10 -6 0 -10 -39 -10 -96z"/>
<path d="M1085 7207 c-30 -23 -13 -59 40 -85 71 -35 53 -84 -25 -67 -17 4 -30
2 -30 -3 0 -13 25 -22 59 -22 69 0 85 71 22 102 -74 37 -79 72 -8 66 25 -1 42
2 45 10 5 17 -79 16 -103 -1z"/>
<path d="M1290 7200 c-31 -31 -28 -113 5 -145 28 -28 71 -33 101 -10 18 14 16
15 -22 9 -35 -5 -46 -2 -64 16 -37 37 -23 55 43 55 l57 0 0 31 c0 17 -8 38
-18 47 -25 23 -78 21 -102 -3z m88 -12 c7 -7 12 -20 12 -30 0 -15 -9 -18 -50
-18 -37 0 -50 4 -50 14 0 37 61 61 88 34z"/>
<path d="M1510 7200 c-15 -15 -20 -33 -20 -74 0 -47 4 -57 26 -75 27 -21 50
-26 78 -15 27 10 17 24 -13 18 -41 -8 -71 23 -71 74 0 47 24 72 68 72 18 0 32
5 32 10 0 19 -79 11 -100 -10z"/>
<path d="M1866 7201 c-23 -25 -31 -84 -17 -120 17 -41 71 -62 115 -45 29 11
17 25 -17 19 -37 -7 -74 16 -79 50 -3 18 3 20 55 21 31 1 60 4 63 7 10 9 -4
54 -22 71 -21 22 -77 20 -98 -3z m82 -13 c7 -7 12 -20 12 -30 0 -15 -8 -18
-45 -18 -37 0 -45 3 -45 18 0 24 19 42 45 42 12 0 26 -5 33 -12z"/>
<path d="M2230 7141 c0 -71 2 -82 22 -95 29 -20 62 -20 79 0 12 14 14 14 25
-1 18 -25 23 -7 20 85 -1 55 -6 85 -14 88 -9 3 -12 -16 -12 -66 0 -72 -16
-102 -53 -102 -33 0 -47 29 -47 101 0 39 -4 69 -10 69 -6 0 -10 -33 -10 -79z"/>
<path d="M2470 7127 c0 -63 4 -96 10 -92 6 3 10 32 10 63 0 63 19 102 50 102
10 0 22 5 25 10 10 16 -41 11 -55 -5 -11 -13 -14 -13 -26 2 -11 15 -13 4 -14
-80z"/>
<path d="M7850 7050 c0 -11 7 -20 15 -20 8 0 15 9 15 20 0 11 -7 20 -15 20 -8
0 -15 -9 -15 -20z"/>
<path d="M720 6818 c0 -40 -3 -49 -12 -40 -19 19 -73 14 -92 -7 -10 -11 -20
-37 -23 -58 -10 -79 37 -129 100 -105 21 8 33 9 35 2 2 -6 8 -8 13 -4 5 3 9
63 9 135 0 108 -2 129 -15 129 -11 0 -15 -12 -15 -52z m-10 -67 c26 -50 4
-131 -36 -131 -40 0 -54 20 -54 73 0 29 5 58 12 65 19 19 66 15 78 -7z"/>
<path d="M2642 6741 c4 -173 23 -177 23 -4 0 94 -3 127 -13 131 -10 3 -12 -24
-10 -127z"/>
<path d="M840 6845 c0 -8 5 -15 10 -15 6 0 10 7 10 15 0 8 -4 15 -10 15 -5 0
-10 -7 -10 -15z"/>
<path d="M1200 6846 c0 -9 7 -16 16 -16 17 0 14 22 -4 28 -7 2 -12 -3 -12 -12z"/>
<path d="M1717 6853 c-12 -11 -8 -23 8 -23 8 0 15 7 15 15 0 16 -12 20 -23 8z"/>
<path d="M2760 6846 c0 -9 7 -16 16 -16 17 0 14 22 -4 28 -7 2 -12 -3 -12 -12z"/>
<path d="M402 6823 c-41 -106 -82 -213 -82 -218 0 -3 4 -5 10 -5 5 0 18 20 29
45 19 44 21 45 66 45 45 0 46 -1 67 -47 11 -27 22 -43 25 -36 7 18 -79 243
-92 243 -7 0 -17 -12 -23 -27z m58 -110 c0 -13 -61 -19 -72 -8 -3 3 4 31 15
61 l20 55 19 -48 c10 -26 18 -54 18 -60z"/>
<path d="M7630 6821 c0 -16 -3 -43 -6 -60 l-6 -31 50 0 c40 0 53 -4 62 -19 29
-56 -10 -97 -82 -86 -40 5 -42 5 -24 -10 28 -21 79 -19 110 6 20 16 26 29 26
58 0 47 -24 71 -72 71 -43 0 -45 2 -40 45 4 35 5 35 53 35 27 0 49 5 49 10 0
6 -27 10 -60 10 -59 0 -60 0 -60 -29z"/>
<path d="M7977 6843 c-4 -3 -7 -30 -7 -60 l0 -53 43 0 c52 0 67 -13 67 -57 0
-41 -27 -57 -81 -48 -39 7 -55 -7 -23 -19 87 -33 169 50 118 122 -12 17 -25
22 -60 22 l-45 0 3 38 c4 36 4 37 51 40 26 2 47 7 47 13 0 10 -103 13 -113 2z"/>
<path d="M2890 6821 c0 -5 -8 -17 -17 -27 -13 -13 -14 -19 -5 -22 8 -2 12 -27
12 -72 0 -73 14 -100 50 -100 28 0 34 18 8 22 -21 3 -23 9 -26 76 -3 71 -3 72
23 72 14 0 25 5 25 10 0 6 -11 10 -25 10 -18 0 -25 5 -25 20 0 11 -4 20 -10
20 -5 0 -10 -4 -10 -9z"/>
<path d="M840 6695 c0 -57 4 -95 10 -95 6 0 10 38 10 95 0 57 -4 95 -10 95 -6
0 -10 -38 -10 -95z"/>
<path d="M968 6785 c-1 -5 -2 -67 -2 -137 -1 -96 2 -128 12 -128 8 0 12 16 12
49 l0 49 29 -11 c79 -29 137 85 80 157 -22 29 -75 36 -97 14 -10 -10 -15 -10
-22 2 -5 8 -11 11 -12 5z m110 -27 c18 -18 15 -103 -4 -122 -39 -40 -84 -7
-84 63 0 53 12 71 50 71 14 0 31 -5 38 -12z"/>
<path d="M1200 6701 c0 -50 5 -93 10 -96 6 -4 10 28 10 89 0 57 -4 96 -10 96
-6 0 -10 -36 -10 -89z"/>
<path d="M1320 6776 c-22 -28 -8 -60 37 -81 47 -21 59 -40 41 -62 -8 -11 -24
-14 -51 -10 -26 4 -37 2 -34 -6 6 -19 66 -20 93 -2 15 9 24 25 24 40 0 20 -10
30 -51 50 -64 33 -65 60 -1 60 27 0 42 4 42 13 0 18 -84 16 -100 -2z"/>
<path d="M1536 6771 c-42 -47 -24 -154 28 -167 32 -8 58 -2 64 14 3 9 -3 11
-22 6 -41 -10 -66 18 -66 76 0 56 16 74 60 68 20 -3 30 0 30 9 0 21 -74 17
-94 -6z"/>
<path d="M1720 6694 c0 -61 4 -93 10 -89 6 3 10 46 10 96 0 53 -4 89 -10 89
-6 0 -10 -39 -10 -96z"/>
<path d="M1835 6779 c-10 -25 -1 -174 10 -174 6 0 11 31 13 70 3 79 13 95 53
95 38 0 49 -24 49 -104 0 -37 4 -66 10 -66 6 0 10 33 10 79 0 59 -4 84 -16 95
-18 19 -75 21 -92 4 -10 -10 -15 -10 -22 2 -8 12 -10 12 -15 -1z"/>
<path d="M2087 6772 c-21 -23 -22 -66 -2 -82 11 -9 12 -16 4 -26 -6 -7 -8 -22
-5 -32 4 -13 1 -22 -9 -26 -22 -8 -19 -63 4 -76 54 -28 141 2 141 50 0 30 -19
44 -67 49 -58 7 -65 30 -13 44 50 13 62 26 58 64 -3 22 0 33 9 33 7 0 13 5 13
10 0 6 -26 10 -58 10 -44 0 -63 -5 -75 -18z m77 -8 c30 -30 13 -74 -29 -74
-42 0 -59 44 -29 74 8 9 22 16 29 16 7 0 21 -7 29 -16z m25 -168 c26 -32 -14
-61 -75 -54 -32 3 -43 30 -24 53 16 19 84 19 99 1z"/>
<path d="M2432 6770 c-53 -62 -17 -170 57 -170 15 0 36 7 47 15 18 14 16 15
-22 9 -34 -5 -46 -2 -63 15 -38 38 -28 51 39 51 59 0 60 0 60 28 0 15 -7 38
-16 50 -20 29 -77 30 -102 2z m88 -19 c18 -34 12 -41 -40 -41 -37 0 -50 4 -50
14 0 41 71 62 90 27z"/>
<path d="M2760 6701 c0 -78 7 -110 21 -97 8 9 -3 186 -12 186 -5 0 -9 -40 -9
-89z"/>
<path d="M7850 6620 c0 -11 7 -20 15 -20 8 0 15 9 15 20 0 11 -7 20 -15 20 -8
0 -15 -9 -15 -20z"/>
<path d="M6643 6244 c-8 -4 -10 -16 -6 -35 6 -30 6 -30 -31 -24 -44 9 -50 -10
-6 -20 29 -6 29 -7 14 -30 -9 -13 -12 -29 -8 -36 4 -8 13 0 24 22 l18 34 13
-32 c10 -23 18 -30 27 -25 10 7 8 14 -8 34 l-20 26 30 7 c42 9 38 27 -5 19
l-34 -6 6 36 c3 20 4 36 2 35 -2 0 -9 -3 -16 -5z"/>
<path d="M500 6209 c0 -29 -2 -30 -30 -24 -19 4 -30 3 -30 -4 0 -6 6 -11 13
-11 6 0 19 -4 27 -10 12 -7 11 -12 -5 -30 -14 -15 -16 -23 -7 -32 8 -8 14 -4
23 15 7 15 15 27 19 27 4 0 12 -12 19 -27 9 -19 15 -23 23 -15 9 9 7 17 -7 32
-16 18 -17 23 -5 30 8 6 23 10 33 10 10 0 15 5 12 11 -4 6 -19 7 -36 4 -27 -6
-29 -5 -29 24 0 17 -4 31 -10 31 -5 0 -10 -14 -10 -31z"/>
<path d="M820 6209 c0 -29 -2 -30 -30 -24 -19 4 -30 3 -30 -4 0 -6 6 -11 13
-11 6 0 19 -4 27 -10 12 -7 11 -12 -5 -30 -13 -15 -15 -24 -8 -31 8 -8 16 -2
28 22 l17 33 14 -34 c10 -24 18 -30 25 -23 8 8 6 18 -6 37 -17 26 -17 26 14
32 17 4 31 11 31 16 0 6 -14 8 -35 4 -34 -7 -35 -6 -35 24 0 16 -4 30 -10 30
-5 0 -10 -14 -10 -31z"/>
<path d="M1140 6209 c0 -29 -2 -30 -30 -24 -19 4 -30 3 -30 -4 0 -6 6 -11 13
-11 6 0 18 -4 26 -9 11 -7 10 -13 -4 -35 -14 -21 -15 -26 -3 -26 8 0 20 12 27
28 l13 27 17 -34 c11 -20 21 -29 25 -23 4 6 -1 23 -10 37 -16 25 -16 25 15 31
17 4 31 11 31 16 0 6 -14 8 -35 4 -34 -7 -35 -6 -35 24 0 16 -4 30 -10 30 -5
0 -10 -14 -10 -31z"/>
<path d="M1470 6209 c0 -29 -2 -30 -30 -24 -19 4 -30 3 -30 -4 0 -6 6 -11 13
-11 6 0 19 -4 27 -10 12 -7 11 -12 -5 -30 -14 -15 -16 -23 -7 -32 8 -8 14 -4
23 15 7 15 15 27 19 27 4 0 12 -12 19 -27 8 -18 15 -23 22 -16 8 8 6 19 -6 37
-17 26 -17 26 14 32 17 4 31 11 31 16 0 6 -14 8 -35 4 -34 -7 -35 -6 -35 24 0
16 -4 30 -10 30 -5 0 -10 -14 -10 -31z"/>
<path d="M1790 6209 c0 -29 -2 -30 -30 -24 -36 8 -41 -10 -5 -19 29 -7 32 -18
10 -36 -19 -15 -19 -30 -2 -30 8 0 19 12 26 28 l13 27 17 -34 c11 -20 21 -29
25 -23 4 6 -1 23 -10 37 -16 25 -16 25 15 31 17 4 31 11 31 16 0 6 -14 8 -35
4 -34 -7 -35 -6 -35 24 0 16 -4 30 -10 30 -5 0 -10 -14 -10 -31z"/>
<path d="M2110 6209 c0 -29 -2 -30 -30 -24 -19 4 -30 3 -30 -4 0 -6 6 -11 13
-11 6 0 18 -4 26 -9 11 -7 10 -13 -4 -35 -14 -21 -15 -26 -3 -26 8 0 20 12 27
28 l13 27 17 -34 c11 -20 21 -29 25 -23 4 6 -1 23 -10 37 -16 25 -16 25 15 31
17 4 31 11 31 16 0 6 -14 8 -36 3 -36 -6 -36 -6 -32 24 3 21 0 31 -9 31 -8 0
-13 -12 -13 -31z"/>
<path d="M2440 6209 c0 -29 -2 -30 -30 -24 -36 8 -41 -10 -5 -19 29 -7 32 -18
10 -36 -19 -16 -19 -30 -1 -30 8 0 18 9 21 20 8 27 19 25 35 -5 8 -15 17 -22
23 -16 5 5 2 19 -8 35 -17 26 -17 26 14 32 17 4 31 11 31 16 0 6 -14 8 -35 4
-34 -7 -35 -6 -35 24 0 16 -4 30 -10 30 -5 0 -10 -14 -10 -31z"/>
<path d="M2760 6209 c0 -29 -2 -30 -30 -24 -19 4 -30 3 -30 -4 0 -6 6 -11 13
-11 6 0 18 -4 26 -9 11 -7 10 -13 -3 -34 -13 -19 -14 -26 -4 -29 7 -3 19 9 26
26 l14 31 17 -34 c11 -20 21 -29 25 -23 4 6 0 22 -9 36 -16 24 -15 24 14 31
44 9 40 29 -4 21 -34 -7 -35 -6 -35 24 0 16 -4 30 -10 30 -5 0 -10 -14 -10
-31z"/>
<path d="M3080 6209 c0 -29 -2 -30 -30 -24 -19 4 -30 3 -30 -4 0 -6 6 -11 13
-11 6 0 18 -4 26 -9 11 -7 10 -13 -3 -34 -13 -19 -14 -26 -4 -29 7 -3 19 9 26
26 l14 31 17 -34 c12 -22 21 -30 25 -22 4 7 0 23 -8 37 -16 24 -16 24 14 30
16 4 30 11 30 16 0 6 -14 8 -36 3 -36 -6 -36 -6 -32 24 3 21 0 31 -9 31 -8 0
-13 -12 -13 -31z"/>
<path d="M3404 6209 c6 -31 6 -31 -29 -25 -43 8 -48 -10 -5 -19 l30 -7 -20
-26 c-16 -20 -18 -27 -8 -34 9 -5 17 2 27 25 l13 32 18 -34 c11 -22 20 -30 24
-22 4 7 1 23 -8 36 -15 23 -15 24 14 30 44 10 37 27 -7 19 l-36 -7 6 32 c5 24
3 31 -9 31 -13 0 -15 -7 -10 -31z"/>
<path d="M3732 6209 c5 -30 4 -30 -29 -24 -20 3 -33 2 -33 -5 0 -5 6 -10 13
-10 6 0 18 -4 26 -9 11 -7 10 -13 -3 -34 -13 -19 -14 -26 -4 -29 7 -3 19 9 26
26 l14 31 17 -34 c12 -22 21 -30 25 -22 4 7 0 23 -8 37 -16 24 -16 24 14 30
16 4 30 11 30 16 0 6 -14 8 -36 3 -36 -6 -36 -6 -32 24 3 22 1 31 -10 31 -10
0 -13 -9 -10 -31z"/>
<path d="M4054 6209 c6 -31 6 -31 -29 -25 -43 8 -48 -10 -5 -19 l30 -7 -20
-26 c-16 -20 -18 -27 -8 -34 9 -5 17 2 27 25 l13 32 18 -34 c11 -22 20 -30 24
-22 4 7 1 23 -8 36 -15 23 -15 24 14 30 44 10 38 29 -6 20 -37 -6 -37 -6 -31
24 5 24 3 31 -9 31 -13 0 -15 -7 -10 -31z"/>
<path d="M4375 6209 c7 -30 7 -30 -29 -24 -44 9 -50 -10 -6 -20 l30 -7 -20
-26 c-16 -20 -18 -27 -8 -34 9 -5 17 2 27 25 l13 32 17 -31 c9 -17 22 -29 29
-27 9 4 7 12 -8 33 l-20 28 30 7 c44 10 38 27 -7 19 l-36 -7 6 32 c5 24 3 31
-9 31 -12 0 -14 -7 -9 -31z"/>
<path d="M4704 6209 c6 -31 6 -31 -29 -25 -22 4 -35 3 -35 -4 0 -5 6 -10 13
-10 6 0 18 -4 26 -9 11 -7 10 -13 -3 -34 -14 -21 -15 -25 -2 -30 10 -4 18 5
26 26 l11 32 18 -34 c12 -22 21 -30 25 -22 4 7 1 23 -8 36 -15 23 -15 24 14
30 44 10 38 29 -6 20 -37 -6 -37 -6 -31 24 5 24 3 31 -9 31 -13 0 -15 -7 -10
-31z"/>
<path d="M5025 6209 l7 -32 -36 7 c-44 8 -49 -9 -6 -19 l30 -7 -20 -26 c-16
-20 -18 -27 -8 -34 9 -5 17 2 27 25 l13 32 17 -31 c9 -17 22 -29 29 -27 9 4 7
12 -8 33 l-20 28 30 7 c44 10 38 29 -6 20 -37 -6 -37 -6 -31 24 5 24 3 31 -9
31 -12 0 -14 -7 -9 -31z"/>
<path d="M5347 6209 c6 -30 6 -30 -31 -24 -44 9 -50 -10 -6 -20 l30 -7 -20
-28 c-15 -21 -17 -29 -8 -33 7 -2 20 9 29 26 l16 29 12 -30 c8 -20 18 -29 27
-25 11 4 10 10 -6 33 l-20 28 30 7 c44 10 38 27 -7 19 l-36 -7 6 32 c5 23 3
31 -8 31 -11 0 -13 -8 -8 -31z"/>
<path d="M5667 6209 c6 -30 6 -30 -31 -24 -44 9 -50 -10 -6 -20 29 -6 29 -7
13 -31 -11 -17 -13 -28 -6 -35 7 -7 14 0 23 22 l13 31 16 -30 c11 -21 20 -29
29 -23 10 6 8 13 -8 33 l-20 26 30 7 c43 9 38 27 -5 19 -35 -6 -36 -6 -30 25
4 23 2 31 -10 31 -11 0 -13 -7 -8 -31z"/>
<path d="M5997 6209 c6 -30 6 -30 -31 -24 -44 9 -50 -10 -6 -20 l30 -7 -20
-28 c-15 -21 -17 -29 -8 -33 7 -2 20 9 29 26 l16 29 12 -30 c8 -20 18 -29 27
-25 11 4 10 10 -6 33 l-20 28 30 7 c44 10 38 27 -7 19 l-36 -7 6 32 c5 23 3
31 -8 31 -11 0 -13 -8 -8 -31z"/>
<path d="M6317 6209 c6 -30 6 -30 -31 -24 -44 9 -50 -10 -6 -20 29 -6 29 -7
13 -31 -11 -17 -13 -28 -6 -35 7 -7 14 0 23 22 l13 31 16 -30 c11 -21 20 -29
29 -23 10 6 8 13 -8 33 l-20 26 30 7 c43 9 38 29 -5 21 -35 -7 -35 -7 -30 24
4 22 2 30 -10 30 -11 0 -13 -7 -8 -31z"/>
<path d="M6967 6209 c6 -30 6 -30 -31 -24 -44 9 -50 -10 -6 -20 29 -6 29 -7
13 -31 -11 -17 -13 -28 -6 -35 7 -7 14 0 23 22 l13 31 16 -30 c11 -21 20 -29
29 -23 10 6 8 13 -8 33 l-20 26 30 7 c43 10 38 27 -6 19 l-36 -7 7 32 c5 24 3
31 -9 31 -12 0 -14 -7 -9 -31z"/>
<path d="M7287 6209 c6 -30 6 -30 -31 -24 -44 9 -50 -10 -6 -20 29 -6 29 -7
14 -30 -9 -13 -12 -29 -8 -36 4 -8 13 0 24 22 l18 34 13 -32 c10 -23 18 -30
27 -25 10 7 8 14 -8 34 l-20 26 30 7 c43 9 38 27 -5 19 -35 -6 -35 -6 -29 25
5 24 3 31 -9 31 -13 0 -15 -7 -10 -31z"/>
<path d="M7607 6209 c6 -30 6 -30 -31 -24 -44 9 -50 -10 -6 -20 29 -6 29 -7
13 -31 -11 -18 -13 -28 -5 -36 8 -8 15 -1 25 23 l15 34 12 -32 c8 -21 16 -30
26 -26 13 5 12 9 -2 30 -13 21 -14 27 -3 34 8 5 20 9 27 9 6 0 12 5 12 10 0 7
-13 8 -33 5 -33 -6 -34 -6 -29 24 3 24 0 31 -12 31 -12 0 -14 -7 -9 -31z"/>
<path d="M7937 6209 c6 -30 6 -30 -31 -24 -44 9 -50 -10 -6 -20 29 -6 29 -7
13 -31 -11 -17 -13 -28 -6 -35 7 -7 14 0 23 22 l13 31 16 -30 c11 -21 20 -29
29 -23 10 6 8 13 -7 33 l-21 26 30 6 c17 3 30 10 30 16 0 7 -13 9 -35 4 -35
-6 -35 -6 -29 25 5 24 3 31 -9 31 -13 0 -15 -7 -10 -31z"/>
<path d="M1750 5515 l0 -205 40 0 40 0 0 205 0 205 -40 0 -40 0 0 -205z"/>
<path d="M330 5665 l0 -35 50 0 50 0 0 -161 0 -160 38 3 37 3 3 158 3 157 49
0 50 0 0 35 0 35 -140 0 -140 0 0 -35z"/>
<path d="M7050 5677 c-14 -12 -41 -35 -59 -50 l-34 -28 21 -22 22 -21 28 27
c15 15 31 27 35 27 4 0 7 -67 7 -150 l0 -150 35 0 35 0 0 195 0 195 -32 0
c-19 0 -44 -10 -58 -23z"/>
<path d="M7379 5680 c-56 -30 -84 -94 -84 -195 0 -124 40 -175 137 -175 76 0
118 50 118 140 0 44 -5 56 -29 81 -37 36 -94 40 -135 8 -30 -23 -33 -13 -15
40 14 39 54 61 114 61 43 0 45 1 45 30 0 30 0 30 -57 30 -37 -1 -71 -8 -94
-20z m91 -199 c25 -47 -2 -111 -45 -111 -48 0 -78 89 -39 117 27 20 72 16 84
-6z"/>
<path d="M7886 5678 c-3 -13 -7 -58 -10 -100 -4 -58 -3 -78 7 -79 6 -1 35 -2
63 -3 62 -1 84 -18 84 -62 0 -59 -53 -76 -147 -48 -20 6 -23 3 -23 -25 0 -25
6 -34 26 -41 34 -13 113 -13 152 1 73 25 97 141 43 201 -25 28 -36 33 -82 34
-30 1 -53 5 -51 8 1 3 2 19 2 36 0 29 0 29 68 32 l67 3 3 33 3 32 -100 0 c-96
0 -101 -1 -105 -22z"/>
<path d="M1129 5641 c-6 -16 -21 -37 -35 -46 -29 -19 -32 -45 -5 -45 17 0 19
-10 23 -101 3 -92 5 -103 27 -120 23 -19 83 -25 115 -13 9 4 16 18 16 33 0 25
-3 27 -30 23 -49 -7 -58 9 -56 96 l1 77 43 3 c40 3 43 5 40 30 -3 23 -9 28
-43 32 -35 4 -40 8 -40 30 0 18 -6 26 -23 28 -17 3 -25 -3 -33 -27z"/>
<path d="M768 5595 c-73 -41 -83 -187 -18 -250 55 -53 165 -43 205 18 37 58
27 173 -20 217 -32 30 -125 39 -167 15z m114 -62 c24 -22 25 -118 1 -145 -19
-22 -52 -23 -79 -4 -15 11 -19 27 -19 74 0 35 5 66 14 75 17 22 59 22 83 0z"/>
<path d="M1413 5600 c-20 -8 -22 -12 -11 -35 8 -17 17 -24 27 -20 59 23 111
11 111 -25 0 -14 -9 -21 -35 -25 -19 -3 -51 -7 -70 -10 -49 -8 -78 -48 -72
-100 8 -56 38 -78 99 -73 27 3 57 13 69 23 19 18 20 18 26 -3 3 -15 13 -22 29
-22 24 0 24 0 24 124 0 159 -6 169 -106 173 -38 2 -79 -2 -91 -7z m127 -175
c0 -47 -59 -82 -88 -53 -32 32 0 78 54 78 30 0 34 -3 34 -25z"/>
<path d="M7664 5376 c-3 -8 -4 -25 -2 -38 2 -19 9 -23 38 -23 33 0 35 2 35 35
0 32 -3 35 -33 38 -21 2 -34 -2 -38 -12z"/>
<path d="M1020 5015 c0 -83 4 -135 10 -135 6 0 10 30 10 69 0 76 13 101 54
101 37 0 46 -19 46 -97 0 -42 4 -73 10 -73 6 0 10 33 10 79 0 59 -4 84 -16 95
-18 18 -56 21 -85 6 -18 -10 -19 -7 -19 40 0 27 -4 50 -10 50 -6 0 -10 -52
-10 -135z"/>
<path d="M379 5102 c-25 -23 -32 -38 -36 -79 -6 -62 17 -116 56 -133 34 -14
103 -10 108 7 3 8 -8 10 -36 6 -53 -7 -87 15 -100 65 -23 82 22 147 96 140 21
-1 40 2 43 7 3 6 -16 11 -47 13 -45 3 -56 -1 -84 -26z"/>
<path d="M7401 5117 c-14 -18 -2 -30 15 -16 7 6 28 9 46 7 30 -3 33 -6 36 -40
3 -32 -3 -43 -57 -101 -34 -35 -61 -70 -61 -76 0 -7 28 -11 81 -11 60 0 80 3
77 13 -3 7 -27 13 -62 15 l-57 3 50 54 c57 63 71 104 47 140 -13 20 -25 25
-60 25 -24 0 -48 -6 -55 -13z"/>
<path d="M7636 5111 c-20 -22 -31 -104 -22 -156 14 -72 84 -101 124 -50 39 49
36 169 -4 210 -21 21 -77 19 -98 -4z m94 -27 c6 -14 10 -51 10 -82 0 -90 -42
-130 -85 -82 -22 25 -27 132 -7 168 19 33 69 31 82 -4z"/>
<path d="M7981 5104 c-17 -21 -21 -41 -21 -99 0 -58 4 -78 21 -99 25 -31 66
-34 100 -7 22 17 24 27 24 104 0 69 -3 89 -19 106 -28 31 -79 28 -105 -5z m96
-24 c17 -34 16 -103 -2 -146 -12 -30 -19 -35 -42 -32 -17 2 -32 12 -41 28 -16
31 -11 142 8 164 19 24 62 16 77 -14z"/>
<path d="M623 5063 c-28 -11 -11 -21 26 -16 33 5 41 2 50 -16 16 -29 6 -41
-32 -41 -45 0 -77 -25 -77 -59 0 -48 43 -66 93 -40 16 9 22 9 25 0 2 -6 8 -11
13 -11 5 0 9 35 9 78 0 64 -4 82 -18 95 -18 16 -63 21 -89 10z m79 -114 c-5
-33 -20 -49 -47 -49 -56 0 -56 59 1 71 41 9 49 5 46 -22z"/>
<path d="M826 5057 c-32 -24 -17 -59 37 -85 39 -18 48 -27 45 -45 -3 -19 -9
-22 -51 -21 -56 0 -60 -19 -4 -24 51 -4 77 12 77 48 0 26 -7 33 -51 55 -63 32
-65 59 -4 62 60 2 61 3 45 13 -22 14 -73 12 -94 -3z"/>
<path d="M7850 4900 c0 -11 7 -20 15 -20 8 0 15 9 15 20 0 11 -7 20 -15 20 -8
0 -15 -9 -15 -20z"/>
<path d="M600 4585 c0 -83 4 -135 10 -135 6 0 10 26 10 58 0 70 17 106 50 110
45 4 54 -11 58 -92 5 -97 22 -99 22 -3 0 91 -17 121 -64 114 -17 -2 -39 -7
-48 -12 -16 -6 -18 -1 -18 44 0 28 -4 51 -10 51 -6 0 -10 -52 -10 -135z"/>
<path d="M379 4672 c-60 -53 -47 -184 20 -212 34 -14 103 -10 108 7 3 8 -8 10
-36 6 -53 -7 -87 15 -100 65 -23 84 24 149 99 139 41 -5 63 6 34 17 -40 15
-94 6 -125 -22z"/>
<path d="M7625 4686 c-17 -12 -12 -13 41 -12 58 1 59 1 62 -29 4 -33 -18 -55
-55 -55 -13 0 -23 -4 -23 -10 0 -5 13 -10 29 -10 55 0 79 -50 41 -85 -15 -13
-30 -16 -65 -13 -44 5 -61 -4 -29 -16 34 -13 94 -6 114 14 30 30 27 84 -5 98
l-25 11 26 26 c27 27 26 59 -4 83 -21 16 -84 15 -107 -2z"/>
<path d="M7976 4684 c-3 -9 -6 -36 -6 -60 l0 -44 45 0 c37 0 47 -4 62 -26 15
-24 15 -29 2 -53 -13 -23 -21 -26 -67 -26 -52 1 -67 -7 -36 -19 63 -24 134 15
134 74 0 43 -31 70 -81 70 l-40 0 3 38 c3 37 3 37 51 40 65 4 60 22 -7 22 -40
0 -55 -4 -60 -16z"/>
<path d="M863 4633 c-22 -8 -14 -25 8 -18 36 12 69 -3 69 -30 0 -21 -5 -25
-30 -25 -69 0 -105 -41 -76 -85 18 -27 53 -33 88 -14 16 9 23 8 29 -2 5 -9 9
21 9 73 0 76 -2 89 -19 98 -20 10 -57 12 -78 3z m77 -113 c0 -26 -27 -50 -56
-50 -51 0 -41 60 12 71 36 7 44 3 44 -21z"/>
<path d="M1070 4546 c0 -57 4 -96 10 -96 6 0 10 30 10 69 0 76 13 101 54 101
37 0 46 -19 46 -97 0 -42 4 -73 10 -73 6 0 10 33 10 79 0 59 -4 84 -16 95 -17
18 -61 21 -84 6 -9 -5 -19 -5 -27 2 -10 8 -13 -9 -13 -86z"/>
<path d="M1310 4620 c-24 -24 -25 -48 -5 -77 11 -15 12 -24 4 -28 -6 -4 -8
-17 -5 -30 4 -14 0 -28 -9 -35 -21 -18 -19 -57 4 -70 29 -15 93 -12 119 6 28
20 30 69 3 84 -11 5 -35 10 -54 10 -18 0 -36 3 -40 6 -12 12 6 34 27 34 12 0
32 7 45 16 18 13 22 24 19 50 -3 23 0 34 9 34 7 0 13 5 13 10 0 6 -25 10 -55
10 -42 0 -60 -5 -75 -20z m85 -40 c0 -33 -2 -35 -35 -35 -29 0 -36 4 -38 23
-6 40 5 54 40 50 30 -3 33 -6 33 -38z m13 -129 c21 -13 10 -44 -21 -59 -54
-26 -116 22 -71 55 20 15 72 17 92 4z"/>
<path d="M1540 4620 c-40 -40 -38 -128 5 -156 25 -17 96 -16 102 1 2 7 -12 9
-35 7 -43 -4 -72 16 -72 49 0 17 7 19 60 19 56 0 60 1 60 24 0 62 -77 99 -120
56z m78 -12 c7 -7 12 -20 12 -30 0 -15 -8 -18 -45 -18 -37 0 -45 3 -45 18 0
24 19 42 45 42 12 0 26 -5 33 -12z"/>
<path d="M7850 4470 c0 -11 7 -20 15 -20 8 0 15 9 15 20 0 11 -7 20 -15 20 -8
0 -15 -9 -15 -20z"/>
<path d="M500 4059 c0 -30 -2 -31 -30 -25 -22 4 -30 2 -30 -9 0 -9 10 -15 25
-15 29 0 30 -3 9 -34 -10 -16 -12 -26 -5 -31 6 -3 16 5 23 19 6 14 14 26 18
26 4 0 12 -12 18 -26 7 -14 17 -22 23 -19 7 5 5 15 -5 31 -21 31 -20 32 9 36
14 2 24 8 23 13 -2 6 -15 9 -30 7 -25 -3 -28 0 -28 27 0 17 -4 31 -10 31 -5 0
-10 -14 -10 -31z"/>
<path d="M820 4059 c0 -30 -2 -31 -30 -25 -22 4 -30 2 -30 -9 0 -9 10 -15 25
-15 29 0 30 -3 9 -34 -10 -16 -12 -26 -5 -31 6 -3 16 5 23 19 14 33 22 33 37
-1 9 -19 15 -23 23 -15 9 9 7 16 -5 30 -23 25 -21 30 10 34 14 2 28 9 31 16 3
10 -4 12 -32 7 -35 -7 -36 -6 -36 24 0 17 -4 31 -10 31 -5 0 -10 -14 -10 -31z"/>
<path d="M1140 4059 c0 -29 -2 -30 -30 -24 -23 5 -30 3 -30 -9 0 -10 9 -16 25
-16 28 0 30 -7 10 -34 -8 -10 -12 -23 -9 -27 10 -16 22 -9 28 16 8 32 20 32
35 -2 9 -19 15 -23 23 -15 9 9 7 16 -5 30 -23 25 -21 30 10 34 14 2 28 9 31
16 3 10 -5 12 -33 6 -38 -7 -38 -7 -33 25 3 21 0 31 -9 31 -8 0 -13 -12 -13
-31z"/>
<path d="M1470 4059 c0 -30 -2 -31 -30 -25 -22 4 -30 2 -30 -9 0 -9 10 -15 25
-15 29 0 30 -3 9 -34 -10 -16 -12 -26 -5 -31 6 -3 16 5 23 19 14 33 22 33 37
-1 9 -19 15 -23 23 -15 9 9 7 16 -5 30 -23 25 -21 30 10 34 14 2 28 9 31 16 3
10 -4 12 -32 7 -35 -7 -36 -6 -36 24 0 17 -4 31 -10 31 -5 0 -10 -14 -10 -31z"/>
<path d="M1790 4059 c0 -29 -2 -30 -30 -24 -23 5 -30 3 -30 -9 0 -10 9 -16 25
-16 28 0 30 -7 10 -34 -8 -10 -12 -23 -9 -27 10 -16 22 -9 28 16 8 32 20 32
35 -2 9 -19 15 -23 23 -15 9 9 7 16 -5 30 -23 25 -21 30 10 34 14 2 28 9 31
16 3 10 -4 12 -32 7 -35 -7 -36 -6 -36 24 0 17 -4 31 -10 31 -5 0 -10 -14 -10
-31z"/>
<path d="M2110 4059 c0 -29 -2 -30 -30 -24 -23 5 -30 3 -30 -9 0 -10 9 -16 25
-16 28 0 30 -7 10 -34 -8 -10 -12 -23 -9 -27 10 -16 22 -9 28 16 8 32 20 32
35 -2 8 -18 15 -23 22 -16 8 8 6 19 -6 36 -16 25 -16 26 11 29 15 2 29 9 32
16 3 10 -5 12 -33 6 -38 -7 -38 -7 -33 25 3 21 0 31 -9 31 -8 0 -13 -12 -13
-31z"/>
<path d="M2440 4059 c0 -29 -2 -30 -30 -24 -23 5 -30 3 -30 -9 0 -10 9 -16 25
-16 28 0 30 -7 10 -34 -8 -10 -12 -23 -9 -27 10 -16 22 -9 28 16 8 32 20 32
35 -2 9 -19 15 -23 23 -15 9 9 7 16 -5 30 -23 25 -21 30 10 34 14 2 28 9 31
16 3 10 -4 12 -32 7 -35 -7 -36 -6 -36 24 0 17 -4 31 -10 31 -5 0 -10 -14 -10
-31z"/>
<path d="M2760 4059 c0 -29 -2 -30 -30 -24 -23 5 -30 3 -30 -9 0 -10 9 -16 25
-16 28 0 30 -7 10 -34 -8 -10 -12 -23 -9 -27 10 -16 22 -9 28 16 8 32 20 32
35 -2 8 -18 15 -23 22 -16 8 8 6 19 -6 36 -16 25 -16 26 11 29 15 2 29 9 32
16 3 10 -5 12 -33 6 -38 -7 -38 -7 -33 25 3 21 0 31 -9 31 -8 0 -13 -12 -13
-31z"/>
<path d="M3082 4059 c5 -30 4 -30 -29 -24 -26 5 -33 3 -33 -10 0 -10 10 -15
31 -15 l30 0 -20 -26 c-11 -15 -18 -30 -15 -35 10 -17 24 -9 30 16 8 32 20 32
37 -1 9 -17 17 -23 21 -16 4 6 0 22 -9 36 -16 24 -16 25 11 28 15 2 29 9 32
16 3 10 -5 12 -33 6 l-38 -7 6 32 c5 24 3 31 -9 31 -12 0 -15 -7 -12 -31z"/>
<path d="M3404 4059 c6 -31 6 -31 -29 -25 -28 6 -35 4 -35 -9 0 -10 10 -15 31
-15 l30 0 -21 -29 c-14 -21 -17 -32 -9 -37 12 -7 29 12 29 34 0 21 20 13 31
-12 7 -14 17 -22 25 -19 11 4 9 11 -7 32 l-21 26 31 3 c19 2 31 9 31 18 0 12
-8 13 -37 8 l-36 -7 6 32 c5 24 3 31 -9 31 -13 0 -15 -7 -10 -31z"/>
<path d="M3732 4059 c5 -30 4 -30 -29 -24 -26 5 -33 3 -33 -10 0 -10 10 -15
31 -15 l30 0 -21 -29 c-14 -21 -17 -32 -9 -37 12 -7 29 12 29 34 0 20 16 14
30 -13 8 -15 17 -22 23 -16 5 5 2 19 -8 34 -16 25 -16 26 11 29 15 2 29 9 32
16 3 10 -5 12 -33 6 -38 -7 -38 -7 -33 25 3 22 1 31 -10 31 -10 0 -13 -9 -10
-31z"/>
<path d="M4054 4059 c6 -31 6 -31 -29 -25 -28 6 -35 4 -35 -9 0 -10 10 -15 31
-15 l30 0 -21 -29 c-14 -21 -17 -32 -9 -37 12 -7 29 12 29 34 0 21 20 13 31
-12 7 -14 17 -22 25 -19 11 4 9 11 -7 32 l-21 26 31 3 c19 2 31 9 31 18 0 12
-8 13 -37 8 l-36 -7 6 32 c5 24 3 31 -9 31 -13 0 -15 -7 -10 -31z"/>
<path d="M4375 4059 l7 -32 -36 7 c-29 6 -36 4 -36 -9 0 -10 10 -15 31 -15
l30 0 -20 -29 c-19 -26 -19 -41 -1 -41 4 0 12 12 19 27 12 27 13 27 27 9 7
-10 15 -23 17 -29 2 -6 9 -7 15 -3 9 5 7 15 -8 37 l-21 29 30 0 c21 0 31 5 31
15 0 13 -7 15 -37 9 l-36 -7 6 32 c5 24 3 31 -9 31 -12 0 -14 -7 -9 -31z"/>
<path d="M4704 4059 c6 -31 6 -31 -29 -25 -28 6 -35 4 -35 -9 0 -10 10 -15 31
-15 l30 0 -21 -29 c-14 -21 -17 -32 -9 -37 12 -7 29 12 29 34 0 21 20 13 30
-13 6 -16 15 -23 25 -19 13 5 12 10 -6 33 l-21 26 28 5 c15 3 29 11 32 18 3
10 -5 12 -33 6 l-38 -7 6 32 c5 24 3 31 -9 31 -13 0 -15 -7 -10 -31z"/>
<path d="M5025 4059 l7 -32 -36 7 c-29 6 -36 4 -36 -9 0 -10 10 -15 31 -15
l30 0 -21 -29 c-15 -22 -17 -32 -8 -37 6 -4 13 -3 15 3 2 6 10 19 17 29 14 18
15 18 26 -8 8 -16 18 -24 26 -21 11 4 9 11 -7 32 l-21 26 31 3 c19 2 31 9 31
18 0 12 -8 13 -37 8 l-36 -7 6 32 c5 24 3 31 -9 31 -12 0 -14 -7 -9 -31z"/>
<path d="M5345 4059 l7 -32 -36 7 c-29 6 -36 4 -36 -9 0 -10 10 -15 31 -15
l30 0 -20 -29 c-19 -26 -19 -41 -1 -41 4 0 12 12 19 27 12 27 13 27 27 9 7
-10 15 -23 17 -29 2 -6 9 -7 15 -3 9 5 7 15 -8 37 l-21 29 30 0 c21 0 31 5 31
15 0 13 -7 15 -37 9 l-36 -7 6 32 c5 24 3 31 -9 31 -12 0 -14 -7 -9 -31z"/>
<path d="M5667 4059 l6 -32 -36 7 c-30 6 -37 4 -37 -9 0 -10 10 -15 30 -15 30
0 30 0 14 -25 -8 -13 -12 -29 -8 -36 4 -8 12 -2 22 16 14 27 15 28 28 10 7
-10 15 -22 17 -28 2 -6 9 -7 15 -3 9 5 7 15 -8 37 l-21 29 30 0 c21 0 31 5 31
15 0 13 -7 15 -35 9 -35 -6 -36 -6 -30 25 4 23 2 31 -10 31 -11 0 -13 -7 -8
-31z"/>
<path d="M5997 4059 l6 -32 -36 7 c-30 6 -37 4 -37 -9 0 -10 10 -15 31 -15
l30 0 -20 -29 c-19 -26 -19 -41 -1 -41 4 0 12 12 19 27 12 27 13 27 27 9 7
-10 15 -23 17 -29 2 -6 9 -7 15 -3 9 5 7 15 -8 37 l-21 29 30 0 c21 0 31 5 31
15 0 13 -7 15 -37 9 l-36 -7 6 32 c5 23 3 31 -8 31 -11 0 -13 -8 -8 -31z"/>
<path d="M6317 4059 l6 -32 -36 7 c-30 6 -37 4 -37 -9 0 -10 10 -15 30 -15 30
0 30 0 14 -25 -8 -13 -12 -29 -8 -36 4 -8 12 -2 22 16 14 27 15 28 28 10 7
-10 15 -22 17 -28 2 -6 9 -7 15 -3 9 5 7 15 -8 37 l-21 29 30 0 c21 0 31 5 31
15 0 13 -7 15 -37 9 l-36 -7 6 32 c5 23 3 31 -8 31 -11 0 -13 -8 -8 -31z"/>
<path d="M6637 4059 l6 -32 -36 7 c-30 6 -37 4 -37 -9 0 -10 10 -15 31 -15
l31 0 -17 -26 c-12 -18 -14 -29 -6 -37 7 -7 14 -2 21 19 11 28 12 28 25 10 8
-10 16 -23 18 -29 2 -6 9 -7 15 -3 9 5 7 15 -8 37 l-21 29 30 0 c21 0 31 5 31
15 0 13 -7 15 -35 9 -35 -6 -35 -6 -29 25 5 24 3 31 -9 31 -13 0 -15 -7 -10
-31z"/>
<path d="M6967 4059 l6 -32 -36 7 c-30 6 -37 4 -37 -9 0 -10 10 -15 30 -15 30
0 30 0 14 -25 -8 -13 -12 -29 -8 -36 4 -8 12 -2 22 16 14 27 15 28 28 10 7
-10 15 -22 17 -28 2 -6 9 -7 15 -3 9 5 7 15 -8 37 l-21 29 30 0 c21 0 31 5 31
15 0 13 -7 15 -37 9 l-36 -7 6 32 c5 23 3 31 -8 31 -11 0 -13 -8 -8 -31z"/>
<path d="M7287 4059 l6 -32 -36 7 c-30 6 -37 4 -37 -9 0 -10 10 -15 31 -15 31
0 31 0 15 -25 -9 -14 -14 -31 -10 -37 4 -7 13 0 22 17 14 27 15 28 28 10 7
-10 15 -22 17 -28 2 -6 9 -7 15 -3 9 5 7 15 -8 37 l-21 29 30 0 c21 0 31 5 31
15 0 13 -7 15 -35 9 -35 -6 -35 -6 -29 25 5 24 3 31 -9 31 -13 0 -15 -7 -10
-31z"/>
<path d="M7607 4059 l6 -32 -38 7 c-28 6 -36 4 -33 -6 3 -7 17 -14 32 -16 27
-3 27 -4 11 -29 -12 -18 -14 -28 -6 -36 7 -7 13 -2 20 16 11 28 31 37 31 15 0
-22 17 -41 29 -34 8 5 5 16 -9 37 l-21 29 30 0 c21 0 31 5 31 15 0 13 -7 15
-33 10 -33 -6 -34 -6 -29 24 3 24 0 31 -12 31 -12 0 -14 -7 -9 -31z"/>
<path d="M7937 4059 l6 -32 -38 7 c-28 6 -36 4 -33 -6 3 -7 17 -14 32 -16 27
-3 27 -4 11 -28 -9 -14 -13 -30 -9 -36 4 -7 13 0 22 17 14 27 15 28 28 10 7
-10 15 -22 17 -28 2 -6 9 -7 15 -3 9 5 7 15 -8 37 l-21 29 30 0 c21 0 31 5 31
15 0 13 -7 15 -35 9 -35 -6 -35 -6 -29 25 5 24 3 31 -9 31 -13 0 -15 -7 -10
-31z"/>
<path d="M1070 3530 c0 -74 4 -130 9 -130 6 0 11 17 13 37 4 50 20 51 53 3 15
-22 34 -40 42 -40 10 0 3 16 -22 51 l-37 51 32 39 c42 52 21 50 -29 -3 l-40
-43 -1 83 c0 48 -4 82 -10 82 -6 0 -10 -50 -10 -130z"/>
<path d="M2120 3617 c0 -53 -6 -60 -35 -41 -16 10 -29 12 -47 5 -38 -14 -52
-39 -52 -91 0 -76 44 -112 101 -83 18 9 29 11 31 4 2 -6 8 -11 13 -11 5 0 9
58 9 130 0 80 -4 130 -10 130 -5 0 -10 -19 -10 -43z m-30 -57 c5 0 14 -17 20
-39 20 -75 -23 -131 -75 -97 -20 13 -25 25 -25 61 0 49 29 91 57 81 8 -3 19
-6 23 -6z"/>
<path d="M7533 3640 c-13 -5 -23 -14 -23 -21 0 -7 7 -8 18 -4 59 25 92 12 92
-36 0 -22 -15 -46 -60 -94 -33 -35 -60 -69 -60 -75 0 -6 32 -10 81 -10 51 0
78 4 74 10 -3 6 -31 10 -61 10 -30 0 -54 3 -54 6 0 3 23 31 50 61 60 66 69
111 28 146 -22 19 -50 21 -85 7z"/>
<path d="M7752 3637 c-31 -18 -17 -28 20 -15 41 14 78 -3 78 -36 0 -28 -10
-36 -60 -52 l-35 -11 43 -7 c31 -6 46 -15 54 -31 22 -48 -36 -88 -95 -66 -22
9 -27 8 -27 -4 0 -26 104 -23 133 3 26 24 19 83 -12 98 l-23 12 21 11 c30 16
29 74 -1 95 -27 19 -65 20 -96 3z"/>
<path d="M8007 3566 c-31 -46 -57 -89 -57 -97 0 -11 13 -13 55 -11 52 4 55 2
56 -20 1 -12 1 -26 0 -30 0 -5 6 -8 14 -8 10 0 15 10 15 31 0 24 4 30 15 25 9
-3 15 0 15 9 0 8 -7 15 -15 15 -12 0 -15 16 -15 85 0 64 -3 85 -13 85 -7 0
-39 -38 -70 -84z m59 28 c-3 -9 -6 -38 -6 -65 l0 -49 -45 0 -45 0 42 65 c40
60 68 86 54 49z"/>
<path d="M350 3520 l0 -120 63 0 c50 0 68 4 81 19 24 26 18 82 -10 96 l-21 10
23 18 c13 10 24 28 24 41 0 39 -30 56 -98 56 l-62 0 0 -120z m114 94 c19 -7
21 -45 4 -62 -7 -7 -31 -12 -55 -12 -42 0 -43 1 -43 33 0 19 3 37 7 40 8 9 66
9 87 1z m4 -110 c28 -19 29 -60 2 -74 -12 -6 -38 -10 -58 -8 -34 3 -37 6 -40
36 -2 19 -1 40 2 48 7 19 66 18 94 -2z"/>
<path d="M645 3582 c-11 -2 -24 -9 -30 -14 -7 -7 0 -9 23 -5 25 5 37 2 52 -13
11 -11 20 -24 20 -29 0 -12 -25 -21 -56 -21 -41 0 -64 -18 -64 -49 0 -46 41
-68 86 -45 19 10 30 12 32 5 2 -6 8 -11 13 -11 14 0 11 144 -3 162 -15 18 -44
26 -73 20z m55 -122 c0 -38 -31 -57 -66 -41 -48 22 -20 68 44 70 18 1 22 -4
22 -29z"/>
<path d="M878 3575 c-16 -7 -28 -10 -28 -4 0 5 -4 9 -10 9 -6 0 -10 -37 -10
-90 0 -53 4 -90 10 -90 6 0 10 24 10 54 0 30 4 67 10 81 9 23 15 26 47 23 l38
-3 3 -77 c2 -63 6 -78 19 -78 13 0 15 12 11 75 -3 77 -13 97 -53 109 -11 3
-32 -1 -47 -9z"/>
<path d="M1454 3583 c-39 -7 -59 -41 -58 -95 0 -36 6 -55 22 -70 24 -24 76
-29 95 -8 10 10 6 12 -19 7 -50 -9 -74 14 -74 72 0 57 12 71 62 71 21 0 38 5
38 10 0 6 -4 10 -9 10 -5 0 -15 2 -23 4 -7 2 -23 1 -34 -1z"/>
<path d="M1638 3582 c-16 -2 -28 -10 -28 -17 0 -11 6 -12 26 -5 34 13 66 -4
62 -33 -2 -18 -11 -23 -44 -25 -52 -4 -79 -30 -70 -67 9 -35 49 -50 86 -31 20
10 31 11 39 3 8 -8 11 12 11 70 0 96 -14 114 -82 105z m62 -117 c0 -30 -40
-59 -70 -50 -25 8 -27 50 -2 64 9 6 29 11 45 11 22 0 27 -4 27 -25z"/>
<path d="M1876 3575 c-23 -12 -31 -13 -37 -3 -4 6 -9 -30 -11 -80 -2 -69 0
-92 10 -92 8 0 12 20 12 64 0 69 14 96 51 96 10 0 19 7 19 15 0 19 -8 19 -44
0z"/>
<path d="M5840 3490 c0 -5 18 -10 40 -10 22 0 40 5 40 10 0 6 -18 10 -40 10
-22 0 -40 -4 -40 -10z"/>
<path d="M5990 3490 c0 -5 16 -10 35 -10 19 0 35 5 35 10 0 6 -16 10 -35 10
-19 0 -35 -4 -35 -10z"/>
<path d="M6130 3490 c0 -5 18 -10 40 -10 22 0 40 5 40 10 0 6 -18 10 -40 10
-22 0 -40 -4 -40 -10z"/>
<path d="M6390 3490 c0 -5 18 -10 40 -10 22 0 40 5 40 10 0 6 -18 10 -40 10
-22 0 -40 -4 -40 -10z"/>
<path d="M6540 3490 c0 -5 16 -10 35 -10 19 0 35 5 35 10 0 6 -16 10 -35 10
-19 0 -35 -4 -35 -10z"/>
<path d="M6680 3490 c0 -5 18 -10 40 -10 22 0 40 5 40 10 0 6 -18 10 -40 10
-22 0 -40 -4 -40 -10z"/>
<path d="M6950 3490 c0 -5 18 -10 40 -10 22 0 40 5 40 10 0 6 -18 10 -40 10
-22 0 -40 -4 -40 -10z"/>
<path d="M7090 3490 c0 -5 18 -10 40 -10 22 0 40 5 40 10 0 6 -18 10 -40 10
-22 0 -40 -4 -40 -10z"/>
<path d="M7240 3490 c0 -5 16 -10 35 -10 19 0 35 5 35 10 0 6 -16 10 -35 10
-19 0 -35 -4 -35 -10z"/>
<path d="M1920 3100 c0 -80 4 -130 10 -130 6 0 10 50 10 130 0 80 -4 130 -10
130 -6 0 -10 -50 -10 -130z"/>
<path d="M2770 3178 c0 -40 -3 -49 -12 -40 -18 18 -73 14 -92 -7 -42 -46 -24
-152 29 -165 18 -5 36 -1 53 10 18 12 27 13 30 6 2 -7 8 -12 13 -12 5 0 9 58
9 130 0 109 -2 130 -15 130 -11 0 -15 -12 -15 -52z m-22 -54 c43 -30 22 -144
-26 -144 -32 0 -52 31 -52 81 0 38 5 51 22 63 12 9 25 16 28 16 3 0 16 -7 28
-16z"/>
<path d="M392 3163 c-11 -32 -32 -88 -46 -125 -20 -52 -23 -68 -12 -68 8 0 17
12 21 27 10 43 24 53 72 53 43 0 45 -2 60 -40 9 -22 22 -40 28 -40 15 0 -75
242 -92 247 -6 2 -20 -22 -31 -54z m64 -67 c6 -25 4 -26 -35 -26 l-41 0 20 50
c11 28 20 54 21 58 1 10 27 -50 35 -82z"/>
<path d="M2221 3207 c-44 -22 -66 -63 -65 -121 2 -63 23 -100 66 -115 33 -12
98 -5 98 10 0 5 -22 9 -48 9 -61 0 -83 22 -89 87 -3 36 1 56 16 81 21 32 35
37 99 33 36 -3 44 14 10 23 -35 9 -61 7 -87 -7z"/>
<path d="M7073 3208 c-27 -13 -31 -33 -5 -23 49 19 70 17 86 -8 22 -33 11 -60
-58 -134 -31 -34 -56 -63 -56 -67 0 -3 36 -6 80 -6 47 0 80 4 80 10 0 6 -27
10 -62 10 l-62 0 35 38 c79 83 96 125 66 165 -15 22 -75 30 -104 15z"/>
<path d="M7303 3210 c-13 -5 -23 -14 -23 -21 0 -6 7 -8 16 -5 62 24 94 14 94
-29 0 -27 -14 -39 -55 -50 l-30 -8 35 -11 c50 -16 60 -24 60 -51 0 -39 -43
-61 -91 -48 -28 7 -39 7 -36 0 5 -15 57 -27 87 -20 33 8 50 22 61 51 11 28
-11 72 -36 72 -9 0 -6 8 10 25 61 60 -7 129 -92 95z"/>
<path d="M7548 3132 c-32 -49 -58 -93 -58 -100 0 -8 20 -12 60 -12 57 0 60 -1
60 -25 0 -34 18 -32 22 3 2 15 9 27 17 27 8 0 16 6 19 13 2 7 -5 12 -17 12
-20 0 -21 6 -21 85 0 61 -3 85 -12 85 -7 0 -39 -40 -70 -88z m62 -17 l0 -65
-45 0 c-25 0 -45 2 -45 5 0 6 82 125 86 125 2 0 4 -29 4 -65z"/>
<path d="M8020 3207 c-59 -29 -82 -160 -37 -213 50 -57 127 -25 127 52 0 66
-43 88 -113 59 -16 -7 -17 -4 -12 21 9 37 49 74 81 74 13 0 24 5 24 10 0 14
-40 12 -70 -3z m61 -131 c16 -34 3 -74 -26 -88 -46 -21 -90 42 -61 87 23 34
72 35 87 1z"/>
<path d="M6624 3175 c-5 -28 -11 -35 -30 -35 -13 0 -24 -4 -24 -10 0 -5 9 -10
21 -10 30 0 23 -54 -8 -58 -29 -4 -30 -22 -3 -22 19 0 20 -4 14 -37 -4 -26 -3
-35 4 -28 6 6 12 21 14 35 2 19 10 26 32 28 28 3 28 3 22 -32 -4 -21 -3 -36 2
-36 6 0 13 16 16 35 6 29 11 35 31 35 14 0 25 5 25 10 0 6 -9 10 -20 10 -16 0
-20 7 -20 30 0 25 4 30 25 30 14 0 25 5 25 10 0 6 -10 10 -21 10 -19 0 -20 4
-15 35 4 22 3 35 -4 35 -5 0 -10 -9 -10 -19 0 -35 -12 -51 -37 -51 -24 0 -25
3 -20 35 3 19 2 35 -3 35 -5 0 -12 -16 -16 -35z m58 -85 c-4 -26 -9 -30 -34
-30 -23 0 -29 4 -24 16 3 9 6 22 6 30 0 9 11 14 28 14 26 0 28 -3 24 -30z"/>
<path d="M6857 3187 c-32 -27 -25 -43 9 -20 l24 15 0 -106 c0 -64 4 -106 10
-106 6 0 10 47 10 120 0 131 -3 137 -53 97z"/>
<path d="M7745 3160 c-8 -58 -2 -72 29 -64 33 8 75 -12 82 -40 13 -53 -41 -89
-100 -66 -21 8 -27 7 -24 -2 12 -34 118 -25 138 12 29 55 -2 111 -65 115 -45
3 -48 7 -40 44 6 29 10 31 50 31 24 0 47 5 50 10 4 6 -16 10 -53 10 l-60 0 -7
-50z"/>
<path d="M2455 3149 c-40 -11 -55 -34 -55 -87 0 -55 12 -77 50 -91 64 -22 117
28 107 100 -9 66 -44 93 -102 78z m65 -34 c22 -26 16 -96 -10 -117 -12 -10
-28 -18 -34 -18 -44 0 -71 80 -42 125 19 29 66 34 86 10z"/>
<path d="M2931 3148 c-36 -13 -50 -38 -50 -88 0 -51 14 -75 52 -89 30 -12 87
-4 87 11 0 6 -14 8 -35 4 -29 -6 -39 -3 -61 19 -37 37 -27 50 44 53 67 3 72 9
51 56 -14 31 -55 47 -88 34z m67 -57 c3 -19 -1 -21 -41 -21 -51 0 -57 4 -50
31 12 46 84 38 91 -10z"/>
<path d="M600 3015 c0 -83 4 -135 10 -135 6 0 10 25 10 56 0 48 2 55 14 45 24
-20 75 -16 98 6 28 28 30 113 3 143 -20 22 -64 26 -96 10 -13 -7 -19 -7 -19 0
0 5 -4 10 -10 10 -6 0 -10 -52 -10 -135z m120 96 c25 -47 -1 -131 -41 -131
-43 0 -68 61 -48 118 9 27 16 32 45 32 23 0 37 -6 44 -19z"/>
<path d="M840 3015 c0 -83 4 -135 10 -135 6 0 10 25 10 55 l0 55 24 -15 c29
-20 71 -11 91 18 20 28 19 107 -1 135 -17 25 -81 31 -102 10 -9 -9 -12 -9 -12
0 0 7 -4 12 -10 12 -6 0 -10 -52 -10 -135z m114 93 c25 -36 16 -98 -18 -120
-50 -33 -99 60 -66 123 15 27 64 25 84 -3z"/>
<path d="M1080 3060 c0 -70 3 -90 14 -90 10 0 14 15 14 58 0 72 14 102 47 102
14 0 25 5 25 10 0 16 -42 12 -62 -7 -17 -15 -18 -15 -18 0 0 10 -4 17 -10 17
-6 0 -10 -37 -10 -90z"/>
<path d="M1261 3124 c-29 -37 -28 -95 3 -130 30 -36 91 -38 118 -4 26 32 24
114 -2 140 -31 31 -93 27 -119 -6z m108 -25 c20 -36 7 -97 -24 -111 -19 -9
-29 -7 -50 6 -21 14 -25 24 -25 64 0 27 6 54 12 60 21 21 71 10 87 -19z"/>
<path d="M1472 3138 c75 -208 78 -210 125 -78 23 63 28 90 19 90 -7 0 -23 -33
-36 -75 -13 -41 -26 -75 -30 -75 -3 0 -17 34 -31 75 -14 44 -30 75 -38 75 -7
0 -11 -6 -9 -12z"/>
<path d="M1717 3143 c-15 -15 -5 -21 21 -13 37 10 62 -4 62 -35 0 -23 -4 -25
-45 -25 -36 0 -48 -5 -61 -25 -34 -52 19 -100 79 -70 20 10 33 12 35 5 2 -5 8
-10 13 -10 5 0 9 30 9 68 0 86 -16 112 -69 112 -21 0 -41 -3 -44 -7z m83 -105
c0 -44 -50 -74 -78 -46 -30 30 -3 67 51 68 21 0 27 -5 27 -22z"/>
<path d="M500 2575 c0 -33 -1 -34 -30 -28 -19 3 -30 1 -30 -6 0 -6 11 -11 25
-11 29 0 31 -8 10 -36 -19 -25 -19 -34 0 -34 8 0 17 11 21 25 3 14 10 25 14
25 4 0 11 -11 14 -25 4 -14 13 -25 21 -25 19 0 19 9 0 34 -22 29 -19 36 15 36
22 0 28 4 24 15 -5 11 -11 12 -24 5 -31 -17 -40 -11 -40 25 0 19 -4 35 -10 35
-5 0 -10 -16 -10 -35z"/>
<path d="M820 2575 c0 -33 -1 -34 -30 -28 -19 3 -30 1 -30 -6 0 -6 11 -11 25
-11 29 0 31 -8 10 -36 -19 -25 -19 -34 0 -34 8 0 17 11 21 25 8 33 19 32 34
-6 9 -20 16 -27 23 -20 7 7 5 18 -7 35 -22 34 -21 36 15 36 20 0 29 4 26 13
-2 6 -11 10 -18 8 -8 -2 -22 -6 -31 -8 -15 -4 -18 1 -18 31 0 20 -4 36 -10 36
-5 0 -10 -16 -10 -35z"/>
<path d="M1140 2576 c0 -40 1 -40 -34 -26 -21 7 -26 6 -26 -5 0 -9 10 -15 25
-15 29 0 31 -8 10 -36 -19 -25 -19 -34 0 -34 8 0 17 11 21 25 8 33 19 32 34
-6 9 -20 16 -27 23 -20 7 7 5 18 -7 35 -22 34 -21 36 14 36 17 0 30 5 30 11 0
7 -12 9 -36 5 -35 -7 -36 -7 -32 25 2 20 -2 34 -9 36 -9 3 -13 -7 -13 -31z"/>
<path d="M1470 2575 c0 -39 1 -39 -34 -25 -21 7 -26 6 -26 -5 0 -9 10 -15 25
-15 29 0 31 -8 10 -36 -19 -25 -19 -34 0 -34 8 0 17 11 21 25 8 33 19 32 34
-6 8 -19 16 -27 23 -20 6 6 4 17 -7 32 -23 33 -20 39 14 39 17 0 30 5 30 11 0
7 -12 9 -35 5 -35 -7 -35 -7 -35 29 0 19 -4 35 -10 35 -5 0 -10 -16 -10 -35z"/>
<path d="M1790 2575 c0 -39 1 -39 -34 -25 -21 7 -26 6 -26 -5 0 -9 10 -15 25
-15 29 0 31 -8 10 -36 -18 -24 -19 -34 -2 -34 8 0 19 12 26 28 l13 27 17 -34
c12 -22 21 -30 25 -22 4 7 1 23 -8 36 -22 33 -21 35 14 35 17 0 30 5 30 11 0
8 -12 10 -35 6 -34 -6 -35 -5 -35 29 0 19 -4 34 -10 34 -5 0 -10 -16 -10 -35z"/>
<path d="M2110 2575 c0 -39 1 -39 -34 -25 -21 7 -26 6 -26 -5 0 -9 10 -15 25
-15 29 0 31 -8 10 -36 -18 -24 -19 -34 -2 -34 8 0 19 12 26 28 l13 27 17 -34
c12 -22 21 -30 25 -22 4 7 1 23 -8 36 -22 33 -21 35 14 35 20 0 30 5 30 15 0
11 -5 12 -26 5 -42 -16 -47 -13 -41 25 4 26 2 35 -9 35 -9 0 -14 -11 -14 -35z"/>
<path d="M2440 2575 c0 -39 1 -39 -34 -25 -21 7 -26 6 -26 -5 0 -9 10 -15 25
-15 29 0 31 -8 10 -36 -18 -24 -19 -34 -2 -34 8 0 19 12 26 28 l13 27 17 -34
c12 -22 21 -30 25 -22 4 7 1 23 -8 36 -22 33 -21 35 14 35 17 0 30 5 30 11 0
7 -12 9 -35 5 -35 -7 -35 -7 -35 29 0 19 -4 35 -10 35 -5 0 -10 -16 -10 -35z"/>
<path d="M2760 2575 c0 -33 -1 -34 -30 -28 -19 3 -30 1 -30 -6 0 -6 11 -11 25
-11 29 0 31 -8 10 -36 -18 -24 -19 -34 -2 -34 8 0 19 12 26 28 l13 27 17 -34
c12 -22 21 -30 25 -22 4 7 1 23 -8 36 -22 33 -21 35 14 35 20 0 30 5 30 15 0
11 -5 12 -26 5 -42 -16 -47 -13 -41 25 4 26 2 35 -9 35 -9 0 -14 -11 -14 -35z"/>
<path d="M3080 2576 c0 -40 1 -40 -34 -26 -21 7 -26 6 -26 -5 0 -9 10 -15 25
-15 28 0 33 -21 10 -40 -19 -15 -19 -30 -2 -30 8 0 19 12 26 28 l13 27 17 -34
c12 -22 21 -30 25 -22 4 7 1 23 -8 36 -22 33 -21 35 14 35 20 0 30 5 30 15 0
11 -5 12 -26 5 -40 -15 -46 -12 -42 22 2 19 -2 33 -9 35 -9 3 -13 -7 -13 -31z"/>
<path d="M3403 2575 l6 -36 -35 7 c-22 4 -34 2 -34 -5 0 -6 11 -11 25 -11 28
0 33 -21 10 -40 -19 -16 -19 -30 0 -30 9 0 20 12 26 28 l11 27 17 -34 c12 -22
21 -30 25 -22 4 7 1 23 -8 36 -22 33 -21 35 14 35 20 0 30 5 30 15 0 11 -5 12
-26 5 -42 -16 -47 -13 -41 25 5 28 2 35 -10 35 -12 0 -14 -7 -10 -35z"/>
<path d="M3730 2575 c0 -39 1 -39 -34 -25 -21 7 -26 6 -26 -5 0 -9 10 -15 25
-15 28 0 33 -21 10 -40 -19 -15 -19 -30 -2 -30 8 0 19 12 26 28 l13 27 17 -34
c12 -22 21 -30 25 -22 4 7 1 23 -8 36 -22 33 -21 35 14 35 20 0 30 5 30 15 0
11 -5 12 -26 5 -42 -16 -47 -13 -41 25 4 26 2 35 -9 35 -9 0 -14 -11 -14 -35z"/>
<path d="M4053 2575 c6 -38 2 -40 -37 -25 -20 7 -26 6 -26 -5 0 -8 12 -15 31
-17 l31 -3 -21 -27 c-25 -31 -26 -38 -6 -38 9 0 20 12 26 28 l11 27 17 -34
c12 -22 21 -30 25 -22 4 7 1 23 -8 36 -22 33 -21 35 14 35 20 0 30 5 30 15 0
11 -5 12 -26 5 -42 -16 -47 -13 -41 25 5 28 2 35 -10 35 -12 0 -14 -7 -10 -35z"/>
<path d="M4374 2574 l7 -35 -35 7 c-24 4 -36 2 -36 -5 0 -6 11 -11 25 -11 29
0 31 -11 9 -45 -15 -23 -15 -25 0 -25 9 0 21 12 27 28 l11 27 18 -35 c15 -29
20 -32 25 -17 5 11 1 25 -9 36 -23 25 -20 31 14 31 20 0 30 5 30 15 0 11 -5
12 -26 5 -42 -16 -47 -13 -40 25 6 29 4 35 -10 35 -13 0 -15 -6 -10 -36z"/>
<path d="M4703 2575 l6 -36 -35 7 c-22 4 -34 2 -34 -5 0 -6 11 -11 25 -11 28
0 33 -21 10 -40 -12 -10 -13 -16 -3 -27 9 -12 14 -8 25 19 l14 33 15 -27 c8
-16 19 -28 24 -28 14 0 12 13 -5 36 -21 28 -18 34 15 34 20 0 30 5 30 15 0 11
-5 12 -26 5 -42 -16 -47 -13 -41 25 5 28 2 35 -10 35 -12 0 -14 -7 -10 -35z"/>
<path d="M5024 2574 l7 -35 -35 7 c-24 4 -36 2 -36 -5 0 -6 11 -11 25 -11 25
0 35 -23 15 -35 -13 -8 -13 -35 0 -35 6 0 15 12 21 28 l11 27 18 -35 c15 -29
20 -32 25 -17 5 11 1 25 -9 36 -23 25 -20 31 14 31 20 0 30 5 30 15 0 11 -5
12 -26 5 -42 -16 -47 -13 -40 25 6 29 4 35 -10 35 -13 0 -15 -6 -10 -36z"/>
<path d="M5344 2574 l7 -35 -35 7 c-24 4 -36 2 -36 -5 0 -6 14 -11 30 -11 33
0 38 -11 15 -30 -17 -14 -20 -40 -5 -40 6 0 15 12 21 28 l11 27 18 -35 c15
-29 20 -32 25 -17 5 11 1 25 -9 36 -23 25 -20 31 14 31 20 0 30 5 30 15 0 11
-5 12 -26 5 -42 -16 -47 -13 -40 25 6 29 4 35 -10 35 -13 0 -15 -6 -10 -36z"/>
<path d="M5667 2604 c-3 -4 -3 -20 0 -36 6 -29 5 -29 -31 -23 -24 5 -36 3 -36
-4 0 -6 14 -11 30 -11 33 0 38 -11 15 -30 -17 -14 -20 -40 -5 -40 5 0 16 12
24 28 l14 27 11 -27 c6 -16 18 -28 27 -28 13 0 12 5 -6 35 l-22 35 31 0 c21 0
31 5 31 15 0 11 -5 12 -26 5 -40 -15 -44 -12 -38 25 5 32 -3 44 -19 29z"/>
<path d="M5996 2574 l6 -35 -36 6 c-24 5 -36 3 -36 -4 0 -6 14 -11 30 -11 33
0 38 -11 15 -30 -17 -14 -20 -40 -5 -40 6 0 15 12 21 28 l11 27 14 -27 c8 -16
19 -28 24 -28 15 0 12 26 -5 40 -23 19 -18 30 15 30 20 0 30 5 30 15 0 11 -5
12 -26 5 -42 -16 -47 -13 -40 25 6 28 4 35 -9 35 -13 0 -15 -7 -9 -36z"/>
<path d="M6317 2604 c-3 -4 -3 -20 0 -36 6 -29 5 -29 -31 -23 -24 5 -36 3 -36
-4 0 -6 14 -11 30 -11 33 0 38 -11 15 -30 -17 -14 -20 -40 -5 -40 5 0 16 12
24 28 l14 27 11 -27 c6 -16 15 -28 21 -28 15 0 12 26 -5 40 -23 19 -18 30 15
30 20 0 30 5 30 15 0 11 -5 12 -26 5 -42 -16 -47 -13 -40 25 6 32 -1 44 -17
29z"/>
<path d="M6639 2603 c-1 -5 0 -21 1 -36 2 -27 0 -28 -34 -21 -24 4 -36 2 -36
-5 0 -6 14 -11 30 -11 35 0 36 -2 14 -35 -9 -13 -12 -29 -8 -36 4 -8 13 0 25
22 l17 34 13 -27 c7 -16 18 -28 26 -28 17 0 17 15 -2 30 -23 19 -18 40 10 40
15 0 25 6 25 15 0 11 -5 12 -26 5 -39 -15 -43 -13 -37 25 4 23 2 35 -6 35 -6
0 -11 -3 -12 -7z"/>
<path d="M6967 2604 c-3 -4 -3 -20 0 -36 6 -29 5 -29 -31 -23 -24 5 -36 3 -36
-4 0 -6 14 -11 30 -11 34 0 37 -6 14 -31 -10 -11 -14 -25 -9 -36 5 -15 10 -12
25 17 l18 35 11 -27 c6 -16 15 -28 21 -28 15 0 12 26 -5 40 -23 19 -18 30 15
30 20 0 30 5 30 15 0 11 -5 12 -26 5 -42 -16 -47 -13 -40 25 6 32 -1 44 -17
29z"/>
<path d="M7289 2603 c-1 -5 0 -21 1 -36 2 -27 0 -28 -34 -21 -24 4 -36 2 -36
-5 0 -6 14 -11 30 -11 33 0 36 -6 15 -34 -17 -23 -19 -36 -5 -36 5 0 16 12 24
27 l14 28 13 -28 c7 -15 15 -27 19 -27 18 0 17 15 -1 39 l-21 26 31 3 c19 2
31 9 31 17 0 11 -6 12 -26 5 -39 -15 -43 -13 -37 25 4 23 2 35 -6 35 -6 0 -11
-3 -12 -7z"/>
<path d="M7609 2603 c-1 -5 0 -21 1 -36 2 -27 0 -28 -34 -21 -24 4 -36 2 -36
-5 0 -6 14 -11 30 -11 33 0 36 -6 15 -34 -17 -23 -19 -36 -5 -36 5 0 16 12 24
27 l14 28 13 -28 c7 -15 18 -27 26 -27 17 0 17 15 -2 30 -23 19 -18 40 10 40
15 0 25 6 25 15 0 11 -5 12 -26 5 -39 -15 -43 -13 -37 25 4 23 2 35 -6 35 -6
0 -11 -3 -12 -7z"/>
<path d="M7939 2603 c-1 -5 0 -21 1 -36 2 -27 0 -28 -34 -21 -24 4 -36 2 -36
-5 0 -6 14 -11 30 -11 33 0 36 -6 15 -34 -17 -23 -19 -36 -5 -36 5 0 16 12 24
27 l14 28 13 -28 c7 -15 16 -27 21 -27 13 0 9 27 -7 40 -23 19 -18 30 15 30
20 0 30 5 30 15 0 11 -5 12 -26 5 -40 -15 -44 -12 -38 25 3 22 1 35 -5 35 -6
0 -11 -3 -12 -7z"/>
<path d="M2890 2015 c0 -22 4 -25 35 -25 l35 0 0 -115 0 -115 30 0 30 0 0 115
0 115 35 0 c31 0 35 3 35 25 l0 25 -100 0 -100 0 0 -25z"/>
<path d="M3170 1901 l0 -141 28 0 c26 0 27 1 27 57 l0 58 55 0 55 0 0 -58 c0
-56 1 -57 28 -57 l28 0 -3 138 -3 137 -25 0 c-23 0 -24 -3 -21 -52 l2 -53 -61
0 -61 0 2 53 c3 50 2 52 -24 55 l-27 3 0 -140z"/>
<path d="M3516 1907 c-25 -73 -46 -136 -46 -140 0 -4 13 -7 28 -7 23 0 30 6
37 33 10 31 12 32 60 32 47 0 50 -1 59 -32 7 -28 14 -33 39 -33 19 0 28 4 25
13 -3 6 -24 69 -47 140 l-43 127 -32 0 -33 0 -47 -133z m113 -24 c1 -8 -12
-13 -34 -13 -19 0 -35 3 -35 6 0 3 7 31 17 62 l16 57 18 -50 c9 -27 18 -56 18
-62z"/>
<path d="M3797 2034 c-4 -4 -7 -67 -7 -141 l0 -133 25 0 25 0 0 102 c0 64 4
98 9 93 6 -6 32 -50 59 -100 47 -85 52 -90 86 -93 l36 -3 0 141 c0 141 0 141
-22 138 -22 -3 -23 -7 -23 -101 0 -53 -2 -97 -5 -97 -4 0 -31 44 -61 98 -48
86 -57 97 -84 100 -17 2 -34 0 -38 -4z"/>
<path d="M4140 1901 l0 -141 28 0 c26 0 28 3 24 30 -6 40 5 80 22 80 8 0 29
-25 46 -55 27 -47 36 -55 61 -55 34 0 34 2 -28 99 l-34 53 45 59 c25 33 46 61
46 64 0 3 -11 5 -24 5 -28 0 -42 -12 -87 -75 -18 -25 -36 -45 -41 -45 -5 0 -8
26 -7 58 3 55 2 57 -24 60 l-27 3 0 -140z"/>
<path d="M4539 2035 c-4 -3 13 -42 37 -88 35 -66 43 -92 44 -134 0 -50 2 -53
25 -53 23 0 25 3 25 53 1 42 9 68 44 135 34 64 41 85 30 89 -25 9 -43 -5 -69
-58 -15 -28 -29 -48 -33 -45 -3 4 -18 28 -32 54 -23 43 -55 64 -71 47z"/>
<path d="M4893 2024 c-57 -28 -81 -123 -49 -198 20 -48 51 -66 113 -66 44 0
58 5 85 29 28 25 32 35 36 93 3 47 0 74 -12 96 -30 58 -107 78 -173 46z m113
-55 c29 -32 26 -125 -5 -150 -30 -24 -52 -24 -85 2 -22 17 -26 28 -26 73 0 66
20 96 64 96 21 0 40 -8 52 -21z"/>
<path d="M5180 1933 c0 -140 18 -172 98 -173 97 0 126 44 120 190 -3 83 -4 85
-28 85 -25 0 -25 -1 -30 -108 -4 -81 -9 -110 -20 -117 -21 -14 -43 -12 -66 4
-16 12 -20 30 -24 118 -5 98 -6 103 -27 104 -22 1 -23 -1 -23 -103z"/>
<path d="M5490 1998 c0 -91 12 -148 30 -148 14 0 18 14 24 86 3 47 4 90 1 95
-4 5 -17 9 -31 9 -22 0 -24 -4 -24 -42z"/>
<path d="M5503 1813 c-7 -2 -13 -16 -13 -29 0 -19 5 -24 25 -24 30 0 43 24 25
45 -13 16 -17 17 -37 8z"/>
<path d="M1830 810 l0 -420 30 0 30 0 0 420 0 420 -30 0 -30 0 0 -420z"/>
<path d="M2000 810 l0 -420 80 0 80 0 0 420 0 420 -80 0 -80 0 0 -420z"/>
<path d="M2300 810 l0 -420 35 0 35 0 0 420 0 420 -35 0 -35 0 0 -420z"/>
<path d="M2400 810 l0 -420 170 0 170 0 0 420 0 420 -170 0 -170 0 0 -420z"/>
<path d="M2770 810 c0 -364 2 -420 15 -420 13 0 15 57 17 420 3 394 2 420 -14
420 -17 0 -18 -27 -18 -420z"/>
<path d="M2872 813 l3 -418 33 -3 32 -3 0 420 0 421 -35 0 -35 0 2 -417z"/>
<path d="M2980 810 l0 -420 115 0 115 0 0 420 0 420 -115 0 -115 0 0 -420z"/>
<path d="M3280 810 l0 -420 115 0 115 0 0 420 0 420 -115 0 -115 0 0 -420z"/>
<path d="M3650 810 l0 -420 135 0 135 0 0 420 0 420 -135 0 -135 0 0 -420z"/>
<path d="M4060 810 l0 -420 30 0 30 0 0 420 0 420 -30 0 -30 0 0 -420z"/>
<path d="M4190 810 l0 -421 115 3 115 3 3 418 2 417 -117 0 -118 0 0 -420z"/>
<path d="M4560 810 c0 -367 2 -420 15 -420 13 0 15 53 15 420 0 367 -2 420
-15 420 -13 0 -15 -53 -15 -420z"/>
<path d="M4630 810 c0 -367 2 -420 15 -420 13 0 15 53 15 420 0 367 -2 420
-15 420 -13 0 -15 -53 -15 -420z"/>
<path d="M4730 810 l0 -420 35 0 35 0 0 420 0 420 -35 0 -35 0 0 -420z"/>
<path d="M4830 810 l0 -420 150 0 150 0 0 420 0 420 -150 0 -150 0 0 -420z"/>
<path d="M5170 810 c0 -367 2 -420 15 -420 13 0 15 53 15 420 0 367 -2 420
-15 420 -13 0 -15 -53 -15 -420z"/>
<path d="M5240 810 l0 -420 100 0 100 0 0 420 0 420 -100 0 -100 0 0 -420z"/>
<path d="M5472 813 l3 -418 48 -3 47 -3 0 420 0 421 -50 0 -50 0 2 -417z"/>
<path d="M5640 810 l0 -420 50 0 50 0 0 420 0 420 -50 0 -50 0 0 -420z"/>
<path d="M5810 810 l0 -420 35 0 35 0 0 420 0 420 -35 0 -35 0 0 -420z"/>
<path d="M5980 810 l0 -420 100 0 100 0 0 420 0 420 -100 0 -100 0 0 -420z"/>
<path d="M6220 810 l0 -420 30 0 30 0 0 420 0 420 -30 0 -30 0 0 -420z"/>
<path d="M6320 810 c0 -367 2 -420 15 -420 13 0 15 53 15 420 0 367 -2 420
-15 420 -13 0 -15 -53 -15 -420z"/>
<path d="M6420 810 l0 -420 50 0 50 0 0 420 0 420 -50 0 -50 0 0 -420z"/>
<path d="M6590 810 l0 -420 30 0 30 0 0 420 0 420 -30 0 -30 0 0 -420z"/>
</g>
</svg>
